<svg xmlns="http://www.w3.org/2000/svg" width="17.75" height="15.194" viewBox="0 0 17.75 15.194">
  <g id="abc" transform="translate(-3887 856)">
    <g id="Group_18169" data-name="Group 18169" transform="translate(10581 -15631.499)">
      <g id="Group_18168" data-name="Group 18168">
        <g id="Group_18158" data-name="Group 18158" transform="translate(-6699 14771)">
          <path id="Path_88785" data-name="Path 88785" d="M11,6H21.386" transform="translate(0.614 0.499)" fill="none" stroke="#2d2d2d" stroke-linecap="round" stroke-linejoin="round" stroke-width="1.5"/>
          <path id="Path_88786" data-name="Path 88786" d="M11,12H21.386" transform="translate(0.614 0.499)" fill="none" stroke="#2d2d2d" stroke-linecap="round" stroke-linejoin="round" stroke-width="1.5"/>
          <path id="Path_88787" data-name="Path 88787" d="M11,18H21.386" transform="translate(0.614 -0.501)" fill="none" stroke="#2d2d2d" stroke-linecap="round" stroke-linejoin="round" stroke-width="1.5"/>
        </g>
      </g>
    </g>
    <g id="Group_17119" data-name="Group 17119" transform="translate(0 1)">
      <path id="Path_88357" data-name="Path 88357" d="M1.6-.523a.872.872,0,0,0,.124.006A1.5,1.5,0,0,0,2.742-.9c.148.189.283.289.4.289h.112a.184.184,0,0,0,.183-.183v-2.8a.221.221,0,0,0-.212-.218H3.084a.545.545,0,0,0-.431.218A1.539,1.539,0,0,0,1.6-3.9,1.478,1.478,0,0,0,.251-2.389H.245v.277A1.491,1.491,0,0,0,1.6-.523Zm.242-2.538a.654.654,0,0,1,.708.661v.378a.654.654,0,0,1-.708.661.674.674,0,0,1-.726-.661V-2.4A.674.674,0,0,1,1.845-3.062Z" transform="translate(3886.755 -853.095)" fill="#2d2d2d"/>
      <path id="Path_88358" data-name="Path 88358" d="M2.05-.766a.872.872,0,0,0,.124-.006A1.483,1.483,0,0,0,3.532-2.359h.006v-.272H3.532A1.485,1.485,0,0,0,2.174-4.148a1.6,1.6,0,0,0-.95.236v-1.4a.174.174,0,0,0-.177-.177H.527a.178.178,0,0,0-.177.177v4.268A.183.183,0,0,0,.527-.86H.645c.112,0,.242-.094.4-.283A1.516,1.516,0,0,0,2.05-.766ZM1.932-3.286a.674.674,0,0,1,.726.667v.325a.674.674,0,0,1-.726.667.666.666,0,0,1-.708-.667v-.331A.661.661,0,0,1,1.932-3.286Z" transform="translate(3886.65 -846.452)" fill="#2d2d2d"/>
      <path id="Path_88359" data-name="Path 88359" d="M1.839-.525a1.621,1.621,0,0,0,1.234-.549A.178.178,0,0,0,3.084-1.3l-.272-.354a.176.176,0,0,0-.142-.071.183.183,0,0,0-.13.053.945.945,0,0,1-.7.3.779.779,0,0,1-.756-.714v-.3a.7.7,0,0,1,.738-.673.933.933,0,0,1,.537.165.16.16,0,0,0,.1.035.183.183,0,0,0,.13-.053l.354-.354a.182.182,0,0,0-.006-.266,1.709,1.709,0,0,0-1.1-.384A1.566,1.566,0,0,0,.245-2.343v.2A1.553,1.553,0,0,0,1.839-.525Z" transform="translate(3886.755 -841.281)" fill="#2d2d2d"/>
    </g>
  </g>
</svg>
