<svg xmlns="http://www.w3.org/2000/svg" width="48" height="48" viewBox="0 0 48 48">
  <g id="Group_8968" data-name="Group 8968" transform="translate(-715.781 -88.781)">
    <rect id="Rectangle_15602" data-name="Rectangle 15602" width="48" height="48" rx="6" transform="translate(715.781 88.781)" fill="#14d2b9"/>
    <path id="Path_58632" data-name="Path 58632" d="M4.486,2H28.268a1.486,1.486,0,0,1,1.486,1.486V30.24a1.486,1.486,0,0,1-1.486,1.486H4.486A1.486,1.486,0,0,1,3,30.24V3.486A1.486,1.486,0,0,1,4.486,2ZM5.973,4.973V28.754H26.781V4.973ZM8.945,7.945H23.809v5.945H8.945Zm0,8.918h2.973v2.973H8.945Zm0,5.945h2.973v2.973H8.945Zm5.945-5.945h2.973v2.973H14.891Zm0,5.945h2.973v2.973H14.891Zm5.945-5.945h2.973v8.918H20.836Z" transform="translate(723.404 95.918)" fill="#fff"/>
  </g>
</svg>
