<svg xmlns="http://www.w3.org/2000/svg" width="32" height="32" viewBox="0 0 32 32">
  <g id="Group_8952" data-name="Group 8952" transform="translate(-210 -165)">
    <rect id="Rectangle_15604" data-name="Rectangle 15604" width="32" height="32" rx="6" transform="translate(210 165)" fill="#0f6a62"/>
    <path id="Path_58633" data-name="Path 58633" d="M12.414,5H21a1,1,0,0,1,1,1V20a1,1,0,0,1-1,1H3a1,1,0,0,1-1-1V4A1,1,0,0,1,3,3h7.414ZM4,5V19H20V7H11.586l-2-2Zm7,4h2v8H11Zm4,3h2v5H15ZM7,14H9v3H7Z" transform="translate(214 169)" fill="#fafafa"/>
  </g>
</svg>
