<svg xmlns="http://www.w3.org/2000/svg" width="32" height="32" viewBox="0 0 32 32">
  <g id="Group_16943" data-name="Group 16943" transform="translate(-1264 -2249)">
    <rect id="Rectangle_16053" data-name="Rectangle 16053" width="32" height="32" rx="6" transform="translate(1264 2249)" fill="#31bdfa"/>
    <g id="Group_16942" data-name="Group 16942" transform="translate(1271 2257)">
      <g id="Group_16941" data-name="Group 16941" transform="translate(2 0)">
        <path id="Path_88324" data-name="Path 88324" d="M16.589,4.409,12.452.4A1.366,1.366,0,0,0,11.5.02L3.714,0A1.708,1.708,0,0,0,2,1.7v14a1.741,1.741,0,0,0,1.73,1.7H15.253a1.689,1.689,0,0,0,1.669-1.706V5.221a1.116,1.116,0,0,0-.334-.812ZM12.435,2.281l2.138,2.067H12.805a.36.36,0,0,1-.371-.326Zm2.818,13.76H3.73a.377.377,0,0,1-.371-.347V1.7a.358.358,0,0,1,.353-.34l7.363.02V4.021a1.71,1.71,0,0,0,1.73,1.686h2.756v9.987a.327.327,0,0,1-.309.347Z" transform="translate(-2 0)" fill="#fafafa"/>
        <path id="Path_88325" data-name="Path 88325" d="M8.305,7.167a.682.682,0,0,0-.68.68v7.342a.68.68,0,0,0,1.36,0V7.847a.682.682,0,0,0-.68-.68Zm2.719,1.768a.682.682,0,0,0-.68.679v5.575a.68.68,0,0,0,1.36,0V9.614a.682.682,0,0,0-.68-.679ZM13.744,10.7a.682.682,0,0,0-.68.68v3.807a.68.68,0,0,0,1.36,0V11.382a.682.682,0,0,0-.68-.68Z" transform="translate(-3.546 -1.97)" fill="#fafafa"/>
      </g>
    </g>
  </g>
</svg>
