<svg xmlns="http://www.w3.org/2000/svg" width="48" height="48" viewBox="0 0 48 48">
  <g id="Group_8969" data-name="Group 8969" transform="translate(-1035.977 -88.977)">
    <rect id="Rectangle_15603" data-name="Rectangle 15603" width="48" height="48" rx="6" transform="translate(1035.977 88.977)" fill="#fbb946"/>
    <path id="Path_58634" data-name="Path 58634" d="M3.5,29.974a1.5,1.5,0,0,1-1.5-1.5V4.5A1.5,1.5,0,0,1,3.5,3H14.609l3,3H28.974a1.5,1.5,0,0,1,1.5,1.5v4.5h-3v-3H16.365l-3-3H5v17.98l2.248-8.988H32.721l-3.463,13.85A1.5,1.5,0,0,1,27.8,29.974ZM28.882,17.986H9.585L7.337,26.977h19.3Z" transform="translate(1042.992 96.49)" fill="#fff"/>
  </g>
</svg>
