<svg xmlns="http://www.w3.org/2000/svg" width="48" height="48" viewBox="0 0 48 48">
  <g id="Group_8976" data-name="Group 8976" transform="translate(-698.95 -363.95)">
    <rect id="Rectangle_15607" data-name="Rectangle 15607" width="48" height="48" rx="6" transform="translate(698.95 363.95)" fill="#4854e8"/>
    <path id="Path_58640" data-name="Path 58640" d="M16.045,24.048c5.383,0,10.091,2.315,12.651,5.769L25.989,31.1a13.031,13.031,0,0,0-9.944-4.11A13.031,13.031,0,0,0,6.1,31.1L3.395,29.816C5.955,26.363,10.662,24.048,16.045,24.048ZM16.045,2a7.349,7.349,0,0,1,7.349,7.349v4.41A7.35,7.35,0,0,1,16.364,21.1l-.319.007A7.349,7.349,0,0,1,8.7,13.759V9.349a7.35,7.35,0,0,1,7.031-7.343Zm0,2.94a4.41,4.41,0,0,0-4.4,4.151l-.007.259v4.41a4.41,4.41,0,0,0,8.812.259l.007-.259V9.349A4.41,4.41,0,0,0,16.045,4.94Z" transform="translate(706.327 371.252)" fill="#fff"/>
  </g>
</svg>
