<svg xmlns="http://www.w3.org/2000/svg" width="48" height="48" viewBox="0 0 48 48">
  <g id="Group_8972" data-name="Group 8972" transform="translate(-396.892 -230.892)">
    <rect id="Rectangle_15598" data-name="Rectangle 15598" width="48" height="48" rx="6" transform="translate(396.892 230.892)" fill="#194768"/>
    <path id="Path_58703" data-name="Path 58703" d="M12.946,5.48h8.132a1.494,1.494,0,0,1,1.266.7L27.5,14.439h6.582a.747.747,0,0,1,.656,1.1L28.828,26.385h-.95a8.974,8.974,0,0,1-2.292-.3l4.726-8.663H4.584l1.565,8.7a8.977,8.977,0,0,1-2.163.263H3.172L1.32,16.2a1.493,1.493,0,0,1,1.469-1.76h1.2V6.973A1.493,1.493,0,0,1,5.48,5.48H6.973V1h5.973ZM6.973,14.439h17.01L20.25,8.466H6.973ZM3.986,29.371A8.926,8.926,0,0,0,9.959,27.09a8.96,8.96,0,0,0,11.946,0,8.926,8.926,0,0,0,5.973,2.281h2.986v2.986H27.878a11.891,11.891,0,0,1-5.973-1.6,11.96,11.96,0,0,1-11.946,0,11.891,11.891,0,0,1-5.973,1.6H1V29.371Z" transform="translate(401.973 237.466)" fill="#fff"/>
  </g>
</svg>
