<svg xmlns="http://www.w3.org/2000/svg" width="48" height="48" viewBox="0 0 48 48">
  <g id="Group_8966" data-name="Group 8966" transform="translate(-397.233 -89.233)">
    <rect id="Rectangle_15601" data-name="Rectangle 15601" width="48" height="48" rx="6" transform="translate(397.233 89.233)" fill="#9f548b"/>
    <path id="Path_58676" data-name="Path 58676" d="M4,32.805a12.116,12.116,0,0,1,24.233,0Zm13.631-8.962v5.932h7.056A9.1,9.1,0,0,0,17.631,23.844ZM14.6,29.776V23.844a9.1,9.1,0,0,0-7.056,5.932Zm1.515-10.6A9.087,9.087,0,1,1,25.2,10.087,9.085,9.085,0,0,1,16.116,19.174Zm0-3.029a6.058,6.058,0,1,0-6.058-6.058A6.056,6.056,0,0,0,16.116,16.145Z" transform="translate(405.116 95.573)" fill="#fff"/>
  </g>
</svg>
