<svg xmlns="http://www.w3.org/2000/svg" width="48" height="48" viewBox="0 0 48 48">
  <g id="Group_8975" data-name="Group 8975" transform="translate(-396.826 -372.826)">
    <rect id="Rectangle_15608" data-name="Rectangle 15608" width="48" height="48" rx="6" transform="translate(396.826 372.826)" fill="#166f67"/>
    <path id="Path_58678" data-name="Path 58678" d="M6.961,12.014A1.489,1.489,0,0,1,8.451,13.5,10.379,10.379,0,0,1,14.9,15.736H18.13a6.684,6.684,0,0,1,4.993,2.232l4.686,0a7.446,7.446,0,0,1,6.725,4.246,19.59,19.59,0,0,1-15.66,7.667A21.525,21.525,0,0,1,8.36,27.415a1.487,1.487,0,0,1-1.4.98H2.494A1.489,1.489,0,0,1,1,26.906V13.5a1.489,1.489,0,0,1,1.489-1.489Zm1.491,4.468,0,7.477.068.05a17.7,17.7,0,0,0,10.357,2.9,16.729,16.729,0,0,0,11.668-4.66l.2-.2-.178-.15a4.458,4.458,0,0,0-2.448-.938l-.305-.01H24.665a6.725,6.725,0,0,1,.166,1.491v1.489h-13.4V20.949H21.54l-.051-.117a3.724,3.724,0,0,0-3.114-2.107l-.245-.008H13.768A7.423,7.423,0,0,0,8.452,16.482Zm-2.98-1.489H3.983V25.417H5.472ZM19.837,3.936l.526.527.527-.527A3.723,3.723,0,1,1,26.155,9.2l-5.791,5.792L14.572,9.2a3.723,3.723,0,0,1,5.265-5.265ZM16.678,6.042a.745.745,0,0,0-.087.949l.086.1,3.686,3.686L24.049,7.1a.745.745,0,0,0,.086-.95l-.086-.1a.745.745,0,0,0-.95-.086l-.1.086L20.361,8.676,17.73,6.04l-.1-.085A.745.745,0,0,0,16.678,6.042Z" transform="translate(401.952 379.089)" fill="#fff"/>
  </g>
</svg>
