<svg xmlns="http://www.w3.org/2000/svg" width="48" height="48" viewBox="0 0 48 48">
  <g id="Group_8973" data-name="Group 8973" transform="translate(-715.585 -230.585)">
    <rect id="Rectangle_15600" data-name="Rectangle 15600" width="48" height="48" rx="6" transform="translate(715.585 230.585)" fill="#f85921"/>
    <path id="Path_58616" data-name="Path 58616" d="M4.064,5.371a9.582,9.582,0,0,1,13.03-.483A9.581,9.581,0,0,1,30.622,18.381L19.177,29.866a2.948,2.948,0,0,1-4.008.15l-.161-.15L3.563,18.381A9.582,9.582,0,0,1,4.064,5.371ZM6.148,7.456a6.634,6.634,0,0,0-.216,9.155l.216.226L17.093,27.781l7.816-7.818L19.7,14.752l-1.563,1.564a4.422,4.422,0,0,1-6.254-6.254l3.1-3.1a6.635,6.635,0,0,0-8.6.278Zm12.508,4.169a1.474,1.474,0,0,1,2.085,0l6.253,6.253,1.043-1.041a6.633,6.633,0,0,0-9.155-9.6l-.226.216-4.69,4.69a1.474,1.474,0,0,0-.115,1.956l.115.129a1.474,1.474,0,0,0,1.956.115l.129-.115Z" transform="translate(722.492 237.938)" fill="#fafafa"/>
  </g>
</svg>
