<svg xmlns="http://www.w3.org/2000/svg" width="50.24" height="55.76" viewBox="0 0 50.24 55.76">
  <g id="Group_8733" data-name="Group 8733" transform="translate(-6.88 -4.12)">
    <g id="Group_8732" data-name="Group 8732">
      <path id="Path_59228" data-name="Path 59228" d="M47.75,26.38a1,1,0,0,1-1,1H17.25a1,1,0,0,1,0-2h29.5A1,1,0,0,1,47.75,26.38Z" fill="#00aeef"/>
      <path id="Path_59229" data-name="Path 59229" d="M56.12,31.38H53.25V5.12a1,1,0,0,0-1-1H11.75a1,1,0,0,0-1,1V31.38H7.88a.99.99,0,0,0-1,1V51.62a.99.99,0,0,0,1,1h2.87v6.26a1,1,0,0,0,1,1h40.5a1,1,0,0,0,1-1V52.62h2.87a.99.99,0,0,0,1-1V32.38a.99.99,0,0,0-1-1Zm-4.87,26.5H12.75V52.62h38.5ZM17,43.93a.256.256,0,0,1,.22-.25l2.04-.23a.252.252,0,0,1,.2.06.234.234,0,0,1,.08.18,2.559,2.559,0,0,0,.24,1.18.915.915,0,0,0,.85.46.959.959,0,0,0,.83-.31,3.015,3.015,0,0,0,.25-1.57V36.51a.248.248,0,0,1,.25-.25h2.16a.248.248,0,0,1,.25.25v6.8a6.989,6.989,0,0,1-.25,2.13,3.088,3.088,0,0,1-1.24,1.63,4,4,0,0,1-2.32.61,3.5,3.5,0,0,1-2.63-.96A3.913,3.913,0,0,1,17,43.93Zm9.18,3.32V36.51a.248.248,0,0,1,.25-.25h3.48a12.928,12.928,0,0,1,2.64.17,3.144,3.144,0,0,1,1.68,1.14,3.645,3.645,0,0,1,.67,2.25,3.773,3.773,0,0,1-.39,1.78,3.153,3.153,0,0,1-.99,1.14,3.279,3.279,0,0,1-1.21.55,12.338,12.338,0,0,1-2.3.16H28.84v3.8a.248.248,0,0,1-.25.25H26.43a.248.248,0,0,1-.25-.25Zm13.15-2.79a2.6,2.6,0,0,0,2.04.87,3.378,3.378,0,0,0,1.27-.25,4.46,4.46,0,0,0,1.02-.54v-.99H41.43a.248.248,0,0,1-.25-.25V41.49a.248.248,0,0,1,.25-.25H46.1a.248.248,0,0,1,.25.25v4.28a.25.25,0,0,1-.08.18,6.067,6.067,0,0,1-2.05,1.21,7.368,7.368,0,0,1-2.71.52,6.161,6.161,0,0,1-3.06-.74,4.72,4.72,0,0,1-1.99-2.13,6.834,6.834,0,0,1-.65-2.97,6.383,6.383,0,0,1,.73-3.09,5,5,0,0,1,2.16-2.11,5.885,5.885,0,0,1,2.69-.56,5.38,5.38,0,0,1,3.27.89,3.98,3.98,0,0,1,1.54,2.46.209.209,0,0,1-.03.19.249.249,0,0,1-.16.11l-2.16.4a.232.232,0,0,1-.28-.17,2.074,2.074,0,0,0-.76-1.12,2.385,2.385,0,0,0-1.42-.41,2.7,2.7,0,0,0-2.08.82,3.607,3.607,0,0,0-.77,2.51,4.01,4.01,0,0,0,.79,2.7ZM51.25,31.38H12.75V6.12h38.5Z" fill="#00aeef"/>
      <path id="Path_59230" data-name="Path 59230" d="M32.17,39.85a1.241,1.241,0,0,1-.2.69,1.131,1.131,0,0,1-.57.43,4.943,4.943,0,0,1-1.62.16h-.94V38.58h.8a9.872,9.872,0,0,1,1.52.07,1.209,1.209,0,0,1,.73.4,1.116,1.116,0,0,1,.28.8ZM47.75,12.38a1,1,0,0,1-1,1H17.25a1,1,0,0,1,0-2h29.5A1,1,0,0,1,47.75,12.38Zm0,7a1,1,0,0,1-1,1H17.25a1,1,0,0,1,0-2h29.5A1,1,0,0,1,47.75,19.38Z" fill="#00aeef"/>
    </g>
  </g>
</svg>
