<svg xmlns="http://www.w3.org/2000/svg" width="55.302" height="55.76" viewBox="0 0 55.302 55.76">
  <g id="Group_8737" data-name="Group 8737" transform="translate(-1.685 -1.36)">
    <path id="Path_59233" data-name="Path 59233" d="M34,54.593H4.738A2.788,2.788,0,0,1,1.95,51.805V4.415A2.788,2.788,0,0,1,4.738,1.627H32.615L46.553,15.565V42.048" transform="translate(1.129 1.137)" fill="#ecf5ff"/>
    <path id="Path_59234" data-name="Path 59234" d="M21.023,15H10.567a2.788,2.788,0,0,1-2.788-2.788V1.759M20.566,48.908l-3.7,3.7a4.876,4.876,0,0,1-6.9-6.9l3.692-3.7,3.945-3.945,3.7-3.692a4.876,4.876,0,1,1,6.9,6.9l-3.7,3.7Z" transform="translate(25.959 1.7)" fill="#bdddff"/>
    <path id="Path_59235" data-name="Path 59235" d="M5.867,1.365A4.208,4.208,0,0,0,1.685,5.547V52.938a4.208,4.208,0,0,0,4.182,4.182H38.619q.059-.013.116-.032a6.271,6.271,0,0,0,5.081-1.794l3.692-3.7a1.393,1.393,0,0,0-1.967-1.972l-3.7,3.7a3.485,3.485,0,1,1-4.928-4.928l3.7-3.7a1.393,1.393,0,1,0-1.972-1.967l-3.7,3.692a6.3,6.3,0,0,0-.784,7.916H5.867a1.373,1.373,0,0,1-1.389-1.394V5.552A1.37,1.37,0,0,1,5.872,4.158H32.355v9.757A4.208,4.208,0,0,0,36.536,18.1h9.757V35.075l-.011.005-3.692,3.7a1.393,1.393,0,1,0,1.967,1.972l3.7-3.7a3.485,3.485,0,0,1,4.928,4.928l-3.7,3.7a1.393,1.393,0,0,0,1.972,1.967l3.7-3.692a6.268,6.268,0,0,0-6.08-10.483V16.692a1.394,1.394,0,0,0-.405-.984L34.732,1.77a1.394,1.394,0,0,0-.989-.41Zm29.271,4.76L44.316,15.3H36.531a1.373,1.373,0,0,1-1.394-1.394ZM13.53,15.3a1.394,1.394,0,1,0,0,2.788H26.075a1.394,1.394,0,0,0,0-2.788Zm0,8.363a1.394,1.394,0,1,0,0,2.788h23a1.394,1.394,0,1,0,0-2.788Zm0,8.363a1.394,1.394,0,1,0,0,2.788h23a1.394,1.394,0,1,0,0-2.788Zm0,8.363a1.4,1.4,0,0,0,0,2.793H30.956a1.4,1.4,0,0,0,0-2.793Zm34.715.2a1.394,1.394,0,0,0-.984.4L40.855,47.4a1.4,1.4,0,1,0,1.972,1.978l6.406-6.412a1.391,1.391,0,0,0-.984-2.377Z" transform="translate(0 0)" fill="#3d9ce2"/>
  </g>
</svg>
