<svg xmlns="http://www.w3.org/2000/svg" width="48" height="48" viewBox="0 0 48 48">
  <g id="Group_8970" data-name="Group 8970" transform="translate(-1034.607 -230.607)">
    <rect id="Rectangle_15612" data-name="Rectangle 15612" width="48" height="48" rx="6" transform="translate(1034.607 230.607)" fill="#1a8ef4"/>
    <path id="Path_58677" data-name="Path 58677" d="M6.434,3.368a5.166,5.166,0,0,1,6.278,7.321l15.8,15.8-2.087,2.087-15.8-15.8A5.166,5.166,0,0,1,3.3,6.5L6.6,9.8a2.213,2.213,0,1,0,3.13-3.13Zm15.3,2.779,4.695-2.608,2.087,2.087L25.9,10.32l-2.608.522-3.13,3.13-2.087-2.087,3.13-3.13Zm-9.911,12,2.087,2.087L6.081,28.056A1.475,1.475,0,0,1,3.88,26.1l.115-.129Z" transform="translate(1042.324 238.259)" fill="#fff"/>
  </g>
</svg>
