<svg xmlns="http://www.w3.org/2000/svg" width="48" height="48" viewBox="0 0 48 48">
  <g id="Group_8978" data-name="Group 8978" transform="translate(-69 -81)">
    <g id="Group_8967" data-name="Group 8967" transform="translate(-2.044 -2.044)">
      <rect id="Rectangle_15604" data-name="Rectangle 15604" width="48" height="48" rx="6" transform="translate(71.044 83.044)" fill="#31bdfa"/>
      <path id="Path_58633" data-name="Path 58633" d="M17.988,6.07H31.169A1.535,1.535,0,0,1,32.7,7.606V29.1a1.535,1.535,0,0,1-1.535,1.535H3.535A1.535,1.535,0,0,1,2,29.1V4.535A1.535,1.535,0,0,1,3.535,3H14.917ZM5.07,6.07V27.563H29.634V9.141H16.716l-3.07-3.07Zm10.746,6.141h3.07V24.493h-3.07Zm6.141,4.606h3.07v7.676h-3.07ZM9.676,19.887h3.07v4.606H9.676Z" transform="translate(77.692 90.228)" fill="#fafafa"/>
    </g>
  </g>
</svg>
