<svg xmlns="http://www.w3.org/2000/svg" width="50.24" height="55.76" viewBox="0 0 50.24 55.76">
  <g id="Group_8735" data-name="Group 8735" transform="translate(-6.88 -4.12)">
    <g id="Group_8734" data-name="Group 8734">
      <path id="Path_59231" data-name="Path 59231" d="M56.12,31.38H53.25V5.12a1,1,0,0,0-1-1H11.75a1,1,0,0,0-1,1V31.38H7.88a.99.99,0,0,0-1,1V51.62a.99.99,0,0,0,1,1h2.87v6.26a1,1,0,0,0,1,1h40.5a1,1,0,0,0,1-1V52.62h2.87a.99.99,0,0,0,1-1V32.38a.99.99,0,0,0-1-1Zm-4.87,26.5H12.75V52.62h38.5ZM17.84,47.25V36.51a.254.254,0,0,1,.25-.25h3.48a12.934,12.934,0,0,1,2.64.17,3.115,3.115,0,0,1,1.68,1.141,3.587,3.587,0,0,1,.681,2.25A3.757,3.757,0,0,1,26.18,41.6a3.27,3.27,0,0,1-.989,1.141,3.456,3.456,0,0,1-1.21.55,12.406,12.406,0,0,1-2.311.16H20.51v3.8a.247.247,0,0,1-.25.25H18.09a.249.249,0,0,1-.25-.251Zm10,0V36.51a.254.254,0,0,1,.25-.25h3.96a7.645,7.645,0,0,1,2.12.221,3.75,3.75,0,0,1,1.72,1.06,4.7,4.7,0,0,1,1.08,1.83,7.967,7.967,0,0,1,.37,2.61A7.551,7.551,0,0,1,37,44.35a5.038,5.038,0,0,1-1.21,2,4.051,4.051,0,0,1-1.63.91,6.746,6.746,0,0,1-1.99.24H28.09a.248.248,0,0,1-.25-.25Zm17.75-6.63a.247.247,0,0,1,.25.25v1.82a.247.247,0,0,1-.25.25H41.36v4.31a.248.248,0,0,1-.25.25H38.94a.253.253,0,0,1-.25-.25V36.51a.26.26,0,0,1,.25-.25H46.3a.253.253,0,0,1,.25.25v1.82a.247.247,0,0,1-.25.25H41.36v2.04Zm5.66-9.24H12.75V6.12h38.5Z" fill="#cd4527"/>
      <path id="Path_59232" data-name="Path 59232" d="M23.83,39.85a1.239,1.239,0,0,1-.2.69,1.106,1.106,0,0,1-.56.43,5,5,0,0,1-1.62.16h-.94V38.58h.8a9.635,9.635,0,0,1,1.511.07,1.18,1.18,0,0,1,.729.4,1.12,1.12,0,0,1,.28.8ZM34.6,41.89a6.669,6.669,0,0,1-.21,1.891,2.014,2.014,0,0,1-.5.93,1.742,1.742,0,0,1-.77.39,5.784,5.784,0,0,1-1.24.091H30.51v-6.61h.721a9.173,9.173,0,0,1,1.729.1,1.719,1.719,0,0,1,.88.44,2.212,2.212,0,0,1,.55.93,6.152,6.152,0,0,1,.21,1.838ZM46.75,13.375H17.25a1,1,0,0,1,0-2h29.5a1,1,0,0,1,0,2Zm0,7H17.25a1,1,0,0,1,0-2h29.5a1,1,0,0,1,0,2Zm0,7H17.25a1,1,0,0,1,0-2h29.5a1,1,0,0,1,0,2Z" fill="#cd4527"/>
    </g>
  </g>
</svg>
