<svg xmlns="http://www.w3.org/2000/svg" width="50.24" height="55.76" viewBox="0 0 50.24 55.76">
  <g id="Group_8729" data-name="Group 8729" transform="translate(-6.88 -4.12)">
    <g id="Group_8728" data-name="Group 8728">
      <path id="Path_59224" data-name="Path 59224" d="M56.12,31.38H53.25V5.12a1,1,0,0,0-1-1H11.75a1,1,0,0,0-1,1V31.38H7.88a.99.99,0,0,0-1,1V51.62a.99.99,0,0,0,1,1h2.87v6.26a1,1,0,0,0,1,1h40.5a1,1,0,0,0,1-1V52.62h2.87a.99.99,0,0,0,1-1V32.38a.99.99,0,0,0-1-1Zm-4.87,26.5H12.75V52.62h38.5Zm-33-10.63V36.51a.261.261,0,0,1,.25-.25h3.48a13.056,13.056,0,0,1,2.65.17,3.151,3.151,0,0,1,1.68,1.141,3.645,3.645,0,0,1,.67,2.25,3.769,3.769,0,0,1-.39,1.779,3.165,3.165,0,0,1-.99,1.141,3.3,3.3,0,0,1-1.21.55,12.2,12.2,0,0,1-2.3.16H20.92v3.8a.248.248,0,0,1-.25.25H18.5a.256.256,0,0,1-.25-.251Zm10.01,0V36.51a.254.254,0,0,1,.25-.25h3.48a12.934,12.934,0,0,1,2.64.17,3.115,3.115,0,0,1,1.68,1.141,3.583,3.583,0,0,1,.671,2.25A3.894,3.894,0,0,1,36.6,41.6a3.27,3.27,0,0,1-.989,1.141,3.416,3.416,0,0,1-1.221.55,12.2,12.2,0,0,1-2.3.16H30.93v3.8a.248.248,0,0,1-.25.25H28.51a.249.249,0,0,1-.25-.251Zm9.49-8.67a.248.248,0,0,1-.25-.25V36.51a.254.254,0,0,1,.25-.25h8.53a.254.254,0,0,1,.25.25v1.82a.248.248,0,0,1-.25.25H43.35v8.67a.247.247,0,0,1-.25.25H40.93a.248.248,0,0,1-.25-.25V38.58Zm13.5-7.2H12.75V6.12h38.5Z" fill="#cd4527"/>
      <path id="Path_59225" data-name="Path 59225" d="M24.25,39.85a1.171,1.171,0,0,1-.21.69,1.106,1.106,0,0,1-.56.43,4.943,4.943,0,0,1-1.62.16h-.94V38.58h.8a9.872,9.872,0,0,1,1.52.07,1.241,1.241,0,0,1,.73.4,1.166,1.166,0,0,1,.28.8Zm10,0a1.239,1.239,0,0,1-.2.69,1.145,1.145,0,0,1-.56.43,5.035,5.035,0,0,1-1.63.16h-.93V38.58h.8a9.628,9.628,0,0,1,1.51.07,1.18,1.18,0,0,1,.729.4,1.117,1.117,0,0,1,.281.8Zm12.5-26.475H17.25a1,1,0,0,1,0-2h29.5a1,1,0,0,1,0,2Zm0,7H17.25a1,1,0,0,1,0-2h29.5a1,1,0,0,1,0,2Zm0,7H17.25a1,1,0,0,1,0-2h29.5a1,1,0,0,1,0,2Z" fill="#cd4527"/>
    </g>
  </g>
</svg>
