<svg xmlns="http://www.w3.org/2000/svg" width="48" height="48" viewBox="0 0 48 48">
  <g id="Group_8977" data-name="Group 8977" transform="translate(-1034.843 -372.843)">
    <rect id="Rectangle_15613" data-name="Rectangle 15613" width="48" height="48" rx="6" transform="translate(1034.843 372.843)" fill="#1a2b3d"/>
    <path id="Path_58639" data-name="Path 58639" d="M2.319,19.973a14.82,14.82,0,0,1,0-6.139c1.654.195,3.1-.353,3.57-1.493s-.161-2.548-1.469-3.58A14.82,14.82,0,0,1,8.761,4.42c1.032,1.308,2.44,1.942,3.58,1.47s1.688-1.916,1.492-3.571a14.82,14.82,0,0,1,6.139,0c-.195,1.654.353,3.1,1.493,3.57s2.548-.161,3.58-1.469a14.82,14.82,0,0,1,4.342,4.34c-1.308,1.032-1.942,2.44-1.47,3.58s1.916,1.688,3.571,1.492a14.818,14.818,0,0,1,0,6.139c-1.654-.195-3.1.353-3.57,1.493s.161,2.548,1.469,3.58a14.822,14.822,0,0,1-4.34,4.342c-1.032-1.308-2.44-1.942-3.58-1.47s-1.688,1.916-1.492,3.571a14.818,14.818,0,0,1-6.139,0c.195-1.654-.353-3.1-1.493-3.57s-2.548.161-3.58,1.469a14.818,14.818,0,0,1-4.342-4.34c1.308-1.032,1.942-2.44,1.47-3.58S3.973,19.777,2.319,19.973Zm2.664-2.756a5.363,5.363,0,0,1,3.661,3.108,5.362,5.362,0,0,1-.391,4.786q.216.227.443.443a5.259,5.259,0,0,1,7.894,3.27q.313.008.627,0a5.259,5.259,0,0,1,7.895-3.27q.227-.216.443-.443a5.259,5.259,0,0,1,3.27-7.894q.008-.313,0-.627A5.259,5.259,0,0,1,25.555,8.7q-.216-.227-.443-.443a5.362,5.362,0,0,1-4.786.391,5.362,5.362,0,0,1-3.108-3.661q-.313-.008-.627,0a5.363,5.363,0,0,1-3.108,3.661A5.363,5.363,0,0,1,8.7,8.252q-.227.216-.443.443a5.362,5.362,0,0,1,.391,4.786A5.363,5.363,0,0,1,4.983,16.59Q4.974,16.9,4.982,17.216ZM16.9,21.374a4.47,4.47,0,1,1,4.47-4.47A4.471,4.471,0,0,1,16.9,21.374Zm0-2.98a1.49,1.49,0,1,0-1.49-1.49A1.49,1.49,0,0,0,16.9,18.393Z" transform="translate(1041.943 379.943)" fill="#fff"/>
  </g>
</svg>
