<svg xmlns="http://www.w3.org/2000/svg" width="48" height="48" viewBox="0 0 48 48">
  <g id="Group_8981" data-name="Group 8981" transform="translate(-1016 -365)">
    <g id="Group_8977" data-name="Group 8977" transform="translate(-18.843 -7.843)">
      <rect id="Rectangle_15613" data-name="Rectangle 15613" width="48" height="48" rx="6" transform="translate(1034.843 372.843)" fill="#731a7d"/>
    </g>
    <g id="Group_8980" data-name="Group 8980" transform="translate(288.875 -171.584)">
      <path id="Path_59241" data-name="Path 59241" d="M28.715,32.253H7.538A4.538,4.538,0,0,1,3,27.715V6.538A4.538,4.538,0,0,1,7.538,2H28.715a1.513,1.513,0,0,1,1.513,1.513V30.74A1.513,1.513,0,0,1,28.715,32.253ZM27.2,29.228V26.2H7.538a1.513,1.513,0,1,0,0,3.025ZM6.025,23.435a4.533,4.533,0,0,1,1.513-.258H27.2V5.025H7.538A1.513,1.513,0,0,0,6.025,6.538Z" transform="translate(734.512 543.457)" fill="#fff"/>
      <path id="Path_59242" data-name="Path 59242" d="M5.326,2.622H8.271a.541.541,0,0,1,.459.254L10.6,5.867h2.383a.27.27,0,0,1,.237.4l-2.129,3.9A2.708,2.708,0,0,1,8.57,9.111a2.7,2.7,0,0,1-4.326,0,2.7,2.7,0,0,1-2.163,1.081,2.737,2.737,0,0,1-.3-.016L1.116,6.5a.541.541,0,0,1,.532-.637h.434v-2.7a.541.541,0,0,1,.541-.541h.541V1H5.326ZM3.163,5.867h6.16L7.971,3.7H3.163ZM2.081,11.274a3.232,3.232,0,0,0,2.163-.826,3.245,3.245,0,0,0,4.326,0,3.232,3.232,0,0,0,2.163.826h1.081v1.081H10.733a4.306,4.306,0,0,1-2.163-.579,4.331,4.331,0,0,1-4.326,0,4.306,4.306,0,0,1-2.163.579H1V11.274Z" transform="translate(744.211 550.708)" fill="#fff"/>
    </g>
  </g>
</svg>
