<svg xmlns="http://www.w3.org/2000/svg" width="48" height="48" viewBox="0 0 48 48">
  <g id="Group_8971" data-name="Group 8971" transform="translate(-76.813 -230.813)">
    <rect id="Rectangle_15596" data-name="Rectangle 15596" width="48" height="48" rx="6" transform="translate(76.813 230.813)" fill="#13d2b9"/>
    <path id="Path_58702" data-name="Path 58702" d="M4.977,14.99V5.465A1.488,1.488,0,0,1,6.465,3.977h7.442V1H19.86V3.977H27.3A1.488,1.488,0,0,1,28.79,5.465V14.99l1.616.485a1.488,1.488,0,0,1,1.016,1.787l-2.258,9.031q-.186.009-.374.009a7.428,7.428,0,0,1-2.456-.415l1.861-7.964L16.883,14.395,5.572,17.922l1.861,7.964a7.428,7.428,0,0,1-2.456.415q-.188,0-.374-.009L2.345,17.262a1.488,1.488,0,0,1,1.016-1.787ZM7.953,14.1l8.93-2.679,8.93,2.679V6.953H7.953ZM4.977,29.278A8.9,8.9,0,0,0,10.93,27a8.93,8.93,0,0,0,11.907,0,8.9,8.9,0,0,0,5.953,2.274h2.977v2.977H28.79a11.852,11.852,0,0,1-5.953-1.593,11.921,11.921,0,0,1-11.907,0,11.852,11.852,0,0,1-5.953,1.593H2V29.278Z" transform="translate(83.93 237.442)" fill="#fff"/>
  </g>
</svg>
