<svg xmlns="http://www.w3.org/2000/svg" width="50.24" height="55.76" viewBox="0 0 50.24 55.76">
  <g id="Group_8731" data-name="Group 8731" transform="translate(-6.88 -4.12)">
    <g id="Group_8730" data-name="Group 8730">
      <path id="Path_59226" data-name="Path 59226" d="M56.12,31.38H53.25V5.12a1,1,0,0,0-1-1H11.75a1,1,0,0,0-1,1V31.38H7.88a.99.99,0,0,0-1,1V51.62a.99.99,0,0,0,1,1h2.87v6.26a1,1,0,0,0,1,1h40.5a1,1,0,0,0,1-1V52.62h2.87a.99.99,0,0,0,1-1V32.38a.99.99,0,0,0-1-1Zm-4.87,26.5H12.75V52.62h38.5ZM17.55,36.65a.252.252,0,0,1,.21-.391h2.53a.244.244,0,0,1,.21.12l1.94,3.11,1.9-3.11a.272.272,0,0,1,.21-.12H27.07a.261.261,0,0,1,.22.13.27.27,0,0,1-.01.261l-3.25,5.069L27.6,47.11a.244.244,0,0,1,.021.26.26.26,0,0,1-.22.13h-2.62a.247.247,0,0,1-.21-.12L22.4,44l-2.181,3.38a.225.225,0,0,1-.21.12h-2.6a.26.26,0,0,1-.22-.13.246.246,0,0,1,.02-.26l3.57-5.46Zm18.58,8.54a.253.253,0,0,1,.25.25v1.81a.254.254,0,0,1-.25.25H28.57a.247.247,0,0,1-.25-.25V36.6a.247.247,0,0,1,.25-.25h2.17a.254.254,0,0,1,.25.25v8.591h5.14Zm7.14-1.55a1.673,1.673,0,0,0-.67-.39c-.25-.08-.819-.24-1.71-.46a6.1,6.1,0,0,1-2.56-1.12,3.053,3.053,0,0,1-1.07-2.34,3.013,3.013,0,0,1,.51-1.68,3.171,3.171,0,0,1,1.45-1.181,5.64,5.64,0,0,1,2.21-.39,4.8,4.8,0,0,1,3.21.95,3.387,3.387,0,0,1,1.16,2.54.254.254,0,0,1-.24.26l-2.17.1a.26.26,0,0,1-.26-.21,1.624,1.624,0,0,0-.5-1.04,2.012,2.012,0,0,0-1.22-.31,2.345,2.345,0,0,0-1.34.34.554.554,0,0,0-.24.47.573.573,0,0,0,.24.46,5.1,5.1,0,0,0,1.89.67,10.632,10.632,0,0,1,2.4.79,3.306,3.306,0,0,1,1.279,1.181,3.664,3.664,0,0,1-.09,3.71,3.377,3.377,0,0,1-1.56,1.29,6.48,6.48,0,0,1-2.44.41,4.941,4.941,0,0,1-3.29-1,4.325,4.325,0,0,1-1.38-2.9.251.251,0,0,1,.05-.19.224.224,0,0,1,.17-.09l2.11-.21a.241.241,0,0,1,.271.21,2.321,2.321,0,0,0,.689,1.41,2.106,2.106,0,0,0,1.41.44,2.133,2.133,0,0,0,1.41-.391,1.054,1.054,0,0,0,.45-.84.741.741,0,0,0-.169-.489Zm7.98-12.26H12.75V6.12h38.5Z" fill="#00a651"/>
      <path id="Path_59227" data-name="Path 59227" d="M46.75,13.375H17.25a1,1,0,0,1,0-2h29.5a1,1,0,0,1,0,2Zm0,7H17.25a1,1,0,0,1,0-2h29.5a1,1,0,0,1,0,2Zm0,7H17.25a1,1,0,0,1,0-2h29.5a1,1,0,0,1,0,2Z" fill="#00a651"/>
    </g>
  </g>
</svg>
