<svg xmlns="http://www.w3.org/2000/svg" width="21.999" height="19.226" viewBox="0 0 21.999 19.226">
  <g id="Group_8653" data-name="Group 8653" transform="translate(-0.001 -32.274)">
    <path id="Path_59193" data-name="Path 59193" d="M110.669,33.387a1.114,1.114,0,0,0-1.113-1.113H107.9a1.114,1.114,0,0,0-1.113,1.113V35.05h3.885Zm-1.78,5.848,6.449,1.685V36.761a.422.422,0,0,0-.422-.422h-12.38a.422.422,0,0,0-.422.422V40.92l6.449-1.685A.645.645,0,0,1,108.889,39.235Z" transform="translate(-97.726)" fill="#fafafa"/>
    <path id="Path_59194" data-name="Path 59194" d="M21.355,233.977a2.72,2.72,0,0,1-1.438-.362,5.522,5.522,0,0,0-.632-.28,3.941,3.941,0,0,0-1.3-.216l2.36-5.94a.393.393,0,0,0-.269-.516L11,224.291l-9.074,2.371a.393.393,0,0,0-.269.516l2.354,5.94a3.934,3.934,0,0,0-1.3.218,5.543,5.543,0,0,0-.627.279,2.721,2.721,0,0,1-1.439.362.645.645,0,1,0,0,1.289,3.965,3.965,0,0,0,2.013-.5,4,4,0,0,1,.539-.236,2.771,2.771,0,0,1,.9-.126c.089,0,.173,0,.251.007a2.7,2.7,0,0,1,1.188.355,3.964,3.964,0,0,0,2.013.5,3.965,3.965,0,0,0,2.013-.5A2.721,2.721,0,0,1,11,234.407a2.72,2.72,0,0,1,1.438.362,3.964,3.964,0,0,0,2.013.5,3.964,3.964,0,0,0,2.013-.5,2.7,2.7,0,0,1,1.193-.355q.123-.007.246-.007a2.778,2.778,0,0,1,.892.124,3.954,3.954,0,0,1,.546.238,3.964,3.964,0,0,0,2.013.5.645.645,0,0,0,0-1.289ZM5.042,227.589l5.8-1.514a.645.645,0,0,1,.326,0l5.8,1.514a.645.645,0,1,1-.326,1.247L11,227.365l-5.633,1.472a.645.645,0,0,1-.326-1.247Z" transform="translate(0 -183.767)" fill="#fafafa"/>
  </g>
</svg>
