<svg width="18" height="18" viewBox="0 0 18 18" fill="none" xmlns="http://www.w3.org/2000/svg">
<path d="M9.75 15.75L11.25 15L12.75 15.75V10.5H9.75M12.75 6.75V5.25L11.25 6L9.75 5.25V6.75L8.25 7.5L9.75 8.25V9.75L11.25 9L12.75 9.75V8.25L14.25 7.5M15 2.25H3C2.60218 2.25 2.22064 2.40804 1.93934 2.68934C1.65804 2.97064 1.5 3.35218 1.5 3.75V11.25C1.5 11.6478 1.65804 12.0294 1.93934 12.3107C2.22064 12.592 2.60218 12.75 3 12.75H8.25V11.25H3V3.75H15V11.25H14.25V12.75H15C15.3978 12.75 15.7794 12.592 16.0607 12.3107C16.342 12.0294 16.5 11.6478 16.5 11.25V3.75C16.5 3.35218 16.342 2.97064 16.0607 2.68934C15.7794 2.40804 15.3978 2.25 15 2.25ZM8.25 6H3.75V4.5H8.25M6.75 8.25H3.75V6.75H6.75M8.25 10.5H3.75V9H8.25V10.5Z" fill="#5774F1"/>
</svg>
