<svg width="14" height="16" viewBox="0 0 14 16" fill="none" xmlns="http://www.w3.org/2000/svg">
<path d="M2.5 15.5C1.875 15.5 1.34375 15.2812 0.90625 14.8438C0.46875 14.4062 0.25 13.875 0.25 13.25V11H2.5V0.5H13.75V13.25C13.75 13.875 13.5312 14.4062 13.0938 14.8438C12.6562 15.2812 12.125 15.5 11.5 15.5H2.5ZM11.5 14C11.7125 14 11.8907 13.928 12.0347 13.784C12.1787 13.64 12.2505 13.462 12.25 13.25V2H4V11H10.75V13.25C10.75 13.4625 10.822 13.6407 10.966 13.7847C11.11 13.9287 11.288 14.0005 11.5 14ZM4.75 5.75V4.25H11.5V5.75H4.75ZM4.75 8V6.5H11.5V8H4.75Z" fill="#5774F1"/>
</svg>
