<svg width="18" height="18" viewBox="0 0 18 18" fill="none" xmlns="http://www.w3.org/2000/svg">
<path d="M8.43001 8.09501C10.2139 8.09501 11.66 6.64889 11.66 4.86501C11.66 3.08113 10.2139 1.63501 8.43001 1.63501C6.64613 1.63501 5.20001 3.08113 5.20001 4.86501C5.20001 6.64889 6.64613 8.09501 8.43001 8.09501Z" fill="#5774F1"/>
<path d="M10.5 14H14V14.7H10.5V14Z" fill="#5774F1"/>
<path d="M7.50002 15V16.5C7.50002 16.6326 7.55269 16.7598 7.64646 16.8535C7.74023 16.9473 7.86741 17 8.00002 17H16.5C16.6326 17 16.7598 16.9473 16.8536 16.8535C16.9473 16.7598 17 16.6326 17 16.5V11.5C17 11.3674 16.9473 11.2402 16.8536 11.1464C16.7598 11.0527 16.6326 11 16.5 11H13V10.265C13 10.1324 12.9473 10.0052 12.8536 9.91144C12.7598 9.81767 12.6326 9.765 12.5 9.765C12.3674 9.765 12.2402 9.81767 12.1465 9.91144C12.0527 10.0052 12 10.1324 12 10.265V11H11V9.21C10.1504 9.07097 9.29094 9.00074 8.43002 9C6.53142 8.99192 4.65409 9.39981 2.93002 10.195C2.64626 10.3289 2.40687 10.5414 2.24025 10.8073C2.07364 11.0732 1.98679 11.3812 1.99002 11.695V15H7.50002ZM16 16H8.50002V12H12V12.21C12 12.3426 12.0527 12.4698 12.1465 12.5635C12.2402 12.6573 12.3674 12.71 12.5 12.71C12.6326 12.71 12.7598 12.6573 12.8536 12.5635C12.9473 12.4698 13 12.3426 13 12.21V12H16V16Z" fill="#5774F1"/>
</svg>
