<svg width="18" height="18" viewBox="0 0 18 18" fill="none" xmlns="http://www.w3.org/2000/svg">
<g clip-path="url(#clip0_1000_13310)">
<path d="M6.6 0.000223518C6.04032 -0.0131602 5.48361 0.0855171 4.96263 0.290451C4.44164 0.495385 3.9669 0.802437 3.56633 1.19354C3.16575 1.58465 2.84744 2.05192 2.63011 2.56786C2.41278 3.08379 2.30082 3.63798 2.30082 4.19782C2.30082 4.75767 2.41278 5.31186 2.63011 5.82779C2.84744 6.34373 3.16575 6.811 3.56633 7.2021C3.9669 7.59321 4.44164 7.90026 4.96263 8.1052C5.48361 8.31013 6.04032 8.40881 6.6 8.39542C7.15968 8.40881 7.71639 8.31013 8.23738 8.1052C8.75836 7.90026 9.2331 7.59321 9.63367 7.2021C10.0342 6.811 10.3526 6.34373 10.5699 5.82779C10.7872 5.31186 10.8992 4.75767 10.8992 4.19782C10.8992 3.63798 10.7872 3.08379 10.5699 2.56786C10.3526 2.05192 10.0342 1.58465 9.63367 1.19354C9.2331 0.802437 8.75836 0.495385 8.23738 0.290451C7.71639 0.0855171 7.15968 -0.0131602 6.6 0.000223518ZM4.2 10.793C3.08609 10.793 2.0178 11.2355 1.23015 12.0232C0.442499 12.8108 0 13.8791 0 14.993L0 17.9894H13.2V14.993C13.2 13.8791 12.7575 12.8108 11.9698 12.0232C11.1822 11.2355 10.1139 10.793 9 10.793H4.2ZM15 12.0002H14.4V18.0002H18V15.0002C18 14.2046 17.6839 13.4415 17.1213 12.8789C16.5587 12.3163 15.7957 12.0002 15 12.0002Z" fill="#5774F1"/>
<path d="M13.8 4.80005C13.0044 4.80005 12.2413 5.11612 11.6787 5.67873C11.1161 6.24134 10.8 7.0044 10.8 7.80005C10.8 8.5957 11.1161 9.35876 11.6787 9.92137C12.2413 10.484 13.0044 10.8 13.8 10.8C14.5957 10.8 15.3587 10.484 15.9213 9.92137C16.4839 9.35876 16.8 8.5957 16.8 7.80005C16.8 7.0044 16.4839 6.24134 15.9213 5.67873C15.3587 5.11612 14.5957 4.80005 13.8 4.80005Z" fill="#5774F1"/>
</g>
<defs>
<clipPath id="clip0_1000_13310">
<rect width="18" height="18" fill="white"/>
</clipPath>
</defs>
</svg>
