<svg width="20" height="20" viewBox="0 0 20 20" fill="none" xmlns="http://www.w3.org/2000/svg">
<path d="M9.5 1.875H2.79167C2.28334 1.875 1.79582 2.07693 1.43638 2.43638C1.07693 2.79582 0.875 3.28334 0.875 3.79167V17.2083C0.875 17.7167 1.07693 18.2042 1.43638 18.5636C1.79582 18.9231 2.28334 19.125 2.79167 19.125H16.2083C16.7167 19.125 17.2042 18.9231 17.5636 18.5636C17.9231 18.2042 18.125 17.7167 18.125 17.2083V10.5" stroke="#5774F1" stroke-width="1.5" stroke-linecap="round" stroke-linejoin="round"/>
<path d="M15.6094 1.5156C15.9906 1.13435 16.5077 0.920166 17.0469 0.920166C17.5861 0.920166 18.1031 1.13435 18.4844 1.5156C18.8656 1.89685 19.0798 2.41393 19.0798 2.9531C19.0798 3.49226 18.8656 4.00935 18.4844 4.3906L9.84693 13.029C9.61937 13.2564 9.33825 13.4228 9.02947 13.513L6.27617 14.318C6.19371 14.342 6.1063 14.3435 6.02309 14.3221C5.93988 14.3008 5.86393 14.2575 5.80319 14.1968C5.74245 14.1361 5.69915 14.0601 5.67783 13.9769C5.65651 13.8937 5.65796 13.8063 5.68201 13.7238L6.48701 10.9705C6.5776 10.662 6.74435 10.3812 6.97193 10.154L15.6094 1.5156Z" stroke="#5774F1" stroke-width="1.5" stroke-linecap="round" stroke-linejoin="round"/>
</svg>
