<svg id="Group_8243" data-name="Group 8243" xmlns="http://www.w3.org/2000/svg" width="24" height="24" viewBox="0 0 24 24">
  <path id="Path_58753" data-name="Path 58753" d="M20.25,17.5a.75.75,0,0,1-.75-.75v-1.5a.25.25,0,0,0-.25-.25h-2.5a.25.25,0,0,0-.25.25v1.5a.75.75,0,0,1-1.5,0v-1.5a1.752,1.752,0,0,1,1.75-1.75h2.5A1.752,1.752,0,0,1,21,15.25v1.5A.75.75,0,0,1,20.25,17.5Z" fill="#64b5f6"/>
  <path id="Path_58754" data-name="Path 58754" d="M22.25,24h-8.5A1.752,1.752,0,0,1,12,22.25v-4.5A1.752,1.752,0,0,1,13.75,16h8.5A1.752,1.752,0,0,1,24,17.75v4.5A1.752,1.752,0,0,1,22.25,24Z" fill="#2196f3"/>
  <path id="Path_58755" data-name="Path 58755" d="M24,20.5H12V19H24Z" fill="#64b5f6"/>
  <path id="Path_58756" data-name="Path 58756" d="M18,21.5a.75.75,0,0,1-.75-.75v-2a.75.75,0,0,1,1.5,0v2A.75.75,0,0,1,18,21.5Z" fill="#64b5f6"/>
  <path id="Path_58759" data-name="Path 58759" d="M17.25,19H12v1.5h5.25ZM18,18a.75.75,0,0,0-.75.75v2a.75.75,0,0,0,.75.75Z" fill="#64b5f6"/>
  <path id="Path_58760" data-name="Path 58760" d="M5,0A3,3,0,1,0,8,3,3,3,0,0,0,5,0ZM6.25,7H3.75A3.755,3.755,0,0,0,0,10.75v4.132a1.74,1.74,0,0,0,.968,1.565l.895.447A.251.251,0,0,1,2,17.118V22.25A1.752,1.752,0,0,0,3.75,24h2.5A1.752,1.752,0,0,0,8,22.25V17.118a.25.25,0,0,1,.138-.224l.895-.447A1.74,1.74,0,0,0,10,14.882V10.75A3.755,3.755,0,0,0,6.25,7Z" fill="#90a4ae"/>
</svg>
