<svg width="5" height="17" viewBox="0 0 5 17" fill="none" xmlns="http://www.w3.org/2000/svg">
<path d="M4.30469 0.791015L4 11.9941H1.14063L0.828125 0.791015H4.30469ZM2.57031 16.9941C2.05469 16.9941 1.61198 16.8118 1.24219 16.4473C0.872396 16.0775 0.690104 15.6348 0.695313 15.1191C0.690104 14.6087 0.872396 14.1712 1.24219 13.8066C1.61198 13.4421 2.05469 13.2598 2.57031 13.2598C3.0651 13.2598 3.5 13.4421 3.875 13.8066C4.25 14.1712 4.4401 14.6087 4.44531 15.1191C4.4401 15.4629 4.34896 15.778 4.17188 16.0645C4 16.3457 3.77344 16.5723 3.49219 16.7441C3.21094 16.9108 2.90365 16.9941 2.57031 16.9941Z" fill="#707070"/>
</svg>
