<svg width="16" height="21" viewBox="0 0 16 21" fill="none" xmlns="http://www.w3.org/2000/svg">
<path d="M9.586 0.791016C10.1164 0.791129 10.625 1.00192 11 1.37702L15.414 5.79102C15.7891 6.166 15.9999 6.67463 16 7.20502V18.791C16 19.3214 15.7893 19.8302 15.4142 20.2052C15.0391 20.5803 14.5304 20.791 14 20.791H2C1.46957 20.791 0.960859 20.5803 0.585786 20.2052C0.210714 19.8302 0 19.3214 0 18.791V2.79102C0 2.26058 0.210714 1.75187 0.585786 1.3768C0.960859 1.00173 1.46957 0.791016 2 0.791016H9.586ZM8 2.79102H2V18.791H14V8.79102H9.5C9.10218 8.79102 8.72064 8.63298 8.43934 8.35168C8.15804 8.07037 8 7.68884 8 7.29102V2.79102ZM11 12.791C11.2652 12.791 11.5196 12.8964 11.7071 13.0839C11.8946 13.2714 12 13.5258 12 13.791C12 14.0562 11.8946 14.3106 11.7071 14.4981C11.5196 14.6857 11.2652 14.791 11 14.791H5C4.73478 14.791 4.48043 14.6857 4.29289 14.4981C4.10536 14.3106 4 14.0562 4 13.791C4 13.5258 4.10536 13.2714 4.29289 13.0839C4.48043 12.8964 4.73478 12.791 5 12.791H11ZM6 8.79102C6.26522 8.79102 6.51957 8.89637 6.70711 9.08391C6.89464 9.27145 7 9.5258 7 9.79102C7 10.0562 6.89464 10.3106 6.70711 10.4981C6.51957 10.6857 6.26522 10.791 6 10.791H5C4.73478 10.791 4.48043 10.6857 4.29289 10.4981C4.10536 10.3106 4 10.0562 4 9.79102C4 9.5258 4.10536 9.27145 4.29289 9.08391C4.48043 8.89637 4.73478 8.79102 5 8.79102H6ZM10 3.20502V6.79102H13.586L10 3.20502Z" fill="#707070"/>
</svg>
