<svg xmlns="http://www.w3.org/2000/svg" width="24" height="24" viewBox="0 0 24 24">
  <g id="Group_8240" data-name="Group 8240" transform="translate(0 -0.75)">
    <path id="Path_58717" data-name="Path 58717" d="M21.25,18a.75.75,0,0,1-.75-.75v-4.5a.75.75,0,0,1,1.5,0v4.5A.75.75,0,0,1,21.25,18Z" transform="translate(0 -0.246)" fill="#607d8b"/>
    <path id="Path_58719" data-name="Path 58719" d="M17.5,19.5h-8A.5.5,0,0,1,9,19V13.75a.5.5,0,0,1,.5-.5h8a.5.5,0,0,1,.5.5V19A.5.5,0,0,1,17.5,19.5Z" transform="translate(0 -0.277)" fill="#2196f3"/>
    <path id="Path_58720" data-name="Path 58720" d="M17.5,13.25h-8a.5.5,0,0,1-.5-.5V7.5A.5.5,0,0,1,9.5,7h8a.5.5,0,0,1,.5.5v5.25A.5.5,0,0,1,17.5,13.25Z" transform="translate(0 -0.139)" fill="#cecece"/>
    <path id="Path_58723" data-name="Path 58723" d="M9,19.5H1A.5.5,0,0,1,.5,19V13.75a.5.5,0,0,1,.5-.5H9a.5.5,0,0,1,.5.5V19A.5.5,0,0,1,9,19.5Z" transform="translate(0 -0.277)" fill="#cecece"/>
    <path id="Path_58724" data-name="Path 58724" d="M9,13.25H1a.5.5,0,0,1-.5-.5V7.5A.5.5,0,0,1,1,7H9a.5.5,0,0,1,.5.5v5.25A.5.5,0,0,1,9,13.25Z" transform="translate(0 -0.139)" fill="#2196f3"/>
    <path id="Path_58725" data-name="Path 58725" d="M9,7H1a.5.5,0,0,1-.5-.5V1.25A.5.5,0,0,1,1,.75H9a.5.5,0,0,1,.5.5V6.5A.5.5,0,0,1,9,7Z" fill="#cecece"/>
    <path id="Path_58729" data-name="Path 58729" d="M15,18.5a.75.75,0,0,1-.75-.75V15a.75.75,0,0,1,1.5,0v2.75A.75.75,0,0,1,15,18.5Z" transform="translate(0 -0.27)" fill="#1976d2"/>
    <path id="Path_58730" data-name="Path 58730" d="M6.5,18.5a.75.75,0,0,1-.75-.75V15a.75.75,0,0,1,1.5,0v2.75A.75.75,0,0,1,6.5,18.5ZM15,12.25a.75.75,0,0,1-.75-.75V8.75a.75.75,0,0,1,1.5,0V11.5A.75.75,0,0,1,15,12.25Z" transform="translate(0 -0.21)" fill="#00a2ff"/>
    <path id="Path_58731" data-name="Path 58731" d="M6.5,12.25a.75.75,0,0,1-.75-.75V8.75a.75.75,0,0,1,1.5,0V11.5A.75.75,0,0,1,6.5,12.25Z" transform="translate(0 -0.145)" fill="#1976d2"/>
    <path id="Path_58732" data-name="Path 58732" d="M6.5,6a.75.75,0,0,1-.75-.75V2.5a.75.75,0,0,1,1.5,0V5.25A.75.75,0,0,1,6.5,6Z" fill="#00a2ff"/>
    <path id="Path_58733" data-name="Path 58733" d="M3.5,18.5a.75.75,0,0,1-.75-.75V15a.75.75,0,1,1,1.5,0v2.75a.75.75,0,0,1-.75.75Z" transform="translate(0 -0.27)" fill="#00a2ff"/>
    <path id="Path_58734" data-name="Path 58734" d="M3.5,12.25a.75.75,0,0,1-.75-.75V8.75a.75.75,0,1,1,1.5,0V11.5a.75.75,0,0,1-.75.75Z" transform="translate(0 -0.145)" fill="#1976d2"/>
    <path id="Path_58735" data-name="Path 58735" d="M3.5,6a.75.75,0,0,1-.75-.75V2.5a.75.75,0,1,1,1.5,0V5.25A.75.75,0,0,1,3.5,6Z" fill="#00a2ff"/>
    <path id="Path_58742" data-name="Path 58742" d="M12,18.5a.75.75,0,0,1-.75-.75V15a.75.75,0,0,1,1.5,0v2.75A.75.75,0,0,1,12,18.5Z" transform="translate(0 -0.27)" fill="#1976d2"/>
    <path id="Path_58743" data-name="Path 58743" d="M12,12.25a.75.75,0,0,1-.75-.75V8.75a.75.75,0,0,1,1.5,0V11.5A.75.75,0,0,1,12,12.25Z" transform="translate(0 -0.145)" fill="#00a2ff"/>
    <path id="Path_58748" data-name="Path 58748" d="M20.25,25.152H2.75a.728.728,0,0,1-.624-.385l-2-3.461a.98.98,0,0,1-.037-.888.743.743,0,0,1,.661-.457h13a2.444,2.444,0,0,0,2.25-2.6.814.814,0,0,1,.75-.865h6.5a.736.736,0,0,1,.638.41.986.986,0,0,1,.033.842l-3,6.922a.747.747,0,0,1-.671.479Z" transform="translate(0 -0.402)" fill="#607d8b"/>
  </g>
</svg>
