<svg width="14" height="14" viewBox="0 0 14 14" fill="none" xmlns="http://www.w3.org/2000/svg">
<path d="M11.7153 6.12487L12.4165 6.54563C12.5547 6.62852 12.5994 6.80766 12.5166 6.94579C12.4919 6.98686 12.4576 7.02122 12.4165 7.04584L7.00007 10.2957L1.58354 7.04584C1.44542 6.96294 1.40063 6.7838 1.4835 6.64567C1.50814 6.6046 1.54249 6.57024 1.58354 6.54563L2.28476 6.12487L7.00007 8.95404L11.7153 6.12487ZM11.7153 8.86654L12.4165 9.28729C12.5547 9.37019 12.5994 9.54933 12.5166 9.68746C12.4919 9.72853 12.4576 9.76289 12.4165 9.7875L7.30013 12.8573C7.11545 12.9682 6.88463 12.9682 6.69994 12.8573L1.58354 9.7875C1.44542 9.70461 1.40063 9.52547 1.4835 9.38733C1.50814 9.34627 1.54249 9.31191 1.58354 9.28729L2.28476 8.86654L7.00007 11.6957L11.7153 8.86654ZM7.30013 0.763301L12.4165 3.83313C12.5547 3.916 12.5994 4.09516 12.5166 4.23329C12.4919 4.27434 12.4576 4.3087 12.4165 4.33333L7.00007 7.5832L1.58354 4.33333C1.44542 4.25046 1.40063 4.0713 1.4835 3.93317C1.50814 3.89211 1.54249 3.85776 1.58354 3.83313L6.69994 0.763301C6.88463 0.652467 7.11545 0.652467 7.30013 0.763301Z" fill="#39B46A"/>
</svg>
