<svg id="Group_9" data-name="Group 9" xmlns="http://www.w3.org/2000/svg" width="24" height="24" viewBox="0 0 24 24">
  <path id="Path_16" data-name="Path 16" d="M20.94,16.718H19.455V15.233a.248.248,0,0,0-.248-.248H16.733a.248.248,0,0,0-.248.248v1.485H15V15.233A1.734,1.734,0,0,1,16.733,13.5h2.475a1.734,1.734,0,0,1,1.733,1.733Z" transform="translate(0.09 0.021)" fill="#607d8b"/>
  <path id="Path_17" data-name="Path 17" d="M17.94,21.03,12,18.2v-.469A1.734,1.734,0,0,1,13.733,16h8.415a1.734,1.734,0,0,1,1.733,1.733V18.2Z" transform="translate(0.119 0.08)" fill="#64b5f6"/>
  <g id="Group_8" data-name="Group 8">
    <path id="Path_18" data-name="Path 18" d="M22.25,24h-8.5A1.752,1.752,0,0,1,12,22.25V18l6,2,6-2v4.25A1.752,1.752,0,0,1,22.25,24ZM9,10a5,5,0,1,1,5-5A5.006,5.006,0,0,1,9,10Zm4.25,2H4.75A4.754,4.754,0,0,0,0,16.75v3.5A.755.755,0,0,0,.75,21H10V17.75a3.756,3.756,0,0,1,3.21-3.7,3.846,3.846,0,0,1,1.38-1.86A4.874,4.874,0,0,0,13.25,12Z" fill="#2196f3"/>
  </g>
</svg>
