<svg id="Group_8265" data-name="Group 8265" xmlns="http://www.w3.org/2000/svg" width="24" height="24" viewBox="0 0 24 24">
  <path id="Path_58789" data-name="Path 58789" d="M22.808,1.316a3.964,3.964,0,0,0-5.9,0l-.408.443-.408-.442a3.962,3.962,0,0,0-5.9,0,4.66,4.66,0,0,0,0,6.211l5.757,6.231a.75.75,0,0,0,1.1,0l5.757-6.231A4.661,4.661,0,0,0,22.808,1.316Z" fill="#2196f3"/>
  <path id="Path_58790" data-name="Path 58790" d="M22,17.5c-2,0-6,2.531-8,2.531A9.21,9.21,0,0,1,9.75,18.5,31.152,31.152,0,0,0,14,19c1.556,0,2-.531,2-1.25,0-1.75-2.972-2.022-4.476-2.251A12.675,12.675,0,0,0,6.042,13.96a2.419,2.419,0,0,1-.077.425l-2.009,7.08C6.232,22.5,10.944,24,13,24c3,0,11-4,11-5S23,17.5,22,17.5Z" fill="#cfd8dc"/>
  <path id="Path_58791" data-name="Path 58791" d="M3.5,22H.75A.75.75,0,0,1,0,21.25v-8.5A.75.75,0,0,1,.75,12c3.5,0,5.138,1.216,5.2,1.268a.75.75,0,0,1,.269.792l-2,7.386A.75.75,0,0,1,3.5,22Z" fill="#607d8b"/>
</svg>
