<svg xmlns="http://www.w3.org/2000/svg" width="24" height="24" viewBox="0 0 24 24">
  <g id="Group_8245" data-name="Group 8245" transform="translate(-1)">
    <path id="Path_58761" data-name="Path 58761" d="M5.571,12.85,2.966,15.5A6.857,6.857,0,0,0,1,20.3v5.291H9.571V24.3a4.339,4.339,0,0,0,1.977-3.28V12.85Z" transform="translate(0 -1.593)" fill="#cfd8dc"/>
    <path id="Path_58762" data-name="Path 58762" d="M9.225,24.3a4.339,4.339,0,0,0,1.977-3.28V12.85H7.9s1.861.217-.943,1.6c-3.921,1.934-3.525,4.367-3.525,4.367l2.786,6.776h3Z" transform="translate(0.346 -1.593)" fill="#607d8b"/>
    <path id="Path_58763" data-name="Path 58763" d="M21.286,22.429H8.143A3.145,3.145,0,0,1,5,19.286V6.143A3.145,3.145,0,0,1,8.143,3H21.286a3.145,3.145,0,0,1,3.143,3.143V19.286A3.145,3.145,0,0,1,21.286,22.429Z" transform="translate(0.571 0.429)" fill="#2196f3"/>
    <path id="Path_58764" data-name="Path 58764" d="M17.286,7.429H11a2,2,0,0,1-2-2V3.143a.857.857,0,0,1,.857-.857h1.262a3.143,3.143,0,0,1,6.048,0h1.262a.857.857,0,0,1,.857.857V5.429A2,2,0,0,1,17.286,7.429Z" transform="translate(1.143)" fill="#1976d2"/>
    <g id="Group_8244" data-name="Group 8244" transform="translate(9 10.286)">
      <path id="Path_58765" data-name="Path 58765" d="M19.714,10.714H8.857A.857.857,0,0,1,8.857,9H19.714a.857.857,0,1,1,0,1.714Zm0,3.714H8.857a.857.857,0,0,1,0-1.714H19.714a.857.857,0,1,1,0,1.714Zm0,3.714H8.857a.857.857,0,1,1,0-1.714H19.714a.857.857,0,1,1,0,1.714Z" transform="translate(-8 -9)" fill="#fff"/>
    </g>
    <path id="Path_58769" data-name="Path 58769" d="M6.568,25.356V23.075a2.575,2.575,0,0,0,0-3.63l2.105-2.819a1.643,1.643,0,0,0,.154-1.717.728.728,0,0,0-1.168-.191L1,21.4v3.961Z" transform="translate(0 -1.356)" fill="#cfd8dc"/>
  </g>
</svg>
