<svg width="157" height="55" viewBox="0 0 157 55" fill="none" xmlns="http://www.w3.org/2000/svg">
<path d="M8.21053 14.7789L0 9.85263L18.8842 0L37.7684 9.85263L29.5579 14.7789L18.8842 9.85263L8.21053 14.7789Z" fill="#002C3A"/>
<path d="M8.21053 39.8207L0 44.747L18.8842 54.5996L37.7684 44.747L29.5579 39.8207L18.8842 44.747L8.21053 39.8207Z" fill="#002739"/>
<path d="M37.7686 25.8631V9.85254L29.558 14.7789V20.9368L0.000133514 35.3052V44.7473L37.7686 25.8631Z" fill="#07B289"/>
<path d="M0 25.8631V9.85254L8.21053 14.7789V20.9368L37.7684 35.3052V44.7473L0 25.8631Z" fill="#003E6C"/>
<path d="M59.3442 18.5691H57.3009C57.2635 18.3048 57.1873 18.0699 57.0723 17.8647C56.9572 17.6563 56.8095 17.479 56.6291 17.3329C56.4487 17.1867 56.2403 17.0747 56.004 16.997C55.7707 16.9192 55.5172 16.8804 55.2436 16.8804C54.7491 16.8804 54.3183 17.0032 53.9513 17.2489C53.5843 17.4915 53.2998 17.846 53.0976 18.3125C52.8955 18.7759 52.7944 19.3388 52.7944 20.0013C52.7944 20.6824 52.8955 21.2546 53.0976 21.718C53.3029 22.1814 53.589 22.5313 53.956 22.7677C54.323 23.004 54.7475 23.1222 55.2296 23.1222C55.5001 23.1222 55.7505 23.0865 55.9806 23.0149C56.2139 22.9434 56.4207 22.8392 56.6011 22.7024C56.7815 22.5624 56.9308 22.3929 57.0489 22.1939C57.1702 21.9948 57.2542 21.7678 57.3009 21.5128L59.3442 21.5221C59.2913 21.9606 59.1591 22.3836 58.9476 22.791C58.7392 23.1953 58.4578 23.5576 58.1032 23.878C57.7518 24.1952 57.332 24.4471 56.8437 24.6337C56.3585 24.8172 55.8096 24.9089 55.1969 24.9089C54.3447 24.9089 53.5828 24.7161 52.911 24.3305C52.2424 23.9448 51.7136 23.3866 51.3249 22.6557C50.9392 21.9249 50.7464 21.04 50.7464 20.0013C50.7464 18.9594 50.9424 18.0731 51.3342 17.3422C51.7261 16.6113 52.2579 16.0546 52.9297 15.6721C53.6014 15.2865 54.3572 15.0936 55.1969 15.0936C55.7505 15.0936 56.2636 15.1714 56.7364 15.3269C57.2122 15.4824 57.6336 15.7094 58.0006 16.008C58.3676 16.3034 58.6662 16.6658 58.8963 17.0949C59.1296 17.5241 59.2788 18.0155 59.3442 18.5691ZM63.9929 24.9183C63.2683 24.9183 62.6416 24.7643 62.1129 24.4564C61.5873 24.1454 61.1814 23.7131 60.8953 23.1595C60.6092 22.6028 60.4661 21.9575 60.4661 21.2235C60.4661 20.4833 60.6092 19.8365 60.8953 19.2829C61.1814 18.7262 61.5873 18.2939 62.1129 17.986C62.6416 17.675 63.2683 17.5195 63.9929 17.5195C64.7175 17.5195 65.3427 17.675 65.8683 17.986C66.397 18.2939 66.8044 18.7262 67.0905 19.2829C67.3766 19.8365 67.5197 20.4833 67.5197 21.2235C67.5197 21.9575 67.3766 22.6028 67.0905 23.1595C66.8044 23.7131 66.397 24.1454 65.8683 24.4564C65.3427 24.7643 64.7175 24.9183 63.9929 24.9183ZM64.0022 23.3788C64.3319 23.3788 64.6071 23.2855 64.8279 23.0989C65.0488 22.9092 65.2151 22.651 65.3271 22.3245C65.4422 21.9979 65.4997 21.6263 65.4997 21.2095C65.4997 20.7928 65.4422 20.4211 65.3271 20.0946C65.2151 19.768 65.0488 19.5099 64.8279 19.3202C64.6071 19.1305 64.3319 19.0356 64.0022 19.0356C63.6695 19.0356 63.3895 19.1305 63.1625 19.3202C62.9386 19.5099 62.7691 19.768 62.654 20.0946C62.5421 20.4211 62.4861 20.7928 62.4861 21.2095C62.4861 21.6263 62.5421 21.9979 62.654 22.3245C62.7691 22.651 62.9386 22.9092 63.1625 23.0989C63.3895 23.2855 63.6695 23.3788 64.0022 23.3788ZM68.8119 24.7783V17.6128H70.7059V18.877H70.7899C70.9392 18.4571 71.188 18.1259 71.5363 17.8833C71.8846 17.6408 72.3014 17.5195 72.7866 17.5195C73.2779 17.5195 73.6962 17.6423 74.0415 17.888C74.3867 18.1306 74.6168 18.4603 74.7319 18.877H74.8065C74.9527 18.4665 75.2171 18.1384 75.5996 17.8927C75.9852 17.6439 76.4409 17.5195 76.9665 17.5195C77.6351 17.5195 78.1778 17.7325 78.5946 18.1586C79.0144 18.5815 79.2244 19.1818 79.2244 19.9593V24.7783H77.2417V20.3512C77.2417 19.9531 77.136 19.6545 76.9245 19.4555C76.713 19.2564 76.4486 19.1569 76.1314 19.1569C75.7706 19.1569 75.4892 19.272 75.287 19.5021C75.0849 19.7292 74.9838 20.0293 74.9838 20.4025V24.7783H73.0571V20.3092C73.0571 19.9577 72.9561 19.6778 72.7539 19.4695C72.5549 19.2611 72.2921 19.1569 71.9655 19.1569C71.7447 19.1569 71.5456 19.2129 71.3684 19.3249C71.1942 19.4337 71.0558 19.5877 70.9532 19.7867C70.8506 19.9826 70.7992 20.2128 70.7992 20.4771V24.7783H68.8119ZM80.7942 27.4654V17.6128H82.7535V18.8164H82.8421C82.9292 18.6235 83.0552 18.4276 83.22 18.2286C83.3879 18.0264 83.6056 17.8585 83.8731 17.7247C84.1437 17.5879 84.4796 17.5195 84.8808 17.5195C85.4032 17.5195 85.8853 17.6563 86.3269 17.93C86.7686 18.2006 87.1215 18.6095 87.3859 19.1569C87.6503 19.7012 87.7824 20.3838 87.7824 21.2049C87.7824 22.0042 87.6534 22.679 87.3952 23.2295C87.1402 23.7769 86.7919 24.1921 86.3503 24.4751C85.9117 24.755 85.4203 24.8949 84.8761 24.8949C84.4904 24.8949 84.1623 24.8312 83.8918 24.7037C83.6243 24.5762 83.405 24.416 83.234 24.2232C83.0629 24.0272 82.9323 23.8298 82.8421 23.6307H82.7815V27.4654H80.7942ZM82.7395 21.1955C82.7395 21.6216 82.7986 21.9933 82.9168 22.3105C83.0349 22.6277 83.206 22.875 83.4299 23.0522C83.6538 23.2264 83.926 23.3135 84.2463 23.3135C84.5697 23.3135 84.8434 23.2249 85.0674 23.0476C85.2913 22.8672 85.4608 22.6184 85.5758 22.3012C85.694 21.9808 85.7531 21.6123 85.7531 21.1955C85.7531 20.7819 85.6956 20.418 85.5805 20.1039C85.4654 19.7898 85.2959 19.5441 85.072 19.3668C84.8481 19.1896 84.5729 19.1009 84.2463 19.1009C83.9229 19.1009 83.6492 19.1865 83.4253 19.3575C83.2044 19.5286 83.0349 19.7711 82.9168 20.0853C82.7986 20.3994 82.7395 20.7695 82.7395 21.1955ZM91.1506 24.9136C90.6934 24.9136 90.286 24.8343 89.9284 24.6757C89.5707 24.514 89.2877 24.276 89.0793 23.9619C88.8741 23.6447 88.7714 23.2497 88.7714 22.777C88.7714 22.3789 88.8445 22.0446 88.9907 21.774C89.1369 21.5034 89.3359 21.2857 89.5878 21.1209C89.8397 20.9561 90.1259 20.8317 90.4462 20.7477C90.7696 20.6637 91.1086 20.6046 91.4632 20.5704C91.8799 20.5269 92.2158 20.4865 92.4708 20.4491C92.7259 20.4087 92.9109 20.3496 93.026 20.2719C93.141 20.1941 93.1986 20.079 93.1986 19.9266V19.8987C93.1986 19.6032 93.1053 19.3746 92.9187 19.2129C92.7352 19.0512 92.4739 18.9703 92.1349 18.9703C91.7773 18.9703 91.4927 19.0496 91.2812 19.2082C91.0697 19.3637 90.9298 19.5597 90.8614 19.796L89.0233 19.6467C89.1166 19.2113 89.3001 18.835 89.5738 18.5178C89.8475 18.1975 90.2005 17.9518 90.6328 17.7807C91.0682 17.6066 91.572 17.5195 92.1443 17.5195C92.5424 17.5195 92.9233 17.5661 93.2872 17.6594C93.6542 17.7527 93.9792 17.8973 94.2622 18.0933C94.5483 18.2892 94.7738 18.5411 94.9386 18.849C95.1035 19.1538 95.1859 19.5192 95.1859 19.9453V24.7783H93.3012V23.7847H93.2452C93.1302 24.0086 92.9762 24.2061 92.7834 24.3771C92.5906 24.5451 92.3589 24.6772 92.0883 24.7737C91.8177 24.867 91.5052 24.9136 91.1506 24.9136ZM91.7197 23.5421C92.0121 23.5421 92.2702 23.4845 92.4942 23.3695C92.7181 23.2513 92.8938 23.0927 93.0213 22.8936C93.1488 22.6946 93.2126 22.4691 93.2126 22.2172V21.4568C93.1504 21.4972 93.0648 21.5345 92.956 21.5688C92.8503 21.5999 92.7305 21.6294 92.5968 21.6574C92.4631 21.6823 92.3293 21.7056 92.1956 21.7274C92.0619 21.746 91.9406 21.7631 91.8317 21.7787C91.5985 21.8129 91.3947 21.8673 91.2206 21.942C91.0464 22.0166 90.9111 22.1177 90.8147 22.2452C90.7183 22.3696 90.6701 22.5251 90.6701 22.7117C90.6701 22.9823 90.7681 23.1891 90.964 23.3321C91.1631 23.4721 91.415 23.5421 91.7197 23.5421ZM98.715 20.6357V24.7783H96.7277V17.6128H98.6217V18.877H98.7057C98.8643 18.4603 99.1302 18.1306 99.5034 17.888C99.8766 17.6423 100.329 17.5195 100.861 17.5195C101.359 17.5195 101.792 17.6283 102.163 17.846C102.533 18.0637 102.82 18.3747 103.026 18.779C103.231 19.1802 103.333 19.6592 103.333 20.2159V24.7783H101.346V20.5704C101.349 20.1319 101.237 19.7898 101.01 19.5441C100.783 19.2953 100.471 19.1709 100.073 19.1709C99.8051 19.1709 99.5687 19.2284 99.3635 19.3435C99.1613 19.4586 99.0027 19.6265 98.8876 19.8473C98.7757 20.065 98.7181 20.3278 98.715 20.6357ZM105.87 27.4654C105.618 27.4654 105.382 27.4452 105.161 27.4048C104.943 27.3674 104.763 27.3192 104.62 27.2601L105.068 25.7766C105.301 25.8482 105.511 25.8871 105.697 25.8933C105.887 25.8995 106.05 25.856 106.187 25.7627C106.327 25.6693 106.441 25.5107 106.528 25.2868L106.644 24.9836L104.074 17.6128H106.164L107.647 22.875H107.722L109.22 17.6128H111.324L108.538 25.5527C108.405 25.9384 108.223 26.2743 107.993 26.5604C107.766 26.8496 107.478 27.072 107.13 27.2275C106.781 27.3861 106.361 27.4654 105.87 27.4654ZM123.41 15.2243V24.7783H121.665L117.508 18.765H117.438V24.7783H115.418V15.2243H117.191L121.315 21.2329H121.399V15.2243H123.41ZM127.084 24.9136C126.627 24.9136 126.22 24.8343 125.862 24.6757C125.505 24.514 125.222 24.276 125.013 23.9619C124.808 23.6447 124.705 23.2497 124.705 22.777C124.705 22.3789 124.778 22.0446 124.925 21.774C125.071 21.5034 125.27 21.2857 125.522 21.1209C125.774 20.9561 126.06 20.8317 126.38 20.7477C126.704 20.6637 127.043 20.6046 127.397 20.5704C127.814 20.5269 128.15 20.4865 128.405 20.4491C128.66 20.4087 128.845 20.3496 128.96 20.2719C129.075 20.1941 129.132 20.079 129.132 19.9266V19.8987C129.132 19.6032 129.039 19.3746 128.853 19.2129C128.669 19.0512 128.408 18.9703 128.069 18.9703C127.711 18.9703 127.427 19.0496 127.215 19.2082C127.004 19.3637 126.864 19.5597 126.795 19.796L124.957 19.6467C125.051 19.2113 125.234 18.835 125.508 18.5178C125.781 18.1975 126.134 17.9518 126.567 17.7807C127.002 17.6066 127.506 17.5195 128.078 17.5195C128.476 17.5195 128.857 17.5661 129.221 17.6594C129.588 17.7527 129.913 17.8973 130.196 18.0933C130.482 18.2892 130.708 18.5411 130.873 18.849C131.037 19.1538 131.12 19.5192 131.12 19.9453V24.7783H129.235V23.7847H129.179C129.064 24.0086 128.91 24.2061 128.717 24.3771C128.524 24.5451 128.293 24.6772 128.022 24.7737C127.752 24.867 127.439 24.9136 127.084 24.9136ZM127.654 23.5421C127.946 23.5421 128.204 23.4845 128.428 23.3695C128.652 23.2513 128.828 23.0927 128.955 22.8936C129.083 22.6946 129.146 22.4691 129.146 22.2172V21.4568C129.084 21.4972 128.999 21.5345 128.89 21.5688C128.784 21.5999 128.664 21.6294 128.531 21.6574C128.397 21.6823 128.263 21.7056 128.129 21.7274C127.996 21.746 127.874 21.7631 127.766 21.7787C127.532 21.8129 127.329 21.8673 127.154 21.942C126.98 22.0166 126.845 22.1177 126.749 22.2452C126.652 22.3696 126.604 22.5251 126.604 22.7117C126.604 22.9823 126.702 23.1891 126.898 23.3321C127.097 23.4721 127.349 23.5421 127.654 23.5421ZM132.662 24.7783V17.6128H134.556V18.877H134.64C134.789 18.4571 135.038 18.1259 135.386 17.8833C135.734 17.6408 136.151 17.5195 136.636 17.5195C137.128 17.5195 137.546 17.6423 137.891 17.888C138.236 18.1306 138.466 18.4603 138.582 18.877H138.656C138.802 18.4665 139.067 18.1384 139.449 17.8927C139.835 17.6439 140.291 17.5195 140.816 17.5195C141.485 17.5195 142.027 17.7325 142.444 18.1586C142.864 18.5815 143.074 19.1818 143.074 19.9593V24.7783H141.091V20.3512C141.091 19.9531 140.986 19.6545 140.774 19.4555C140.563 19.2564 140.298 19.1569 139.981 19.1569C139.62 19.1569 139.339 19.272 139.137 19.5021C138.935 19.7292 138.833 20.0293 138.833 20.4025V24.7783H136.907V20.3092C136.907 19.9577 136.806 19.6778 136.604 19.4695C136.405 19.2611 136.142 19.1569 135.815 19.1569C135.594 19.1569 135.395 19.2129 135.218 19.3249C135.044 19.4337 134.905 19.5877 134.803 19.7867C134.7 19.9826 134.649 20.2128 134.649 20.4771V24.7783H132.662ZM147.909 24.9183C147.172 24.9183 146.538 24.769 146.006 24.4704C145.477 24.1688 145.07 23.7427 144.784 23.1922C144.498 22.6386 144.355 21.9839 144.355 21.2282C144.355 20.4911 144.498 19.8442 144.784 19.2875C145.07 18.7308 145.473 18.297 145.992 17.986C146.515 17.675 147.127 17.5195 147.83 17.5195C148.303 17.5195 148.743 17.5957 149.15 17.7481C149.561 17.8973 149.918 18.1228 150.223 18.4245C150.531 18.7262 150.771 19.1056 150.942 19.5628C151.113 20.0168 151.198 20.5487 151.198 21.1582V21.704H145.148V20.4725H149.328C149.328 20.1863 149.265 19.9329 149.141 19.7121C149.017 19.4912 148.844 19.3186 148.623 19.1942C148.405 19.0667 148.152 19.003 147.863 19.003C147.561 19.003 147.294 19.0729 147.06 19.2129C146.83 19.3497 146.65 19.5348 146.519 19.768C146.389 19.9982 146.322 20.2548 146.319 20.5378V21.7087C146.319 22.0632 146.384 22.3696 146.515 22.6277C146.648 22.8859 146.836 23.0849 147.079 23.2249C147.322 23.3648 147.609 23.4348 147.942 23.4348C148.163 23.4348 148.365 23.4037 148.548 23.3415C148.732 23.2793 148.889 23.186 149.02 23.0616C149.15 22.9372 149.25 22.7848 149.318 22.6044L151.156 22.7257C151.063 23.1673 150.872 23.553 150.582 23.8826C150.296 24.2092 149.926 24.4642 149.472 24.6477C149.021 24.8281 148.5 24.9183 147.909 24.9183Z" fill="#07B289"/>
<path d="M55.1707 33.4767C55.1302 33.1179 54.9635 32.84 54.6703 32.6429C54.3772 32.4432 54.0083 32.3434 53.5635 32.3434C53.2452 32.3434 52.9697 32.394 52.7372 32.495C52.5048 32.5936 52.3241 32.73 52.1952 32.9044C52.0689 33.0762 52.0057 33.2721 52.0057 33.4919C52.0057 33.6764 52.0487 33.8356 52.1346 33.9695C52.223 34.1034 52.338 34.2159 52.4795 34.3068C52.6235 34.3953 52.7777 34.4698 52.9419 34.5305C53.1062 34.5886 53.2641 34.6366 53.4157 34.6745L54.1738 34.8716C54.4214 34.9322 54.6754 35.0144 54.9357 35.118C55.1959 35.2216 55.4373 35.358 55.6596 35.5273C55.882 35.6966 56.0614 35.9064 56.1979 36.1565C56.3368 36.4067 56.4063 36.7061 56.4063 37.0548C56.4063 37.4945 56.2926 37.8849 56.0652 38.2261C55.8403 38.5672 55.5131 38.8363 55.0835 39.0334C54.6564 39.2305 54.1397 39.3291 53.5332 39.3291C52.952 39.3291 52.4492 39.2368 52.0247 39.0524C51.6001 38.8679 51.2678 38.6064 51.0278 38.2678C50.7877 37.9266 50.6551 37.5223 50.6298 37.0548H51.8048C51.8276 37.3353 51.9185 37.5691 52.0777 37.7561C52.2394 37.9405 52.4454 38.0782 52.6955 38.1692C52.9482 38.2577 53.2249 38.3019 53.5256 38.3019C53.8567 38.3019 54.1511 38.2501 54.4088 38.1465C54.6691 38.0403 54.8737 37.8938 55.0228 37.7068C55.1719 37.5173 55.2465 37.2962 55.2465 37.0435C55.2465 36.8135 55.1808 36.6253 55.0494 36.4787C54.9205 36.3321 54.7449 36.2109 54.5225 36.1148C54.3027 36.0188 54.0538 35.9342 53.7758 35.8609L52.8585 35.6107C52.2369 35.4414 51.7442 35.1925 51.3803 34.864C51.0189 34.5355 50.8383 34.1009 50.8383 33.5601C50.8383 33.1129 50.9596 32.7225 51.2021 32.3889C51.4447 32.0553 51.7732 31.7963 52.1876 31.6119C52.6021 31.4249 53.0695 31.3314 53.5901 31.3314C54.1157 31.3314 54.5794 31.4236 54.9811 31.6081C55.3854 31.7925 55.7038 32.0465 55.9363 32.3699C56.1688 32.6909 56.2901 33.0598 56.3002 33.4767H55.1707ZM59.4092 39.3291C59.0403 39.3291 58.7068 39.2608 58.4086 39.1244C58.1104 38.9854 57.8741 38.7845 57.6998 38.5217C57.528 38.2589 57.442 37.9367 57.442 37.5552C57.442 37.2267 57.5052 36.9563 57.6316 36.744C57.7579 36.5318 57.9285 36.3637 58.1433 36.2399C58.358 36.1161 58.5981 36.0226 58.8634 35.9594C59.1288 35.8963 59.3991 35.8482 59.6746 35.8154C60.0233 35.775 60.3063 35.7421 60.5236 35.7168C60.7409 35.689 60.8989 35.6448 60.9974 35.5842C61.096 35.5235 61.1452 35.425 61.1452 35.2885V35.262C61.1452 34.931 61.0517 34.6745 60.8647 34.4926C60.6803 34.3106 60.4048 34.2196 60.0384 34.2196C59.6569 34.2196 59.3562 34.3043 59.1363 34.4736C58.919 34.6404 58.7687 34.8261 58.6853 35.0308L57.6202 34.7882C57.7465 34.4344 57.931 34.1489 58.1736 33.9316C58.4187 33.7117 58.7004 33.5525 59.0188 33.454C59.3372 33.3529 59.672 33.3024 60.0233 33.3024C60.2558 33.3024 60.5021 33.3302 60.7624 33.3858C61.0252 33.4388 61.2703 33.5374 61.4977 33.6814C61.7277 33.8254 61.9159 34.0314 62.0625 34.2992C62.2091 34.5646 62.2823 34.9095 62.2823 35.334V39.2002H61.1756V38.4042H61.1301C61.0568 38.5508 60.9469 38.6948 60.8003 38.8363C60.6537 38.9778 60.4655 39.0953 60.2355 39.1888C60.0056 39.2823 59.7302 39.3291 59.4092 39.3291ZM59.6556 38.4194C59.969 38.4194 60.2368 38.3575 60.4592 38.2337C60.6841 38.1098 60.8546 37.9481 60.9709 37.7485C61.0896 37.5463 61.149 37.3303 61.149 37.1003V36.3498C61.1086 36.3903 61.0303 36.4282 60.914 36.4635C60.8003 36.4964 60.6702 36.5255 60.5236 36.5507C60.3771 36.5735 60.2343 36.5949 60.0953 36.6152C59.9563 36.6329 59.8401 36.648 59.7466 36.6606C59.5267 36.6884 59.3259 36.7352 59.1439 36.8009C58.9645 36.8666 58.8205 36.9613 58.7118 37.0852C58.6057 37.2065 58.5526 37.3682 58.5526 37.5703C58.5526 37.8508 58.6562 38.0631 58.8634 38.2071C59.0706 38.3486 59.3347 38.4194 59.6556 38.4194ZM63.7919 39.2002V33.3782H64.8797V34.3258H64.9517C65.073 34.0049 65.2714 33.7547 65.5468 33.5753C65.8222 33.3933 66.152 33.3024 66.5361 33.3024C66.9252 33.3024 67.2512 33.3933 67.514 33.5753C67.7793 33.7572 67.9752 34.0074 68.1015 34.3258H68.1622C68.3011 34.015 68.5222 33.7673 68.8255 33.5829C69.1287 33.3959 69.4901 33.3024 69.9095 33.3024C70.4376 33.3024 70.8685 33.4679 71.202 33.7989C71.5381 34.1299 71.7062 34.629 71.7062 35.2961V39.2002H70.5728V35.4022C70.5728 35.008 70.4654 34.7225 70.2507 34.5456C70.0359 34.3687 69.7794 34.2803 69.4812 34.2803C69.1123 34.2803 68.8255 34.394 68.6208 34.6214C68.4161 34.8463 68.3138 35.1357 68.3138 35.4894V39.2002H67.1842V35.3302C67.1842 35.0144 67.0857 34.7604 66.8886 34.5684C66.6915 34.3763 66.435 34.2803 66.1191 34.2803C65.9044 34.2803 65.706 34.3371 65.5241 34.4509C65.3446 34.562 65.1994 34.7175 65.0882 34.9171C64.9795 35.1167 64.9252 35.3479 64.9252 35.6107V39.2002H63.7919ZM73.2251 41.3834V33.3782H74.3319V34.322H74.4267C74.4924 34.2007 74.5872 34.0605 74.711 33.9013C74.8348 33.7421 75.0066 33.6031 75.2265 33.4843C75.4463 33.363 75.7369 33.3024 76.0982 33.3024C76.5683 33.3024 76.9877 33.4211 77.3567 33.6587C77.7256 33.8962 78.0149 34.2386 78.2246 34.6859C78.4369 35.1331 78.543 35.6714 78.543 36.3006C78.543 36.9298 78.4382 37.4693 78.2284 37.919C78.0187 38.3663 77.7306 38.7112 77.3642 38.9538C76.9978 39.1939 76.5796 39.3139 76.1096 39.3139C75.7559 39.3139 75.4665 39.2545 75.2416 39.1358C75.0193 39.017 74.8449 38.878 74.7186 38.7188C74.5922 38.5596 74.4949 38.4181 74.4267 38.2943H74.3585V41.3834H73.2251ZM74.3357 36.2892C74.3357 36.6986 74.3951 37.0574 74.5139 37.3657C74.6326 37.6739 74.8045 37.9153 75.0294 38.0896C75.2543 38.2614 75.5297 38.3474 75.8557 38.3474C76.1943 38.3474 76.4773 38.2577 76.7047 38.0782C76.9321 37.8963 77.104 37.6499 77.2202 37.3391C77.339 37.0283 77.3983 36.6783 77.3983 36.2892C77.3983 35.9051 77.3402 35.5602 77.224 35.2544C77.1103 34.9487 76.9384 34.7073 76.7085 34.5305C76.4811 34.3536 76.1968 34.2651 75.8557 34.2651C75.5272 34.2651 75.2492 34.3498 75.0218 34.5191C74.7969 34.6884 74.6263 34.9247 74.5101 35.2279C74.3938 35.5311 74.3357 35.8849 74.3357 36.2892ZM80.9461 31.4375V39.2002H79.8128V31.4375H80.9461ZM84.98 39.3177C84.4064 39.3177 83.9124 39.1951 83.498 38.95C83.0861 38.7024 82.7677 38.3549 82.5428 37.9077C82.3205 37.4579 82.2093 36.931 82.2093 36.3271C82.2093 35.7307 82.3205 35.2051 82.5428 34.7503C82.7677 34.2955 83.0811 33.9404 83.4828 33.6852C83.8871 33.43 84.3597 33.3024 84.9004 33.3024C85.2289 33.3024 85.5473 33.3567 85.8556 33.4654C86.1639 33.574 86.4406 33.7446 86.6857 33.9771C86.9308 34.2095 87.1241 34.5115 87.2656 34.883C87.4071 35.2519 87.4779 35.7004 87.4779 36.2285V36.6303H82.8498V35.7813H86.3673C86.3673 35.4831 86.3067 35.219 86.1854 34.9891C86.0641 34.7566 85.8935 34.5734 85.6737 34.4395C85.4564 34.3056 85.2011 34.2386 84.908 34.2386C84.5896 34.2386 84.3117 34.3169 84.0741 34.4736C83.8391 34.6277 83.6572 34.8299 83.5283 35.0801C83.402 35.3277 83.3388 35.5968 83.3388 35.8874V36.5507C83.3388 36.9399 83.407 37.2709 83.5435 37.5438C83.6825 37.8167 83.8758 38.0252 84.1234 38.1692C84.371 38.3107 84.6604 38.3815 84.9914 38.3815C85.2062 38.3815 85.402 38.3512 85.5789 38.2905C85.7558 38.2273 85.9087 38.1338 86.0375 38.01C86.1664 37.8862 86.265 37.7333 86.3332 37.5514L87.4059 37.7447C87.32 38.0606 87.1658 38.3373 86.9434 38.5748C86.7236 38.8098 86.4469 38.993 86.1134 39.1244C85.7823 39.2533 85.4046 39.3177 84.98 39.3177ZM91.6511 39.2002V31.4375H92.8223V38.192H96.3398V39.2002H91.6511ZM100.037 39.3177C99.4915 39.3177 99.0151 39.1926 98.6083 38.9425C98.2015 38.6923 97.8856 38.3423 97.6607 37.8925C97.4358 37.4427 97.3234 36.9171 97.3234 36.3157C97.3234 35.7118 97.4358 35.1837 97.6607 34.7313C97.8856 34.279 98.2015 33.9278 98.6083 33.6776C99.0151 33.4275 99.4915 33.3024 100.037 33.3024C100.583 33.3024 101.059 33.4275 101.466 33.6776C101.873 33.9278 102.189 34.279 102.414 34.7313C102.639 35.1837 102.751 35.7118 102.751 36.3157C102.751 36.9171 102.639 37.4427 102.414 37.8925C102.189 38.3423 101.873 38.6923 101.466 38.9425C101.059 39.1926 100.583 39.3177 100.037 39.3177ZM100.041 38.3663C100.395 38.3663 100.688 38.2728 100.92 38.0858C101.153 37.8988 101.325 37.6499 101.436 37.3391C101.55 37.0283 101.606 36.6859 101.606 36.3119C101.606 35.9405 101.55 35.5993 101.436 35.2885C101.325 34.9752 101.153 34.7238 100.92 34.5342C100.688 34.3447 100.395 34.25 100.041 34.25C99.6848 34.25 99.3891 34.3447 99.1541 34.5342C98.9216 34.7238 98.7486 34.9752 98.6348 35.2885C98.5237 35.5993 98.4681 35.9405 98.4681 36.3119C98.4681 36.6859 98.5237 37.0283 98.6348 37.3391C98.7486 37.6499 98.9216 37.8988 99.1541 38.0858C99.3891 38.2728 99.6848 38.3663 100.041 38.3663ZM106.457 41.5047C105.995 41.5047 105.597 41.4441 105.263 41.3228C104.932 41.2015 104.662 41.0411 104.452 40.8414C104.242 40.6418 104.086 40.4232 103.982 40.1857L104.956 39.7839C105.024 39.8951 105.115 40.0126 105.229 40.1364C105.345 40.2628 105.502 40.3702 105.699 40.4586C105.899 40.547 106.155 40.5913 106.469 40.5913C106.898 40.5913 107.253 40.4864 107.534 40.2767C107.814 40.0695 107.954 39.7384 107.954 39.2836V38.1389H107.882C107.814 38.2627 107.716 38.4004 107.587 38.552C107.46 38.7037 107.286 38.8351 107.064 38.9462C106.841 39.0574 106.552 39.113 106.196 39.113C105.736 39.113 105.321 39.0056 104.952 38.7908C104.586 38.5735 104.295 38.2539 104.081 37.8319C103.868 37.4073 103.762 36.8855 103.762 36.2664C103.762 35.6474 103.867 35.1167 104.077 34.6745C104.289 34.2323 104.58 33.8937 104.949 33.6587C105.318 33.4211 105.736 33.3024 106.203 33.3024C106.565 33.3024 106.856 33.363 107.079 33.4843C107.301 33.6031 107.474 33.7421 107.598 33.9013C107.724 34.0605 107.822 34.2007 107.89 34.322H107.973V33.3782H109.084V39.3291C109.084 39.8294 108.968 40.24 108.735 40.5609C108.503 40.8819 108.188 41.1194 107.791 41.2735C107.397 41.4277 106.952 41.5047 106.457 41.5047ZM106.446 38.173C106.772 38.173 107.047 38.0972 107.272 37.9456C107.5 37.7914 107.671 37.5716 107.788 37.2861C107.906 36.998 107.966 36.6531 107.966 36.2513C107.966 35.8596 107.908 35.5147 107.791 35.2165C107.675 34.9183 107.505 34.6859 107.28 34.5191C107.055 34.3498 106.777 34.2651 106.446 34.2651C106.105 34.2651 105.82 34.3536 105.593 34.5305C105.366 34.7048 105.194 34.9423 105.078 35.243C104.964 35.5438 104.907 35.8798 104.907 36.2513C104.907 36.6329 104.965 36.9677 105.081 37.2557C105.198 37.5438 105.369 37.7687 105.597 37.9304C105.827 38.0921 106.11 38.173 106.446 38.173ZM113.056 39.3177C112.51 39.3177 112.034 39.1926 111.627 38.9425C111.22 38.6923 110.905 38.3423 110.68 37.8925C110.455 37.4427 110.342 36.9171 110.342 36.3157C110.342 35.7118 110.455 35.1837 110.68 34.7313C110.905 34.279 111.22 33.9278 111.627 33.6776C112.034 33.4275 112.51 33.3024 113.056 33.3024C113.602 33.3024 114.078 33.4275 114.485 33.6776C114.892 33.9278 115.208 34.279 115.433 34.7313C115.658 35.1837 115.77 35.7118 115.77 36.3157C115.77 36.9171 115.658 37.4427 115.433 37.8925C115.208 38.3423 114.892 38.6923 114.485 38.9425C114.078 39.1926 113.602 39.3177 113.056 39.3177ZM113.06 38.3663C113.414 38.3663 113.707 38.2728 113.939 38.0858C114.172 37.8988 114.344 37.6499 114.455 37.3391C114.569 37.0283 114.625 36.6859 114.625 36.3119C114.625 35.9405 114.569 35.5993 114.455 35.2885C114.344 34.9752 114.172 34.7238 113.939 34.5342C113.707 34.3447 113.414 34.25 113.06 34.25C112.704 34.25 112.408 34.3447 112.173 34.5342C111.941 34.7238 111.768 34.9752 111.654 35.2885C111.543 35.5993 111.487 35.9405 111.487 36.3119C111.487 36.6859 111.543 37.0283 111.654 37.3391C111.768 37.6499 111.941 37.8988 112.173 38.0858C112.408 38.2728 112.704 38.3663 113.06 38.3663ZM119.568 32.4458V31.4375H125.576V32.4458H123.154V39.2002H121.986V32.4458H119.568ZM127.715 39.3291C127.346 39.3291 127.012 39.2608 126.714 39.1244C126.416 38.9854 126.179 38.7845 126.005 38.5217C125.833 38.2589 125.747 37.9367 125.747 37.5552C125.747 37.2267 125.811 36.9563 125.937 36.744C126.063 36.5318 126.234 36.3637 126.449 36.2399C126.663 36.1161 126.903 36.0226 127.169 35.9594C127.434 35.8963 127.704 35.8482 127.98 35.8154C128.329 35.775 128.612 35.7421 128.829 35.7168C129.046 35.689 129.204 35.6448 129.303 35.5842C129.401 35.5235 129.451 35.425 129.451 35.2885V35.262C129.451 34.931 129.357 34.6745 129.17 34.4926C128.986 34.3106 128.71 34.2196 128.344 34.2196C127.962 34.2196 127.662 34.3043 127.442 34.4736C127.224 34.6404 127.074 34.8261 126.991 35.0308L125.926 34.7882C126.052 34.4344 126.236 34.1489 126.479 33.9316C126.724 33.7117 127.006 33.5525 127.324 33.454C127.643 33.3529 127.977 33.3024 128.329 33.3024C128.561 33.3024 128.807 33.3302 129.068 33.3858C129.331 33.4388 129.576 33.5374 129.803 33.6814C130.033 33.8254 130.221 34.0314 130.368 34.2992C130.514 34.5646 130.588 34.9095 130.588 35.334V39.2002H129.481V38.4042H129.435C129.362 38.5508 129.252 38.6948 129.106 38.8363C128.959 38.9778 128.771 39.0953 128.541 39.1888C128.311 39.2823 128.035 39.3291 127.715 39.3291ZM127.961 38.4194C128.274 38.4194 128.542 38.3575 128.765 38.2337C128.989 38.1098 129.16 37.9481 129.276 37.7485C129.395 37.5463 129.454 37.3303 129.454 37.1003V36.3498C129.414 36.3903 129.336 36.4282 129.219 36.4635C129.106 36.4964 128.975 36.5255 128.829 36.5507C128.682 36.5735 128.54 36.5949 128.401 36.6152C128.262 36.6329 128.145 36.648 128.052 36.6606C127.832 36.6884 127.631 36.7352 127.449 36.8009C127.27 36.8666 127.126 36.9613 127.017 37.0852C126.911 37.2065 126.858 37.3682 126.858 37.5703C126.858 37.8508 126.962 38.0631 127.169 38.2071C127.376 38.3486 127.64 38.4194 127.961 38.4194ZM134.538 41.5047C134.076 41.5047 133.678 41.4441 133.344 41.3228C133.013 41.2015 132.743 41.0411 132.533 40.8414C132.323 40.6418 132.167 40.4232 132.063 40.1857L133.037 39.7839C133.105 39.8951 133.196 40.0126 133.31 40.1364C133.426 40.2628 133.583 40.3702 133.78 40.4586C133.98 40.547 134.236 40.5913 134.55 40.5913C134.979 40.5913 135.334 40.4864 135.615 40.2767C135.895 40.0695 136.035 39.7384 136.035 39.2836V38.1389H135.963C135.895 38.2627 135.797 38.4004 135.668 38.552C135.541 38.7037 135.367 38.8351 135.145 38.9462C134.922 39.0574 134.633 39.113 134.277 39.113C133.817 39.113 133.402 39.0056 133.033 38.7908C132.667 38.5735 132.376 38.2539 132.162 37.8319C131.949 37.4073 131.843 36.8855 131.843 36.2664C131.843 35.6474 131.948 35.1167 132.158 34.6745C132.37 34.2323 132.661 33.8937 133.03 33.6587C133.399 33.4211 133.817 33.3024 134.284 33.3024C134.646 33.3024 134.937 33.363 135.16 33.4843C135.382 33.6031 135.555 33.7421 135.679 33.9013C135.805 34.0605 135.903 34.2007 135.971 34.322H136.054V33.3782H137.165V39.3291C137.165 39.8294 137.049 40.24 136.816 40.5609C136.584 40.8819 136.269 41.1194 135.872 41.2735C135.478 41.4277 135.033 41.5047 134.538 41.5047ZM134.527 38.173C134.853 38.173 135.128 38.0972 135.353 37.9456C135.581 37.7914 135.752 37.5716 135.869 37.2861C135.987 36.998 136.047 36.6531 136.047 36.2513C136.047 35.8596 135.989 35.5147 135.872 35.2165C135.756 34.9183 135.586 34.6859 135.361 34.5191C135.136 34.3498 134.858 34.2651 134.527 34.2651C134.186 34.2651 133.901 34.3536 133.674 34.5305C133.447 34.7048 133.275 34.9423 133.158 35.243C133.045 35.5438 132.988 35.8798 132.988 36.2513C132.988 36.6329 133.046 36.9677 133.162 37.2557C133.279 37.5438 133.45 37.7687 133.678 37.9304C133.908 38.0921 134.191 38.173 134.527 38.173ZM139.818 31.4375V39.2002H138.685V31.4375H139.818ZM141.343 39.2002V33.3782H142.476V39.2002H141.343ZM141.915 32.4799C141.718 32.4799 141.549 32.4142 141.407 32.2828C141.268 32.1488 141.199 31.9896 141.199 31.8052C141.199 31.6182 141.268 31.459 141.407 31.3276C141.549 31.1937 141.718 31.1267 141.915 31.1267C142.112 31.1267 142.28 31.1937 142.419 31.3276C142.561 31.459 142.632 31.6182 142.632 31.8052C142.632 31.9896 142.561 32.1488 142.419 32.2828C142.28 32.4142 142.112 32.4799 141.915 32.4799ZM145.134 35.7434V39.2002H144.001V33.3782H145.089V34.3258H145.161C145.295 34.0175 145.504 33.7699 145.79 33.5829C146.078 33.3959 146.441 33.3024 146.878 33.3024C147.274 33.3024 147.622 33.3858 147.92 33.5525C148.218 33.7168 148.449 33.9619 148.614 34.2879C148.778 34.6138 148.86 35.0169 148.86 35.497V39.2002H147.727V35.6335C147.727 35.2115 147.617 34.8817 147.397 34.6442C147.177 34.4041 146.875 34.2841 146.491 34.2841C146.228 34.2841 145.995 34.3409 145.79 34.4547C145.588 34.5684 145.427 34.7351 145.309 34.955C145.192 35.1723 145.134 35.4351 145.134 35.7434ZM152.889 39.3177C152.316 39.3177 151.822 39.1951 151.407 38.95C150.995 38.7024 150.677 38.3549 150.452 37.9077C150.23 37.4579 150.119 36.931 150.119 36.3271C150.119 35.7307 150.23 35.2051 150.452 34.7503C150.677 34.2955 150.99 33.9404 151.392 33.6852C151.796 33.43 152.269 33.3024 152.81 33.3024C153.138 33.3024 153.457 33.3567 153.765 33.4654C154.073 33.574 154.35 33.7446 154.595 33.9771C154.84 34.2095 155.033 34.5115 155.175 34.883C155.316 35.2519 155.387 35.7004 155.387 36.2285V36.6303H150.759V35.7813H154.277C154.277 35.4831 154.216 35.219 154.095 34.9891C153.973 34.7566 153.803 34.5734 153.583 34.4395C153.366 34.3056 153.11 34.2386 152.817 34.2386C152.499 34.2386 152.221 34.3169 151.983 34.4736C151.748 34.6277 151.566 34.8299 151.438 35.0801C151.311 35.3277 151.248 35.5968 151.248 35.8874V36.5507C151.248 36.9399 151.316 37.2709 151.453 37.5438C151.592 37.8167 151.785 38.0252 152.033 38.1692C152.28 38.3107 152.57 38.3815 152.901 38.3815C153.115 38.3815 153.311 38.3512 153.488 38.2905C153.665 38.2273 153.818 38.1338 153.947 38.01C154.076 37.8862 154.174 37.7333 154.242 37.5514L155.315 37.7447C155.229 38.0606 155.075 38.3373 154.853 38.5748C154.633 38.8098 154.356 38.993 154.023 39.1244C153.692 39.2533 153.314 39.3177 152.889 39.3177Z" fill="#2D2D2D"/>
</svg>
