<svg xmlns="http://www.w3.org/2000/svg" width="24" height="24" viewBox="0 0 24 24">
  <g id="Group_8247" data-name="Group 8247" transform="translate(-2 0.014)">
    <path id="Path_58770" data-name="Path 58770" d="M5,10.75a1,1,0,0,1-1-1V3.25a1,1,0,0,1,2,0v6.5A1,1,0,0,1,5,10.75Z" fill="#90a4ae"/>
    <path id="Subtraction_1" data-name="Subtraction 1" d="M7.743,14.936h-1.7a1.4,1.4,0,0,1-1.39-1.276l-.119-1.23a5.282,5.282,0,0,1-.649-.388l-1.06.5a1.361,1.361,0,0,1-.578.128,1.394,1.394,0,0,1-1.218-.714L.18,10.429A1.428,1.428,0,0,1,.569,8.595l.954-.708a4.753,4.753,0,0,1,0-.839L.569,6.339A1.428,1.428,0,0,1,.181,4.5l.848-1.521a1.394,1.394,0,0,1,1.8-.586l1.059.494A5.306,5.306,0,0,1,4.535,2.5l.119-1.228A1.4,1.4,0,0,1,6.043,0h1.7A1.393,1.393,0,0,1,9.13,1.274L9.25,2.5a5.3,5.3,0,0,1,.649.389l1.06-.5a1.379,1.379,0,0,1,.58-.127,1.4,1.4,0,0,1,1.216.713l.85,1.521a1.426,1.426,0,0,1-.39,1.834l-.953.709a4.75,4.75,0,0,1,0,.839l.953.71a1.425,1.425,0,0,1,.389,1.834l-.848,1.521a1.4,1.4,0,0,1-1.218.713,1.383,1.383,0,0,1-.58-.127L9.9,12.045a5.328,5.328,0,0,1-.649.389l-.12,1.227A1.4,1.4,0,0,1,7.743,14.936ZM6.893,4.6A2.872,2.872,0,1,0,9.765,7.468,2.875,2.875,0,0,0,6.893,4.6Z" transform="translate(12.214 9.05)" fill="#2196f3"/>
    <path id="Subtraction_2" data-name="Subtraction 2" d="M-14-401.014a3,3,0,0,1-3-3v-7.921a2.728,2.728,0,0,1,.141-.869l.67-2.008a1.745,1.745,0,0,1,1.658-1.2h1.06a1.749,1.749,0,0,1,1.66,1.2l.669,2.007a2.731,2.731,0,0,1,.141.87v7.921A3,3,0,0,1-14-401.014Zm1.487-8.656a.35.35,0,0,0-.35.35v5.956a.35.35,0,0,0,.35.35.35.35,0,0,0,.35-.35v-5.956A.35.35,0,0,0-12.514-409.67Zm-1.493,0a.35.35,0,0,0-.35.35v5.956a.35.35,0,0,0,.35.35.35.35,0,0,0,.35-.35v-5.956A.35.35,0,0,0-14.007-409.67Zm-1.493,0a.35.35,0,0,0-.35.35v5.956a.35.35,0,0,0,.35.35.35.35,0,0,0,.35-.35v-5.956A.35.35,0,0,0-15.5-409.67ZM-11.748-421h-4.5a.748.748,0,0,1-.663-.4.746.746,0,0,1,.047-.774l1.329-1.923A1.749,1.749,0,0,1-14-425.014a1.749,1.749,0,0,1,1.538.914l1.33,1.922a.745.745,0,0,1,.049.776A.748.748,0,0,1-11.748-421Z" transform="translate(19 425)" fill="#607d8b"/>
  </g>
</svg>
