<svg width="16" height="17" viewBox="0 0 16 17" fill="none" xmlns="http://www.w3.org/2000/svg">
<path d="M8 0.791016C9.06087 0.791016 10.0783 1.21244 10.8284 1.96259C11.5786 2.71273 12 3.73015 12 4.79102C12 5.85188 11.5786 6.8693 10.8284 7.61944C10.0783 8.36959 9.06087 8.79102 8 8.79102C6.93913 8.79102 5.92172 8.36959 5.17157 7.61944C4.42143 6.8693 4 5.85188 4 4.79102C4 3.73015 4.42143 2.71273 5.17157 1.96259C5.92172 1.21244 6.93913 0.791016 8 0.791016ZM8 2.79102C7.46957 2.79102 6.96086 3.00173 6.58579 3.3768C6.21071 3.75187 6 4.26058 6 4.79102C6 5.32145 6.21071 5.83016 6.58579 6.20523C6.96086 6.5803 7.46957 6.79102 8 6.79102C8.53043 6.79102 9.03914 6.5803 9.41421 6.20523C9.78929 5.83016 10 5.32145 10 4.79102C10 4.26058 9.78929 3.75187 9.41421 3.3768C9.03914 3.00173 8.53043 2.79102 8 2.79102ZM8 9.79102C10.67 9.79102 16 11.121 16 13.791V16.791H0V13.791C0 11.121 5.33 9.79102 8 9.79102ZM8 11.691C5.03 11.691 1.9 13.151 1.9 13.791V14.891H14.1V13.791C14.1 13.151 10.97 11.691 8 11.691Z" fill="#707070"/>
</svg>
