<svg xmlns="http://www.w3.org/2000/svg" width="23.636" height="23.633" viewBox="0 0 23.636 23.633">
  <g id="Group_8344" data-name="Group 8344" transform="translate(0 -0.033)">
    <path id="Path_58966" data-name="Path 58966" d="M23.172,9.8,21.99,9.509a10.018,10.018,0,0,0-1.3-3.157l.6-1a.689.689,0,0,0-.1-.845l-.969-.969-1-1a.689.689,0,0,0-.845-.1l-1,.6a10.017,10.017,0,0,0-3.157-1.3L13.931.559a.682.682,0,0,0-.665-.526H10.5a.682.682,0,0,0-.665.526L9.542,1.741a10.017,10.017,0,0,0-3.157,1.3l-1-.6a.689.689,0,0,0-.845.1L2.576,4.51a.689.689,0,0,0-.1.845l.6,1a10.018,10.018,0,0,0-1.3,3.157L.591,9.8a.683.683,0,0,0-.526.665v2.769a.682.682,0,0,0,.526.665l1.182.291a10.352,10.352,0,0,0,1.8,3.877l2.091,2.091a10.352,10.352,0,0,0,3.877,1.8l.291,1.182a.683.683,0,0,0,.665.526h2.77a.683.683,0,0,0,.665-.526l.291-1.182a10.015,10.015,0,0,0,3.157-1.3l1,.6a.689.689,0,0,0,.845-.1l1.966-1.966a.689.689,0,0,0,.1-.845l-.6-1a10.018,10.018,0,0,0,1.3-3.157l1.182-.291a.682.682,0,0,0,.526-.665V10.465A.682.682,0,0,0,23.172,9.8Zm-11.29,8.281a6.06,6.06,0,0,1-4.2-1.648,1.035,1.035,0,0,1-.194-.166A6.228,6.228,0,1,1,16.3,7.46a1.04,1.04,0,0,1,.166.194,6.06,6.06,0,0,1,1.648,4.2,6.223,6.223,0,0,1-6.231,6.231Z" transform="translate(-0.062)" fill="#90a4ae"/>
    <path id="Path_58968" data-name="Path 58968" d="M16.509,154.7a.692.692,0,0,0-1.161-.32l-1.57,1.57a1.385,1.385,0,0,1-1.958-1.958l1.581-1.581a.684.684,0,0,0-.315-1.147,5.281,5.281,0,0,0-2.167-.08,4.841,4.841,0,0,0-3.866,3.869,4.9,4.9,0,0,0,.2,2.521L.608,164.218a2.083,2.083,0,1,0,2.945,2.945l6.643-6.643a5.067,5.067,0,0,0,3.411-.038,4.783,4.783,0,0,0,2.979-3.631v0a5.238,5.238,0,0,0-.078-2.147Z" transform="translate(0 -144.102)" fill="#17ace8"/>
    <path id="Path_58969" data-name="Path 58969" d="M16.371,230.413l6.643-6.643a5.067,5.067,0,0,0,3.411-.038A4.782,4.782,0,0,0,29.4,220.1v0a5.237,5.237,0,0,0-.082-2.163.684.684,0,0,0-1.147-.314L26.6,219.2a1.382,1.382,0,0,1-1.943.01L13.438,230.426A2.1,2.1,0,0,0,16.371,230.413Z" transform="translate(-12.817 -207.351)" fill="#1689fc"/>
  </g>
</svg>
