<svg width="23" height="26" viewBox="0 0 23 26" fill="none" xmlns="http://www.w3.org/2000/svg">
<path d="M22.3844 24.8696H21.4363V20.0279C21.4363 19.6465 21.361 19.2688 21.2149 18.9164C21.0687 18.5641 20.8545 18.244 20.5845 17.9746C20.3145 17.7052 19.994 17.4916 19.6413 17.3462C19.2887 17.2008 18.9108 17.1264 18.5294 17.1272C17.7605 17.1289 17.0236 17.435 16.4799 17.9786C15.9361 18.5222 15.6299 19.2591 15.6281 20.0279V24.8696H14.4977V20.0279C14.4974 19.6465 14.4221 19.2689 14.2758 18.9167C14.1296 18.5645 13.9153 18.2445 13.6454 17.9751C13.3754 17.7057 13.055 17.4922 12.7024 17.3467C12.3499 17.2012 11.9721 17.1266 11.5907 17.1272C10.02 17.1272 8.68949 18.4012 8.68949 20.0279V24.8696H7.55905V20.0279C7.54405 19.2676 7.23149 18.5435 6.68851 18.0112C6.14552 17.4788 5.4154 17.1806 4.65497 17.1806C3.89453 17.1806 3.16441 17.4788 2.62143 18.0112C2.07844 18.5435 1.76588 19.2676 1.75088 20.0279V24.8696H0.802705C0.6528 24.8696 0.509035 24.9291 0.403036 25.0351C0.297037 25.1411 0.237488 25.2849 0.237488 25.4348C0.237488 25.5847 0.297037 25.7285 0.403036 25.8345C0.509035 25.9405 0.6528 26 0.802705 26H22.3844C22.5343 26 22.6781 25.9405 22.7841 25.8345C22.8901 25.7285 22.9497 25.5847 22.9497 25.4348C22.9497 25.2849 22.8901 25.1411 22.7841 25.0351C22.6781 24.9291 22.5343 24.8696 22.3844 24.8696ZM15.4591 7.30543H7.72692V12.4845H15.4591V7.30543ZM10.6915 10.8816C10.6915 11.0315 10.6319 11.1752 10.5259 11.2812C10.4199 11.3872 10.2762 11.4468 10.1263 11.4468C9.97637 11.4468 9.8326 11.3872 9.7266 11.2812C9.6206 11.1752 9.56105 11.0315 9.56105 10.8816V8.90896C9.56105 8.75905 9.6206 8.61529 9.7266 8.50929C9.8326 8.40329 9.97637 8.34374 10.1263 8.34374C10.2762 8.34374 10.4199 8.40329 10.5259 8.50929C10.6319 8.61529 10.6915 8.75905 10.6915 8.90896V10.8816ZM13.625 10.8816C13.625 11.0315 13.5654 11.1752 13.4594 11.2812C13.3534 11.3872 13.2097 11.4468 13.0597 11.4468C12.9098 11.4468 12.7661 11.3872 12.6601 11.2812C12.5541 11.1752 12.4945 11.0315 12.4945 10.8816V8.90896C12.4945 8.75905 12.5541 8.61529 12.6601 8.50929C12.7661 8.40329 12.9098 8.34374 13.0597 8.34374C13.2097 8.34374 13.3534 8.40329 13.4594 8.50929C13.5654 8.61529 13.625 8.75905 13.625 8.90896V10.8816ZM15.4591 5.82513C15.4591 4.43583 13.5017 3.05387 12.1582 2.31174V0.565217C12.1582 0.415312 12.0987 0.271547 11.9927 0.165548C11.8867 0.0595494 11.7429 0 11.593 0C11.4431 0 11.2993 0.0595494 11.1933 0.165548C11.0873 0.271547 11.0278 0.415312 11.0278 0.565217V2.31287C9.68371 3.05613 7.72692 4.43922 7.72692 5.82513V6.175H15.4591V5.82513Z" fill="white"/>
</svg>
