<svg width="25" height="26" viewBox="0 0 25 26" fill="none" xmlns="http://www.w3.org/2000/svg">
<path d="M15.5501 5.31037L14.7071 2.21881L13.864 5.30991C14.1383 5.26152 14.419 5.2314 14.7071 5.2314C14.9951 5.2314 15.2758 5.26152 15.5501 5.31037ZM19.4208 9.18108C19.4697 9.45541 19.4998 9.73613 19.4998 10.0242C19.4998 10.3094 19.4724 10.5906 19.4231 10.8668L22.5124 10.0242L19.4208 9.18108ZM18.6097 3.26454L16.3329 5.52125C16.8659 5.71338 17.3606 5.99851 17.7941 6.3634L18.6097 3.26454ZM19.21 8.39872L21.4667 6.12194L18.3678 6.93762C18.7327 7.37102 19.0179 7.86572 19.21 8.39872ZM19.9198 14.1902L18.5869 12.8574V13.2193C18.5866 14.0672 18.3068 14.8913 17.7909 15.5641L18.4121 17.1854C18.6762 17.129 18.9454 17.1001 19.2154 17.0992C19.3871 17.0992 19.5564 17.1074 19.7239 17.1234L19.5213 15.3368C19.5173 15.3013 19.5216 15.2653 19.5341 15.2318L19.9198 14.1902Z" fill="white"/>
<path d="M18.8151 19.3814C19.1933 19.3814 19.4998 19.0749 19.4998 18.6968C19.4998 18.3186 19.1933 18.0121 18.8151 18.0121C18.437 18.0121 18.1305 18.3186 18.1305 18.6968C18.1305 19.0749 18.437 19.3814 18.8151 19.3814Z" fill="white"/>
<path d="M19.0434 10.0242C19.0434 7.63327 17.098 5.68787 14.7071 5.68787C12.3162 5.68787 10.3708 7.63327 10.3708 10.0242C10.3708 10.7002 10.5287 11.3534 10.8272 11.949V11.3935C10.8272 9.25413 12.5677 7.51368 14.7071 7.51368C16.8464 7.51368 18.5869 9.25413 18.5869 11.3935V11.949C18.8872 11.3518 19.0436 10.6926 19.0434 10.0242Z" fill="white"/>
<path d="M18.1304 13.2193V11.3935C18.1304 11.2515 18.119 11.1128 18.1021 10.9754C17.7444 11.1004 17.3683 11.1646 16.9893 11.1653C16.3813 11.1653 15.8496 10.6805 15.5026 10.3154C15.0818 9.87259 14.3323 9.87305 13.9115 10.3154C13.5645 10.6805 13.0328 11.1653 12.4248 11.1653C12.0458 11.1646 11.6697 11.1004 11.312 10.9754C11.294 11.114 11.2845 11.2537 11.2837 11.3935V13.2193C11.2837 15.1072 12.8192 16.6427 14.707 16.6427C16.5949 16.6427 18.1304 15.1072 18.1304 13.2193ZM16.7369 12.4086C16.7098 12.4628 16.6623 12.5039 16.6048 12.523C16.5474 12.5421 16.4847 12.5375 16.4306 12.5104L15.62 12.1051L14.8773 12.4767L14.1004 14.0304L14.8093 14.3846C14.8629 14.412 14.9036 14.4595 14.9223 14.5167C14.9411 14.574 14.9365 14.6363 14.9095 14.6901C14.8825 14.744 14.8354 14.785 14.7783 14.8042C14.7212 14.8234 14.6589 14.8193 14.6048 14.7927L13.6919 14.3362C13.6651 14.3229 13.6411 14.3043 13.6215 14.2817C13.6018 14.259 13.5868 14.2327 13.5773 14.2043C13.5678 14.1758 13.564 14.1458 13.5661 14.1159C13.5683 14.086 13.5762 14.0568 13.5897 14.03L14.4003 12.4082L13.7941 12.1051L12.9835 12.5104C12.9293 12.5375 12.8666 12.5419 12.8092 12.5227C12.7517 12.5036 12.7043 12.4624 12.6772 12.4082C12.6501 12.354 12.6457 12.2913 12.6649 12.2339C12.6841 12.1764 12.7253 12.129 12.7794 12.1019L13.6924 11.6455C13.7241 11.6297 13.759 11.6215 13.7944 11.6215C13.8298 11.6215 13.8647 11.6297 13.8964 11.6455L14.707 12.0512L15.5177 11.6459C15.5494 11.6301 15.5843 11.6219 15.6197 11.6219C15.6551 11.6219 15.69 11.6301 15.7217 11.6459L16.6346 12.1024C16.6615 12.1158 16.6854 12.1343 16.7051 12.1569C16.7247 12.1796 16.7397 12.2059 16.7492 12.2343C16.7587 12.2628 16.7625 12.2928 16.7604 12.3227C16.7583 12.3526 16.7503 12.3818 16.7369 12.4086ZM13.0816 5.52123L10.8048 3.26453L11.6205 6.36338C12.0539 5.99847 12.5486 5.71334 13.0816 5.52123ZM10.9116 17.3548L11.5242 15.4317C11.0701 14.7833 10.8268 14.0109 10.8272 13.2193V12.8254C10.8062 12.7966 10.787 12.767 10.7669 12.7382L9.49619 13.7547L9.90243 14.973C9.91616 15.0141 9.9179 15.0583 9.90745 15.1003L9.62536 16.2292L10.9116 17.3548ZM13.1095 16.7509V17.6697L15.4807 19.4481L16.17 18.5749C16.2124 18.5215 16.2599 18.474 16.3046 18.4229V16.7509C15.8167 16.9727 15.2767 17.0992 14.707 17.0992C14.1374 17.0992 13.5974 16.9727 13.1095 16.7509Z" fill="white"/>
<path d="M14.707 7.97015C13.1213 7.97015 11.788 9.05514 11.4005 10.5213C11.728 10.6442 12.0749 10.7078 12.4248 10.7089C12.7539 10.7089 13.1213 10.4838 13.5805 10.0009C14.1753 9.37557 15.2388 9.37511 15.8336 10.0009C16.2932 10.4838 16.6602 10.7089 16.9893 10.7089C17.3412 10.7089 17.6845 10.6431 18.0136 10.5213C17.6265 9.0556 16.2928 7.97015 14.707 7.97015ZM18.1031 19.5814C16.7925 21.5431 15.8258 23.7137 15.2443 26H17.8639C17.8439 23.9119 18.1313 21.8323 18.717 19.8279C18.4923 19.8089 18.2785 19.7231 18.1031 19.5814ZM17.674 18.6968C17.674 18.2536 17.9305 17.8729 18.3002 17.6839C17.5993 17.8759 16.9783 18.2873 16.5283 18.8579L10.8897 26H14.7833C14.7833 25.9813 14.781 25.9631 14.786 25.9443C15.3901 23.5406 16.4105 21.2612 17.8009 19.2094C17.7187 19.051 17.6752 18.8753 17.674 18.6968ZM24.6851 24.0715L24.6801 24.0674C24.5663 23.9883 24.4311 23.9459 24.2926 23.946C23.9151 23.946 23.6079 24.2532 23.6079 24.6307V25.0871C23.6079 25.4646 23.9151 25.7718 24.2926 25.7718C24.67 25.7718 24.9772 25.4646 24.9772 25.0871V24.6307C24.9772 24.3993 24.8613 24.1957 24.6851 24.0715ZM20.4196 20.9238C20.4262 20.8942 20.4388 20.8661 20.4564 20.8414C20.4741 20.8166 20.4965 20.7956 20.5224 20.7797C20.5483 20.7637 20.5771 20.7531 20.6072 20.7484C20.6373 20.7437 20.6679 20.7451 20.6975 20.7525C20.727 20.7599 20.7547 20.773 20.779 20.7913C20.8034 20.8095 20.8238 20.8324 20.8392 20.8587C20.8546 20.8849 20.8645 20.914 20.8685 20.9442C20.8725 20.9743 20.8704 21.005 20.8623 21.0343C20.7581 21.4555 20.7434 21.8938 20.8191 22.3211C20.8948 22.7483 21.0593 23.1549 21.3019 23.5147L22.2522 20.901C22.2631 20.8707 22.2803 20.8431 22.3027 20.8199C22.3251 20.7968 22.3521 20.7787 22.382 20.7668C22.4119 20.7549 22.444 20.7494 22.4761 20.7509C22.5083 20.7523 22.5398 20.7605 22.5685 20.775L23.9744 21.478C23.7624 20.372 23.1708 19.3749 22.3018 18.6587C21.4328 17.9426 20.341 17.5524 19.215 17.5557C19.1282 17.5557 19.0433 17.5639 18.9575 17.5703C19.2326 17.6044 19.4857 17.7376 19.6696 17.945C19.8534 18.1523 19.9554 18.4197 19.9563 18.6968C19.9557 18.9294 19.8839 19.1563 19.7505 19.3469C19.6172 19.5375 19.4287 19.6827 19.2104 19.7631C18.5998 21.7841 18.2997 23.8861 18.3203 25.9973L18.3199 25.9996H20.4145C20.4145 25.9736 20.4168 25.9475 20.4264 25.9215L21.1143 24.0295C20.7655 23.6012 20.5212 23.0976 20.4006 22.5586C20.2801 22.0196 20.2865 21.4599 20.4196 20.9238ZM11.0468 6.9372L7.94744 6.12152L10.2041 8.39831C10.3964 7.86529 10.6817 7.3706 11.0468 6.9372Z" fill="white"/>
<path d="M23.1514 25.0871V24.6306C23.1514 24.0016 23.6631 23.4895 24.2926 23.4895C24.4245 23.4895 24.5495 23.5164 24.6678 23.558L24.9398 22.4707L22.5936 21.2981L20.8838 26H23.6147C23.4715 25.8947 23.355 25.7572 23.2745 25.5986C23.1941 25.4401 23.1519 25.2649 23.1514 25.0871ZM12.8055 18.0121H11.249L11.1335 18.7036C11.0344 19.2992 10.7635 19.8528 10.354 20.2964C9.94443 20.74 9.41417 21.0542 8.8284 21.2004C8.79936 21.2077 8.76916 21.2092 8.73953 21.2048C8.70991 21.2004 8.68145 21.1902 8.65579 21.1747C8.63013 21.1593 8.60777 21.1389 8.59 21.1148C8.57223 21.0907 8.5594 21.0633 8.55225 21.0343C8.53762 20.9755 8.5469 20.9134 8.57806 20.8615C8.60921 20.8097 8.65969 20.7723 8.7184 20.7576C9.21776 20.6328 9.66978 20.3648 10.019 19.9866C10.3681 19.6084 10.5992 19.1365 10.6839 18.6287L10.8099 17.8719L7.55901 15.0278L7.4773 15.497C7.18656 17.1577 6.48535 18.7194 5.43741 20.0401L5.69942 20.2711C6.19091 20.7057 6.53061 21.2861 6.66892 21.9275C6.81505 22.6042 7.22321 23.1955 7.80412 23.5721C8.0321 23.7183 8.21957 23.9195 8.34921 24.1572C8.47885 24.395 8.54648 24.6616 8.54586 24.9324V25.4491L9.10775 24.8872C9.94926 24.0456 10.5463 22.9912 10.835 21.8367C10.8416 21.807 10.8542 21.779 10.8719 21.7542C10.8895 21.7295 10.912 21.7085 10.9379 21.6925C10.9637 21.6766 10.9926 21.6659 11.0226 21.6613C11.0527 21.6566 11.0834 21.658 11.1129 21.6654C11.1424 21.6727 11.1701 21.6859 11.1945 21.7041C11.2188 21.7224 11.2393 21.7453 11.2546 21.7716C11.27 21.7978 11.2799 21.8269 11.2839 21.857C11.2879 21.8872 11.2858 21.9178 11.2777 21.9472C10.9692 23.1821 10.3306 24.3099 9.43046 25.2099L8.63943 26H10.3744C10.3744 25.9502 10.3867 25.9005 10.4201 25.8585L15.1982 19.8064L12.8055 18.0121ZM2.38283 3.86205C3.01183 3.86205 3.52397 3.34991 3.52397 2.72091C3.52397 2.26994 2.89954 0.960833 2.38283 0C1.86613 0.960833 1.2417 2.26994 1.2417 2.72091C1.2417 3.34991 1.75384 3.86205 2.38283 3.86205ZM1.01348 5.68786H3.75219C4.12968 5.68786 4.43687 5.38066 4.43687 5.00318V4.3185H0.328796V5.00318C0.328796 5.38066 0.635989 5.68786 1.01348 5.68786ZM9.9143 10.0242C9.9143 9.73614 9.94443 9.45542 9.99327 9.18109L6.90171 10.0242L9.99099 10.8668C9.94062 10.5887 9.91495 10.3067 9.9143 10.0242ZM3.67049 9.99084L3.59563 9.77311L3.5226 10.503C3.51705 10.5593 3.49076 10.6116 3.44884 10.6496C3.40691 10.6877 3.35235 10.7088 3.29574 10.7088H1.95879L2.29839 12.2284C2.65855 13.8399 3.24303 15.393 4.03474 16.8422L5.39451 19.3312C6.14914 18.2641 6.67915 17.0549 6.95238 15.7768C5.50926 14.0682 4.39638 12.1062 3.67049 9.99084Z" fill="white"/>
<path d="M3.49976 6.14429H1.26588L1.31609 6.64684C1.55639 6.71254 1.76851 6.85521 1.91996 7.05299C2.07141 7.25078 2.15383 7.49276 2.1546 7.74187V8.19832C2.1546 8.62465 1.91724 8.99255 1.56988 9.18837L1.67669 10.2524H3.08941L3.49976 6.14429Z" fill="white"/>
<path d="M1.69815 7.74187C1.69815 7.36438 1.39096 7.05719 1.01348 7.05719C0.635989 7.05719 0.328796 7.36438 0.328796 7.74187V8.19832C0.328796 8.57581 0.635989 8.883 1.01348 8.883C1.39096 8.883 1.69815 8.57581 1.69815 8.19832V7.74187Z" fill="white"/>
</svg>
