<svg xmlns="http://www.w3.org/2000/svg" width="28" height="28" viewBox="0 0 28 28">
  <g id="Group_9052" data-name="Group 9052" transform="translate(-28 -21)">
    <rect id="Rectangle_5" data-name="Rectangle 5" width="28" height="28" rx="4" transform="translate(28 21)" fill="#afafaf"/>
    <g id="Group_9053" data-name="Group 9053" transform="translate(-64.478 26)">
      <path id="Path_59514" data-name="Path 59514" d="M112.218,8.662,103.856.3A1.03,1.03,0,0,0,102.4.3l-.616.616a1.029,1.029,0,0,0,0,1.454l7.022,7.022-7.03,7.03a1.03,1.03,0,0,0,0,1.454l.616.616a1.03,1.03,0,0,0,1.454,0l8.37-8.37a1.037,1.037,0,0,0,0-1.459Z" fill="#fafafa"/>
    </g>
  </g>
</svg>
