<svg width="18" height="17" viewBox="0 0 18 17" fill="none" xmlns="http://www.w3.org/2000/svg">
<path d="M9.00003 0.605225L17.8763 6.37497L16.5 7.26972V12H15V8.24472L14.25 8.73222V13.125C14.25 14.2275 13.4895 15.0862 12.5603 15.6292C11.6115 16.182 10.3515 16.4992 9.00003 16.4992C7.64853 16.4992 6.38778 16.182 5.43978 15.6292C4.50978 15.0862 3.75003 14.2267 3.75003 13.1242V8.73222L0.123779 6.37497L9.00003 0.605225ZM5.25003 9.70722V13.125C5.25003 13.4722 5.49753 13.9252 6.19578 14.3325C6.87678 14.73 7.86603 15 9.00003 15C10.134 15 11.1233 14.73 11.8043 14.3325C12.5033 13.9252 12.7493 13.4722 12.7493 13.125V9.70722L8.99928 12.1447L5.25003 9.70722ZM15.1238 6.37497L9.00003 2.39472L2.87628 6.37497L9.00003 10.3552L15.1238 6.37497Z" fill="#5774F1"/>
</svg>
