<svg width="40" height="40" viewBox="0 0 40 40" fill="none" xmlns="http://www.w3.org/2000/svg">
<rect width="40" height="40" rx="7" fill="#DDDDDD"/>
<path d="M26 21C27.0928 21 28.1174 21.2922 28.9999 21.8026L28.9998 15L24 10H11.9985C11.4475 10 11 10.4441 11 10.9918V29.0082C11 29.5447 11.4448 30 11.9934 30H20.8027C20.2922 29.1175 20 28.0929 20 27C20 23.6863 22.6863 21 26 21ZM29.5356 29.1212L27.4143 26.9999L29.5356 24.8786L28.1214 23.4644L26.0001 25.5857L23.8788 23.4644L22.4646 24.8786L24.5859 26.9999L22.4646 29.1212L23.8788 30.5354L26.0001 28.4141L28.1214 30.5354L29.5356 29.1212Z" fill="#707070"/>
</svg>
