<svg width="20" height="19" viewBox="0 0 20 19" fill="none" xmlns="http://www.w3.org/2000/svg">
<path d="M8.07402 6.34515C8.07402 6.26227 8.10695 6.18279 8.16555 6.12418C8.22416 6.06558 8.30364 6.03265 8.38652 6.03265H14.4406C14.5235 6.03265 14.603 6.06558 14.6616 6.12418C14.7202 6.18279 14.7531 6.26227 14.7531 6.34515C14.7531 6.42803 14.7202 6.50752 14.6616 6.56612C14.603 6.62473 14.5235 6.65765 14.4406 6.65765H8.38652C8.30364 6.65765 8.22416 6.62473 8.16555 6.56612C8.10695 6.50752 8.07402 6.42803 8.07402 6.34515ZM8.38652 4.69492H14.4406C14.5235 4.69492 14.603 4.66199 14.6616 4.60339C14.7202 4.54479 14.7531 4.4653 14.7531 4.38242C14.7531 4.29954 14.7202 4.22005 14.6616 4.16145C14.603 4.10284 14.5235 4.06992 14.4406 4.06992H8.38652C8.30364 4.06992 8.22416 4.10284 8.16555 4.16145C8.10695 4.22005 8.07402 4.29954 8.07402 4.38242C8.07402 4.4653 8.10695 4.54479 8.16555 4.60339C8.22416 4.66199 8.30364 4.69492 8.38652 4.69492ZM8.38652 2.73211H14.4406C14.5235 2.73211 14.603 2.69918 14.6616 2.64058C14.7202 2.58197 14.7531 2.50249 14.7531 2.41961C14.7531 2.33673 14.7202 2.25724 14.6616 2.19864C14.603 2.14003 14.5235 2.10711 14.4406 2.10711H8.38652C8.30364 2.10711 8.22416 2.14003 8.16555 2.19864C8.10695 2.25724 8.07402 2.33673 8.07402 2.41961C8.07402 2.50249 8.10695 2.58197 8.16555 2.64058C8.22416 2.69918 8.30364 2.73211 8.38652 2.73211ZM5.03844 8.62043H14.4406C14.5235 8.62043 14.603 8.5875 14.6616 8.5289C14.7202 8.47029 14.7531 8.39081 14.7531 8.30793C14.7531 8.22505 14.7202 8.14556 14.6616 8.08696C14.603 8.02835 14.5235 7.99543 14.4406 7.99543H5.03844C4.95556 7.99543 4.87607 8.02835 4.81747 8.08696C4.75886 8.14556 4.72594 8.22505 4.72594 8.30793C4.72594 8.39081 4.75886 8.47029 4.81747 8.5289C4.87607 8.5875 4.95556 8.62043 5.03844 8.62043ZM5.03844 10.5832H14.4406C14.5235 10.5832 14.603 10.5502 14.6616 10.4916C14.7202 10.433 14.7531 10.3535 14.7531 10.2707C14.7531 10.1878 14.7202 10.1083 14.6616 10.0497C14.603 9.99109 14.5235 9.95816 14.4406 9.95816H5.03844C4.95556 9.95816 4.87607 9.99109 4.81747 10.0497C4.75886 10.1083 4.72594 10.1878 4.72594 10.2707C4.72594 10.3535 4.75886 10.433 4.81747 10.4916C4.87607 10.5502 4.95556 10.5832 5.03844 10.5832ZM5.73871 4.73101H5.89527C6.1091 4.73101 6.28305 4.90496 6.28305 5.11879C6.28305 5.33261 6.1091 5.50656 5.89527 5.50656H5.6748C5.55129 5.50656 5.43371 5.44593 5.36027 5.34437C5.31171 5.27722 5.23846 5.2321 5.15663 5.21895C5.0748 5.2058 4.99111 5.2257 4.92395 5.27426C4.89069 5.2983 4.86249 5.32866 4.84097 5.3636C4.81945 5.39854 4.80502 5.43738 4.79851 5.4779C4.792 5.51841 4.79353 5.55982 4.80302 5.59974C4.81252 5.63967 4.82978 5.67733 4.85383 5.71058C5.00948 5.92564 5.24294 6.07143 5.50449 6.11691V6.41734C5.50449 6.50022 5.53742 6.57971 5.59602 6.63831C5.65463 6.69692 5.73411 6.72984 5.81699 6.72984C5.89987 6.72984 5.97936 6.69692 6.03796 6.63831C6.09657 6.57971 6.12949 6.50022 6.12949 6.41734V6.10422C6.57543 5.99828 6.90805 5.59664 6.90805 5.11875C6.90805 4.56031 6.45371 4.10597 5.89527 4.10597H5.73871C5.52488 4.10597 5.35094 3.93199 5.35094 3.71816C5.35094 3.50433 5.52488 3.33039 5.73871 3.33039H5.95918C6.0827 3.33039 6.20023 3.39101 6.27367 3.49258C6.29757 3.52621 6.32788 3.55478 6.36288 3.57664C6.39787 3.5985 6.43685 3.61321 6.47756 3.61993C6.51826 3.62665 6.5599 3.62524 6.60006 3.61578C6.64022 3.60633 6.67811 3.58901 6.71155 3.56483C6.74498 3.54066 6.7733 3.5101 6.79486 3.47492C6.81642 3.43975 6.83081 3.40065 6.83718 3.35989C6.84356 3.31912 6.8418 3.2775 6.832 3.23742C6.82221 3.19734 6.80457 3.15959 6.78012 3.12636C6.62446 2.91132 6.391 2.76553 6.12945 2.72004V2.41961C6.12945 2.33673 6.09653 2.25724 6.03792 2.19864C5.97932 2.14003 5.89983 2.10711 5.81695 2.10711C5.73407 2.10711 5.65459 2.14003 5.59598 2.19864C5.53738 2.25724 5.50445 2.33673 5.50445 2.41961V2.73273C5.05859 2.83871 4.7259 3.24035 4.7259 3.7182C4.72594 4.27664 5.18027 4.73101 5.73871 4.73101ZM19.9609 15.058C19.9609 17.1587 18.2519 18.8677 16.1512 18.8677C15.5245 18.8677 14.9327 18.7155 14.4107 18.4463H3.47195C3.14168 18.4463 2.87301 18.1776 2.87301 17.8474V3.67453H0.638008C0.307734 3.67453 0.0390625 3.40586 0.0390625 3.07558V1.86172C0.0390625 0.908083 0.814883 0.132263 1.76852 0.132263H14.8765C15.8301 0.132263 16.6059 0.908083 16.6059 1.86172V11.2755C18.493 11.501 19.9609 13.1112 19.9609 15.058ZM2.87301 3.04953V1.86172C2.87301 1.25269 2.37754 0.757263 1.76855 0.757263C1.15953 0.757263 0.664062 1.25269 0.664062 1.86172V3.04953H2.87301ZM13.5312 17.8213C12.9819 17.3002 12.5873 16.6175 12.4245 15.8501C12.2386 15.7676 12.1118 15.6509 12.0127 15.5596C11.8795 15.4369 11.8202 15.387 11.6863 15.3822C11.5053 15.3741 11.2697 15.5952 11.0417 15.8076C10.7076 16.1188 10.3289 16.4715 9.8141 16.4715C9.06047 16.4715 8.91309 15.7978 8.81559 15.3521C8.69898 14.8192 8.63078 14.7115 8.41012 14.7115C8.12152 14.7115 7.98879 14.8315 7.7393 15.0812C7.41246 15.4082 6.96488 15.8561 5.89082 15.8561C5.80794 15.8561 5.72845 15.8232 5.66985 15.7646C5.61124 15.706 5.57832 15.6265 5.57832 15.5436C5.57832 15.4608 5.61124 15.3813 5.66985 15.3227C5.72845 15.2641 5.80794 15.2311 5.89082 15.2311C6.7059 15.2311 6.99313 14.9437 7.29723 14.6394C7.55621 14.3802 7.84973 14.0865 8.41012 14.0865C9.17848 14.0865 9.3275 14.7678 9.42617 15.2186C9.54043 15.7409 9.6057 15.8465 9.81414 15.8465C10.083 15.8465 10.3418 15.6055 10.6158 15.3503C10.937 15.0512 11.2699 14.7426 11.7088 14.7576C12.0077 14.7684 12.1997 14.8944 12.342 15.0156C12.3524 14.0706 12.7084 13.2072 13.2895 12.546H5.03844C4.95556 12.546 4.87607 12.5131 4.81747 12.4544C4.75886 12.3958 4.72594 12.3164 4.72594 12.2335C4.72594 12.1506 4.75886 12.0711 4.81747 12.0125C4.87607 11.9539 4.95556 11.921 5.03844 11.921H13.992C14.5624 11.5272 15.2448 11.2848 15.981 11.2522V1.86172C15.981 1.25269 15.4855 0.757263 14.8765 0.757263H3.09844C3.34785 1.05707 3.49801 1.44219 3.49801 1.86172V17.8213H13.5312ZM19.3359 15.058C19.3359 13.3019 17.9073 11.8732 16.1512 11.8732C14.3951 11.8732 12.9664 13.3019 12.9664 15.058C12.9664 16.8141 14.3951 18.2427 16.1512 18.2427C17.9073 18.2427 19.3359 16.8141 19.3359 15.058ZM18.0891 13.5625C18.2477 13.7202 18.3354 13.9303 18.3361 14.154C18.3367 14.3778 18.2501 14.5883 18.0924 14.747L16.3062 16.5498C16.1432 16.7138 15.9274 16.7961 15.7117 16.7961C15.5007 16.7961 15.2898 16.7175 15.1279 16.56L14.2196 15.6747C14.0595 15.519 13.9695 15.3098 13.9663 15.0861C13.9632 14.8624 14.0475 14.6509 14.2034 14.4905C14.3594 14.3302 14.5686 14.2401 14.7923 14.237C15.0164 14.2341 15.2275 14.3181 15.3879 14.4741L15.7017 14.78L16.9042 13.5662L16.9046 13.5658C16.9819 13.4875 17.0741 13.4254 17.1756 13.383C17.2772 13.3406 17.3861 13.3188 17.4962 13.3188H17.4986C17.6082 13.3185 17.7168 13.3398 17.8182 13.3817C17.9195 13.4235 18.0116 13.4849 18.0891 13.5625ZM17.7111 14.1557C17.7111 14.1278 17.7055 14.1001 17.6948 14.0744C17.684 14.0486 17.6682 14.0252 17.6484 14.0056C17.6287 13.9859 17.6054 13.9703 17.5796 13.9597C17.5539 13.9491 17.5263 13.9436 17.4985 13.9437H17.4979C17.47 13.9437 17.4424 13.9492 17.4167 13.96C17.391 13.9707 17.3676 13.9864 17.348 14.0062L15.9275 15.44C15.8695 15.4985 15.7907 15.5318 15.7082 15.5325C15.6258 15.5333 15.5464 15.5014 15.4873 15.4438L14.9519 14.9218C14.9123 14.8832 14.8592 14.8617 14.804 14.8619L14.8009 14.8619C14.773 14.8622 14.7454 14.8681 14.7197 14.8791C14.6941 14.8901 14.6709 14.9062 14.6514 14.9262C14.6118 14.967 14.5905 15.0206 14.5913 15.0774C14.592 15.1342 14.6149 15.1873 14.6556 15.2269L15.5639 16.1122C15.6468 16.1928 15.7809 16.1918 15.8626 16.1095L17.6488 14.3067C17.6686 14.2869 17.6844 14.2634 17.6951 14.2374C17.7058 14.2115 17.7112 14.1837 17.7111 14.1557Z" fill="#161719"/>
</svg>
