<svg xmlns="http://www.w3.org/2000/svg" width="28" height="28" viewBox="0 0 28 28">
  <g id="Group_9050" data-name="Group 9050" transform="translate(-28 -21)">
    <rect id="Rectangle_5" data-name="Rectangle 5" width="28" height="28" rx="4" transform="translate(28 21)" fill="#5774f1"/>
    <g id="Group_9051" data-name="Group 9051" transform="translate(32.5 25.5)">
      <path id="Path_59513" data-name="Path 59513" d="M7.125,16.229a1.186,1.186,0,0,1-1.188,1.188H4.354A4.362,4.362,0,0,1,0,13.063V4.354A4.362,4.362,0,0,1,4.354,0h7.727a2.8,2.8,0,0,1,1.971.823L16.617,3.4a2.756,2.756,0,0,1,.8,1.948V5.93a1.188,1.188,0,0,1-2.375,0V5.352a.4.4,0,0,0-.111-.277L12.366,2.486a.4.4,0,0,0-.277-.119h-.206V4.346A1.186,1.186,0,0,1,10.7,5.534H5.146A1.186,1.186,0,0,1,3.958,4.346V2.415a1.979,1.979,0,0,0-1.583,1.94v8.708a1.979,1.979,0,0,0,1.979,1.979H5.938A1.186,1.186,0,0,1,7.125,16.229ZM9.381,8.835A.95.95,0,0,0,9.025,7.22a2.766,2.766,0,0,0-3.032,4.188.945.945,0,0,0,1.655-.158A6.709,6.709,0,0,1,9.381,8.835ZM19,13.854a5.146,5.146,0,1,1-5.146-5.146A5.146,5.146,0,0,1,19,13.854ZM17.2,13.316l-2.423-2.422a.764.764,0,0,0-1.306.538v1.235H11.487a1.188,1.188,0,1,0,0,2.375h1.979v1.235a.764.764,0,0,0,1.306.538L17.2,14.393a.765.765,0,0,0,0-1.085Z" fill="#fafafa"/>
    </g>
  </g>
</svg>
