<svg width="40" height="40" viewBox="0 0 40 40" fill="none" xmlns="http://www.w3.org/2000/svg">
<rect width="40" height="40" rx="7" fill="#DDDDDD"/>
<path d="M13 11C12.4696 11 11.9609 11.2107 11.5858 11.5858C11.2107 11.9609 11 12.4696 11 13V27C11 27.5304 11.2107 28.0391 11.5858 28.4142C11.9609 28.7893 12.4696 29 13 29H27C27.5304 29 28.0391 28.7893 28.4142 28.4142C28.7893 28.0391 29 27.5304 29 27V13.5L26.5 11H25V17C25 17.2652 24.8946 17.5196 24.7071 17.7071C24.5196 17.8946 24.2652 18 24 18H16C15.7348 18 15.4804 17.8946 15.2929 17.7071C15.1054 17.5196 15 17.2652 15 17V11H13ZM20 12V17H23V12H20ZM15 20H25C25.2652 20 25.5196 20.1054 25.7071 20.2929C25.8946 20.4804 26 20.7348 26 21V27H14V21C14 20.7348 14.1054 20.4804 14.2929 20.2929C14.4804 20.1054 14.7348 20 15 20Z" fill="#707070"/>
</svg>
