<svg xmlns="http://www.w3.org/2000/svg" width="22.667" height="22.667" viewBox="0 0 22.667 22.667">
  <g id="Group_8267" data-name="Group 8267" transform="translate(0 -0.004)">
    <path id="Path_58792" data-name="Path 58792" d="M315.31,315.987a.856.856,0,0,1-.6-.243l-6.414-6.275a.816.816,0,0,1,0-1.174.86.86,0,0,1,1.2,0l6.414,6.275a.817.817,0,0,1,0,1.174A.856.856,0,0,1,315.31,315.987Zm0,0" transform="translate(-293.492 -293.316)" fill="#607d8b"/>
    <path id="Path_58793" data-name="Path 58793" d="M9.634,0a9.722,9.722,0,0,0,0,19.443A9.722,9.722,0,0,0,9.634,0Zm0,0" transform="translate(0 0)" fill="#2196f3"/>
  </g>
</svg>
