<svg width="40" height="40" viewBox="0 0 40 40" fill="none" xmlns="http://www.w3.org/2000/svg">
<rect width="40" height="40" rx="7" fill="#5774F1" fill-opacity="0.964706"/>
<path d="M26.031 24.6168L29.6066 28.1924C29.9971 28.5829 29.9971 29.2161 29.6066 29.6066C29.2161 29.9971 28.5829 29.9971 28.1924 29.6066L24.6168 26.031C23.0769 27.263 21.124 28 19 28C14.032 28 10 23.968 10 19C10 14.032 14.032 10 19 10C23.968 10 28 14.032 28 19C28 21.124 27.263 23.0769 26.031 24.6168ZM24.0247 23.8748C25.2475 22.6146 26 20.8956 26 19C26 15.1325 22.8675 12 19 12C15.1325 12 12 15.1325 12 19C12 22.8675 15.1325 26 19 26C20.8956 26 22.6146 25.2475 23.8748 24.0247L24.0247 23.8748Z" fill="white"/>
</svg>
