<svg xmlns="http://www.w3.org/2000/svg" width="24.004" height="24" viewBox="0 0 24.004 24">
  <g id="Group_8248" data-name="Group 8248" transform="translate(0)">
    <path id="Path_58777" data-name="Path 58777" d="M15.034,138.1a6.68,6.68,0,0,0,0-2.012l1.67-1.31a1.018,1.018,0,0,0,.252-1.3l-1.078-1.867a1.016,1.016,0,0,0-1.253-.432l-1.968.793a6.373,6.373,0,0,0-1.737-1.005l-.3-2.1a1.015,1.015,0,0,0-1-.867H7.468a1.015,1.015,0,0,0-1,.868l-.3,2.1a6.4,6.4,0,0,0-1.729,1l-1.977-.793a1.016,1.016,0,0,0-1.252.432L.134,133.479a1.014,1.014,0,0,0,.254,1.3l1.668,1.3a6.684,6.684,0,0,0,0,2.012L.384,139.4a1.018,1.018,0,0,0-.252,1.3l1.077,1.867A1.018,1.018,0,0,0,2.462,143l1.968-.793a6.371,6.371,0,0,0,1.738,1.005l.3,2.1a1.016,1.016,0,0,0,1,.867H9.622a1.015,1.015,0,0,0,1-.868l.3-2.1a6.394,6.394,0,0,0,1.729-1l1.977.793a1.013,1.013,0,0,0,1.252-.432l1.077-1.867a1.014,1.014,0,0,0-.254-1.3Zm-6.49,2.526a3.536,3.536,0,1,1,3.536-3.536A3.54,3.54,0,0,1,8.545,140.628Zm0,0" transform="translate(0 -122.184)" fill="#2196f3"/>
    <path id="Path_58778" data-name="Path 58778" d="M310.6,5.525a3.825,3.825,0,0,0,.048-.474,3.828,3.828,0,0,0-.048-.474l.91-.689a.506.506,0,0,0,.132-.656l-.817-1.414a.506.506,0,0,0-.634-.213l-1.048.442a3.753,3.753,0,0,0-.827-.492L308.181.442a.506.506,0,0,0-.5-.442h-1.633a.505.505,0,0,0-.5.442l-.139,1.112a3.77,3.77,0,0,0-.827.492l-1.048-.442a.505.505,0,0,0-.634.213l-.816,1.414a.506.506,0,0,0,.132.656l.91.689a3.634,3.634,0,0,0-.048.474,3.83,3.83,0,0,0,.047.474l-.91.689a.505.505,0,0,0-.132.656l.817,1.414a.505.505,0,0,0,.634.213l1.047-.442a3.753,3.753,0,0,0,.827.492l.139,1.112a.506.506,0,0,0,.5.443h1.634a.5.5,0,0,0,.5-.442l.139-1.112a3.774,3.774,0,0,0,.827-.492l1.048.441a.505.505,0,0,0,.634-.213l.816-1.414a.505.505,0,0,0-.132-.656Zm-3.741,1.547a2.02,2.02,0,1,1,2.02-2.02A2.02,2.02,0,0,1,306.863,7.071Zm0,0" transform="translate(-287.711)" fill="#90a4ae"/>
  </g>
</svg>
