<svg width="529" height="169" viewBox="0 0 529 169" fill="none" xmlns="http://www.w3.org/2000/svg">
<path d="M271.992 168.742V168.051L274.13 165.835C274.358 165.595 274.546 165.384 274.695 165.203C274.845 165.02 274.957 164.846 275.031 164.681C275.105 164.517 275.142 164.342 275.142 164.157C275.142 163.947 275.093 163.766 274.994 163.614C274.895 163.459 274.76 163.341 274.59 163.259C274.419 163.175 274.227 163.132 274.013 163.132C273.786 163.132 273.589 163.179 273.42 163.271C273.252 163.364 273.122 163.494 273.032 163.663C272.941 163.832 272.896 164.029 272.896 164.255H271.986C271.986 163.871 272.074 163.534 272.251 163.247C272.428 162.959 272.671 162.735 272.979 162.577C273.288 162.417 273.638 162.336 274.031 162.336C274.428 162.336 274.778 162.416 275.08 162.574C275.385 162.73 275.622 162.944 275.793 163.216C275.964 163.485 276.049 163.79 276.049 164.129C276.049 164.363 276.005 164.593 275.916 164.817C275.83 165.041 275.679 165.291 275.463 165.567C275.247 165.84 274.947 166.173 274.562 166.563L273.306 167.878V167.924H276.151V168.742H271.992ZM279.455 168.828C279.013 168.828 278.622 168.752 278.283 168.6C277.946 168.448 277.681 168.238 277.49 167.97C277.299 167.703 277.204 167.399 277.206 167.057C277.204 166.79 277.259 166.544 277.37 166.32C277.483 166.093 277.636 165.905 277.829 165.755C278.023 165.603 278.239 165.506 278.477 165.465V165.428C278.163 165.352 277.911 165.183 277.721 164.922C277.532 164.661 277.439 164.36 277.441 164.021C277.439 163.698 277.524 163.41 277.697 163.157C277.872 162.902 278.111 162.701 278.416 162.555C278.72 162.409 279.067 162.336 279.455 162.336C279.84 162.336 280.184 162.41 280.486 162.558C280.79 162.705 281.03 162.905 281.205 163.16C281.38 163.413 281.468 163.7 281.47 164.021C281.468 164.36 281.371 164.661 281.18 164.922C280.989 165.183 280.74 165.352 280.434 165.428V165.465C280.67 165.506 280.883 165.603 281.072 165.755C281.263 165.905 281.416 166.093 281.529 166.32C281.644 166.544 281.703 166.79 281.705 167.057C281.703 167.399 281.606 167.703 281.415 167.97C281.223 168.238 280.958 168.448 280.619 168.6C280.281 168.752 279.894 168.828 279.455 168.828ZM279.455 168.047C279.717 168.047 279.943 168.004 280.134 167.918C280.326 167.829 280.474 167.707 280.579 167.551C280.683 167.392 280.737 167.207 280.739 166.995C280.737 166.775 280.679 166.581 280.566 166.412C280.455 166.244 280.304 166.111 280.113 166.014C279.921 165.917 279.702 165.869 279.455 165.869C279.207 165.869 278.985 165.917 278.792 166.014C278.599 166.111 278.446 166.244 278.335 166.412C278.224 166.581 278.17 166.775 278.172 166.995C278.17 167.207 278.22 167.392 278.323 167.551C278.428 167.707 278.577 167.829 278.77 167.918C278.964 168.004 279.192 168.047 279.455 168.047ZM279.455 165.107C279.665 165.107 279.851 165.065 280.014 164.981C280.176 164.896 280.304 164.779 280.396 164.629C280.491 164.479 280.539 164.303 280.541 164.101C280.539 163.904 280.492 163.731 280.4 163.583C280.309 163.435 280.183 163.321 280.02 163.24C279.858 163.158 279.669 163.117 279.455 163.117C279.237 163.117 279.046 163.158 278.882 163.24C278.719 163.321 278.593 163.435 278.502 163.583C278.412 163.731 278.367 163.904 278.369 164.101C278.367 164.303 278.413 164.479 278.505 164.629C278.598 164.779 278.725 164.896 278.888 164.981C279.052 165.065 279.241 165.107 279.455 165.107ZM285.207 162.423V168.742H284.251V163.379H284.214L282.702 164.367V163.453L284.279 162.423H285.207ZM287.172 168.8C287.003 168.8 286.858 168.741 286.737 168.621C286.616 168.5 286.555 168.354 286.555 168.183C286.555 168.015 286.616 167.871 286.737 167.751C286.858 167.63 287.003 167.569 287.172 167.569C287.341 167.569 287.486 167.63 287.607 167.751C287.729 167.871 287.789 168.015 287.789 168.183C287.789 168.296 287.76 168.4 287.703 168.495C287.647 168.587 287.573 168.661 287.481 168.717C287.388 168.773 287.285 168.8 287.172 168.8ZM289.013 168.742V168.051L291.151 165.835C291.379 165.595 291.567 165.384 291.715 165.203C291.866 165.02 291.978 164.846 292.052 164.681C292.126 164.517 292.163 164.342 292.163 164.157C292.163 163.947 292.113 163.766 292.015 163.614C291.916 163.459 291.781 163.341 291.611 163.259C291.44 163.175 291.247 163.132 291.034 163.132C290.807 163.132 290.61 163.179 290.441 163.271C290.272 163.364 290.143 163.494 290.052 163.663C289.962 163.832 289.917 164.029 289.917 164.255H289.006C289.006 163.871 289.095 163.534 289.272 163.247C289.449 162.959 289.691 162.735 290 162.577C290.308 162.417 290.659 162.336 291.052 162.336C291.449 162.336 291.799 162.416 292.101 162.574C292.406 162.73 292.643 162.944 292.814 163.216C292.985 163.485 293.07 163.79 293.07 164.129C293.07 164.363 293.026 164.593 292.937 164.817C292.851 165.041 292.7 165.291 292.484 165.567C292.268 165.84 291.967 166.173 291.583 166.563L290.327 167.878V167.924H293.172V168.742H289.013ZM296.541 168.847C296.054 168.845 295.637 168.716 295.291 168.461C294.946 168.206 294.682 167.835 294.499 167.347C294.315 166.86 294.224 166.272 294.224 165.585C294.224 164.9 294.315 164.315 294.499 163.83C294.684 163.344 294.949 162.974 295.295 162.719C295.642 162.464 296.058 162.336 296.541 162.336C297.024 162.336 297.439 162.465 297.784 162.722C298.13 162.977 298.394 163.347 298.577 163.833C298.763 164.316 298.855 164.9 298.855 165.585C298.855 166.274 298.764 166.863 298.581 167.35C298.397 167.836 298.133 168.207 297.788 168.464C297.442 168.719 297.027 168.847 296.541 168.847ZM296.541 168.023C296.969 168.023 297.303 167.814 297.544 167.396C297.787 166.979 297.908 166.375 297.908 165.585C297.908 165.061 297.852 164.617 297.741 164.255C297.632 163.891 297.475 163.616 297.269 163.429C297.066 163.239 296.823 163.145 296.541 163.145C296.115 163.145 295.781 163.355 295.538 163.774C295.296 164.194 295.173 164.797 295.171 165.585C295.171 166.112 295.226 166.557 295.335 166.921C295.446 167.283 295.603 167.558 295.807 167.745C296.01 167.93 296.255 168.023 296.541 168.023ZM302.261 168.742V164.002H303.147V164.774H303.206C303.304 164.513 303.466 164.309 303.69 164.163C303.914 164.015 304.183 163.941 304.495 163.941C304.812 163.941 305.077 164.015 305.291 164.163C305.507 164.311 305.667 164.515 305.77 164.774H305.819C305.932 164.521 306.112 164.319 306.359 164.169C306.606 164.017 306.9 163.941 307.241 163.941C307.671 163.941 308.022 164.075 308.294 164.345C308.567 164.614 308.704 165.021 308.704 165.564V168.742H307.781V165.65C307.781 165.329 307.694 165.097 307.519 164.953C307.344 164.809 307.135 164.737 306.893 164.737C306.592 164.737 306.359 164.829 306.192 165.014C306.026 165.198 305.942 165.433 305.942 165.721V168.742H305.023V165.591C305.023 165.334 304.943 165.128 304.782 164.971C304.622 164.815 304.413 164.737 304.156 164.737C303.981 164.737 303.82 164.783 303.672 164.876C303.525 164.966 303.407 165.093 303.317 165.255C303.228 165.418 303.184 165.606 303.184 165.82V168.742H302.261Z" fill="#2D2D2D"/>
<path d="M123.112 68.4829H125.617V54.8245H123.112V68.4829Z" fill="#9FB8D6"/>
<path d="M122.392 63.7222H130.381C130.726 63.7222 131.006 63.4426 131.006 63.0977V61.5271C131.006 61.1823 130.726 60.9027 130.381 60.9027H122.392C122.047 60.9027 121.767 61.1823 121.767 61.5271V63.0977C121.767 63.4426 122.047 63.7222 122.392 63.7222Z" fill="#33658E"/>
<path d="M164.812 54.3257H165.565V49.9793L154.829 48.8149H131.608V53.6986H132.361V49.5648H154.788L164.812 50.6555V54.3257Z" fill="#778FB1"/>
<path d="M162.557 50.3169H161.804V53.9489H162.557V50.3169Z" fill="#778FB1"/>
<path d="M159.05 49.6899H158.298V54.2H159.05V49.6899Z" fill="#778FB1"/>
<path d="M155.666 49.3135H154.914V54.4507H155.666V49.3135Z" fill="#778FB1"/>
<path d="M148.149 49.3135H147.396V54.4507H148.149V49.3135Z" fill="#778FB1"/>
<path d="M151.909 49.3135H151.156V54.4507H151.909V49.3135Z" fill="#778FB1"/>
<path d="M140.631 49.3135H139.879V54.4507H140.631V49.3135Z" fill="#778FB1"/>
<path d="M144.391 49.3135H143.639V54.4507H144.391V49.3135Z" fill="#778FB1"/>
<path d="M136.121 49.3135H135.368V54.4507H136.121V49.3135Z" fill="#778FB1"/>
<path d="M82.3271 75.2808L82.3381 75.8452V81.296H82.9025V75.8452H89.0105V81.296H89.5749V75.8452H95.6829V81.296H96.2473V75.8452H102.353V81.296H102.917V75.8452H109.025V81.296H109.589V75.8452H115.697V81.296H116.262V75.8452H121.053V75.2808H82.3271Z" fill="#7AA4C1"/>
<path d="M436.133 89.2827H435.381V101.436H436.133V89.2827Z" fill="#778FB1"/>
<path d="M429.366 89.6592H428.614V100.435H429.366V89.6592Z" fill="#778FB1"/>
<path d="M421.851 89.5332H421.098V100.686H421.851V89.5332Z" fill="#778FB1"/>
<path d="M414.333 89.4077H413.58V101.812H414.333V89.4077Z" fill="#778FB1"/>
<path d="M406.816 89.7842H406.063V101.059H406.816V89.7842Z" fill="#778FB1"/>
<path d="M443.265 88.9198L406.053 89.4199L406.064 90.1724L443.275 89.6723L443.265 88.9198Z" fill="#778FB1"/>
<path d="M245.939 134.247H245.186V101.046L245.939 101.021V134.247Z" fill="#778FB1"/>
<path d="M238.421 133.244H237.668V101.284L238.421 101.262V133.244Z" fill="#778FB1"/>
<path d="M230.903 133.494H230.151V101.523L230.903 101.499V133.494Z" fill="#778FB1"/>
<path d="M223.385 134.623H222.633V101.76L223.385 101.736V134.623Z" fill="#778FB1"/>
<path d="M215.868 133.871H215.115V102.001L215.868 101.976V133.871Z" fill="#778FB1"/>
<path d="M208.35 134.997H207.6V102.237L208.35 102.213V134.997Z" fill="#778FB1"/>
<path d="M200.833 136.753H200.083V102.474L200.833 102.453V136.753Z" fill="#778FB1"/>
<path d="M193.315 136.376H192.565V102.714L193.315 102.69V136.376Z" fill="#778FB1"/>
<path d="M185.797 135.624H185.047V102.952L185.797 102.928V135.624Z" fill="#778FB1"/>
<path d="M313.598 132.617H312.845V134.245H313.598V132.617Z" fill="#FF8563"/>
<path d="M306.078 133.244H305.328V99.1403L306.078 99.1157V133.244Z" fill="#778FB1"/>
<path d="M298.563 133.495H297.81V99.3773L298.563 99.3555V133.495Z" fill="#778FB1"/>
<path d="M291.045 134.623H290.292V99.6168L291.045 99.5923V134.623Z" fill="#778FB1"/>
<path d="M283.527 133.871H282.775V99.8541L283.527 99.8296V133.871Z" fill="#778FB1"/>
<path d="M276.01 134.997H275.257V100.094L276.01 100.07V134.997Z" fill="#778FB1"/>
<path d="M268.492 136.753H267.739V100.331L268.492 100.307V136.753Z" fill="#778FB1"/>
<path d="M260.974 136.377H260.221V100.569L260.974 100.547V136.377Z" fill="#778FB1"/>
<path d="M253.456 135.624H252.704V100.809L253.456 100.784V135.624Z" fill="#778FB1"/>
<path d="M373.737 131.239H372.984V96.9967L373.737 96.9722V131.239Z" fill="#778FB1"/>
<path d="M366.219 105.695H365.466V97.234L366.219 97.2095V105.695Z" fill="#778FB1"/>
<path d="M358.701 130.487H357.949V97.471L358.701 97.4492V130.487Z" fill="#778FB1"/>
<path d="M351.184 131.616H350.431V97.7111L351.184 97.6865V131.616Z" fill="#778FB1"/>
<path d="M343.666 130.863H342.914V97.9484L343.666 97.9238V130.863Z" fill="#778FB1"/>
<path d="M336.148 131.992H335.396V98.1886L336.148 98.1641V131.992Z" fill="#778FB1"/>
<path d="M328.631 133.745H327.881V98.4254L328.631 98.4009V133.745Z" fill="#778FB1"/>
<path d="M321.113 133.369H320.363V98.6624L321.113 98.6406V133.369Z" fill="#778FB1"/>
<path d="M313.595 132.616H312.845V98.9025L313.595 98.8779V132.616Z" fill="#778FB1"/>
<path d="M396.29 132.24H395.537V96.2824L396.29 96.2578V132.24Z" fill="#778FB1"/>
<path d="M388.772 132.617H388.02V96.5197L388.772 96.4951V132.617Z" fill="#778FB1"/>
<path d="M381.255 131.866H380.502V96.7562L381.255 96.7344V131.866Z" fill="#778FB1"/>
<path d="M365.467 96.4814V97.234L358.701 97.4495V96.6969L365.467 96.4814Z" fill="#778FB1"/>
<path d="M357.949 96.7188V97.4713L351.184 97.6868V96.9342L357.949 96.7188Z" fill="#778FB1"/>
<path d="M380.502 96.0039V96.7565L373.737 96.9719V96.2193L380.502 96.0039Z" fill="#778FB1"/>
<path d="M372.984 96.2441V96.9967L366.219 97.2094V96.4568L372.984 96.2441Z" fill="#778FB1"/>
<path d="M297.81 98.6245V99.3771L291.045 99.5925V98.8399L297.81 98.6245Z" fill="#778FB1"/>
<path d="M245.186 100.293V101.046L238.421 101.261V100.509L245.186 100.293Z" fill="#778FB1"/>
<path d="M275.257 99.3418V100.094L268.492 100.307V99.5545L275.257 99.3418Z" fill="#778FB1"/>
<path d="M312.845 98.1499V98.9025L306.077 99.1152V98.3626L312.845 98.1499Z" fill="#778FB1"/>
<path d="M237.668 100.531V101.283L230.903 101.499V100.746L237.668 100.531Z" fill="#778FB1"/>
<path d="M230.151 100.771V101.523L223.386 101.736V100.986L230.151 100.771Z" fill="#778FB1"/>
<path d="M320.363 97.9102V98.6627L313.595 98.8782V98.1256L320.363 97.9102Z" fill="#778FB1"/>
<path d="M252.704 100.056V100.809L245.939 101.021V100.269L252.704 100.056Z" fill="#778FB1"/>
<path d="M267.739 99.5791V100.332L260.974 100.547V99.7945L267.739 99.5791Z" fill="#778FB1"/>
<path d="M282.774 99.1016V99.8541L276.009 100.07V99.317L282.774 99.1016Z" fill="#778FB1"/>
<path d="M290.292 98.8647V99.6173L283.527 99.83V99.0774L290.292 98.8647Z" fill="#778FB1"/>
<path d="M260.221 99.8164V100.569L253.456 100.784V100.032L260.221 99.8164Z" fill="#778FB1"/>
<path d="M305.328 98.3877V99.1403L298.562 99.3557V98.6031L305.328 98.3877Z" fill="#778FB1"/>
<path d="M200.083 101.722V102.475L193.315 102.69V101.938L200.083 101.722Z" fill="#778FB1"/>
<path d="M207.601 101.485V102.237L200.833 102.453V101.7L207.601 101.485Z" fill="#778FB1"/>
<path d="M350.431 96.959V97.7116L343.666 97.9243V97.5534H342.914V97.9488L336.148 98.1642V97.4116L350.431 96.959Z" fill="#778FB1"/>
<path d="M177.519 102.439L185.047 102.199V102.952L177.54 103.189L177.519 102.439Z" fill="#778FB1"/>
<path d="M192.565 101.962V102.715L185.797 102.928V102.175L192.565 101.962Z" fill="#778FB1"/>
<path d="M335.396 97.4355V98.1881L328.631 98.4008V97.6482L335.396 97.4355Z" fill="#778FB1"/>
<path d="M327.881 97.6729V98.4254L321.113 98.6409V97.8883L327.881 97.6729Z" fill="#778FB1"/>
<path d="M222.634 101.008V101.76L215.868 101.976V101.223L222.634 101.008Z" fill="#778FB1"/>
<path d="M215.115 101.248V102L208.35 102.213V101.46L215.115 101.248Z" fill="#778FB1"/>
<path d="M245.939 100.269V101.021L245.186 101.046V100.293L245.939 100.269Z" fill="#778FB1"/>
<path d="M238.421 100.509V101.261L237.668 101.283V100.531L238.421 100.509Z" fill="#778FB1"/>
<path d="M230.903 100.746V101.499L230.151 101.523V100.771L230.903 100.746Z" fill="#778FB1"/>
<path d="M223.385 100.986V101.736L222.633 101.76V101.008L223.385 100.986Z" fill="#778FB1"/>
<path d="M215.868 101.223V101.976L215.115 102V101.248L215.868 101.223Z" fill="#778FB1"/>
<path d="M208.35 101.46V102.213L207.6 102.238V101.485L208.35 101.46Z" fill="#778FB1"/>
<path d="M200.833 101.701V102.453L200.083 102.475V101.722L200.833 101.701Z" fill="#778FB1"/>
<path d="M193.315 101.938V102.69L192.565 102.715V101.962L193.315 101.938Z" fill="#778FB1"/>
<path d="M185.797 102.175V102.927L185.047 102.952V102.199L185.797 102.175Z" fill="#778FB1"/>
<path d="M306.078 98.3628V99.1154L305.328 99.1399V98.3873L306.078 98.3628Z" fill="#778FB1"/>
<path d="M298.563 98.603V99.3556L297.81 99.3774V98.6248L298.563 98.603Z" fill="#778FB1"/>
<path d="M291.045 98.8403V99.5929L290.292 99.6175V98.8649L291.045 98.8403Z" fill="#778FB1"/>
<path d="M283.527 99.0771V99.8297L282.775 99.8543V99.1017L283.527 99.0771Z" fill="#778FB1"/>
<path d="M276.01 99.3169V100.069L275.257 100.094V99.3414L276.01 99.3169Z" fill="#778FB1"/>
<path d="M268.492 99.5542V100.307L267.739 100.331V99.5787L268.492 99.5542Z" fill="#778FB1"/>
<path d="M260.974 99.7949V100.548L260.221 100.569V99.8167L260.974 99.7949Z" fill="#778FB1"/>
<path d="M253.456 100.032V100.784L252.704 100.809V100.056L253.456 100.032Z" fill="#778FB1"/>
<path d="M373.737 96.2192V96.9718L372.984 96.9964V96.2438L373.737 96.2192Z" fill="#778FB1"/>
<path d="M366.219 96.4565V97.2091L365.466 97.2337V96.4811L366.219 96.4565Z" fill="#778FB1"/>
<path d="M358.701 96.6968V97.4494L357.949 97.4712V96.7186L358.701 96.6968Z" fill="#778FB1"/>
<path d="M351.184 96.9341V97.6867L350.431 97.7112V96.9586L351.184 96.9341Z" fill="#778FB1"/>
<path d="M343.666 97.5527V97.9236L342.914 97.9481V97.5527H343.666Z" fill="#778FB1"/>
<path d="M336.148 97.4111V98.1637L335.396 98.1883V97.4357L336.148 97.4111Z" fill="#778FB1"/>
<path d="M328.631 97.6484V98.401L327.881 98.4256V97.673L328.631 97.6484Z" fill="#778FB1"/>
<path d="M321.113 97.8887V98.6413L320.364 98.6631V97.9105L321.113 97.8887Z" fill="#778FB1"/>
<path d="M313.595 98.1255V98.8781L312.845 98.9026V98.15L313.595 98.1255Z" fill="#778FB1"/>
<path d="M381.255 95.9824V96.735L380.502 96.7568V96.0042L381.255 95.9824Z" fill="#778FB1"/>
<path d="M381.009 96.8577L402.621 96.5496L403.429 95.6606L380.502 96.0042L381.009 96.8577Z" fill="#778FB1"/>
<path d="M57.8137 96.048H58.5663V90.2182C67.6573 90.1445 81.0785 90.0846 81.782 90.21L81.9892 89.4901C81.4112 89.2965 63.6245 89.4274 58.1873 89.471H57.8137V96.048Z" fill="#7AA4C1"/>
<path d="M77.3593 90.0352H76.6067V96.9884H77.3593V90.0352Z" fill="#7AA4C1"/>
<path d="M74.3517 90.0352H73.5991V96.9884H74.3517V90.0352Z" fill="#7AA4C1"/>
<path d="M71.3439 90.0352H70.5913V96.9884H71.3439V90.0352Z" fill="#7AA4C1"/>
<path d="M68.339 90.0352H67.5864V96.9884H68.339V90.0352Z" fill="#7AA4C1"/>
<path d="M65.3314 90.0352H64.5789V96.9884H65.3314V90.0352Z" fill="#7AA4C1"/>
<path d="M62.3239 90.0352H61.5713V96.9884H62.3239V90.0352Z" fill="#7AA4C1"/>
<path d="M123.613 54.8271H125.116V49.6899H123.613V54.8271Z" fill="#9FB8D6"/>
<path d="M514.395 78.029C514.395 78.029 498.339 94.0433 495.332 98.0516C492.324 102.063 490.32 134.119 494.328 137.126C498.337 140.134 501.344 142.64 501.344 142.64H72.6474C72.6474 142.64 66.6321 137.628 65.1297 130.612C63.6272 123.596 56.8103 95.0467 56.8103 95.0467L76.8575 95.5484L82.371 88.0307L85.4523 88.9279L87.7046 83.4061L81.6021 83.188V80.1368L114.877 80.3549C114.877 80.3549 119.403 79.9241 120.908 75.414C122.411 70.9039 121.38 68.6925 121.38 68.6925C121.38 68.6925 128.98 68.9843 130.485 67.4791C131.987 65.9766 131.987 61.4666 131.987 61.4666V55.4513H130.171V53.1963L157.273 53.3981L165.881 54.3224C165.881 54.3224 165.895 55.0805 165.518 55.8303C165.142 56.5829 165.128 56.9538 165.128 56.9538L164.002 61.0876L164.943 62.2164V99.8049C164.943 99.8049 168.7 102.06 174.528 102.06C180.355 102.06 184.865 109.171 184.865 109.171L395.543 103.565C395.543 103.565 399.115 102.248 400.429 100.181C401.744 98.1143 402.873 95.6711 402.873 95.6711L435.948 94.545C435.948 94.545 441.775 92.1018 443.278 88.5297C443.278 88.5297 456.623 89.2823 463.011 86.651C469.4 84.0197 475.312 79.1906 475.312 79.1906L514.4 78.029H514.395Z" fill="#5774F1"/>
<path d="M492.591 132.188C493.039 134.174 493.363 136.148 494.604 137.129C498.713 140.38 501.641 142.463 501.347 142.643H72.6473C72.6473 142.643 70.1005 140.511 67.9082 137.094L492.591 132.191V132.188Z" fill="#1D4566"/>
<path d="M507.714 84.7563L460.571 87.4258C461.451 87.2077 462.278 86.9514 463.006 86.6514C469.394 84.0201 474.657 78.9456 474.657 78.9456L514.877 77.5059C514.877 77.5059 511.924 81.0834 507.714 84.7563Z" fill="#40B45A"/>
<path d="M165.878 54.3259L157.232 53.1997H130.168V55.4547H131.984V61.47C131.984 61.47 131.984 65.9801 130.482 67.4825C129.375 68.5896 124.475 68.3387 121.958 68.1288C121.287 68.0742 120.745 68.6796 120.892 69.334C121.181 70.6347 121.358 72.797 120.458 75.4992C118.956 80.0093 114.945 80.0093 114.945 80.0093H81.3675V83.5186H87.3827L85.3786 88.5304L82.3709 88.0287L76.8574 95.5464L164.937 96.0372V62.2171L163.997 61.0882L165.548 56.2019C165.548 56.2019 166.156 55.7629 166.301 55.4029C166.489 54.9339 165.878 54.3231 165.878 54.3231V54.3259Z" fill="#40B45A"/>
<path d="M165.063 84.1455H144.56C143.775 84.1455 143.069 84.62 142.771 85.3453L141.479 88.5002C141.375 88.7537 141.561 89.0346 141.836 89.0373L164.94 89.16L165.065 84.1482L165.063 84.1455Z" fill="#33658E"/>
<path d="M140.653 84.6767L138.979 88.5514C138.919 88.6905 138.78 88.7832 138.627 88.7832H123.308C123.03 88.7832 122.844 88.4969 122.959 88.2433L124.745 84.2513C124.808 84.1122 124.947 84.0222 125.097 84.025L140.307 84.1449C140.582 84.1449 140.765 84.4285 140.656 84.6794L140.653 84.6767Z" fill="#33658E"/>
<path d="M122.61 84.6767L120.936 88.5514C120.876 88.6905 120.737 88.7832 120.584 88.7832H105.265C104.987 88.7832 104.801 88.4969 104.916 88.2433L106.702 84.2513C106.765 84.1122 106.904 84.0222 107.054 84.025L122.264 84.1449C122.539 84.1449 122.722 84.4285 122.613 84.6794L122.61 84.6767Z" fill="#254461"/>
<path d="M104.567 84.6767L102.893 88.5514C102.833 88.6905 102.693 88.7832 102.541 88.7832H87.2218C86.9437 88.7832 86.7583 88.4969 86.8728 88.2433L88.6588 84.2513C88.7215 84.1122 88.8606 84.0222 89.0106 84.025L104.22 84.1449C104.496 84.1449 104.679 84.4285 104.569 84.6794L104.567 84.6767Z" fill="#254461"/>
<path d="M150.78 96.2081C150.78 98.3541 152.519 100.091 154.662 100.091C156.806 100.091 158.548 98.3513 158.548 96.2081C158.548 94.0649 156.808 92.3252 154.662 92.3252C152.516 92.3252 150.78 94.0649 150.78 96.2081ZM153.16 96.2081C153.16 95.3792 153.834 94.7057 154.662 94.7057C155.491 94.7057 156.165 95.3792 156.165 96.2081C156.165 97.037 155.491 97.7106 154.662 97.7106C153.834 97.7106 153.16 97.037 153.16 96.2081Z" fill="#38495A"/>
<path d="M404.746 97.0512C404.746 99.1971 406.486 100.934 408.629 100.934C410.772 100.934 412.512 99.1944 412.512 97.0512C412.512 94.9079 410.772 93.1655 408.629 93.1655C406.486 93.1655 404.746 94.9052 404.746 97.0512ZM407.126 97.0512C407.126 96.2195 407.8 95.5487 408.629 95.5487C409.458 95.5487 410.131 96.2222 410.131 97.0512C410.131 97.8801 409.458 98.5536 408.629 98.5536C407.8 98.5536 407.126 97.8801 407.126 97.0512Z" fill="#254461"/>
<path d="M111.689 96.2081C111.689 98.3541 113.429 100.091 115.572 100.091C117.715 100.091 119.455 98.3513 119.455 96.2081C119.455 94.0649 117.715 92.3252 115.572 92.3252C113.429 92.3252 111.689 94.0649 111.689 96.2081ZM114.07 96.2081C114.07 95.3792 114.743 94.7057 115.572 94.7057C116.401 94.7057 117.075 95.3792 117.075 96.2081C117.075 97.037 116.401 97.7106 115.572 97.7106C114.743 97.7106 114.07 97.037 114.07 96.2081Z" fill="#38495A"/>
<path d="M85.7522 96.2081C85.7522 98.3541 87.4919 100.091 89.6351 100.091C91.7784 100.091 93.518 98.3513 93.518 96.2081C93.518 94.0649 91.7784 92.3252 89.6351 92.3252C87.4919 92.3252 85.7522 94.0649 85.7522 96.2081ZM88.1327 96.2081C88.1327 95.3792 88.8062 94.7057 89.6351 94.7057C90.4641 94.7057 91.1376 95.3792 91.1376 96.2081C91.1376 97.037 90.4641 97.7106 89.6351 97.7106C88.8062 97.7106 88.1327 97.037 88.1327 96.2081Z" fill="#38495A"/>
<path d="M133.866 66.7296C133.866 68.8756 135.606 70.6152 137.752 70.6152C139.898 70.6152 141.635 68.8756 141.635 66.7296C141.635 64.5836 139.895 62.8467 137.752 62.8467C135.608 62.8467 133.866 64.5864 133.866 66.7296ZM136.246 66.7296C136.246 65.9007 136.92 65.2271 137.749 65.2271C138.578 65.2271 139.251 65.9007 139.251 66.7296C139.251 67.5585 138.578 68.232 137.749 68.232C136.92 68.232 136.246 67.5585 136.246 66.7296Z" fill="#38495A"/>
<path d="M133.771 66.7298C133.771 64.5375 135.554 62.7515 137.749 62.7515C139.944 62.7515 141.727 64.5375 141.727 66.7298C141.727 68.9221 139.941 70.7082 137.749 70.7082C135.557 70.7082 133.771 68.9221 133.771 66.7298ZM133.959 66.7298C133.959 68.8212 135.66 70.52 137.749 70.52C139.838 70.52 141.539 68.8185 141.539 66.7298C141.539 64.6411 139.84 62.9396 137.749 62.9396C135.657 62.9396 133.959 64.6411 133.959 66.7298ZM136.151 66.7298C136.151 65.8491 136.868 65.1319 137.749 65.1319C138.63 65.1319 139.347 65.8491 139.347 66.7298C139.347 67.6106 138.63 68.3277 137.749 68.3277C136.868 68.3277 136.151 67.6106 136.151 66.7298ZM136.339 66.7298C136.339 67.5069 136.972 68.1396 137.749 68.1396C138.526 68.1396 139.159 67.5069 139.159 66.7298C139.159 65.9527 138.526 65.3201 137.749 65.3201C136.972 65.3201 136.339 65.9527 136.339 66.7298Z" fill="#38495A"/>
<path d="M150.279 67.6079H143.887C143.68 67.6079 143.511 67.4388 143.511 67.2316V64.224C143.511 64.0168 143.68 63.8477 143.887 63.8477H150.276C150.483 63.8477 150.652 64.0168 150.652 64.224V67.2316C150.652 67.4388 150.483 67.6079 150.276 67.6079H150.279Z" fill="#F78A81"/>
<path d="M133.863 60.3408H137.623V56.207H133.863V60.3408Z" fill="white"/>
<path d="M138.376 60.3408H142.134V56.207H138.376V60.3408Z" fill="white"/>
<path d="M143.761 58.8384H146.769V56.7088H143.761V58.8384Z" fill="white"/>
<path d="M148.901 60.0874H152.034V55.8282H148.901V60.0874Z" fill="white"/>
<path d="M158.922 74.1221H159.8V70.7382H158.922V74.1221Z" fill="#254461"/>
<path d="M160.989 74.686H161.867V71.3021H160.989V74.686Z" fill="#7AA4C1"/>
<path d="M162.963 56.957H164.231L162.871 60.9981H161.556L162.963 56.957Z" fill="#33658E"/>
<path d="M160.708 56.957H162.072L160.738 60.9981H159.391L160.708 56.957Z" fill="#33658E"/>
<path d="M158.548 57.0034L159.863 56.957L158.502 60.9981H157.185L158.548 57.0034Z" fill="#33658E"/>
<path d="M157.09 55.3618L155.211 60.9053H133.222V55.4054L157.09 55.3618Z" fill="#254461"/>
<path d="M121.718 51.8228H127.008C127.208 51.8228 127.371 51.6604 127.371 51.4601V49.4287C127.371 49.2284 127.208 49.066 127.008 49.066H121.718C121.518 49.066 121.356 49.2284 121.356 49.4287V51.4601C121.356 51.6604 121.518 51.8228 121.718 51.8228Z" fill="#F78A81"/>
<path d="M139.314 41.0462H129.729V24.1675H132.985C133.323 24.1675 133.599 23.8921 133.599 23.554C133.599 23.2158 133.323 22.9404 132.985 22.9404H129.315V18.3595H132.513C132.862 18.3595 133.146 18.0759 133.146 17.7268C133.146 17.3778 132.862 17.0942 132.513 17.0942H124.036C123.687 17.0942 123.403 17.3778 123.403 17.7268C123.403 18.0759 123.687 18.3595 124.036 18.3595H128.475V22.9432H122.354C122.015 22.9432 121.74 23.2186 121.74 23.5567C121.74 23.8948 122.015 24.1702 122.354 24.1702H128.224V68.6111H129.727V42.4259H139.311C139.693 42.4259 140.001 42.1178 140.001 41.736C140.001 41.3543 139.693 41.0462 139.311 41.0462H139.314Z" fill="#9FB8D6"/>
<path d="M381.602 122.625V121.934L383.74 119.719C383.968 119.478 384.157 119.267 384.305 119.086C384.455 118.903 384.567 118.729 384.641 118.565C384.715 118.4 384.752 118.225 384.752 118.04C384.752 117.83 384.703 117.649 384.604 117.497C384.505 117.343 384.371 117.224 384.2 117.142C384.029 117.058 383.837 117.016 383.623 117.016C383.397 117.016 383.199 117.062 383.03 117.155C382.862 117.247 382.732 117.378 382.642 117.546C382.551 117.715 382.506 117.912 382.506 118.139H381.596C381.596 117.754 381.684 117.418 381.861 117.13C382.038 116.842 382.281 116.619 382.589 116.46C382.898 116.3 383.248 116.22 383.641 116.22C384.038 116.22 384.388 116.299 384.69 116.457C384.995 116.614 385.232 116.827 385.403 117.099C385.574 117.368 385.659 117.673 385.659 118.012C385.659 118.247 385.615 118.476 385.527 118.7C385.44 118.925 385.289 119.174 385.073 119.45C384.857 119.724 384.557 120.056 384.172 120.447L382.916 121.761V121.807H385.761V122.625H381.602ZM389.066 122.711C388.623 122.711 388.232 122.635 387.893 122.483C387.556 122.331 387.291 122.121 387.1 121.854C386.909 121.586 386.814 121.282 386.816 120.94C386.814 120.673 386.869 120.427 386.98 120.203C387.093 119.977 387.246 119.788 387.44 119.638C387.633 119.486 387.849 119.389 388.087 119.348V119.311C387.773 119.235 387.521 119.066 387.332 118.805C387.142 118.544 387.049 118.244 387.051 117.904C387.049 117.581 387.134 117.293 387.307 117.04C387.482 116.785 387.721 116.585 388.026 116.439C388.33 116.293 388.677 116.22 389.066 116.22C389.45 116.22 389.794 116.294 390.096 116.442C390.4 116.588 390.64 116.788 390.815 117.043C390.99 117.296 391.078 117.583 391.08 117.904C391.078 118.244 390.982 118.544 390.79 118.805C390.599 119.066 390.35 119.235 390.044 119.311V119.348C390.28 119.389 390.493 119.486 390.682 119.638C390.874 119.788 391.026 119.977 391.139 120.203C391.254 120.427 391.313 120.673 391.315 120.94C391.313 121.282 391.216 121.586 391.025 121.854C390.833 122.121 390.568 122.331 390.229 122.483C389.891 122.635 389.504 122.711 389.066 122.711ZM389.066 121.931C389.327 121.931 389.553 121.888 389.744 121.801C389.936 121.713 390.084 121.59 390.189 121.434C390.294 121.276 390.347 121.091 390.349 120.879C390.347 120.659 390.289 120.464 390.176 120.295C390.065 120.127 389.914 119.994 389.723 119.897C389.531 119.801 389.312 119.752 389.066 119.752C388.817 119.752 388.596 119.801 388.402 119.897C388.209 119.994 388.057 120.127 387.946 120.295C387.834 120.464 387.78 120.659 387.782 120.879C387.78 121.091 387.83 121.276 387.933 121.434C388.038 121.59 388.187 121.713 388.381 121.801C388.574 121.888 388.802 121.931 389.066 121.931ZM389.066 118.99C389.275 118.99 389.461 118.948 389.624 118.864C389.786 118.78 389.914 118.662 390.007 118.512C390.101 118.362 390.15 118.186 390.152 117.984C390.15 117.787 390.102 117.614 390.01 117.466C389.919 117.318 389.793 117.204 389.63 117.124C389.468 117.041 389.279 117 389.066 117C388.847 117 388.656 117.041 388.492 117.124C388.329 117.204 388.203 117.318 388.112 117.466C388.022 117.614 387.977 117.787 387.979 117.984C387.977 118.186 388.023 118.362 388.115 118.512C388.208 118.662 388.335 118.78 388.498 118.864C388.662 118.948 388.852 118.99 389.066 118.99ZM394.818 116.306V122.625H393.861V117.262H393.824L392.312 118.25V117.337L393.889 116.306H394.818ZM396.782 122.684C396.614 122.684 396.469 122.624 396.347 122.505C396.226 122.383 396.165 122.237 396.165 122.067C396.165 121.898 396.226 121.754 396.347 121.635C396.469 121.513 396.614 121.453 396.782 121.453C396.951 121.453 397.096 121.513 397.217 121.635C397.339 121.754 397.399 121.898 397.399 122.067C397.399 122.18 397.371 122.284 397.313 122.378C397.257 122.471 397.183 122.545 397.091 122.6C396.998 122.656 396.895 122.684 396.782 122.684ZM398.623 122.625V121.934L400.761 119.719C400.989 119.478 401.177 119.267 401.326 119.086C401.476 118.903 401.588 118.729 401.662 118.565C401.736 118.4 401.773 118.225 401.773 118.04C401.773 117.83 401.724 117.649 401.625 117.497C401.526 117.343 401.391 117.224 401.221 117.142C401.05 117.058 400.858 117.016 400.644 117.016C400.417 117.016 400.22 117.062 400.051 117.155C399.883 117.247 399.753 117.378 399.662 117.546C399.572 117.715 399.527 117.912 399.527 118.139H398.617C398.617 117.754 398.705 117.418 398.882 117.13C399.059 116.842 399.301 116.619 399.61 116.46C399.919 116.3 400.269 116.22 400.662 116.22C401.059 116.22 401.409 116.299 401.711 116.457C402.016 116.614 402.253 116.827 402.424 117.099C402.595 117.368 402.68 117.673 402.68 118.012C402.68 118.247 402.636 118.476 402.547 118.7C402.461 118.925 402.31 119.174 402.094 119.45C401.878 119.724 401.578 120.056 401.193 120.447L399.937 121.761V121.807H402.782V122.625H398.623ZM406.151 122.73C405.664 122.728 405.247 122.599 404.902 122.344C404.556 122.089 404.292 121.718 404.109 121.23C403.926 120.743 403.834 120.156 403.834 119.469C403.834 118.784 403.926 118.198 404.109 117.713C404.294 117.228 404.559 116.857 404.905 116.602C405.252 116.347 405.668 116.22 406.151 116.22C406.635 116.22 407.049 116.348 407.395 116.605C407.74 116.86 408.004 117.231 408.188 117.716C408.373 118.199 408.465 118.784 408.465 119.469C408.465 120.158 408.374 120.746 408.191 121.233C408.008 121.719 407.743 122.09 407.398 122.347C407.052 122.602 406.637 122.73 406.151 122.73ZM406.151 121.906C406.579 121.906 406.913 121.697 407.154 121.28C407.397 120.862 407.518 120.258 407.518 119.469C407.518 118.944 407.462 118.501 407.351 118.139C407.242 117.775 407.085 117.499 406.879 117.312C406.676 117.123 406.433 117.028 406.151 117.028C405.725 117.028 405.391 117.238 405.148 117.657C404.906 118.077 404.783 118.681 404.781 119.469C404.781 119.995 404.836 120.441 404.945 120.805C405.056 121.167 405.213 121.441 405.417 121.628C405.62 121.814 405.865 121.906 406.151 121.906ZM411.872 122.625V117.886H412.757V118.657H412.816C412.914 118.396 413.076 118.192 413.3 118.046C413.524 117.898 413.793 117.824 414.105 117.824C414.422 117.824 414.688 117.898 414.901 118.046C415.117 118.194 415.277 118.398 415.38 118.657H415.429C415.542 118.404 415.722 118.203 415.969 118.052C416.216 117.9 416.51 117.824 416.851 117.824C417.281 117.824 417.632 117.959 417.904 118.228C418.177 118.498 418.314 118.904 418.314 119.447V122.625H417.391V119.533C417.391 119.212 417.304 118.98 417.129 118.836C416.954 118.692 416.746 118.62 416.503 118.62C416.203 118.62 415.969 118.713 415.802 118.898C415.636 119.081 415.553 119.316 415.553 119.604V122.625H414.633V119.475C414.633 119.218 414.553 119.011 414.392 118.855C414.232 118.698 414.023 118.62 413.766 118.62C413.591 118.62 413.43 118.666 413.282 118.759C413.136 118.849 413.017 118.976 412.927 119.138C412.838 119.301 412.794 119.489 412.794 119.703V122.625H411.872Z" fill="#EBEEF1"/>
<path d="M144.336 122.625V121.934L146.474 119.719C146.703 119.478 146.891 119.267 147.039 119.086C147.189 118.903 147.301 118.729 147.375 118.565C147.449 118.4 147.486 118.225 147.486 118.04C147.486 117.83 147.437 117.649 147.338 117.497C147.239 117.343 147.105 117.224 146.934 117.142C146.763 117.058 146.571 117.016 146.357 117.016C146.131 117.016 145.933 117.062 145.765 117.155C145.596 117.247 145.466 117.378 145.376 117.546C145.285 117.715 145.24 117.912 145.24 118.139H144.33C144.33 117.754 144.418 117.418 144.595 117.13C144.772 116.842 145.015 116.619 145.323 116.46C145.632 116.3 145.983 116.22 146.375 116.22C146.772 116.22 147.122 116.299 147.425 116.457C147.729 116.614 147.967 116.827 148.137 117.099C148.308 117.368 148.393 117.673 148.393 118.012C148.393 118.247 148.349 118.476 148.261 118.7C148.174 118.925 148.023 119.174 147.807 119.45C147.591 119.724 147.291 120.056 146.906 120.447L145.65 121.761V121.807H148.495V122.625H144.336ZM151.8 122.711C151.357 122.711 150.967 122.635 150.627 122.483C150.29 122.331 150.026 122.121 149.834 121.854C149.643 121.586 149.548 121.282 149.55 120.94C149.548 120.673 149.603 120.427 149.714 120.203C149.827 119.977 149.98 119.788 150.174 119.638C150.367 119.486 150.583 119.389 150.822 119.348V119.311C150.507 119.235 150.255 119.066 150.066 118.805C149.876 118.544 149.783 118.244 149.785 117.904C149.783 117.581 149.868 117.293 150.041 117.04C150.216 116.785 150.455 116.585 150.76 116.439C151.064 116.293 151.411 116.22 151.8 116.22C152.184 116.22 152.528 116.294 152.83 116.442C153.135 116.588 153.374 116.788 153.549 117.043C153.724 117.296 153.812 117.583 153.814 117.904C153.812 118.244 153.716 118.544 153.524 118.805C153.333 119.066 153.084 119.235 152.778 119.311V119.348C153.014 119.389 153.227 119.486 153.416 119.638C153.608 119.788 153.76 119.977 153.873 120.203C153.988 120.427 154.047 120.673 154.049 120.94C154.047 121.282 153.95 121.586 153.759 121.854C153.568 122.121 153.302 122.331 152.963 122.483C152.626 122.635 152.238 122.711 151.8 122.711ZM151.8 121.931C152.061 121.931 152.287 121.888 152.478 121.801C152.67 121.713 152.818 121.59 152.923 121.434C153.028 121.276 153.081 121.091 153.083 120.879C153.081 120.659 153.024 120.464 152.91 120.295C152.799 120.127 152.648 119.994 152.457 119.897C152.266 119.801 152.046 119.752 151.8 119.752C151.551 119.752 151.33 119.801 151.136 119.897C150.943 119.994 150.791 120.127 150.68 120.295C150.569 120.464 150.514 120.659 150.516 120.879C150.514 121.091 150.564 121.276 150.667 121.434C150.772 121.59 150.921 121.713 151.115 121.801C151.308 121.888 151.536 121.931 151.8 121.931ZM151.8 118.99C152.009 118.99 152.196 118.948 152.358 118.864C152.521 118.78 152.648 118.662 152.741 118.512C152.835 118.362 152.884 118.186 152.886 117.984C152.884 117.787 152.836 117.614 152.744 117.466C152.653 117.318 152.527 117.204 152.364 117.124C152.202 117.041 152.014 117 151.8 117C151.582 117 151.39 117.041 151.226 117.124C151.063 117.204 150.937 117.318 150.846 117.466C150.756 117.614 150.712 117.787 150.714 117.984C150.712 118.186 150.757 118.362 150.849 118.512C150.942 118.662 151.069 118.78 151.232 118.864C151.396 118.948 151.586 118.99 151.8 118.99ZM157.552 116.306V122.625H156.595V117.262H156.558L155.046 118.25V117.337L156.623 116.306H157.552ZM159.516 122.684C159.348 122.684 159.203 122.624 159.081 122.505C158.96 122.383 158.899 122.237 158.899 122.067C158.899 121.898 158.96 121.754 159.081 121.635C159.203 121.513 159.348 121.453 159.516 121.453C159.685 121.453 159.83 121.513 159.951 121.635C160.073 121.754 160.133 121.898 160.133 122.067C160.133 122.18 160.105 122.284 160.047 122.378C159.992 122.471 159.917 122.545 159.825 122.6C159.732 122.656 159.629 122.684 159.516 122.684ZM161.357 122.625V121.934L163.495 119.719C163.723 119.478 163.912 119.267 164.06 119.086C164.21 118.903 164.322 118.729 164.396 118.565C164.47 118.4 164.507 118.225 164.507 118.04C164.507 117.83 164.458 117.649 164.359 117.497C164.26 117.343 164.125 117.224 163.955 117.142C163.784 117.058 163.592 117.016 163.378 117.016C163.152 117.016 162.954 117.062 162.785 117.155C162.617 117.247 162.487 117.378 162.397 117.546C162.306 117.715 162.261 117.912 162.261 118.139H161.351C161.351 117.754 161.439 117.418 161.616 117.13C161.793 116.842 162.036 116.619 162.344 116.46C162.653 116.3 163.003 116.22 163.396 116.22C163.793 116.22 164.143 116.299 164.445 116.457C164.75 116.614 164.987 116.827 165.158 117.099C165.329 117.368 165.414 117.673 165.414 118.012C165.414 118.247 165.37 118.476 165.282 118.7C165.195 118.925 165.044 119.174 164.828 119.45C164.612 119.724 164.312 120.056 163.927 120.447L162.671 121.761V121.807H165.516V122.625H161.357ZM168.885 122.73C168.398 122.728 167.981 122.599 167.636 122.344C167.29 122.089 167.026 121.718 166.843 121.23C166.66 120.743 166.568 120.156 166.568 119.469C166.568 118.784 166.66 118.198 166.843 117.713C167.028 117.228 167.293 116.857 167.639 116.602C167.986 116.347 168.402 116.22 168.885 116.22C169.369 116.22 169.783 116.348 170.129 116.605C170.474 116.86 170.739 117.231 170.922 117.716C171.107 118.199 171.199 118.784 171.199 119.469C171.199 120.158 171.108 120.746 170.925 121.233C170.742 121.719 170.477 122.09 170.132 122.347C169.786 122.602 169.371 122.73 168.885 122.73ZM168.885 121.906C169.313 121.906 169.647 121.697 169.888 121.28C170.131 120.862 170.252 120.258 170.252 119.469C170.252 118.944 170.197 118.501 170.086 118.139C169.977 117.775 169.819 117.499 169.613 117.312C169.41 117.123 169.167 117.028 168.885 117.028C168.46 117.028 168.125 117.238 167.883 117.657C167.64 118.077 167.517 118.681 167.515 119.469C167.515 119.995 167.57 120.441 167.679 120.805C167.79 121.167 167.947 121.441 168.151 121.628C168.355 121.814 168.599 121.906 168.885 121.906ZM174.606 122.625V117.886H175.491V118.657H175.55C175.649 118.396 175.81 118.192 176.034 118.046C176.258 117.898 176.527 117.824 176.84 117.824C177.156 117.824 177.422 117.898 177.636 118.046C177.852 118.194 178.011 118.398 178.114 118.657H178.163C178.276 118.404 178.456 118.203 178.703 118.052C178.95 117.9 179.244 117.824 179.586 117.824C180.016 117.824 180.366 117.959 180.638 118.228C180.911 118.498 181.048 118.904 181.048 119.447V122.625H180.126V119.533C180.126 119.212 180.038 118.98 179.863 118.836C179.688 118.692 179.48 118.62 179.237 118.62C178.937 118.62 178.703 118.713 178.537 118.898C178.37 119.081 178.287 119.316 178.287 119.604V122.625H177.367V119.475C177.367 119.218 177.287 119.011 177.127 118.855C176.966 118.698 176.757 118.62 176.5 118.62C176.325 118.62 176.164 118.666 176.016 118.759C175.87 118.849 175.751 118.976 175.661 119.138C175.572 119.301 175.528 119.489 175.528 119.703V122.625H174.606Z" fill="#EBEEF1"/>
<path d="M389.622 61.8052V61.114L391.76 58.8987C391.988 58.658 392.177 58.4472 392.325 58.2662C392.475 58.0831 392.587 57.9093 392.661 57.7447C392.735 57.5802 392.772 57.4053 392.772 57.2202C392.772 57.0104 392.723 56.8294 392.624 56.6772C392.525 56.5229 392.391 56.4046 392.22 56.3223C392.049 56.238 391.857 56.1958 391.643 56.1958C391.417 56.1958 391.219 56.2421 391.05 56.3347C390.882 56.4272 390.752 56.5579 390.662 56.7265C390.571 56.8952 390.526 57.0927 390.526 57.3189H389.616C389.616 56.9343 389.704 56.598 389.881 56.31C390.058 56.022 390.301 55.7988 390.609 55.6405C390.918 55.48 391.268 55.3998 391.661 55.3998C392.058 55.3998 392.408 55.479 392.71 55.6374C393.015 55.7937 393.252 56.0076 393.423 56.2791C393.594 56.5486 393.679 56.853 393.679 57.1924C393.679 57.4269 393.635 57.6563 393.547 57.8805C393.46 58.1047 393.309 58.3546 393.093 58.6303C392.877 58.9038 392.577 59.236 392.192 59.6269L390.936 60.9413V60.9875H393.781V61.8052H389.622ZM397.086 61.8916C396.643 61.8916 396.252 61.8155 395.913 61.6632C395.576 61.511 395.311 61.3012 395.12 61.0338C394.929 60.7664 394.834 60.462 394.836 60.1205C394.834 59.8531 394.889 59.6073 395 59.3831C395.113 59.1568 395.266 58.9686 395.46 58.8185C395.653 58.6663 395.869 58.5696 396.107 58.5284V58.4914C395.793 58.4153 395.541 58.2466 395.352 57.9854C395.162 57.7242 395.069 57.4238 395.071 57.0844C395.069 56.7615 395.154 56.4735 395.327 56.2205C395.502 55.9655 395.741 55.7649 396.046 55.6189C396.35 55.4728 396.697 55.3998 397.086 55.3998C397.47 55.3998 397.814 55.4738 398.116 55.6219C398.421 55.768 398.66 55.9685 398.835 56.2236C399.01 56.4766 399.098 56.7636 399.1 57.0844C399.098 57.4238 399.002 57.7242 398.81 57.9854C398.619 58.2466 398.37 58.4153 398.064 58.4914V58.5284C398.3 58.5696 398.513 58.6663 398.702 58.8185C398.894 58.9686 399.046 59.1568 399.159 59.3831C399.274 59.6073 399.333 59.8531 399.335 60.1205C399.333 60.462 399.236 60.7664 399.045 61.0338C398.854 61.3012 398.588 61.511 398.249 61.6632C397.911 61.8155 397.524 61.8916 397.086 61.8916ZM397.086 61.111C397.347 61.111 397.573 61.0678 397.764 60.9814C397.956 60.8929 398.104 60.7705 398.209 60.6142C398.314 60.4558 398.367 60.2707 398.369 60.0588C398.367 59.8387 398.309 59.6443 398.196 59.4757C398.085 59.307 397.934 59.1743 397.743 59.0776C397.551 58.981 397.332 58.9326 397.086 58.9326C396.837 58.9326 396.616 58.981 396.422 59.0776C396.229 59.1743 396.077 59.307 395.966 59.4757C395.854 59.6443 395.8 59.8387 395.802 60.0588C395.8 60.2707 395.85 60.4558 395.953 60.6142C396.058 60.7705 396.207 60.8929 396.401 60.9814C396.594 61.0678 396.822 61.111 397.086 61.111ZM397.086 58.1705C397.295 58.1705 397.482 58.1284 397.644 58.044C397.807 57.9597 397.934 57.8424 398.027 57.6923C398.121 57.5421 398.17 57.3663 398.172 57.1647C398.17 56.9672 398.122 56.7944 398.03 56.6463C397.939 56.4982 397.813 56.3841 397.65 56.3038C397.488 56.2216 397.299 56.1804 397.086 56.1804C396.868 56.1804 396.676 56.2216 396.512 56.3038C396.349 56.3841 396.223 56.4982 396.132 56.6463C396.042 56.7944 395.997 56.9672 395.999 57.1647C395.997 57.3663 396.043 57.5421 396.135 57.6923C396.228 57.8424 396.355 57.9597 396.518 58.044C396.682 58.1284 396.872 58.1705 397.086 58.1705ZM402.838 55.4862V61.8052H401.881V56.4427H401.844L400.332 57.43V56.5167L401.909 55.4862H402.838ZM404.802 61.8638C404.634 61.8638 404.489 61.8041 404.367 61.6848C404.246 61.5635 404.185 61.4174 404.185 61.2467C404.185 61.078 404.246 60.9341 404.367 60.8147C404.489 60.6934 404.634 60.6327 404.802 60.6327C404.971 60.6327 405.116 60.6934 405.237 60.8147C405.359 60.9341 405.419 61.078 405.419 61.2467C405.419 61.3598 405.391 61.4637 405.333 61.5583C405.277 61.6509 405.203 61.725 405.111 61.7805C405.018 61.836 404.915 61.8638 404.802 61.8638ZM406.643 61.8052V61.114L408.781 58.8987C409.009 58.658 409.197 58.4472 409.346 58.2662C409.496 58.0831 409.608 57.9093 409.682 57.7447C409.756 57.5802 409.793 57.4053 409.793 57.2202C409.793 57.0104 409.744 56.8294 409.645 56.6772C409.546 56.5229 409.411 56.4046 409.241 56.3223C409.07 56.238 408.878 56.1958 408.664 56.1958C408.437 56.1958 408.24 56.2421 408.071 56.3347C407.903 56.4272 407.773 56.5579 407.683 56.7265C407.592 56.8952 407.547 57.0927 407.547 57.3189H406.637C406.637 56.9343 406.725 56.598 406.902 56.31C407.079 56.022 407.322 55.7988 407.63 55.6405C407.939 55.48 408.289 55.3998 408.682 55.3998C409.079 55.3998 409.429 55.479 409.731 55.6374C410.036 55.7937 410.273 56.0076 410.444 56.2791C410.615 56.5486 410.7 56.853 410.7 57.1924C410.7 57.4269 410.656 57.6563 410.567 57.8805C410.481 58.1047 410.33 58.3546 410.114 58.6303C409.898 58.9038 409.598 59.236 409.213 59.6269L407.957 60.9413V60.9875H410.802V61.8052H406.643ZM414.171 61.9101C413.684 61.908 413.267 61.7795 412.922 61.5244C412.576 61.2693 412.312 60.8981 412.129 60.4106C411.946 59.9231 411.854 59.3358 411.854 58.6488C411.854 57.9638 411.946 57.3786 412.129 56.8931C412.314 56.4077 412.579 56.0375 412.925 55.7824C413.272 55.5273 413.688 55.3998 414.171 55.3998C414.655 55.3998 415.069 55.5284 415.415 55.7855C415.76 56.0405 416.025 56.4108 416.208 56.8962C416.393 57.3796 416.485 57.9638 416.485 58.6488C416.485 59.3378 416.394 59.9261 416.211 60.4136C416.028 60.8991 415.763 61.2704 415.418 61.5275C415.072 61.7825 414.657 61.9101 414.171 61.9101ZM414.171 61.0863C414.599 61.0863 414.933 60.8775 415.174 60.4599C415.417 60.0424 415.538 59.4386 415.538 58.6488C415.538 58.1242 415.483 57.681 415.371 57.3189C415.262 56.9549 415.105 56.6792 414.899 56.492C414.696 56.3028 414.453 56.2082 414.171 56.2082C413.745 56.2082 413.411 56.418 413.168 56.8376C412.926 57.2572 412.803 57.861 412.801 58.6488C412.801 59.1753 412.856 59.6207 412.965 59.9848C413.076 60.3468 413.233 60.6214 413.437 60.8086C413.64 60.9937 413.885 61.0863 414.171 61.0863ZM419.892 61.8052V57.0659H420.777V57.8373H420.836C420.934 57.5761 421.096 57.3724 421.32 57.2264C421.544 57.0783 421.813 57.0042 422.125 57.0042C422.442 57.0042 422.708 57.0783 422.922 57.2264C423.137 57.3745 423.297 57.5781 423.4 57.8373H423.449C423.562 57.5843 423.742 57.3827 423.989 57.2325C424.236 57.0803 424.53 57.0042 424.872 57.0042C425.301 57.0042 425.652 57.139 425.924 57.4084C426.197 57.6779 426.334 58.0841 426.334 58.6272V61.8052H425.411V58.7136C425.411 58.3927 425.324 58.1602 425.149 58.0163C424.974 57.8723 424.766 57.8003 424.523 57.8003C424.223 57.8003 423.989 57.8928 423.822 58.078C423.656 58.261 423.573 58.4966 423.573 58.7845V61.8052H422.653V58.6549C422.653 58.3978 422.573 58.1911 422.412 58.0348C422.252 57.8784 422.043 57.8003 421.786 57.8003C421.611 57.8003 421.45 57.8466 421.302 57.9391C421.156 58.0296 421.037 58.1561 420.947 58.3186C420.858 58.4811 420.814 58.6693 420.814 58.8833V61.8052H419.892Z" fill="#2D2D2D"/>
<path d="M233.896 61.8052V61.114L236.034 58.8987C236.262 58.658 236.45 58.4472 236.598 58.2662C236.749 58.0831 236.861 57.9093 236.935 57.7447C237.009 57.5802 237.046 57.4053 237.046 57.2202C237.046 57.0104 236.996 56.8294 236.898 56.6772C236.799 56.5229 236.664 56.4046 236.493 56.3223C236.323 56.238 236.13 56.1958 235.917 56.1958C235.69 56.1958 235.493 56.2421 235.324 56.3347C235.155 56.4272 235.026 56.5579 234.935 56.7265C234.845 56.8952 234.8 57.0927 234.8 57.3189H233.889C233.889 56.9343 233.978 56.598 234.155 56.31C234.332 56.022 234.574 55.7988 234.883 55.6405C235.191 55.48 235.542 55.3998 235.935 55.3998C236.332 55.3998 236.682 55.479 236.984 55.6374C237.289 55.7937 237.526 56.0076 237.697 56.2791C237.868 56.5486 237.953 56.853 237.953 57.1924C237.953 57.4269 237.909 57.6563 237.82 57.8805C237.734 58.1047 237.583 58.3546 237.367 58.6303C237.151 58.9038 236.85 59.236 236.466 59.6269L235.21 60.9413V60.9875H238.055V61.8052H233.896ZM241.359 61.8916C240.917 61.8916 240.526 61.8155 240.187 61.6632C239.849 61.511 239.585 61.3012 239.394 61.0338C239.203 60.7664 239.108 60.462 239.11 60.1205C239.108 59.8531 239.162 59.6073 239.273 59.3831C239.387 59.1568 239.54 58.9686 239.733 58.8185C239.927 58.6663 240.143 58.5696 240.381 58.5284V58.4914C240.066 58.4153 239.814 58.2466 239.625 57.9854C239.436 57.7242 239.342 57.4238 239.344 57.0844C239.342 56.7615 239.428 56.4735 239.601 56.2205C239.775 55.9655 240.015 55.7649 240.319 55.6189C240.624 55.4728 240.97 55.3998 241.359 55.3998C241.744 55.3998 242.087 55.4738 242.39 55.6219C242.694 55.768 242.934 55.9685 243.109 56.2236C243.284 56.4766 243.372 56.7636 243.374 57.0844C243.372 57.4238 243.275 57.7242 243.084 57.9854C242.893 58.2466 242.644 58.4153 242.337 58.4914V58.5284C242.574 58.5696 242.787 58.6663 242.976 58.8185C243.167 58.9686 243.32 59.1568 243.433 59.3831C243.548 59.6073 243.606 59.8531 243.609 60.1205C243.606 60.462 243.51 60.7664 243.318 61.0338C243.127 61.3012 242.862 61.511 242.522 61.6632C242.185 61.8155 241.797 61.8916 241.359 61.8916ZM241.359 61.111C241.62 61.111 241.847 61.0678 242.038 60.9814C242.229 60.8929 242.377 60.7705 242.482 60.6142C242.587 60.4558 242.641 60.2707 242.643 60.0588C242.641 59.8387 242.583 59.6443 242.47 59.4757C242.359 59.307 242.208 59.1743 242.016 59.0776C241.825 58.981 241.606 58.9326 241.359 58.9326C241.11 58.9326 240.889 58.981 240.696 59.0776C240.503 59.1743 240.35 59.307 240.239 59.4757C240.128 59.6443 240.074 59.8387 240.076 60.0588C240.074 60.2707 240.124 60.4558 240.227 60.6142C240.332 60.7705 240.481 60.8929 240.674 60.9814C240.868 61.0678 241.096 61.111 241.359 61.111ZM241.359 58.1705C241.569 58.1705 241.755 58.1284 241.918 58.044C242.08 57.9597 242.208 57.8424 242.3 57.6923C242.395 57.5421 242.443 57.3663 242.445 57.1647C242.443 56.9672 242.396 56.7944 242.303 56.6463C242.213 56.4982 242.086 56.3841 241.924 56.3038C241.761 56.2216 241.573 56.1804 241.359 56.1804C241.141 56.1804 240.95 56.2216 240.785 56.3038C240.623 56.3841 240.496 56.4982 240.406 56.6463C240.315 56.7944 240.271 56.9672 240.273 57.1647C240.271 57.3663 240.316 57.5421 240.409 57.6923C240.501 57.8424 240.629 57.9597 240.792 58.044C240.956 58.1284 241.145 58.1705 241.359 58.1705ZM247.111 55.4862V61.8052H246.155V56.4427H246.118L244.606 57.43V56.5167L246.183 55.4862H247.111ZM249.076 61.8638C248.907 61.8638 248.762 61.8041 248.641 61.6848C248.52 61.5635 248.459 61.4174 248.459 61.2467C248.459 61.078 248.52 60.9341 248.641 60.8147C248.762 60.6934 248.907 60.6327 249.076 60.6327C249.245 60.6327 249.39 60.6934 249.511 60.8147C249.632 60.9341 249.693 61.078 249.693 61.2467C249.693 61.3598 249.664 61.4637 249.607 61.5583C249.551 61.6509 249.477 61.725 249.384 61.7805C249.292 61.836 249.189 61.8638 249.076 61.8638ZM250.916 61.8052V61.114L253.055 58.8987C253.283 58.658 253.471 58.4472 253.619 58.2662C253.769 58.0831 253.882 57.9093 253.956 57.7447C254.03 57.5802 254.067 57.4053 254.067 57.2202C254.067 57.0104 254.017 56.8294 253.919 56.6772C253.82 56.5229 253.685 56.4046 253.514 56.3223C253.344 56.238 253.151 56.1958 252.937 56.1958C252.711 56.1958 252.514 56.2421 252.345 56.3347C252.176 56.4272 252.047 56.5579 251.956 56.7265C251.866 56.8952 251.82 57.0927 251.82 57.3189H250.91C250.91 56.9343 250.999 56.598 251.176 56.31C251.352 56.022 251.595 55.7988 251.904 55.6405C252.212 55.48 252.563 55.3998 252.956 55.3998C253.353 55.3998 253.703 55.479 254.005 55.6374C254.309 55.7937 254.547 56.0076 254.718 56.2791C254.888 56.5486 254.974 56.853 254.974 57.1924C254.974 57.4269 254.93 57.6563 254.841 57.8805C254.755 58.1047 254.603 58.3546 254.388 58.6303C254.172 58.9038 253.871 59.236 253.487 59.6269L252.231 60.9413V60.9875H255.076V61.8052H250.916ZM258.445 61.9101C257.957 61.908 257.541 61.7795 257.195 61.5244C256.85 61.2693 256.585 60.8981 256.402 60.4106C256.219 59.9231 256.128 59.3358 256.128 58.6488C256.128 57.9638 256.219 57.3786 256.402 56.8931C256.587 56.4077 256.853 56.0375 257.198 55.7824C257.546 55.5273 257.961 55.3998 258.445 55.3998C258.928 55.3998 259.343 55.5284 259.688 55.7855C260.034 56.0405 260.298 56.4108 260.481 56.8962C260.666 57.3796 260.759 57.9638 260.759 58.6488C260.759 59.3378 260.667 59.9261 260.484 60.4136C260.301 60.8991 260.037 61.2704 259.691 61.5275C259.346 61.7825 258.93 61.9101 258.445 61.9101ZM258.445 61.0863C258.873 61.0863 259.207 60.8775 259.448 60.4599C259.69 60.0424 259.812 59.4386 259.812 58.6488C259.812 58.1242 259.756 57.681 259.645 57.3189C259.536 56.9549 259.379 56.6792 259.173 56.492C258.969 56.3028 258.727 56.2082 258.445 56.2082C258.019 56.2082 257.685 56.418 257.442 56.8376C257.199 57.2572 257.077 57.861 257.075 58.6488C257.075 59.1753 257.129 59.6207 257.238 59.9848C257.35 60.3468 257.507 60.6214 257.711 60.8086C257.914 60.9937 258.159 61.0863 258.445 61.0863ZM264.165 61.8052V57.0659H265.051V57.8373H265.109C265.208 57.5761 265.37 57.3724 265.594 57.2264C265.818 57.0783 266.086 57.0042 266.399 57.0042C266.716 57.0042 266.981 57.0783 267.195 57.2264C267.411 57.3745 267.571 57.5781 267.673 57.8373H267.723C267.836 57.5843 268.016 57.3827 268.263 57.2325C268.51 57.0803 268.804 57.0042 269.145 57.0042C269.575 57.0042 269.926 57.139 270.197 57.4084C270.471 57.6779 270.608 58.0841 270.608 58.6272V61.8052H269.685V58.7136C269.685 58.3927 269.598 58.1602 269.423 58.0163C269.248 57.8723 269.039 57.8003 268.797 57.8003C268.496 57.8003 268.263 57.8928 268.096 58.078C267.93 58.261 267.846 58.4966 267.846 58.7845V61.8052H266.927V58.6549C266.927 58.3978 266.847 58.1911 266.686 58.0348C266.526 57.8784 266.317 57.8003 266.06 57.8003C265.885 57.8003 265.723 57.8466 265.575 57.9391C265.429 58.0296 265.311 58.1561 265.221 58.3186C265.132 58.4811 265.088 58.6693 265.088 58.8833V61.8052H264.165Z" fill="#2D2D2D"/>
<path d="M314.098 7V6.30886L316.236 4.09351C316.464 3.85285 316.653 3.64201 316.801 3.461C316.951 3.27793 317.063 3.10411 317.137 2.93956C317.211 2.775 317.248 2.60016 317.248 2.41503C317.248 2.20522 317.199 2.02421 317.1 1.87199C317.001 1.71772 316.867 1.59945 316.696 1.51717C316.525 1.43283 316.333 1.39066 316.119 1.39066C315.893 1.39066 315.695 1.43695 315.526 1.52951C315.358 1.62207 315.228 1.75269 315.138 1.92136C315.047 2.09003 315.002 2.2875 315.002 2.51377H314.092C314.092 2.12911 314.18 1.7928 314.357 1.50483C314.534 1.21685 314.777 0.99367 315.085 0.835284C315.394 0.674841 315.745 0.59462 316.137 0.59462C316.534 0.59462 316.884 0.673813 317.186 0.832199C317.491 0.988528 317.728 1.20245 317.899 1.47397C318.07 1.74343 318.155 2.04786 318.155 2.38726C318.155 2.62176 318.111 2.85111 318.023 3.07532C317.936 3.29952 317.785 3.54945 317.569 3.82508C317.353 4.09865 317.053 4.43085 316.668 4.82168L315.412 6.13608V6.18236H318.257V7H314.098ZM321.562 7.08639C321.119 7.08639 320.729 7.01028 320.389 6.85807C320.052 6.70585 319.787 6.49604 319.596 6.22864C319.405 5.96123 319.31 5.6568 319.312 5.31535C319.31 5.04794 319.365 4.80214 319.476 4.57793C319.589 4.35166 319.742 4.16345 319.936 4.01329C320.129 3.86108 320.345 3.7644 320.584 3.72326V3.68623C320.269 3.61013 320.017 3.44146 319.828 3.18022C319.638 2.91899 319.545 2.61867 319.547 2.27927C319.545 1.95633 319.63 1.66835 319.803 1.41535C319.978 1.16028 320.217 0.95973 320.522 0.813686C320.826 0.667642 321.173 0.59462 321.562 0.59462C321.946 0.59462 322.29 0.66867 322.592 0.816772C322.897 0.962816 323.136 1.16337 323.311 1.41843C323.486 1.67144 323.574 1.95839 323.576 2.27927C323.574 2.61867 323.478 2.91899 323.286 3.18022C323.095 3.44146 322.846 3.61013 322.54 3.68623V3.72326C322.776 3.7644 322.989 3.86108 323.178 4.01329C323.37 4.16345 323.522 4.35166 323.635 4.57793C323.75 4.80214 323.809 5.04794 323.811 5.31535C323.809 5.6568 323.712 5.96123 323.521 6.22864C323.33 6.49604 323.064 6.70585 322.725 6.85807C322.387 7.01028 322 7.08639 321.562 7.08639ZM321.562 6.30578C321.823 6.30578 322.049 6.26258 322.24 6.17619C322.432 6.08774 322.58 5.96535 322.685 5.80902C322.79 5.65063 322.843 5.46551 322.845 5.25364C322.843 5.03354 322.786 4.83916 322.672 4.67049C322.561 4.50182 322.41 4.36915 322.219 4.27247C322.028 4.17579 321.808 4.12745 321.562 4.12745C321.313 4.12745 321.092 4.17579 320.898 4.27247C320.705 4.36915 320.553 4.50182 320.442 4.67049C320.331 4.83916 320.276 5.03354 320.278 5.25364C320.276 5.46551 320.326 5.65063 320.429 5.80902C320.534 5.96535 320.683 6.08774 320.877 6.17619C321.07 6.26258 321.298 6.30578 321.562 6.30578ZM321.562 3.36535C321.771 3.36535 321.958 3.32318 322.12 3.23884C322.283 3.15451 322.41 3.03726 322.503 2.8871C322.597 2.73695 322.646 2.56108 322.648 2.35949C322.646 2.16202 322.598 1.98924 322.506 1.84114C322.415 1.69304 322.289 1.57888 322.126 1.49865C321.964 1.41638 321.776 1.37524 321.562 1.37524C321.344 1.37524 321.152 1.41638 320.988 1.49865C320.825 1.57888 320.699 1.69304 320.608 1.84114C320.518 1.98924 320.473 2.16202 320.476 2.35949C320.473 2.56108 320.519 2.73695 320.611 2.8871C320.704 3.03726 320.831 3.15451 320.994 3.23884C321.158 3.32318 321.348 3.36535 321.562 3.36535ZM327.314 0.681012V7H326.357V1.6375H326.32L324.808 2.62484V1.71155L326.385 0.681012H327.314ZM329.278 7.05862C329.11 7.05862 328.965 6.99897 328.843 6.87967C328.722 6.75831 328.661 6.61226 328.661 6.44153C328.661 6.27286 328.722 6.12888 328.843 6.00957C328.965 5.88821 329.11 5.82753 329.278 5.82753C329.447 5.82753 329.592 5.88821 329.713 6.00957C329.835 6.12888 329.895 6.27286 329.895 6.44153C329.895 6.55467 329.867 6.65854 329.809 6.75316C329.753 6.84573 329.679 6.91978 329.587 6.97532C329.494 7.03085 329.391 7.05862 329.278 7.05862ZM331.119 7V6.30886L333.257 4.09351C333.485 3.85285 333.674 3.64201 333.822 3.461C333.972 3.27793 334.084 3.10411 334.158 2.93956C334.232 2.775 334.269 2.60016 334.269 2.41503C334.269 2.20522 334.22 2.02421 334.121 1.87199C334.022 1.71772 333.887 1.59945 333.717 1.51717C333.546 1.43283 333.354 1.39066 333.14 1.39066C332.913 1.39066 332.716 1.43695 332.547 1.52951C332.379 1.62207 332.249 1.75269 332.159 1.92136C332.068 2.09003 332.023 2.2875 332.023 2.51377H331.113C331.113 2.12911 331.201 1.7928 331.378 1.50483C331.555 1.21685 331.798 0.99367 332.106 0.835284C332.415 0.674841 332.765 0.59462 333.158 0.59462C333.555 0.59462 333.905 0.673813 334.207 0.832199C334.512 0.988528 334.749 1.20245 334.92 1.47397C335.091 1.74343 335.176 2.04786 335.176 2.38726C335.176 2.62176 335.132 2.85111 335.043 3.07532C334.957 3.29952 334.806 3.54945 334.59 3.82508C334.374 4.09865 334.074 4.43085 333.689 4.82168L332.433 6.13608V6.18236H335.278V7H331.119ZM338.647 7.10491C338.16 7.10285 337.743 6.97429 337.398 6.71922C337.052 6.46416 336.788 6.09288 336.605 5.60538C336.422 5.11788 336.33 4.53062 336.33 3.84359C336.33 3.15862 336.422 2.57342 336.605 2.08797C336.79 1.60253 337.055 1.23228 337.401 0.977215C337.748 0.722151 338.164 0.59462 338.647 0.59462C339.131 0.59462 339.545 0.72318 339.891 0.9803C340.236 1.23536 340.501 1.60562 340.684 2.09106C340.869 2.57445 340.961 3.15862 340.961 3.84359C340.961 4.53267 340.87 5.12097 340.687 5.60847C340.504 6.09391 340.239 6.46519 339.894 6.72231C339.548 6.97737 339.133 7.10491 338.647 7.10491ZM338.647 6.28109C339.075 6.28109 339.409 6.07231 339.65 5.65475C339.893 5.23718 340.014 4.63346 340.014 3.84359C340.014 3.31907 339.959 2.87579 339.848 2.51377C339.738 2.14968 339.581 1.87405 339.375 1.68687C339.172 1.49763 338.929 1.40301 338.647 1.40301C338.221 1.40301 337.887 1.61282 337.644 2.03244C337.402 2.45206 337.279 3.05578 337.277 3.84359C337.277 4.37017 337.332 4.81551 337.441 5.17959C337.552 5.54161 337.709 5.81622 337.913 6.0034C338.117 6.18853 338.361 6.28109 338.647 6.28109ZM344.368 7V2.26076H345.253V3.03212H345.312C345.411 2.77089 345.572 2.56725 345.796 2.4212C346.02 2.2731 346.289 2.19905 346.602 2.19905C346.918 2.19905 347.184 2.2731 347.398 2.4212C347.614 2.5693 347.773 2.77294 347.876 3.03212H347.925C348.038 2.77911 348.218 2.57753 348.465 2.42737C348.712 2.27516 349.006 2.19905 349.348 2.19905C349.777 2.19905 350.128 2.33378 350.4 2.60324C350.673 2.87271 350.81 3.27896 350.81 3.82199V7H349.888V3.90839C349.888 3.5875 349.8 3.35506 349.625 3.21108C349.45 3.06709 349.242 2.99509 348.999 2.99509C348.699 2.99509 348.465 3.08766 348.299 3.27278C348.132 3.45585 348.049 3.69138 348.049 3.97935V7H347.129V3.84976C347.129 3.59264 347.049 3.38592 346.888 3.22959C346.728 3.07326 346.519 2.99509 346.262 2.99509C346.087 2.99509 345.926 3.04138 345.778 3.13394C345.632 3.22445 345.513 3.35095 345.423 3.51345C345.334 3.67595 345.29 3.86416 345.29 4.07809V7H344.368Z" fill="#2D2D2D"/>
<path d="M513.296 59.147L509.954 57.2176V61.0763L513.296 59.147ZM433.762 59.4811H510.289V58.8128H433.762V59.4811Z" fill="#40B45A"/>
<path d="M324.82 59.147L321.479 57.2176V61.0763L324.82 59.147ZM275.362 59.4811H321.813V58.8128H275.362V59.4811Z" fill="#40B45A"/>
<path d="M333.509 59.147L336.851 61.0763L336.851 57.2176L333.509 59.147ZM382.967 58.8128L336.516 58.8128L336.516 59.4812L382.967 59.4811L382.967 58.8128Z" fill="#40B45A"/>
<path d="M177.114 59.147L180.456 61.0763L180.456 57.2176L177.114 59.147ZM226.572 58.8128L180.122 58.8128L180.122 59.4812L226.572 59.4811L226.572 58.8128Z" fill="#40B45A"/>
<path d="M164.415 4.3418L167.757 6.27117V2.41242L164.415 4.3418ZM302.096 4.00762L167.423 4.00762V4.67597L302.096 4.67597V4.00762Z" fill="#40B45A"/>
<path d="M58.1467 4.3418L61.4885 6.27117V2.41242L58.1467 4.3418ZM80.2024 4.00762L61.1543 4.00762V4.67597L80.2024 4.67597V4.00762Z" fill="#40B45A"/>
<path d="M19.3823 4.34186L17.453 7.68363L21.3117 7.68363L19.3823 4.34186ZM19.7165 77.8608L19.7165 7.34946L19.0481 7.34946L19.0481 77.8608L19.7165 77.8608Z" fill="#40B45A"/>
<path d="M19.3823 142.691L21.3117 139.349L17.453 139.349L19.3823 142.691ZM19.0481 99.248L19.0481 139.683L19.7165 139.683L19.7165 99.248L19.0481 99.248Z" fill="#40B45A"/>
<path d="M528 1L528 166.084" stroke="#40B45A" stroke-width="0.668354" stroke-dasharray="1.34 1.34"/>
<path d="M48.7898 1L48.7898 166.084" stroke="#40B45A" stroke-width="0.668354" stroke-dasharray="1.34 1.34"/>
<path d="M514.633 166.083L511.291 164.154V168.013L514.633 166.083ZM316.8 166.418H511.625V165.749H316.8V166.418Z" fill="#40B45A"/>
<path d="M58.1467 166.083L61.4885 168.013L61.4885 164.154L58.1467 166.083ZM263.332 165.749L61.1543 165.749L61.1543 166.418L263.332 166.418L263.332 165.749Z" fill="#40B45A"/>
<path d="M151.048 4.3418L147.706 2.41242V6.27117L151.048 4.3418ZM128.992 4.67597H148.041V4.00762H128.992V4.67597Z" fill="#40B45A"/>
<path d="M513.296 4.3418L509.954 2.41242V6.27117L513.296 4.3418ZM355.564 4.67597H510.289V4.00762H355.564V4.67597Z" fill="#40B45A"/>
<path d="M87.5257 7V6.30886L89.6639 4.09351C89.8922 3.85285 90.0804 3.64201 90.2285 3.461C90.3787 3.27793 90.4908 3.10411 90.5648 2.93956C90.6389 2.775 90.6759 2.60016 90.6759 2.41503C90.6759 2.20522 90.6265 2.02421 90.5278 1.87199C90.4291 1.71772 90.2943 1.59945 90.1236 1.51717C89.9529 1.43283 89.7606 1.39066 89.5466 1.39066C89.3204 1.39066 89.1229 1.43695 88.9542 1.52951C88.7856 1.62207 88.656 1.75269 88.5655 1.92136C88.475 2.09003 88.4297 2.2875 88.4297 2.51377H87.5195C87.5195 2.12911 87.6079 1.7928 87.7848 1.50483C87.9617 1.21685 88.2045 0.99367 88.513 0.835284C88.8216 0.674841 89.1723 0.59462 89.5651 0.59462C89.9621 0.59462 90.3118 0.673813 90.6142 0.832199C90.9186 0.988528 91.1562 1.20245 91.3269 1.47397C91.4977 1.74343 91.583 2.04786 91.583 2.38726C91.583 2.62176 91.5388 2.85111 91.4504 3.07532C91.364 3.29952 91.2128 3.54945 90.9968 3.82508C90.7808 4.09865 90.4805 4.43085 90.0958 4.82168L88.8401 6.13608V6.18236H91.6848V7H87.5257ZM94.9894 7.08639C94.5471 7.08639 94.1563 7.01028 93.8169 6.85807C93.4795 6.70585 93.2152 6.49604 93.0239 6.22864C92.8326 5.96123 92.738 5.6568 92.7401 5.31535C92.738 5.04794 92.7925 4.80214 92.9036 4.57793C93.0167 4.35166 93.17 4.16345 93.3633 4.01329C93.5567 3.86108 93.7727 3.7644 94.0113 3.72326V3.68623C93.6966 3.61013 93.4446 3.44146 93.2553 3.18022C93.0661 2.91899 92.9725 2.61867 92.9746 2.27927C92.9725 1.95633 93.0579 1.66835 93.2307 1.41535C93.4055 1.16028 93.6451 0.95973 93.9496 0.813686C94.254 0.667642 94.6006 0.59462 94.9894 0.59462C95.374 0.59462 95.7175 0.66867 96.0199 0.816772C96.3243 0.962816 96.564 1.16337 96.7388 1.41843C96.9136 1.67144 97.0021 1.95839 97.0042 2.27927C97.0021 2.61867 96.9054 2.91899 96.7141 3.18022C96.5228 3.44146 96.2739 3.61013 95.9674 3.68623V3.72326C96.204 3.7644 96.4169 3.86108 96.6061 4.01329C96.7974 4.16345 96.9496 4.35166 97.0628 4.57793C97.178 4.80214 97.2366 5.04794 97.2386 5.31535C97.2366 5.6568 97.1399 5.96123 96.9486 6.22864C96.7573 6.49604 96.492 6.70585 96.1526 6.85807C95.8152 7.01028 95.4275 7.08639 94.9894 7.08639ZM94.9894 6.30578C95.2506 6.30578 95.4769 6.26258 95.6682 6.17619C95.8595 6.08774 96.0076 5.96535 96.1125 5.80902C96.2174 5.65063 96.2708 5.46551 96.2729 5.25364C96.2708 5.03354 96.2133 4.83916 96.1001 4.67049C95.989 4.50182 95.8379 4.36915 95.6466 4.27247C95.4553 4.17579 95.2362 4.12745 94.9894 4.12745C94.7405 4.12745 94.5193 4.17579 94.326 4.27247C94.1326 4.36915 93.9804 4.50182 93.8693 4.67049C93.7583 4.83916 93.7038 5.03354 93.7058 5.25364C93.7038 5.46551 93.7542 5.65063 93.857 5.80902C93.9619 5.96535 94.111 6.08774 94.3044 6.17619C94.4977 6.26258 94.7261 6.30578 94.9894 6.30578ZM94.9894 3.36535C95.1992 3.36535 95.3853 3.32318 95.5478 3.23884C95.7103 3.15451 95.8379 3.03726 95.9304 2.8871C96.025 2.73695 96.0734 2.56108 96.0754 2.35949C96.0734 2.16202 96.0261 1.98924 95.9335 1.84114C95.843 1.69304 95.7165 1.57888 95.554 1.49865C95.3915 1.41638 95.2033 1.37524 94.9894 1.37524C94.7713 1.37524 94.58 1.41638 94.4155 1.49865C94.253 1.57888 94.1265 1.69304 94.036 1.84114C93.9455 1.98924 93.9012 2.16202 93.9033 2.35949C93.9012 2.56108 93.9465 2.73695 94.039 2.8871C94.1316 3.03726 94.2591 3.15451 94.4216 3.23884C94.5862 3.32318 94.7754 3.36535 94.9894 3.36535ZM100.741 0.681012V7H99.7849V1.6375H99.7479L98.236 2.62484V1.71155L99.8127 0.681012H100.741ZM102.706 7.05862C102.537 7.05862 102.392 6.99897 102.271 6.87967C102.15 6.75831 102.089 6.61226 102.089 6.44153C102.089 6.27286 102.15 6.12888 102.271 6.00957C102.392 5.88821 102.537 5.82753 102.706 5.82753C102.875 5.82753 103.02 5.88821 103.141 6.00957C103.262 6.12888 103.323 6.27286 103.323 6.44153C103.323 6.55467 103.294 6.65854 103.237 6.75316C103.181 6.84573 103.107 6.91978 103.015 6.97532C102.922 7.03085 102.819 7.05862 102.706 7.05862ZM104.547 7V6.30886L106.685 4.09351C106.913 3.85285 107.101 3.64201 107.249 3.461C107.4 3.27793 107.512 3.10411 107.586 2.93956C107.66 2.775 107.697 2.60016 107.697 2.41503C107.697 2.20522 107.647 2.02421 107.549 1.87199C107.45 1.71772 107.315 1.59945 107.144 1.51717C106.974 1.43283 106.781 1.39066 106.567 1.39066C106.341 1.39066 106.144 1.43695 105.975 1.52951C105.806 1.62207 105.677 1.75269 105.586 1.92136C105.496 2.09003 105.451 2.2875 105.451 2.51377H104.54C104.54 2.12911 104.629 1.7928 104.806 1.50483C104.983 1.21685 105.225 0.99367 105.534 0.835284C105.842 0.674841 106.193 0.59462 106.586 0.59462C106.983 0.59462 107.333 0.673813 107.635 0.832199C107.939 0.988528 108.177 1.20245 108.348 1.47397C108.519 1.74343 108.604 2.04786 108.604 2.38726C108.604 2.62176 108.56 2.85111 108.471 3.07532C108.385 3.29952 108.234 3.54945 108.018 3.82508C107.802 4.09865 107.501 4.43085 107.117 4.82168L105.861 6.13608V6.18236H108.706V7H104.547ZM112.075 7.10491C111.587 7.10285 111.171 6.97429 110.825 6.71922C110.48 6.46416 110.216 6.09288 110.032 5.60538C109.849 5.11788 109.758 4.53062 109.758 3.84359C109.758 3.15862 109.849 2.57342 110.032 2.08797C110.218 1.60253 110.483 1.23228 110.828 0.977215C111.176 0.722151 111.592 0.59462 112.075 0.59462C112.558 0.59462 112.973 0.72318 113.318 0.9803C113.664 1.23536 113.928 1.60562 114.111 2.09106C114.297 2.57445 114.389 3.15862 114.389 3.84359C114.389 4.53267 114.298 5.12097 114.114 5.60847C113.931 6.09391 113.667 6.46519 113.322 6.72231C112.976 6.97737 112.56 7.10491 112.075 7.10491ZM112.075 6.28109C112.503 6.28109 112.837 6.07231 113.078 5.65475C113.32 5.23718 113.442 4.63346 113.442 3.84359C113.442 3.31907 113.386 2.87579 113.275 2.51377C113.166 2.14968 113.009 1.87405 112.803 1.68687C112.6 1.49763 112.357 1.40301 112.075 1.40301C111.649 1.40301 111.315 1.61282 111.072 2.03244C110.83 2.45206 110.707 3.05578 110.705 3.84359C110.705 4.37017 110.76 4.81551 110.869 5.17959C110.98 5.54161 111.137 5.81622 111.341 6.0034C111.544 6.18853 111.789 6.28109 112.075 6.28109ZM117.795 7V2.26076H118.681V3.03212H118.74C118.838 2.77089 119 2.56725 119.224 2.4212C119.448 2.2731 119.717 2.19905 120.029 2.19905C120.346 2.19905 120.611 2.2731 120.825 2.4212C121.041 2.5693 121.201 2.77294 121.304 3.03212H121.353C121.466 2.77911 121.646 2.57753 121.893 2.42737C122.14 2.27516 122.434 2.19905 122.775 2.19905C123.205 2.19905 123.556 2.33378 123.827 2.60324C124.101 2.87271 124.238 3.27896 124.238 3.82199V7H123.315V3.90839C123.315 3.5875 123.228 3.35506 123.053 3.21108C122.878 3.06709 122.669 2.99509 122.427 2.99509C122.126 2.99509 121.893 3.08766 121.726 3.27278C121.56 3.45585 121.476 3.69138 121.476 3.97935V7H120.557V3.84976C120.557 3.59264 120.477 3.38592 120.316 3.22959C120.156 3.07326 119.947 2.99509 119.69 2.99509C119.515 2.99509 119.354 3.04138 119.205 3.13394C119.059 3.22445 118.941 3.35095 118.851 3.51345C118.762 3.67595 118.718 3.86416 118.718 4.07809V7H117.795Z" fill="#2D2D2D"/>
<path d="M0.639685 91.2124V90.5213L2.7779 88.3059C3.00622 88.0653 3.19443 87.8544 3.34253 87.6734C3.49269 87.4903 3.6048 87.3165 3.67885 87.152C3.7529 86.9874 3.78992 86.8126 3.78992 86.6274C3.78992 86.4176 3.74056 86.2366 3.64182 86.0844C3.54309 85.9301 3.40836 85.8118 3.23763 85.7296C3.0669 85.6452 2.87457 85.6031 2.66065 85.6031C2.43438 85.6031 2.23692 85.6493 2.06825 85.7419C1.89957 85.8345 1.76999 85.9651 1.67948 86.1338C1.58897 86.3024 1.54372 86.4999 1.54372 86.7262H0.633514C0.633514 86.3415 0.721964 86.0052 0.898862 85.7172C1.07576 85.4293 1.31848 85.2061 1.62703 85.0477C1.93557 84.8872 2.28628 84.807 2.67916 84.807C3.07616 84.807 3.42584 84.8862 3.72821 85.0446C4.03264 85.2009 4.27022 85.4149 4.44095 85.6864C4.61168 85.9558 4.69704 86.2603 4.69704 86.5997C4.69704 86.8342 4.65282 87.0635 4.56437 87.2877C4.47798 87.5119 4.32679 87.7618 4.11081 88.0375C3.89483 88.3111 3.59451 88.6433 3.20986 89.0341L1.95408 90.3485V90.3948H4.79886V91.2124H0.639685ZM8.10337 91.2988C7.66113 91.2988 7.2703 91.2227 6.9309 91.0705C6.59356 90.9183 6.32924 90.7084 6.13794 90.441C5.94665 90.1736 5.85203 89.8692 5.85408 89.5278C5.85203 89.2603 5.90654 89.0145 6.01761 88.7903C6.13075 88.5641 6.28399 88.3759 6.47734 88.2257C6.6707 88.0735 6.88668 87.9768 7.12529 87.9357V87.8986C6.81057 87.8225 6.55859 87.6539 6.36935 87.3926C6.18011 87.1314 6.08652 86.8311 6.08858 86.4917C6.08652 86.1687 6.17188 85.8808 6.34467 85.6278C6.51951 85.3727 6.75915 85.1721 7.06358 85.0261C7.36801 84.88 7.71461 84.807 8.10337 84.807C8.48802 84.807 8.83154 84.8811 9.13391 85.0292C9.43834 85.1752 9.67798 85.3758 9.85282 85.6308C10.0277 85.8838 10.1161 86.1708 10.1182 86.4917C10.1161 86.8311 10.0194 87.1314 9.82814 87.3926C9.63684 87.6539 9.38795 87.8225 9.08146 87.8986V87.9357C9.31801 87.9768 9.5309 88.0735 9.72014 88.2257C9.91144 88.3759 10.0637 88.5641 10.1768 88.7903C10.292 89.0145 10.3506 89.2603 10.3527 89.5278C10.3506 89.8692 10.2539 90.1736 10.0626 90.441C9.87133 90.7084 9.60598 90.9183 9.26658 91.0705C8.92924 91.2227 8.54151 91.2988 8.10337 91.2988ZM8.10337 90.5182C8.36461 90.5182 8.59087 90.475 8.78217 90.3886C8.97347 90.3001 9.12157 90.1778 9.22647 90.0214C9.33138 89.863 9.38486 89.6779 9.38692 89.466C9.38486 89.2459 9.32726 89.0516 9.21413 88.8829C9.10306 88.7142 8.95187 88.5815 8.76057 88.4849C8.56927 88.3882 8.35021 88.3399 8.10337 88.3399C7.85448 88.3399 7.63336 88.3882 7.44 88.4849C7.24665 88.5815 7.09443 88.7142 6.98336 88.8829C6.87228 89.0516 6.81777 89.2459 6.81983 89.466C6.81777 89.6779 6.86817 89.863 6.97101 90.0214C7.07592 90.1778 7.22505 90.3001 7.4184 90.3886C7.61176 90.475 7.84008 90.5182 8.10337 90.5182ZM8.10337 87.5778C8.31318 87.5778 8.49934 87.5356 8.66184 87.4512C8.82434 87.3669 8.95187 87.2497 9.04443 87.0995C9.13905 86.9493 9.18739 86.7735 9.18945 86.5719C9.18739 86.3744 9.14008 86.2016 9.04752 86.0535C8.95701 85.9054 8.83051 85.7913 8.66801 85.7111C8.50551 85.6288 8.3173 85.5876 8.10337 85.5876C7.88533 85.5876 7.69404 85.6288 7.52948 85.7111C7.36698 85.7913 7.24048 85.9054 7.14997 86.0535C7.05946 86.2016 7.01524 86.3744 7.0173 86.5719C7.01524 86.7735 7.06049 86.9493 7.15306 87.0995C7.24562 87.2497 7.37315 87.3669 7.53565 87.4512C7.70021 87.5356 7.88945 87.5778 8.10337 87.5778ZM13.8554 84.8934V91.2124H12.8989V85.8499H12.8619L11.35 86.8372V85.924L12.9267 84.8934H13.8554ZM15.8201 91.271C15.6514 91.271 15.5064 91.2114 15.385 91.0921C15.2637 90.9707 15.203 90.8247 15.203 90.6539C15.203 90.4853 15.2637 90.3413 15.385 90.222C15.5064 90.1006 15.6514 90.0399 15.8201 90.0399C15.9887 90.0399 16.1338 90.1006 16.2551 90.222C16.3765 90.3413 16.4372 90.4853 16.4372 90.6539C16.4372 90.7671 16.4084 90.8709 16.3508 90.9656C16.2952 91.0581 16.2212 91.1322 16.1286 91.1877C16.036 91.2433 15.9332 91.271 15.8201 91.271ZM17.6605 91.2124V90.5213L19.7987 88.3059C20.0271 88.0653 20.2153 87.8544 20.3634 87.6734C20.5135 87.4903 20.6256 87.3165 20.6997 87.152C20.7737 86.9874 20.8108 86.8126 20.8108 86.6274C20.8108 86.4176 20.7614 86.2366 20.6627 86.0844C20.5639 85.9301 20.4292 85.8118 20.2585 85.7296C20.0877 85.6452 19.8954 85.6031 19.6815 85.6031C19.4552 85.6031 19.2578 85.6493 19.0891 85.7419C18.9204 85.8345 18.7908 85.9651 18.7003 86.1338C18.6098 86.3024 18.5646 86.4999 18.5646 86.7262H17.6544C17.6544 86.3415 17.7428 86.0052 17.9197 85.7172C18.0966 85.4293 18.3393 85.2061 18.6479 85.0477C18.9564 84.8872 19.3071 84.807 19.7 84.807C20.097 84.807 20.4467 84.8862 20.7491 85.0446C21.0535 85.2009 21.2911 85.4149 21.4618 85.6864C21.6325 85.9558 21.7179 86.2603 21.7179 86.5997C21.7179 86.8342 21.6737 87.0635 21.5852 87.2877C21.4988 87.5119 21.3476 87.7618 21.1317 88.0375C20.9157 88.3111 20.6154 88.6433 20.2307 89.0341L18.9749 90.3485V90.3948H21.8197V91.2124H17.6605ZM25.189 91.3173C24.7015 91.3153 24.285 91.1867 23.9394 90.9316C23.5938 90.6766 23.3295 90.3053 23.1464 89.8178C22.9634 89.3303 22.8718 88.743 22.8718 88.056C22.8718 87.371 22.9634 86.7858 23.1464 86.3004C23.3316 85.8149 23.5969 85.4447 23.9425 85.1896C24.2901 84.9346 24.7056 84.807 25.189 84.807C25.6724 84.807 26.0869 84.9356 26.4324 85.1927C26.778 85.4478 27.0423 85.818 27.2254 86.3035C27.4105 86.7868 27.5031 87.371 27.5031 88.056C27.5031 88.7451 27.4116 89.3334 27.2285 89.8209C27.0454 90.3063 26.7811 90.6776 26.4355 90.9347C26.09 91.1898 25.6745 91.3173 25.189 91.3173ZM25.189 90.4935C25.6169 90.4935 25.9511 90.2847 26.1918 89.8671C26.4345 89.4496 26.5559 88.8459 26.5559 88.056C26.5559 87.5315 26.5003 87.0882 26.3893 86.7262C26.2802 86.3621 26.1229 86.0865 25.9172 85.8993C25.7135 85.71 25.4708 85.6154 25.189 85.6154C24.7632 85.6154 24.429 85.8252 24.1862 86.2448C23.9435 86.6645 23.8211 87.2682 23.8191 88.056C23.8191 88.5826 23.8736 89.0279 23.9826 89.392C24.0937 89.754 24.251 90.0286 24.4547 90.2158C24.6583 90.4009 24.9031 90.4935 25.189 90.4935ZM30.9094 91.2124V86.4732H31.7949V87.2445H31.8536C31.9523 86.9833 32.1138 86.7796 32.338 86.6336C32.5622 86.4855 32.8306 86.4115 33.1433 86.4115C33.4601 86.4115 33.7254 86.4855 33.9393 86.6336C34.1553 86.7817 34.3147 86.9853 34.4176 87.2445H34.4669C34.5801 86.9915 34.7601 86.7899 35.0069 86.6398C35.2537 86.4876 35.5479 86.4115 35.8893 86.4115C36.3192 86.4115 36.6699 86.5462 36.9415 86.8156C37.215 87.0851 37.3518 87.4914 37.3518 88.0344V91.2124H36.4293V88.1208C36.4293 87.7999 36.3419 87.5675 36.167 87.4235C35.9922 87.2795 35.7834 87.2075 35.5407 87.2075C35.2404 87.2075 35.0069 87.3001 34.8403 87.4852C34.6737 87.6683 34.5904 87.9038 34.5904 88.1918V91.2124H33.6709V88.0622C33.6709 87.805 33.5907 87.5983 33.4302 87.442C33.2698 87.2857 33.061 87.2075 32.8039 87.2075C32.629 87.2075 32.4676 87.2538 32.3195 87.3463C32.1734 87.4368 32.0552 87.5634 31.9646 87.7259C31.8762 87.8884 31.832 88.0766 31.832 88.2905V91.2124H30.9094Z" fill="#2D2D2D"/>
</svg>
