<svg width="20" height="20" viewBox="0 0 20 20" fill="none" xmlns="http://www.w3.org/2000/svg">
<path d="M6.3999 0.839258C6.3999 0.680128 6.46312 0.527516 6.57564 0.414994C6.68816 0.302472 6.84077 0.239258 6.9999 0.239258H12.9999C13.159 0.239258 13.3116 0.302472 13.4242 0.414994C13.5367 0.527516 13.5999 0.680128 13.5999 0.839258V3.79126H16.5999C16.759 3.79126 16.9116 3.85447 17.0242 3.96699C17.1367 4.07952 17.1999 4.23213 17.1999 4.39126V9.26806L19.1607 9.81406C19.2452 9.83753 19.3235 9.87925 19.3902 9.93626C19.4568 9.99328 19.5102 10.0642 19.5464 10.1441C19.5827 10.2239 19.601 10.3108 19.6001 10.3985C19.5992 10.4861 19.579 10.5726 19.5411 10.6517L17.3511 15.1973C17.1458 14.9659 16.8844 14.7914 16.592 14.6905C16.2997 14.5896 15.9862 14.5658 15.682 14.6212C15.3777 14.6767 15.0929 14.8097 14.8549 15.0072C14.617 15.2048 14.4339 15.4604 14.3235 15.7493L14.3115 15.7769C14.2029 16.0209 14.0633 16.25 13.8963 16.4585C13.5855 16.8425 13.2987 16.9913 13.0083 16.9913C12.7203 16.9913 12.4299 16.8401 12.1131 16.4513C11.9378 16.2319 11.7918 15.9907 11.6787 15.7337C11.5469 15.3914 11.3137 15.0976 11.0103 14.8915C10.7069 14.6855 10.3478 14.577 9.98105 14.5807C9.61431 14.5843 9.25745 14.6999 8.95822 14.912C8.65899 15.1241 8.43167 15.4225 8.3067 15.7673C8.19738 16.0136 8.05661 16.2447 7.8879 16.4549C7.5759 16.8413 7.2879 16.9913 6.9999 16.9913C6.7107 16.9913 6.4239 16.8413 6.1131 16.4585C5.93974 16.2417 5.79607 16.0028 5.6859 15.7481C5.57345 15.4547 5.38614 15.1958 5.14261 14.9972C4.89908 14.7987 4.60782 14.6673 4.29778 14.6162C3.98774 14.5651 3.66973 14.5961 3.37537 14.706C3.08101 14.816 2.82055 15.001 2.6199 15.2429L0.457502 10.6469C0.42045 10.5679 0.401048 10.4819 0.400646 10.3947C0.400244 10.3075 0.418853 10.2212 0.455176 10.142C0.491499 10.0627 0.544664 9.99229 0.610969 9.93566C0.677274 9.87903 0.755125 9.83753 0.839102 9.81406L2.7999 9.26686V4.39246C2.7999 4.23333 2.86312 4.08072 2.97564 3.96819C3.08816 3.85567 3.24077 3.79246 3.3999 3.79246H6.3999V0.839258ZM12.3999 1.43926H7.5999V3.79126H12.3999V1.43926ZM15.9999 8.93326V4.99246H3.9999V8.93206L9.0279 7.53046C9.66025 7.3542 10.3288 7.3542 10.9611 7.53046L15.9999 8.93326ZM11.6787 15.7337L11.6811 15.7385V15.7421L11.6787 15.7337ZM16.5855 16.2593L16.5819 16.2473C16.5509 16.1232 16.481 16.0122 16.3826 15.9307C16.2841 15.8491 16.1621 15.8011 16.0344 15.7937C15.9067 15.7864 15.78 15.82 15.6728 15.8897C15.5655 15.9594 15.4834 16.0616 15.4383 16.1813L15.4323 16.1933L15.4083 16.2545C15.2558 16.5986 15.0589 16.9213 14.8227 17.2145C14.3931 17.7425 13.7967 18.1913 12.9999 18.1913C12.2031 18.1913 11.6055 17.7413 11.1735 17.2121C10.9226 16.9021 10.7158 16.5588 10.5591 16.1921L10.5531 16.1789C10.5096 16.0652 10.4325 15.9674 10.332 15.8986C10.2316 15.8297 10.1126 15.7931 9.99086 15.7934C9.86911 15.7938 9.75035 15.8313 9.65037 15.9007C9.55039 15.9702 9.47392 16.0685 9.4311 16.1825L9.4251 16.1945L9.4011 16.2557C9.3771 16.3125 9.3395 16.3909 9.2883 16.4909C9.15605 16.7472 8.99846 16.9896 8.8179 17.2145C8.3907 17.7425 7.7967 18.1913 6.9999 18.1913C6.2031 18.1913 5.6079 17.7413 5.1783 17.2133C4.92824 16.9031 4.72229 16.5599 4.5663 16.1933L4.5615 16.1813C4.51643 16.0616 4.43428 15.9582 4.32705 15.8885C4.21982 15.8188 4.09312 15.7852 3.96543 15.7925C3.83774 15.7999 3.71575 15.8479 3.61726 15.9295C3.51876 16.011 3.44891 16.122 3.4179 16.2461L3.4155 16.2557L3.3987 16.3109C3.28958 16.6414 3.12791 16.9522 2.9199 17.2313C2.5515 17.7233 1.9647 18.1913 0.999902 18.1913C0.840772 18.1913 0.68816 18.2545 0.575638 18.367C0.463117 18.4795 0.399902 18.6321 0.399902 18.7913C0.399902 18.9504 0.463117 19.103 0.575638 19.2155C0.68816 19.328 0.840772 19.3913 0.999902 19.3913C2.4351 19.3913 3.3483 18.6617 3.8799 17.9513C3.9407 17.8705 3.9967 17.7901 4.0479 17.7101C4.1087 17.7957 4.1751 17.8825 4.2471 17.9705C4.7919 18.6425 5.6967 19.3913 6.9999 19.3913C8.3031 19.3913 9.2055 18.6401 9.7503 17.9681C9.8399 17.8561 9.9215 17.7465 9.9951 17.6393C10.0711 17.7481 10.1539 17.8585 10.2435 17.9705C10.7919 18.6437 11.6967 19.3913 12.9999 19.3913C14.3031 19.3913 15.2079 18.6425 15.7527 17.9705C15.8223 17.8849 15.8871 17.8001 15.9471 17.7161C15.9991 17.7969 16.0551 17.8785 16.1151 17.9609C16.6479 18.6761 17.5635 19.4093 19.0071 19.3913C19.0859 19.3903 19.1637 19.3739 19.2362 19.3428C19.3086 19.3118 19.3742 19.2668 19.4293 19.2104C19.4843 19.154 19.5277 19.0874 19.557 19.0142C19.5863 18.9411 19.6008 18.8629 19.5999 18.7841C19.599 18.7053 19.5825 18.6274 19.5515 18.555C19.5205 18.4826 19.4755 18.417 19.4191 18.3619C19.3627 18.3069 19.296 18.2635 19.2229 18.2342C19.1497 18.2049 19.0715 18.1903 18.9927 18.1913C18.0291 18.2033 17.4447 17.7365 17.0787 17.2445C16.8707 16.9626 16.7099 16.649 16.6023 16.3157L16.5855 16.2593Z" fill="#707070"/>
</svg>
