<svg width="19" height="26" viewBox="0 0 19 26" fill="none" xmlns="http://www.w3.org/2000/svg">
<path d="M10.8858 5.71293H8.47382C8.41411 6.715 8.34454 7.61615 8.26913 8.42137H11.0905C11.0152 7.61615 10.9455 6.71506 10.8858 5.71293ZM11.1731 9.24394H8.18653C8.029 10.72 7.85547 11.8328 7.70074 12.6424H11.6589C11.5041 11.8328 11.3305 10.72 11.1731 9.24394ZM13.7152 13.4649H5.64438C5.34905 13.4699 5.13668 13.7525 5.21721 14.0383L5.89017 16.4257C5.94927 16.6353 6.11313 16.7922 6.31496 16.8499H13.0447C13.2465 16.7922 13.4104 16.6354 13.4695 16.4257L14.1425 14.0383C14.223 13.7526 14.0106 13.4699 13.7152 13.4649ZM7.65978 15.7654H6.83721V14.5738H7.65978V15.7654ZM10.0911 15.7654H9.26845V14.5738H10.0911V15.7654ZM12.5225 15.7654H11.6998V14.5738H12.5225V15.7654ZM10.8015 3.07565H10.7135V2.11108H8.64614V3.07565H7.61242V4.8903H11.7472V3.07565H10.8015ZM17.3132 25.0173C15.3244 22.3918 13.7598 19.1469 13.0953 17.6725H6.26432C5.59983 19.1469 4.03516 22.3918 2.04642 25.0173H0.949646V26H6.2488V25.0173H5.63531C6.06906 24.0011 7.00374 22.5057 8.84354 22.0884C9.39408 21.9638 9.96551 21.9638 10.5161 22.0884C12.3559 22.5057 13.2905 24.0011 13.7243 25.0173H13.0296V25.9999H18.3288V25.0173H17.3132ZM9.26851 0H10.0911V1.28796H9.26851V0Z" fill="white"/>
</svg>
