<svg id="Group_8239" data-name="Group 8239" xmlns="http://www.w3.org/2000/svg" width="24" height="24" viewBox="0 0 24 24">
  <path id="Path_58707" data-name="Path 58707" d="M12,4.25a.75.75,0,0,1-.75-.75V.75a.75.75,0,1,1,1.5,0V3.5A.75.75,0,0,1,12,4.25Z" fill="#607d8b"/>
  <path id="Path_58708" data-name="Path 58708" d="M15.25,3H8.75A.75.75,0,0,0,8,3.75V8a.75.75,0,0,0,.75.75h6.5A.75.75,0,0,0,16,8V3.75A.75.75,0,0,0,15.25,3Z" fill="#eceff1"/>
  <path id="Path_58709" data-name="Path 58709" d="M18.25,8H5.75A.755.755,0,0,0,5,8.75v5.24a.755.755,0,0,0,.75.75h12.5a.755.755,0,0,0,.75-.75V8.75A.755.755,0,0,0,18.25,8Z" fill="#90a4ae"/>
  <path id="Path_58710" data-name="Path 58710" d="M20.47,14.03l-8.22-2.97a.717.717,0,0,0-.5,0L3.53,14.03a.752.752,0,0,0-.48.88l1.3,5.65.38,1.64.11.25L5.89,24H17.17l1.82-1.37a.775.775,0,0,0,.28-.43l.38-1.64,1.3-5.65a.752.752,0,0,0-.48-.88Z" fill="#607d8b"/>
  <path id="Path_58711" data-name="Path 58711" d="M24,23.25a.755.755,0,0,1-.75.75H.75a.75.75,0,0,1,0-1.5,3.018,3.018,0,0,0,2.54-1.36,1.308,1.308,0,0,1,1.06-.58l.15-.02a1.419,1.419,0,0,1,1.21.6,3.052,3.052,0,0,0,5.08,0,1.52,1.52,0,0,1,2.42,0,3.052,3.052,0,0,0,5.08,0,1.419,1.419,0,0,1,1.21-.6l.15.02a1.308,1.308,0,0,1,1.06.58,3.018,3.018,0,0,0,2.54,1.36A.755.755,0,0,1,24,23.25Z" fill="#2196f3"/>
</svg>
