<svg width="24" height="18" viewBox="0 0 24 18" fill="none" xmlns="http://www.w3.org/2000/svg">
<path d="M23.2052 8.745C22.3231 6.46324 20.7917 4.48996 18.8003 3.06906C16.8089 1.64817 14.4448 0.84193 12.0002 0.75C9.55556 0.84193 7.19146 1.64817 5.20007 3.06906C3.20868 4.48996 1.67729 6.46324 0.795169 8.745C0.735595 8.90978 0.735595 9.09022 0.795169 9.255C1.67729 11.5368 3.20868 13.51 5.20007 14.9309C7.19146 16.3518 9.55556 17.1581 12.0002 17.25C14.4448 17.1581 16.8089 16.3518 18.8003 14.9309C20.7917 13.51 22.3231 11.5368 23.2052 9.255C23.2647 9.09022 23.2647 8.90978 23.2052 8.745ZM12.0002 13.875C11.036 13.875 10.0935 13.5891 9.29177 13.0534C8.49008 12.5177 7.86523 11.7564 7.49626 10.8656C7.12728 9.97479 7.03074 8.99459 7.21884 8.04893C7.40694 7.10328 7.87124 6.23464 8.55302 5.55285C9.23481 4.87107 10.1034 4.40677 11.0491 4.21867C11.9948 4.03057 12.975 4.12711 13.8658 4.49609C14.7565 4.86506 15.5179 5.48991 16.0536 6.2916C16.5893 7.09329 16.8752 8.03582 16.8752 9C16.8732 10.2923 16.3589 11.5311 15.4451 12.445C14.5313 13.3588 13.2925 13.873 12.0002 13.875Z" fill="#545454"/>
</svg>
