<svg width="14" height="16" viewBox="0 0 14 16" fill="none" xmlns="http://www.w3.org/2000/svg">
<path d="M12.625 5.75H8.125V1.25H1.375V14.75H12.625V5.75ZM12.1593 4.625L9.25 1.71575V4.625H12.1593ZM0.8125 0.125H9.25L13.75 4.625V15.3125C13.75 15.4617 13.6907 15.6048 13.5852 15.7102C13.4798 15.8157 13.3367 15.875 13.1875 15.875H0.8125C0.663316 15.875 0.520242 15.8157 0.414753 15.7102C0.309263 15.6048 0.25 15.4617 0.25 15.3125V0.6875C0.25 0.538316 0.309263 0.395242 0.414753 0.289752C0.520242 0.184263 0.663316 0.125 0.8125 0.125ZM3.625 8H10.375V9.125H3.625V8ZM3.625 4.625H6.4375V5.75H3.625V4.625ZM3.625 11.375H10.375V12.5H3.625V11.375Z" fill="#5774F1"/>
</svg>
