<svg xmlns="http://www.w3.org/2000/svg" xmlns:xlink="http://www.w3.org/1999/xlink" width="21" height="21" viewBox="0 0 21 21">
  <defs>
    <clipPath id="clip-path">
      <rect id="Rectangle_16059" data-name="Rectangle 16059" width="21" height="21" transform="translate(1223 3537)" fill="#fff" stroke="#707070" stroke-width="1"/>
    </clipPath>
  </defs>
  <g id="Mask_Group_6" data-name="Mask Group 6" transform="translate(-1223 -3537)" clip-path="url(#clip-path)">
    <g id="Search_results_for_Accident_-_Flaticon-12" data-name="Search results for Accident - Flaticon-12" transform="translate(1221.5 3535.5)">
      <path id="Path_88331" data-name="Path 88331" d="M7.5,4.5a7.3,7.3,0,0,1,4.141,1.549L8.585,9.105a2.256,2.256,0,0,0-.287,2.83L10.385,15.1,8.331,19.162a.751.751,0,0,0,1.339.677l2.054-4.066a1.5,1.5,0,0,0-.087-1.5l-.784-1.187,3.9-3.9a8.5,8.5,0,0,1,.528,1.064A3.108,3.108,0,0,0,16.7,12.026a3.158,3.158,0,0,0,1.666.322,12.582,12.582,0,0,0,2.005-.188.75.75,0,1,0-.242-1.48,5.551,5.551,0,0,1-2.711.031c-.385-.21-.5-.434-.761-1.051A8.715,8.715,0,0,0,14.59,6.6C11.462,3.467,8.805,3,7.5,3a.75.75,0,0,0,0,1.5Zm6.336,3.479L10.01,11.805l-.46-.7a.753.753,0,0,1,.1-.944L12.82,6.99A12.888,12.888,0,0,1,13.836,7.979Z" fill="#247dd4"/>
      <path id="Path_88332" data-name="Path 88332" d="M2.25,14.25A.75.75,0,0,1,3,13.5H5.823l1.342-.671a.75.75,0,0,1,.671,1.342l-1.5.75A.748.748,0,0,1,6,15H3A.75.75,0,0,1,2.25,14.25Zm14.625-7.5A2.625,2.625,0,1,0,14.25,4.125,2.628,2.628,0,0,0,16.875,6.75Zm0-3.75A1.125,1.125,0,1,1,15.75,4.125,1.126,1.126,0,0,1,16.875,3ZM21.75,21h-6V18.75A.75.75,0,0,0,15,18H12a.75.75,0,0,0-.75.75V21h-9a.75.75,0,0,0,0,1.5h19.5a.75.75,0,0,0,0-1.5Zm-7.5,0h-1.5V19.5h1.5ZM15,15a.75.75,0,0,1,.75.75v.75a.75.75,0,0,1-1.5,0v-.75A.75.75,0,0,1,15,15Z" fill="#247dd4"/>
      <path id="Path_88333" data-name="Path 88333" d="M16.5,18.75a.75.75,0,0,1,.75-.75H18a.75.75,0,0,1,0,1.5h-.75A.75.75,0,0,1,16.5,18.75Zm.22-1.72a.749.749,0,0,1,0-1.061l.535-.535a.75.75,0,0,1,1.061,1.061l-.536.535a.749.749,0,0,1-1.061,0ZM2.25,6.75A.75.75,0,0,1,3,6H6A.75.75,0,0,1,6,7.5H3A.75.75,0,0,1,2.25,6.75Zm4.5,3A.75.75,0,0,1,6,10.5H3.75a.75.75,0,0,1,0-1.5H6A.75.75,0,0,1,6.75,9.75Z" fill="#247dd4"/>
    </g>
  </g>
</svg>
