<svg xmlns="http://www.w3.org/2000/svg" xmlns:xlink="http://www.w3.org/1999/xlink" width="21" height="21" viewBox="0 0 21 21">
  <defs>
    <clipPath id="clip-path">
      <rect id="Rectangle_16066" data-name="Rectangle 16066" width="21" height="21" transform="translate(1141 3167)" fill="#fff" stroke="#707070" stroke-width="1"/>
    </clipPath>
  </defs>
  <g id="Mask_Group_9" data-name="Mask Group 9" transform="translate(-1141 -3167)" clip-path="url(#clip-path)">
    <g id="Group_16944" data-name="Group 16944" transform="translate(828.658 2225.351)">
      <g id="Search_results_for_Accident_-_Flaticon-12_2_" data-name="Search results for Accident - Flaticon-12 (2)" transform="translate(316.169 943.104)">
        <path id="Path_88336" data-name="Path 88336" d="M9.469,17.765a1.076,1.076,0,0,1-1.037-.846L7.859,13.29l-1.992-2.21a.252.252,0,1,1,.382-.327L8.3,13.017a.208.208,0,0,1,.055.136l.573,3.684a.539.539,0,0,0,.573.409,1.61,1.61,0,0,0,.218-.109.518.518,0,0,0,.191-.464l-.573-3.739v-.027a.518.518,0,0,0-.136-.355L7.832,11.025a.252.252,0,1,1,.382-.327l1.364,1.528a1.037,1.037,0,0,1,.273.71l.573,3.711a1.03,1.03,0,0,1-.409.982,1.641,1.641,0,0,1-.382.191H9.606C9.578,17.765,9.524,17.765,9.469,17.765Z" fill="#247dd4"/>
        <path id="Path_88336_-_Outline" data-name="Path 88336 - Outline" d="M9.649,17.917h-.1l-.027-.052a.285.285,0,0,0-.051,0,1.173,1.173,0,0,1-1.132-.922v-.006l-.569-3.6L5.8,11.145a.324.324,0,0,1-.1-.253.337.337,0,0,1,.129-.242.327.327,0,0,1,.227-.093.338.338,0,0,1,.266.132l2.043,2.26a.3.3,0,0,1,.082.195l.571,3.674a.443.443,0,0,0,.452.332l.043-.019a.925.925,0,0,0,.143-.073.422.422,0,0,0,.153-.37l-.573-3.747v-.033a.422.422,0,0,0-.109-.286l0,0L7.762,11.091a.324.324,0,0,1-.095-.253A.337.337,0,0,1,7.8,10.6a.327.327,0,0,1,.227-.093.338.338,0,0,1,.266.132l1.36,1.524a1.131,1.131,0,0,1,.3.768l.573,3.7a1.13,1.13,0,0,1-.447,1.075l-.006,0a1.711,1.711,0,0,1-.405.2ZM8.528,16.9a.979.979,0,0,0,.942.767.268.268,0,0,1,.173.045,1.553,1.553,0,0,0,.316-.164.937.937,0,0,0,.369-.889l-.573-3.719v-.008a.945.945,0,0,0-.246-.641l0,0-1.37-1.534a.144.144,0,0,0-.113-.058.132.132,0,0,0-.095.041l0,0-.005,0a.145.145,0,0,0-.058.1.131.131,0,0,0,.041.1l0,0,1.363,1.526a.617.617,0,0,1,.164.421v.02L10,16.659a.618.618,0,0,1-.226.554l-.008.006a1.082,1.082,0,0,1-.177.092l-.052.023-.016.008-.018,0-.062,0a.64.64,0,0,1-.616-.488v-.006l-.573-3.691v-.009a.113.113,0,0,0-.027-.068l0,0L6.174,10.81a.144.144,0,0,0-.116-.058.132.132,0,0,0-.095.041l0,0-.005,0a.145.145,0,0,0-.058.1.131.131,0,0,0,.041.1l0,0,2.011,2.232Z" fill="#247dd4"/>
        <path id="Path_88337" data-name="Path 88337" d="M13.617,12.635a.93.93,0,0,1-.682-.3l-2.183-1.91L7.068,11.3a1.3,1.3,0,0,1-1.5-.573L3.9,7.177l-.437.546a1.068,1.068,0,0,0-.218.873L3.438,9.66a.846.846,0,0,1-.191.791,1.025,1.025,0,0,1-.573.382A1,1,0,0,1,1.5,10.1L1.255,8.1a1.528,1.528,0,0,1,.327-1.173L2.7,5.567a2.8,2.8,0,0,1,1.146-.873l1.419-.628a3.116,3.116,0,0,1,1.774-.218l1.446.273A1.318,1.318,0,0,0,9.5,3.875l.764-.573a.981.981,0,0,1,1.364.027l.027.027a1.058,1.058,0,0,1,.273.71.887.887,0,0,1-.3.682l-.764.628a3.442,3.442,0,0,1-2.483.737L7.341,6.031l1.2,2.592,2.047-.136a1.863,1.863,0,0,1,1.446.464l2.238,2.019a.914.914,0,0,1,.273,1.119.767.767,0,0,1-.273.327,1.249,1.249,0,0,1-.655.218ZM10.806,9.851a.293.293,0,0,1,.164.055l2.292,2.019a.027.027,0,0,1,.027.027.428.428,0,0,0,.6.027l.027-.027a.747.747,0,0,0,.109-.136.5.5,0,0,0-.164-.518L11.625,9.278a1.374,1.374,0,0,0-1.064-.355L8.323,9.06a.256.256,0,0,1-.246-.136L6.6,5.758a.257.257,0,0,1,.027-.246A.266.266,0,0,1,6.877,5.4l1.5.136a2.8,2.8,0,0,0,2.1-.628l.764-.628a.438.438,0,0,0,.136-.3.575.575,0,0,0-.136-.355L11.216,3.6a.5.5,0,0,0-.655,0l-.027.027L9.769,4.2a1.788,1.788,0,0,1-1.419.355L6.9,4.284a2.808,2.808,0,0,0-1.474.164l-1.419.628a1.982,1.982,0,0,0-.928.71L1.965,7.15a1.041,1.041,0,0,0-.218.791l.246,1.965a.484.484,0,0,0,.573.327.4.4,0,0,0,.246-.164l.027-.027A.473.473,0,0,0,2.92,9.66L2.729,8.569a1.617,1.617,0,0,1,.327-1.283l.71-.846a.252.252,0,0,1,.246-.082.205.205,0,0,1,.191.136l1.828,3.9a.753.753,0,0,0,.873.327h.027l3.82-.9c.027.055.027.027.055.027ZM3.739,3.82A1.77,1.77,0,1,1,4.994,3.3,1.774,1.774,0,0,1,3.739,3.82Zm0-3a1.223,1.223,0,1,0,.87.358A1.228,1.228,0,0,0,3.739.819ZM6.9,16.346H1.2a.273.273,0,0,1-.273-.273A.258.258,0,0,1,1.2,15.8H6.9a.273.273,0,1,1,0,.546Zm.546,1.392h-5.7a.273.273,0,0,1-.273-.273.258.258,0,0,1,.273-.273h5.7a.273.273,0,1,1,0,.546Z" fill="#247dd4"/>
        <path id="Path_88337_-_Outline" data-name="Path 88337 - Outline" d="M7.45,17.835h-5.7a.371.371,0,0,1-.37-.37.355.355,0,0,1,.37-.37h5.7a.37.37,0,0,1,0,.74Zm-5.7-.546a.162.162,0,0,0-.176.176.176.176,0,0,0,.176.176h5.7a.176.176,0,1,0,0-.352ZM6.9,16.443H1.2a.371.371,0,0,1-.37-.37.355.355,0,0,1,.37-.37H6.9a.37.37,0,0,1,0,.74ZM1.2,15.9a.162.162,0,0,0-.176.176.176.176,0,0,0,.176.176H6.9a.176.176,0,1,0,0-.352Zm12.416-3.166a1.032,1.032,0,0,1-.751-.327L10.725,10.53l-3.629.86a1.252,1.252,0,0,1-.409.068,1.442,1.442,0,0,1-1.2-.682l0-.005L3.881,7.36l-.342.428a.969.969,0,0,0-.2.794l.191,1.058a.947.947,0,0,1-.209.873,1.127,1.127,0,0,1-.626.416h0a1.081,1.081,0,0,1-.222.023,1.125,1.125,0,0,1-.678-.229,1.032,1.032,0,0,1-.388-.605v-.008L1.162,8.116a1.616,1.616,0,0,1,.349-1.247L2.63,5.5a2.9,2.9,0,0,1,1.184-.9l1.42-.628a3.443,3.443,0,0,1,1.3-.273,2.818,2.818,0,0,1,.526.049l1.444.273a1.322,1.322,0,0,0,.2.015A1.173,1.173,0,0,0,9.439,3.8l0,0,.76-.57a1.078,1.078,0,0,1,1.5.033l.032.032a1.162,1.162,0,0,1,.293.773.988.988,0,0,1-.334.756h0l-.764.628a3.534,3.534,0,0,1-2.217.775c-.112,0-.225-.005-.337-.016L7.5,6.14,8.6,8.522l1.978-.132a1.986,1.986,0,0,1,.205-.011,1.947,1.947,0,0,1,1.315.5L14.336,10.9a1.006,1.006,0,0,1,.295,1.236.863.863,0,0,1-.308.365,1.33,1.33,0,0,1-.705.232Zm-2.838-2.413,2.226,1.948,0,.005a.828.828,0,0,0,.609.266h0a1.146,1.146,0,0,0,.6-.2h0a.672.672,0,0,0,.236-.288v0a.815.815,0,0,0-.25-1l0,0L11.969,9.023a1.751,1.751,0,0,0-1.184-.448,1.791,1.791,0,0,0-.187.01h0l-2.113.141-1.3-2.8,1.2.095c.106.01.213.015.319.015A3.339,3.339,0,0,0,10.8,5.3l.763-.628a.8.8,0,0,0,.266-.608.958.958,0,0,0-.246-.643L11.558,3.4a.884.884,0,0,0-1.23-.025l-.008.007-.764.573a1.369,1.369,0,0,1-.854.282,1.517,1.517,0,0,1-.23-.018h0L7.023,3.944A2.625,2.625,0,0,0,6.532,3.9,3.25,3.25,0,0,0,5.3,4.156l-1.419.628a2.7,2.7,0,0,0-1.107.843v0L1.659,6.993a1.423,1.423,0,0,0-.306,1.1L1.6,10.081a.9.9,0,0,0,.876.677.886.886,0,0,0,.18-.019A.928.928,0,0,0,3.17,10.4l.006-.007a.752.752,0,0,0,.169-.7l0-.011L3.152,8.613a1.165,1.165,0,0,1,.239-.952l.533-.666,1.728,3.684a1.247,1.247,0,0,0,1.033.587,1.058,1.058,0,0,0,.35-.059l.01,0Zm2.83,1.868h0a.512.512,0,0,1-.392-.172l-.007-.007L10.9,9.975a.237.237,0,0,0-.087-.027.112.112,0,0,1-.037.006.1.1,0,0,1-.065-.022l-3.771.89H6.919a.819.819,0,0,1-.246.037.862.862,0,0,1-.726-.409l0-.005L4.111,6.525a.109.109,0,0,0-.1-.07H4l-.011,0a.14.14,0,0,0-.034,0,.169.169,0,0,0-.117.058l-.705.841a1.526,1.526,0,0,0-.308,1.206l.191,1.09a.569.569,0,0,1-.1.458l0,.005-.026.026a.5.5,0,0,1-.3.2h0a.638.638,0,0,1-.125.013A.573.573,0,0,1,1.9,9.928V9.922L1.652,7.949a1.146,1.146,0,0,1,.241-.864L3.009,5.724a2.067,2.067,0,0,1,.968-.74L5.4,4.356A3.138,3.138,0,0,1,6.481,4.15a2.549,2.549,0,0,1,.442.038l1.446.273a1.815,1.815,0,0,0,.3.025,1.653,1.653,0,0,0,1.045-.36l0,0,.759-.569.027-.027a.615.615,0,0,1,.4-.146.539.539,0,0,1,.386.151l.032.032,0,.005a.676.676,0,0,1,.156.413.533.533,0,0,1-.164.369l-.007.006-.764.628a2.893,2.893,0,0,1-1.85.666,3.044,3.044,0,0,1-.322-.017L6.875,5.5c-.1,0-.135.027-.161.066l-.005.008L6.7,5.579a.175.175,0,0,0-.005.142l1.475,3.17a.169.169,0,0,0,.151.07l2.234-.136c.039,0,.08,0,.12,0a1.44,1.44,0,0,1,1.017.385l2.24,2.021a.583.583,0,0,1,.182.63l0,.005-.005.007a.841.841,0,0,1-.121.151l-.027.027a.491.491,0,0,1-.352.138Zm-.23-.281a.33.33,0,0,0,.23.087h0a.3.3,0,0,0,.214-.082l.027-.027a.637.637,0,0,0,.093-.116c.052-.114-.033-.286-.146-.4L11.558,9.346a1.245,1.245,0,0,0-.882-.33,1,1,0,0,0-.107,0l-2.245.136a.347.347,0,0,1-.335-.2L6.512,5.789a.355.355,0,0,1,.044-.337.362.362,0,0,1,.321-.145h.009l1.5.136a2.85,2.85,0,0,0,.3.016,2.7,2.7,0,0,0,1.727-.622l.76-.624a.342.342,0,0,0,.1-.228.473.473,0,0,0-.113-.291l-.022-.022a.351.351,0,0,0-.249-.094.428.428,0,0,0-.273.1L10.6,3.7l-.768.576a1.845,1.845,0,0,1-1.165.4,2.009,2.009,0,0,1-.329-.027h0L6.885,4.38a2.352,2.352,0,0,0-.407-.035,2.944,2.944,0,0,0-1.012.193l-1.423.629a1.88,1.88,0,0,0-.883.676l0,0L2.038,7.214a.953.953,0,0,0-.195.717l.246,1.957a.378.378,0,0,0,.372.26.443.443,0,0,0,.085-.008.3.3,0,0,0,.184-.124l.005-.008.029-.029a.378.378,0,0,0,.061-.3v0L2.633,8.584a1.716,1.716,0,0,1,.346-1.358l0,0L3.7,6.37a.359.359,0,0,1,.257-.118.331.331,0,0,1,.07.008.3.3,0,0,1,.269.2l1.823,3.892a.669.669,0,0,0,.559.315.628.628,0,0,0,.2-.032l.015,0h.032L10.8,9.712l.022.043a.378.378,0,0,1,.21.08l2.274,2a.122.122,0,0,1,.068.068ZM3.739,3.917A1.871,1.871,0,1,1,5.062,3.37a1.872,1.872,0,0,1-1.323.547Zm0-3.548A1.677,1.677,0,1,0,5.415,2.047,1.677,1.677,0,0,0,3.739.37Zm0,3a1.32,1.32,0,1,1,.938-.386A1.32,1.32,0,0,1,3.739,3.372Zm0-2.456A1.131,1.131,0,1,0,4.87,2.047,1.131,1.131,0,0,0,3.739.916Z" fill="#247dd4"/>
        <path id="Path_88338" data-name="Path 88338" d="M14.054,9.524a.208.208,0,0,1-.136-.055.3.3,0,0,1-.082-.355l.873-1.283a.257.257,0,1,1,.437.273l-.873,1.283A.278.278,0,0,1,14.054,9.524Zm1.037.437a.3.3,0,0,1-.191-.082.233.233,0,0,1,0-.355l1.283-1.255a.233.233,0,0,1,.355,0,.255.255,0,0,1,0,.355L15.282,9.879a.3.3,0,0,1-.191.082ZM15.527,11a.337.337,0,0,1-.218-.109.243.243,0,0,1,.082-.355l1.283-.846a.257.257,0,0,1,.273.437l-1.283.846a1.182,1.182,0,0,1-.136.027Z" fill="#247dd4"/>
        <path id="Path_88338_-_Outline" data-name="Path 88338 - Outline" d="M15.527,11.094a.439.439,0,0,1-.287-.136l0,0,0-.005a.33.33,0,0,1-.059-.261.351.351,0,0,1,.167-.234l1.28-.844a.325.325,0,0,1,.194-.064.349.349,0,0,1,.3.17.33.33,0,0,1,.056.257.351.351,0,0,1-.167.234l-1.305.861h-.025a.133.133,0,0,0-.023.006A.414.414,0,0,1,15.527,11.094Zm-.145-.269a.241.241,0,0,0,.145.076.256.256,0,0,0,.063-.013l.038-.01,1.268-.835a.16.16,0,0,0,.078-.106.134.134,0,0,0-.024-.108l-.005-.008a.155.155,0,0,0-.133-.082.133.133,0,0,0-.082.027l0,0-1.287.846a.16.16,0,0,0-.078.106.134.134,0,0,0,.02.1Zm-.292-.768a.392.392,0,0,1-.26-.109.361.361,0,0,1-.109-.279.3.3,0,0,1,.114-.218L16.115,8.2a.362.362,0,0,1,.255-.109.3.3,0,0,1,.246.121A.351.351,0,0,1,16.6,8.7L15.352,9.948a.392.392,0,0,1-.261.11ZM16.37,8.284a.172.172,0,0,0-.119.055L14.963,9.6l-.005,0a.107.107,0,0,0-.043.08.173.173,0,0,0,.3.129l1.26-1.26.005,0c.057-.043.035-.147-.019-.218a.109.109,0,0,0-.09-.044ZM14.054,9.621a.305.305,0,0,1-.2-.078.4.4,0,0,1-.105-.472l0-.006.88-1.292a.386.386,0,0,1,.31-.148.372.372,0,0,1,.166.037l.008,0,.007.005a.4.4,0,0,1,.109.476l0,.006-.876,1.288a.371.371,0,0,1-.3.179Zm-.134-.458a.2.2,0,0,0,.055.229l.005,0,0,0a.113.113,0,0,0,.068.027.187.187,0,0,0,.137-.1l.87-1.277a.2.2,0,0,0-.049-.223.183.183,0,0,0-.071-.013.2.2,0,0,0-.154.069Z" fill="#247dd4"/>
      </g>
      <path id="Path_88339" data-name="Path 88339" d="M3.459,5.434l1.6-1.567a2.265,2.265,0,1,0-3.2,0l1.6,1.564ZM2.315,1.121A1.619,1.619,0,1,1,4.607,3.407L3.461,4.529,2.315,3.411a1.62,1.62,0,0,1,0-2.288Zm.173,1.141a.971.971,0,1,1,.971.971.971.971,0,0,1-.971-.971Z" transform="translate(311.148 953.943)" fill="#247dd4"/>
    </g>
  </g>
</svg>
