<svg width="40" height="40" viewBox="0 0 40 40" fill="none" xmlns="http://www.w3.org/2000/svg">
<path d="M10.0003 13.3333H16.667" stroke="white" stroke-width="2.5" stroke-linecap="round" stroke-linejoin="round"/>
<path d="M34.722 15H30.3853C27.4103 15 25.0003 17.2383 25.0003 20C25.0003 22.7617 27.412 25 30.3836 25H34.722C34.862 25 34.9303 25 34.9886 24.9967C35.8886 24.9417 36.6053 24.2767 36.6636 23.4417C36.667 23.3883 36.667 23.3233 36.667 23.195V16.805C36.667 16.6767 36.667 16.6117 36.6636 16.5583C36.6036 15.7233 35.8886 15.0583 34.9886 15.0033C34.932 15 34.862 15 34.722 15Z" stroke="white" stroke-width="2.5"/>
<path d="M34.942 15C34.812 11.88 34.3953 9.96666 33.047 8.61999C31.0953 6.66666 27.952 6.66666 21.667 6.66666H16.667C10.382 6.66666 7.23865 6.66666 5.28698 8.61999C3.33365 10.5717 3.33365 13.715 3.33365 20C3.33365 26.285 3.33365 29.4283 5.28698 31.38C7.23865 33.3333 10.382 33.3333 16.667 33.3333H21.667C27.952 33.3333 31.0953 33.3333 33.047 31.38C34.3953 30.0333 34.8136 28.12 34.942 25" stroke="white" stroke-width="2.5"/>
<path d="M29.9854 20H30.002" stroke="white" stroke-width="3.33333" stroke-linecap="round" stroke-linejoin="round"/>
</svg>
