<svg xmlns="http://www.w3.org/2000/svg" xmlns:xlink="http://www.w3.org/1999/xlink" width="18" height="18" viewBox="0 0 18 18">
  <defs>
    <clipPath id="clip-path">
      <rect id="Rectangle_16092" data-name="Rectangle 16092" width="18" height="18" transform="translate(115 213)" fill="#fff" stroke="#707070" stroke-width="1"/>
    </clipPath>
  </defs>
  <g id="Mask_Group_27" data-name="Mask Group 27" transform="translate(-115 -213)" clip-path="url(#clip-path)">
    <path id="employee-man-alt" d="M8.1,7.8A3.9,3.9,0,1,0,4.2,3.9,3.9,3.9,0,0,0,8.1,7.8Zm0-6.5A2.6,2.6,0,1,1,5.5,3.9,2.6,2.6,0,0,1,8.1,1.3Zm5.85,13.651a.65.65,0,0,1-1.3,0,4.553,4.553,0,0,0-3-4.271L8.668,12.16l.71,2.594A.723.723,0,0,1,8.6,15.6h-1a.723.723,0,0,1-.781-.848l.71-2.594L6.546,10.68a4.554,4.554,0,0,0-3,4.271.65.65,0,0,1-1.3,0,5.85,5.85,0,0,1,11.7,0Z" transform="translate(114.049 214.199)" fill="#90a4ae"/>
    <path id="Path_88365" data-name="Path 88365" d="M17.25,8.25h-1.5V6.75a.75.75,0,0,0-1.5,0v1.5h-1.5a.75.75,0,0,0,0,1.5h1.5v1.5a.75.75,0,0,0,1.5,0V9.75h1.5a.75.75,0,0,0,0-1.5Z" transform="translate(114 213)" fill="#90a4ae"/>
  </g>
</svg>
