<svg xmlns="http://www.w3.org/2000/svg" xmlns:xlink="http://www.w3.org/1999/xlink" width="18" height="18" viewBox="0 0 18 18">
  <defs>
    <clipPath id="clip-path">
      <rect id="Rectangle_16099" data-name="Rectangle 16099" width="18" height="18" fill="#fff" stroke="#707070" stroke-width="1"/>
    </clipPath>
  </defs>
  <g id="Mask_Group_29" data-name="Mask Group 29" clip-path="url(#clip-path)">
    <path id="form" d="M14.871,2.56,13.189.879A2.981,2.981,0,0,0,11.068,0H4.5A2.25,2.25,0,0,0,2.25,2.25V18h13.5V4.681a3.016,3.016,0,0,0-.879-2.121Zm-1.06,1.06a1.442,1.442,0,0,1,.106.129H12V1.834a1.442,1.442,0,0,1,.129.106ZM3.75,16.5V2.25A.75.75,0,0,1,4.5,1.5h6V5.25h3.75V16.5ZM5.25,12h7.5V7.5H5.25Zm1.5-3h4.5v1.5H6.75Zm-1.5,4.5h7.5V15H5.25Z" transform="translate(0 0)" fill="#90a4ae"/>
  </g>
</svg>
