<svg xmlns="http://www.w3.org/2000/svg" width="18" height="18" viewBox="0 0 18 18">
  <g id="Group_16966" data-name="Group 16966" transform="translate(-45 -555)">
    <path id="Subtraction_7" data-name="Subtraction 7" d="M-3659.157,18h-.031A2.615,2.615,0,0,1-3662,15.75a.751.751,0,0,1,.75-.75.751.751,0,0,1,.751.75c0,.229.5.75,1.312.75h.067a1.5,1.5,0,0,0,1.132-.514,1.531,1.531,0,0,0-.1-.142,9.123,9.123,0,0,1-2.39-4.637A2.237,2.237,0,0,1-3659,8.679V6.75a3,3,0,0,1,3-3V3a3,3,0,0,1,3-3,3,3,0,0,1,2.944,2.419A4,4,0,0,0-3651,5c0,.081,0,.166.008.25H-3656a1.5,1.5,0,0,0-1.5,1.5V8.185l3.793-1.239a2.275,2.275,0,0,1,.709-.113,2.274,2.274,0,0,1,.709.113l2.355.773A4.015,4.015,0,0,0-3647,9a4.049,4.049,0,0,0,.535-.036,2.259,2.259,0,0,1,.921,2.243,9.1,9.1,0,0,1-2.367,4.637,1.4,1.4,0,0,0-.1.138,1.514,1.514,0,0,0,1.14.518h.055c.8,0,1.312-.492,1.312-.75a.751.751,0,0,1,.75-.75.751.751,0,0,1,.75.75,2.617,2.617,0,0,1-2.816,2.25h-.019a3.154,3.154,0,0,1-2.04-.75,3.245,3.245,0,0,1-2.07.748,3.246,3.246,0,0,1-2.056-.736,3.23,3.23,0,0,1-2.051.737,3.226,3.226,0,0,1-2.065-.749A3.159,3.159,0,0,1-3659.157,18Zm6.906-9.462V15.75c0,.229.5.75,1.312.75l.086,0a1.445,1.445,0,0,0,1.2-.635,3.737,3.737,0,0,1,.636-1.033,7.628,7.628,0,0,0,2-3.878.762.762,0,0,0-.5-.867l-4.729-1.551Zm-1.5,0-4.753,1.553a.759.759,0,0,0-.5.865,7.676,7.676,0,0,0,2.018,3.879,3.833,3.833,0,0,1,.636,1.029,1.448,1.448,0,0,0,1.2.638l.081,0c.8,0,1.312-.492,1.312-.75V8.537ZM-3653,1.5a1.5,1.5,0,0,0-1.5,1.5v.75h3V3A1.5,1.5,0,0,0-3653,1.5Z" transform="translate(3707 555)" fill="#90a4ae"/>
    <path id="Path_88369" data-name="Path 88369" d="M17.25,8.25h-1.5V6.75a.75.75,0,0,0-1.5,0v1.5h-1.5a.75.75,0,0,0,0,1.5h1.5v1.5a.75.75,0,0,0,1.5,0V9.75h1.5a.75.75,0,0,0,0-1.5Z" transform="translate(45 551)" fill="#90a4ae"/>
  </g>
</svg>
