<svg xmlns="http://www.w3.org/2000/svg" width="18" height="19" viewBox="0 0 18 19">
  <path id="Path_58805" data-name="Path 58805" d="M5,12.5c0,.313.461.858,1.53,1.393A12.664,12.664,0,0,0,12,15a12.664,12.664,0,0,0,5.469-1.107C18.539,13.358,19,12.813,19,12.5V10.329A13.767,13.767,0,0,1,12,12a13.767,13.767,0,0,1-7-1.671Zm14,2.829A13.767,13.767,0,0,1,12,17a13.767,13.767,0,0,1-7-1.671V17.5c0,.313.461.858,1.53,1.393A12.664,12.664,0,0,0,12,20a12.664,12.664,0,0,0,5.469-1.107C18.539,18.358,19,17.813,19,17.5ZM3,17.5V7.5C3,5.015,7.029,3,12,3s9,2.015,9,4.5v10c0,2.485-4.029,4.5-9,4.5S3,19.985,3,17.5ZM12,10a12.664,12.664,0,0,0,5.469-1.107C18.539,8.358,19,7.813,19,7.5s-.461-.858-1.531-1.393A12.664,12.664,0,0,0,12,5,12.664,12.664,0,0,0,6.53,6.107C5.461,6.642,5,7.187,5,7.5s.461.858,1.53,1.393A12.664,12.664,0,0,0,12,10Z" transform="translate(-3 -3)" fill="#f4c04f"/>
</svg>
