<svg xmlns="http://www.w3.org/2000/svg" width="25" height="25" viewBox="0 0 25 25">
  <g id="Group_14" data-name="Group 14" transform="translate(-1.127)">
    <path id="Path_29" data-name="Path 29" d="M128.573,101.866h-6.705a.735.735,0,1,0,0,1.47h6.705a.735.735,0,1,0,0-1.47Zm-6.705-1.47h5.862a.735.735,0,1,0,0-1.47h-5.862a.735.735,0,0,0,0,1.47Zm0-2.94h6.406a.735.735,0,1,0,0-1.47h-6.406a.735.735,0,1,0,0,1.47Zm0-2.94h4.048a.735.735,0,0,0,.735-.735V90.737a.735.735,0,0,0-.735-.735h-4.048a.735.735,0,0,0-.735.735v3.044A.735.735,0,0,0,121.868,94.516Zm.735-3.044h2.578v1.574H122.6Z" transform="translate(-114.156 -85.666)" fill="#1976d2"/>
    <path id="Path_30" data-name="Path 30" d="M25.912,18.371l-2.186-2.176a4.338,4.338,0,0,0,.814-2.534,4.388,4.388,0,0,0-3.662-4.314V5.1h0a.727.727,0,0,0-.214-.515L16.27.214A.734.734,0,0,0,15.752,0H4.789a.731.731,0,0,0-.732.729V2.917h-2.2a.731.731,0,0,0-.732.729V24.271A.731.731,0,0,0,1.859,25H17.216a.731.731,0,0,0,.732-.729V22.083h2.2a.731.731,0,0,0,.732-.729V17.975a4.383,4.383,0,0,0,1.813-.749L24.877,19.4a.731.731,0,0,0,1.036-1.031Zm-2.837-4.71a2.9,2.9,0,0,1-.856,2.058l0,0,0,0a2.927,2.927,0,0,1-2.063.852h-.008a2.917,2.917,0,1,1,2.933-2.917ZM16.484,2.49l1.894,1.885H16.484Zm0,21.052H2.592V4.376H4.057V21.354a.731.731,0,0,0,.732.729H16.484ZM5.522,20.624V1.458h9.5V5.1a.731.731,0,0,0,.732.729h3.662V9.346a4.372,4.372,0,0,0,0,8.628v2.65Z" fill="#1976d2"/>
  </g>
</svg>
