<svg xmlns="http://www.w3.org/2000/svg" width="20" height="28" viewBox="0 0 20 28">
  <g id="Group_1" data-name="Group 1" transform="translate(-6.697 -2.269)">
    <g id="Layer_2" data-name="Layer 2" transform="translate(6.697 2.269)">
      <path id="Path_1" data-name="Path 1" d="M16.7,30.264A10.221,10.221,0,0,1,9.133,27.29a9.507,9.507,0,0,1-2.321-7.806C7.468,13.9,15.693,3.027,16.044,2.567a.864.864,0,0,1,1.307,0c.35.459,8.576,11.328,9.231,16.916a9.508,9.508,0,0,1-2.321,7.807A10.222,10.222,0,0,1,16.7,30.264Zm0-25.919C14.721,7.057,8.922,15.33,8.415,19.652a7.953,7.953,0,0,0,1.92,6.62A8.6,8.6,0,0,0,16.7,28.736a8.594,8.594,0,0,0,6.362-2.465,7.953,7.953,0,0,0,1.921-6.619c-.507-4.322-6.307-12.6-8.282-15.307Z" transform="translate(-6.697 -2.269)" fill="#1976d2"/>
      <path id="Path_2" data-name="Path 2" d="M16.07,19.26a.82.82,0,0,1-.82-.82V14.07a.82.82,0,0,1,1.639,0v4.371A.82.82,0,0,1,16.07,19.26Z" transform="translate(-6.069 -2.267)" fill="#1976d2"/>
      <path id="Path_3" data-name="Path 3" d="M18.441,16.889H14.07a.82.82,0,0,1,0-1.639h4.371a.82.82,0,0,1,0,1.639Zm0,7.1H14.07a.82.82,0,1,1,0-1.639h4.371a.82.82,0,0,1,0,1.639Z" transform="translate(-6.255 -2.421)" fill="#1976d2"/>
    </g>
  </g>
</svg>
