<svg xmlns="http://www.w3.org/2000/svg" width="18" height="17.998" viewBox="0 0 18 17.998">
  <g id="Group_16926" data-name="Group 16926" transform="translate(-2 -2.128)">
    <g id="Group_16925" data-name="Group 16925" transform="translate(2 2.128)">
      <path id="Path_88300" data-name="Path 88300" d="M15.472,3.035a.909.909,0,0,0-.339-.709.892.892,0,0,0-.761-.174L3.594,4.66a.9.9,0,0,0-.7.881V19.22H2.449a.453.453,0,0,0,0,.906h4.94V17.409a.9.9,0,0,1,.9-.906h1.8a.9.9,0,0,1,.9.906v2.717h4.491ZM6.041,7.446a.451.451,0,0,0-.449.453V8.8a.451.451,0,0,0,.449.453h.9A.451.451,0,0,0,7.389,8.8V7.9a.451.451,0,0,0-.449-.453Zm-.449,3.17a.451.451,0,0,1,.449-.453h.9a.451.451,0,0,1,.449.453v.906a.451.451,0,0,1-.449.453h-.9a.451.451,0,0,1-.449-.453Zm.449,2.264a.451.451,0,0,0-.449.453v.906a.451.451,0,0,0,.449.453h.9a.451.451,0,0,0,.449-.453v-.906a.451.451,0,0,0-.449-.453ZM8.287,7.9a.451.451,0,0,1,.449-.453h.9a.451.451,0,0,1,.449.453V8.8a.451.451,0,0,1-.449.453h-.9A.451.451,0,0,1,8.287,8.8Zm.449,2.264a.451.451,0,0,0-.449.453v.906a.451.451,0,0,0,.449.453h.9a.451.451,0,0,0,.449-.453v-.906a.451.451,0,0,0-.449-.453Zm-.449,3.17a.451.451,0,0,1,.449-.453h.9a.451.451,0,0,1,.449.453v.906a.451.451,0,0,1-.449.453h-.9a.451.451,0,0,1-.449-.453ZM11.43,7.446a.451.451,0,0,0-.449.453V8.8a.451.451,0,0,0,.449.453h.9a.451.451,0,0,0,.449-.453V7.9a.451.451,0,0,0-.449-.453Zm-.449,3.17a.451.451,0,0,1,.449-.453h.9a.451.451,0,0,1,.449.453v.906a.451.451,0,0,1-.449.453h-.9a.451.451,0,0,1-.449-.453Zm.449,2.264a.451.451,0,0,0-.449.453v.906a.451.451,0,0,0,.449.453h.9a.451.451,0,0,0,.449-.453v-.906a.451.451,0,0,0-.449-.453Z" transform="translate(-2 -2.128)" fill="#90a4ae" fill-rule="evenodd"/>
      <path id="Path_88301" data-name="Path 88301" d="M17.151,5.691V20.462h3.17a.453.453,0,0,0,0-.906h-.453V7.609a.906.906,0,0,0-.5-.81Zm-6.34,14.771H9V17.745h1.811Z" transform="translate(-2.774 -2.464)" fill="#17ace8"/>
    </g>
  </g>
</svg>
