<svg xmlns="http://www.w3.org/2000/svg" xmlns:xlink="http://www.w3.org/1999/xlink" width="24" height="24" viewBox="0 0 24 24">
  <defs>
    <clipPath id="clip-path">
      <path id="Path_43" data-name="Path 43" d="M0-682.665H24v24H0Z" transform="translate(0 682.665)" fill="#1976d2"/>
    </clipPath>
  </defs>
  <g id="Group_18" data-name="Group 18" transform="translate(0 -0.002)">
    <g id="Group_17" data-name="Group 17" transform="translate(0 0.002)">
      <g id="Group_16" data-name="Group 16" transform="translate(0 0)" clip-path="url(#clip-path)">
        <path id="Path_33" data-name="Path 33" d="M-86.353-20a3.15,3.15,0,0,1,3.146,3.146v.65a.7.7,0,0,1-.7.7H-88.8a.7.7,0,0,1-.7-.7v-.65A3.15,3.15,0,0,1-86.353-20Zm1.739,3.094a1.742,1.742,0,0,0-1.739-1.688,1.742,1.742,0,0,0-1.739,1.688Z" transform="translate(95.494 28.437)" fill="#1976d2"/>
        <path id="Path_34" data-name="Path 34" d="M-97.89-60a2.112,2.112,0,0,1,2.109,2.109,2.112,2.112,0,0,1-2.109,2.109A2.112,2.112,0,0,1-100-57.89,2.112,2.112,0,0,1-97.89-60Zm0,2.813a.7.7,0,0,0,.7-.7.7.7,0,0,0-.7-.7.7.7,0,0,0-.7.7A.7.7,0,0,0-97.89-57.187Z" transform="translate(107.031 65.625)" fill="#1976d2"/>
        <path id="Path_35" data-name="Path 35" d="M-176.244-95.781h-5.719a.7.7,0,0,1-.7-.7v-1.44A2.078,2.078,0,0,1-180.591-100h2.974a2.078,2.078,0,0,1,2.075,2.075v1.44A.7.7,0,0,1-176.244-95.781Zm-5.016-1.406h4.313v-.737a.67.67,0,0,0-.669-.669h-2.974a.67.67,0,0,0-.669.669Z" transform="translate(188.244 100)" fill="#1976d2"/>
        <path id="Path_36" data-name="Path 36" d="M-323.754,2.3h-16.875a.7.7,0,0,1-.7-.7V-19.3a.7.7,0,0,1,.7-.7h5.578a.7.7,0,0,1,.7.7.7.7,0,0,1-.7.7h-4.875V.9h15.469v-19.49h-4.875a.7.7,0,0,1-.7-.7.7.7,0,0,1,.7-.7h5.578a.7.7,0,0,1,.7.7V1.6A.7.7,0,0,1-323.754,2.3Z" transform="translate(341.332 21.697)" fill="#1976d2"/>
        <path id="Path_37" data-name="Path 37" d="M-97.89-454.462a.7.7,0,0,1-.629-.389l-1.406-2.812a.7.7,0,0,1-.074-.314v-15.984a.7.7,0,0,1,.7-.7h2.813a.7.7,0,0,1,.7.7v15.984a.7.7,0,0,1-.074.314l-1.406,2.813A.7.7,0,0,1-97.89-454.462Zm-.7-3.682.7,1.406.7-1.406v-15.115h-1.406Z" transform="translate(119.781 478.462)" fill="#1976d2"/>
        <path id="Path_38" data-name="Path 38" d="M-16.484-18.594H-19.3a.7.7,0,0,1-.7-.7.7.7,0,0,1,.7-.7h2.812a.7.7,0,0,1,.7.7A.7.7,0,0,1-16.484-18.594Z" transform="translate(39.781 26.609)" fill="#1976d2"/>
        <path id="Path_39" data-name="Path 39" d="M-18.312-33.69a.7.7,0,0,1-.5-.206l-.984-.984a.7.7,0,0,1,0-.994.7.7,0,0,1,.994,0l.487.487,1.073-1.073a.7.7,0,0,1,.994,0,.7.7,0,0,1,0,.994l-1.57,1.57A.7.7,0,0,1-18.312-33.69Z" transform="translate(22.812 54.877)" fill="#1976d2"/>
        <path id="Path_40" data-name="Path 40" d="M-18.312-33.69a.7.7,0,0,1-.5-.206l-.984-.984a.7.7,0,0,1,0-.994.7.7,0,0,1,.994,0l.487.487,1.073-1.073a.7.7,0,0,1,.994,0,.7.7,0,0,1,0,.994l-1.57,1.57A.7.7,0,0,1-18.312-33.69Z" transform="translate(22.812 50.94)" fill="#1976d2"/>
        <path id="Path_41" data-name="Path 41" d="M-190.4-18.594h-6.234a.7.7,0,0,1-.7-.7.7.7,0,0,1,.7-.7h6.234a.7.7,0,0,1,.7.7A.7.7,0,0,1-190.4-18.594Z" transform="translate(205.161 39.465)" fill="#1976d2"/>
        <path id="Path_42" data-name="Path 42" d="M-190.4-18.594h-6.234a.7.7,0,0,1-.7-.7.7.7,0,0,1,.7-.7h6.234a.7.7,0,0,1,.7.7A.7.7,0,0,1-190.4-18.594Z" transform="translate(205.161 35.527)" fill="#1976d2"/>
      </g>
    </g>
  </g>
</svg>
