<svg xmlns="http://www.w3.org/2000/svg" width="15" height="21" viewBox="0 0 15 21">
  <g id="Group_4" data-name="Group 4" transform="translate(-4.25 -1.25)">
    <g id="Layer_2" data-name="Layer 2" transform="translate(4.25 1.25)">
      <path id="Path_8" data-name="Path 8" d="M18.04,15.4H13.753a2.665,2.665,0,0,1-2.216-1.191l-.755-1.191a1.2,1.2,0,0,0-.968-.547H4.976a.739.739,0,0,1-.726-.732V1.982a.739.739,0,0,1,.726-.732h5.739A2.665,2.665,0,0,1,12.93,2.441l.755,1.191a1.2,1.2,0,0,0,.968.547H18.04A1.215,1.215,0,0,1,19.25,5.4v8.786A1.215,1.215,0,0,1,18.04,15.4ZM5.7,11.012H9.747A2.665,2.665,0,0,1,11.963,12.2l.755,1.191a1.2,1.2,0,0,0,.968.547h4.045v-8.3h-3.01a2.665,2.665,0,0,1-2.216-1.191L11.75,3.261a1.2,1.2,0,0,0-.968-.547H5.7Z" transform="translate(-4.25 -1.25)" fill="#1976d2"/>
      <path id="Path_9" data-name="Path 9" d="M4.983,22.25a.743.743,0,0,1-.733-.733V1.983a.733.733,0,0,1,1.467,0V21.517a.743.743,0,0,1-.733.733Z" transform="translate(-4.25 -1.25)" fill="#1976d2"/>
    </g>
  </g>
</svg>
