<svg xmlns="http://www.w3.org/2000/svg" width="70" height="70.25" viewBox="0 0 70 70.25">
  <g id="Group_17090" data-name="Group 17090" transform="translate(-571 -1025)">
    <rect id="Rectangle_15596" data-name="Rectangle 15596" width="70" height="70" rx="6" transform="translate(571 1025)" fill="#11bc94"/>
    <path id="Path_59265" data-name="Path 59265" d="M1846.52,203.02l4.923-2.359,6.362-4.8,10.2,12.408V219.58s-.4,5.529-5.374,5.529H1830.1l-23.178-18.859,25.753-4.973Z" transform="translate(-1227 870.141)" fill="rgba(0,0,0,0.16)"/>
    <g id="Teams_-_Free_people_icons-2" data-name="Teams - Free people icons-2" transform="translate(555.408 997.552)">
      <g id="_FLAT" data-name="/ FLAT" transform="translate(24 45.622)">
        <path id="Path_88523" data-name="Path 88523" d="M77.473,224H75.649A3.649,3.649,0,0,0,72,227.649v1.824h9.121v-1.824A3.649,3.649,0,0,0,77.473,224Z" transform="translate(-66.527 -220.351)" fill="#d178a1"/>
        <path id="Path_88524" data-name="Path 88524" d="M40.516,369.4,36.77,368H31.3l-3.746,1.4A5.473,5.473,0,0,0,24,374.529v5.329a1.824,1.824,0,0,0,1.824,1.824H42.243a1.824,1.824,0,0,0,1.824-1.824v-5.329a5.473,5.473,0,0,0-3.551-5.124Z" transform="translate(-24 -347.933)" fill="#338dbf"/>
        <path id="Path_88525" data-name="Path 88525" d="M56,440h1.824v5.473H56Z" transform="translate(-52.351 -411.724)" fill="#0071af"/>
        <path id="Path_88526" data-name="Path 88526" d="M66.327,369.4,62.581,368H57.108l-3.746,1.4c-.078.029-.154.06-.23.093l3.063,3.063,3.649-3.649,3.649,3.649,3.063-3.063Q66.443,369.448,66.327,369.4Z" transform="translate(-49.811 -347.933)" fill="#00659d"/>
        <path id="Path_88527" data-name="Path 88527" d="M88,336v3.648l2.736,1.218,2.736-1.218V336Z" transform="translate(-80.703 -319.582)" fill="#edabcf"/>
        <path id="Path_88528" data-name="Path 88528" d="M104,400h1.824v7.3H104Z" transform="translate(-94.879 -376.285)" fill="#00b378"/>
        <path id="Path_88529" data-name="Path 88529" d="M152,440h1.824v5.473H152Z" transform="translate(-137.406 -411.724)" fill="#0071af"/>
        <circle id="Ellipse_264" data-name="Ellipse 264" cx="1.772" cy="1.772" r="1.772" transform="translate(7.973 20.71)" fill="#00a16c"/>
        <path id="Path_88530" data-name="Path 88530" d="M328.516,369.4,324.77,368H319.3l-3.746,1.4A5.473,5.473,0,0,0,312,374.529v5.329a1.824,1.824,0,0,0,1.824,1.824h16.418a1.824,1.824,0,0,0,1.824-1.824v-5.329A5.473,5.473,0,0,0,328.516,369.4Z" transform="translate(-279.163 -347.933)" fill="#338dbf"/>
        <path id="Path_88531" data-name="Path 88531" d="M344,440h1.824v5.473H344Z" transform="translate(-307.515 -411.724)" fill="#0071af"/>
        <path id="Path_88532" data-name="Path 88532" d="M354.327,369.4l-3.746-1.4h-5.473l-3.746,1.4c-.078.029-.154.06-.23.093l3.063,3.063,3.649-3.649,3.649,3.649,3.063-3.063Q354.443,369.448,354.327,369.4Z" transform="translate(-304.975 -347.933)" fill="#00659d"/>
        <path id="Path_88533" data-name="Path 88533" d="M376,336v3.648l2.736,1.218,2.736-1.218V336Z" transform="translate(-335.866 -319.582)" fill="#edabcf"/>
        <path id="Path_88534" data-name="Path 88534" d="M363.648,229.318A3.649,3.649,0,0,0,360,232.967v1.824h9.121v-5.473Z" transform="translate(-321.691 -225.063)" fill="#d178a1"/>
        <path id="Path_88535" data-name="Path 88535" d="M172.275,354.272,166.594,352h-5.473l-5.681,2.272a5.473,5.473,0,0,0-3.44,5.082v6.328a1.824,1.824,0,0,0,1.824,1.824h20.067a1.824,1.824,0,0,0,1.824-1.824v-6.328a5.473,5.473,0,0,0-3.44-5.081Z" transform="translate(-137.406 -333.757)" fill="#0071af"/>
        <path id="Path_88536" data-name="Path 88536" d="M232,320v3.648a9.343,9.343,0,0,1,2.736,6.606,9.342,9.342,0,0,1,2.736-6.606V320Z" transform="translate(-208.285 -305.406)" fill="#edabcf"/>
        <path id="Path_88537" data-name="Path 88537" d="M193.026,192h-1.633a7.393,7.393,0,0,0-4.618,13.165l2.128,1.7h6.619l2.123-1.7A7.392,7.392,0,0,0,193.026,192Z" transform="translate(-165.757 -192)" fill="#d178a1"/>
        <path id="Path_88538" data-name="Path 88538" d="M216,242.581v3a5.473,5.473,0,0,0,2.657,4.693l.026.016a3.648,3.648,0,0,0,3.754,0l.026-.016a5.473,5.473,0,0,0,2.657-4.693v-3.443a1.824,1.824,0,0,0-.534-1.29,4.6,4.6,0,0,0-5.065-.975l-2.417,1.036A1.824,1.824,0,0,0,216,242.581Z" transform="translate(-194.109 -234.081)" fill="#fcc8e7"/>
        <path id="Path_88539" data-name="Path 88539" d="M186.686,410.033h-1.824v-2.46l-.24-.36a4.072,4.072,0,0,1,.24-4.827V400h1.824v3.114l-.267.267a2.241,2.241,0,0,0-.279,2.82l.546.82Zm12.77,0h-1.824v-3.013l.546-.82a2.241,2.241,0,0,0-.279-2.82l-.267-.267V400h1.824v2.386a4.072,4.072,0,0,1,.24,4.827l-.24.36Z" transform="translate(-165.707 -376.285)" fill="#00659d"/>
        <path id="Path_88540" data-name="Path 88540" d="M360,266.321v3.286a5.473,5.473,0,0,0,2.657,4.693l.026.016a3.649,3.649,0,0,0,3.754,0l.026-.016a5.473,5.473,0,0,0,2.657-4.693v-4.2l-.814-.2a10.033,10.033,0,0,0-5.606.215Z" transform="translate(-321.691 -256.593)" fill="#fcc8e7"/>
        <path id="Path_88541" data-name="Path 88541" d="M392,400h1.824v7.3H392Z" transform="translate(-350.042 -376.285)" fill="#00b378"/>
        <path id="Path_88542" data-name="Path 88542" d="M72,265.787v3.286a5.473,5.473,0,0,0,2.657,4.693l.026.016a3.648,3.648,0,0,0,3.754,0l.026-.016a5.473,5.473,0,0,0,2.657-4.693v-3.286l-2.544-.636a5.473,5.473,0,0,0-2.227-.089Z" transform="translate(-66.527 -256.666)" fill="#fcc8e7"/>
        <circle id="Ellipse_265" data-name="Ellipse 265" cx="1.772" cy="1.772" r="1.772" transform="translate(40.75 20.71)" fill="#00a16c"/>
      </g>
    </g>
  </g>
</svg>
