<svg xmlns="http://www.w3.org/2000/svg" width="16.974" height="18.003" viewBox="0 0 16.974 18.003">
  <g id="Group_16999" data-name="Group 16999" transform="translate(-79 -1067.25)">
    <g id="svgexport-18" transform="translate(56.5 1067.251)">
      <path id="Path_88380" data-name="Path 88380" d="M309.559,4.421h.018a1.961,1.961,0,0,0,0-3.922h-.018a1.961,1.961,0,0,0,0,3.922Z" transform="translate(-278.58 -0.489)" fill="#17ace8"/>
      <path id="Path_88382" data-name="Path 88382" d="M99.686,4.753H99.2L98.708,7.2h-.579l-.151-1.64a3.045,3.045,0,0,1,.268-.727l.032-.066h-.007s0-.007,0-.009h-1.3s0,0,0,.009h0l.032.066a3.37,3.37,0,0,1,.247.631c.007.03.014.059.018.089L97.121,7.2h-.526v2.819a1.979,1.979,0,0,1-.86,1.633v5.4a.948.948,0,0,0,1.891.105.948.948,0,0,0,1.891-.105v-5.7h.171a1.344,1.344,0,0,0,1.345-1.345V6.1a1.35,1.35,0,0,0-1.347-1.342ZM87.46,3.932h.018a1.961,1.961,0,0,0,0-3.922h-.018a1.961,1.961,0,0,0,0,3.922Z" transform="translate(-61.559 0)" fill="#90a4ae"/>
      <path id="Path_88383" data-name="Path 88383" d="M25.919,3.944H25.9A1.972,1.972,0,0,1,25.9,0h.018a1.972,1.972,0,0,1,0,3.944ZM25.9.023a1.949,1.949,0,0,0,0,3.9h.018a1.949,1.949,0,0,0,0-3.9Zm1.04,9.993V7.2h-.526l-.151-1.64a3.045,3.045,0,0,1,.268-.727l.032-.066h-.007s0-.007,0-.009h-1.3s0,0,0,.009h0l.032.066a3.369,3.369,0,0,1,.247.631c.007.03.014.059.018.089L25.4,7.2h-.579l-.489-2.442h-.492A1.344,1.344,0,0,0,22.5,6.1v3.917a1.344,1.344,0,0,0,1.345,1.345h.171v5.691a.948.948,0,0,0,1.891.105.948.948,0,0,0,1.891-.105V11.648A1.982,1.982,0,0,1,26.938,10.016Z" transform="translate(0 -0.001)" fill="#90a4ae"/>
    </g>
    <path id="Path_88384" data-name="Path 88384" d="M250.167,4.754h-.489L249.189,7.2h-.579l-.151-1.64a3.045,3.045,0,0,1,.268-.727l.032-.066h-.007s0-.007,0-.009h-1.3s0,0,0,.009h0l.032.066a3.367,3.367,0,0,1,.247.631c.007.03.014.059.018.089L247.6,7.2h-.579l-.489-2.442h-.489A1.344,1.344,0,0,0,244.7,6.1v3.917a1.344,1.344,0,0,0,1.345,1.345h.172v5.691a2.391,2.391,0,0,1,2.833.949.95.95,0,0,0,.949-.949v-5.7h.172a1.344,1.344,0,0,0,1.345-1.345V6.1A1.35,1.35,0,0,0,250.167,4.754Z" transform="translate(-160.619 1067.25)" fill="#17ace8"/>
    <path id="Path_88385" data-name="Path 88385" d="M253.177,3.933h.018a1.961,1.961,0,0,0,0-3.922h-.018a1.961,1.961,0,0,0,0,3.922Z" transform="translate(-160.619 1067.25)" fill="#90a4ae"/>
  </g>
</svg>
