<svg width="40" height="40" viewBox="0 0 40 40" fill="none" xmlns="http://www.w3.org/2000/svg">
<path fill-rule="evenodd" clip-rule="evenodd" d="M19.9994 4C20.2351 4 20.4612 4.09365 20.6279 4.26035C20.7946 4.42705 20.8883 4.65314 20.8883 4.88889V4.94934C23.3754 5.2089 25.2732 6.27823 26.5088 7.63913C27.3585 8.57514 27.9212 9.6907 28.0981 10.7787L28.1941 10.8525C29.1932 11.6267 29.9265 12.5654 29.7523 13.6418C29.5843 14.6818 28.6448 15.3147 27.7701 15.7014C27.549 15.7993 27.3236 15.8871 27.0945 15.9645C27.1052 16.1227 27.1105 16.2827 27.1105 16.4445C27.1101 17.3983 26.9178 18.3423 26.5451 19.2202C26.1723 20.0981 25.6268 20.8921 24.9409 21.5549C24.2551 22.2177 23.4429 22.7358 22.5527 23.0782C21.6625 23.4207 20.7125 23.5806 19.7593 23.5484C18.806 23.5161 17.869 23.2925 17.0039 22.8907C16.1389 22.489 15.3635 21.9173 14.7239 21.2097C14.0844 20.5021 13.5937 19.6731 13.2811 18.772C12.9684 17.8709 12.8403 16.9162 12.9042 15.9645C12.6752 15.8871 12.4498 15.7993 12.2287 15.7014C11.354 15.3147 10.4144 14.6818 10.2464 13.6418C10.0722 12.5654 10.8056 11.6267 11.8047 10.8525L11.9176 10.7654C11.9403 10.6238 11.9688 10.4833 12.0029 10.344C12.2373 9.41965 12.6647 8.55536 13.2571 7.80802C14.4482 6.28979 16.3976 5.06312 19.1105 4.90667V4.88889C19.1105 4.65314 19.2041 4.42705 19.3708 4.26035C19.5375 4.09365 19.7636 4 19.9994 4ZM26.8083 13.2801C26.9902 13.3459 27.1886 13.3506 27.3734 13.2935C27.5582 13.2364 27.7193 13.1206 27.8323 12.9636C28.0074 13.208 28.0012 13.3378 27.9977 13.3583C27.9861 13.4294 27.8501 13.7227 27.051 14.0765C26.1185 14.4889 24.7159 14.7876 23.107 14.9565C23.0688 14.158 22.7247 13.4049 22.1461 12.8533C21.5675 12.3018 20.7988 11.9941 19.9994 11.9941C19.2 11.9941 18.4313 12.3018 17.8527 12.8533C17.2741 13.4049 16.93 14.158 16.8918 14.9565C15.2829 14.7876 13.8802 14.4889 12.9478 14.0765C12.1487 13.7227 12.0127 13.4294 12.0011 13.3583C11.9976 13.3378 11.9913 13.2089 12.1665 12.9636C12.2919 13.1385 12.4766 13.262 12.6863 13.311C12.8959 13.36 13.1162 13.3313 13.3062 13.2302C13.4963 13.1291 13.6432 12.9625 13.7196 12.7612C13.7961 12.56 13.797 12.3379 13.722 12.136C13.6154 11.848 13.5825 11.3707 13.73 10.7645C13.9047 10.0867 14.2203 9.45335 14.6562 8.9058L14.666 8.89336V10.6667C14.666 10.9025 14.7597 11.1285 14.9264 11.2952C15.0931 11.4619 15.3192 11.5556 15.5549 11.5556C15.7907 11.5556 16.0168 11.4619 16.1835 11.2952C16.3502 11.1285 16.4438 10.9025 16.4438 10.6667V7.41868C17.1745 7.03202 18.0589 6.76179 19.1105 6.68713V8.88892C19.1105 9.12466 19.2041 9.35076 19.3708 9.51746C19.5375 9.68416 19.7636 9.77781 19.9994 9.77781C20.2351 9.77781 20.4612 9.68416 20.6279 9.51746C20.7946 9.35076 20.8883 9.12466 20.8883 8.88892V6.73868C21.9283 6.86935 22.8154 7.16713 23.555 7.56535V10.6667C23.555 10.9025 23.6486 11.1285 23.8153 11.2952C23.982 11.4619 24.2081 11.5556 24.4439 11.5556C24.6796 11.5556 24.9057 11.4619 25.0724 11.2952C25.2391 11.1285 25.3327 10.9025 25.3327 10.6667V8.99469C26.3248 10.1743 26.5345 11.4223 26.275 12.1423C26.1949 12.3639 26.2061 12.6082 26.3061 12.8216C26.4061 13.0349 26.5868 13.1998 26.8083 13.2801ZM17.7478 17.2578C16.7192 17.1925 15.6956 17.0634 14.6829 16.8712C14.7896 18.208 15.3959 19.4556 16.3812 20.3654C17.3664 21.2752 18.6583 21.7804 19.9994 21.7804C21.3405 21.7804 22.6323 21.2752 23.6176 20.3654C24.6029 19.4556 25.2092 18.208 25.3159 16.8712C24.3736 17.0561 23.3301 17.1841 22.251 17.2578C21.9604 17.5626 21.6111 17.8052 21.2241 17.971C20.8371 18.1368 20.4204 18.2223 19.9994 18.2223C19.5784 18.2223 19.1617 18.1368 18.7747 17.971C18.3877 17.8052 18.0383 17.5626 17.7478 17.2578ZM21.3327 15.1112C21.3327 15.4648 21.1922 15.8039 20.9422 16.054C20.6922 16.304 20.353 16.4445 19.9994 16.4445C19.6458 16.4445 19.3066 16.304 19.0566 16.054C18.8065 15.8039 18.666 15.4648 18.666 15.1112C18.666 14.7575 18.8065 14.4184 19.0566 14.1684C19.3066 13.9183 19.6458 13.7778 19.9994 13.7778C20.353 13.7778 20.6922 13.9183 20.9422 14.1684C21.1922 14.4184 21.3327 14.7575 21.3327 15.1112Z" fill="white"/>
<path d="M20.0002 33.3333C20.4717 33.3333 20.9239 33.146 21.2573 32.8126C21.5907 32.4792 21.778 32.027 21.778 31.5555C21.778 31.084 21.5907 30.6318 21.2573 30.2984C20.9239 29.965 20.4717 29.7777 20.0002 29.7777C19.5287 29.7777 19.0765 29.965 18.7431 30.2984C18.4097 30.6318 18.2224 31.084 18.2224 31.5555C18.2224 32.027 18.4097 32.4792 18.7431 32.8126C19.0765 33.146 19.5287 33.3333 20.0002 33.3333Z" fill="white"/>
<path fill-rule="evenodd" clip-rule="evenodd" d="M16.0302 23.911L19.1111 26.2222H20.8889L23.9698 23.911C29.3876 24.7786 36.0001 27.1911 36.0001 30.6666V36H3.99991V30.6666C3.99991 27.1911 10.6124 24.7786 16.0302 23.911ZM21.4818 28L24.424 25.7928C25.3156 25.9564 26.2231 26.1617 27.1111 26.4026V34.2222H28.8889V26.9466C29.5112 27.1599 30.1076 27.3919 30.6667 27.6417V34.2222H9.33327V27.6417C9.89238 27.3928 10.4888 27.1599 11.1111 26.9466V34.2222H12.8888V26.4026C13.7768 26.1617 14.6844 25.9564 15.576 25.7928L18.5182 28H21.4818ZM33.6045 29.5022C34.1058 30.0213 34.2223 30.4044 34.2223 30.6666V34.2222H32.4445V28.5831C32.9245 28.8906 33.3121 29.2 33.6045 29.5031M6.39548 29.5031C6.68881 29.2009 7.07637 28.8915 7.55548 28.584V34.2222H5.7777V30.6666C5.7777 30.4044 5.89325 30.0213 6.39548 29.5022" fill="white"/>
</svg>
