<svg xmlns="http://www.w3.org/2000/svg" width="31" height="24" viewBox="0 0 31 24">
  <g id="Group_19" data-name="Group 19" transform="translate(0 -61)">
    <path id="Path_44" data-name="Path 44" d="M66.529,183.754s0,0,0-.006a2.765,2.765,0,1,0-1.829,2.617,8.747,8.747,0,0,1-.093,1.461.922.922,0,0,1-1.691-.018.922.922,0,1,0-1.7.718,2.766,2.766,0,0,0,5.094,0C66.617,187.8,66.55,185.576,66.529,183.754Zm-2.765.932a.922.922,0,1,1,.922-.922A.923.923,0,0,1,63.765,184.686Zm10.137-.932v-.006a2.765,2.765,0,1,0-1.829,2.617,8.746,8.746,0,0,1-.093,1.461.922.922,0,0,1-1.691-.018.922.922,0,1,0-1.7.718,2.766,2.766,0,0,0,5.094,0,9.6,9.6,0,0,0,.217-2.735C73.9,185.12,73.909,184.411,73.9,183.754Zm-2.764.932a.922.922,0,1,1,.922-.922A.923.923,0,0,1,71.137,184.686Z" transform="translate(-57.252 -112.608)" fill="#1976d2"/>
    <path id="Path_45" data-name="Path 45" d="M28.275,64.692H25.49V62.846h.883a.931.931,0,0,0,.933-.878A.917.917,0,0,0,26.4,61H22.791a.931.931,0,0,0-.933.878.917.917,0,0,0,.907.968h.908v1.846H2.725A2.747,2.747,0,0,0,0,67.462V78.538a2.747,2.747,0,0,0,2.725,2.769H23.674v1.846h-.883a.931.931,0,0,0-.933.878.917.917,0,0,0,.907.968h3.607a.931.931,0,0,0,.933-.878.917.917,0,0,0-.907-.968H25.49V81.308h2.785A2.747,2.747,0,0,0,31,78.538V67.462A2.747,2.747,0,0,0,28.275,64.692ZM1.816,78.538V67.462a.916.916,0,0,1,.908-.923H23.674V79.462H2.725A.916.916,0,0,1,1.816,78.538Zm27.367,0a.917.917,0,0,1-.908.923H25.49V66.538h2.785a.917.917,0,0,1,.908.923Z" transform="translate(0 0)" fill="#1976d2"/>
  </g>
</svg>
