<svg xmlns="http://www.w3.org/2000/svg" xmlns:xlink="http://www.w3.org/1999/xlink" width="18" height="18" viewBox="0 0 18 18">
  <defs>
    <clipPath id="clip-path">
      <rect id="Rectangle_16104" data-name="Rectangle 16104" width="18" height="18" transform="translate(951 1016)" fill="#90a4ae" stroke="#707070" stroke-width="1"/>
    </clipPath>
  </defs>
  <g id="Mask_Group_61" data-name="Mask Group 61" transform="translate(-951 -1016)" clip-path="url(#clip-path)">
    <path id="newspaper" d="M15.75,0H6A2.253,2.253,0,0,0,3.75,2.25V4.5H0V15.375A2.628,2.628,0,0,0,2.625,18h12.75A2.628,2.628,0,0,0,18,15.375V2.25A2.253,2.253,0,0,0,15.75,0Zm-12,15.375a1.125,1.125,0,0,1-2.25,0V6H3.75Zm12.75,0A1.126,1.126,0,0,1,15.375,16.5H5a2.615,2.615,0,0,0,.253-1.125V2.25A.751.751,0,0,1,6,1.5h9.75a.751.751,0,0,1,.75.75ZM11.25,4.5H15V6H11.25Zm-4.5,3H15V9H6.75Zm0,3H15V12H6.75Zm0,3H15V15H6.75Zm3-7.5h-3V3h3Z" transform="translate(951 1016)" fill="#90a4ae"/>
  </g>
</svg>
