<svg xmlns="http://www.w3.org/2000/svg" width="22" height="20" viewBox="0 0 22 20">
  <g id="Group_3" data-name="Group 3" transform="translate(-1.25 -2.25)">
    <g id="Layer_2" data-name="Layer 2" transform="translate(1.25 2.25)">
      <path id="Path_5" data-name="Path 5" d="M21.459,16.07H15.32a.773.773,0,0,1,0-1.546h6.14a.257.257,0,0,0,.256-.258V7.053a.257.257,0,0,0-.256-.258H3.041a.257.257,0,0,0-.256.258v7.213a.257.257,0,0,0,.256.258H9.18a.773.773,0,0,1,0,1.546H3.041a1.807,1.807,0,0,1-1.791-1.8V7.053a1.807,1.807,0,0,1,1.791-1.8H21.459a1.807,1.807,0,0,1,1.791,1.8v7.213A1.807,1.807,0,0,1,21.459,16.07Z" transform="translate(-1.25 -2.19)" fill="#1976d2"/>
      <path id="Path_6" data-name="Path 6" d="M17.332,6.865H7.107A.778.778,0,0,1,6.34,6.1V4.045A1.8,1.8,0,0,1,8.129,2.25h8.18A1.8,1.8,0,0,1,18.1,4.045V6.1a.778.778,0,0,1-.767.769ZM7.874,5.327h8.691V4.045a.256.256,0,0,0-.256-.256H8.129a.256.256,0,0,0-.256.256ZM20.4,22.25H4.039A1.8,1.8,0,0,1,2.25,20.455V15.327a.778.778,0,0,1,.767-.769H9.152a.769.769,0,0,1,0,1.538H3.784v4.359a.256.256,0,0,0,.256.256H20.4a.256.256,0,0,0,.256-.256V16.1H15.287a.769.769,0,0,1,0-1.538h6.135a.778.778,0,0,1,.767.769v5.128A1.8,1.8,0,0,1,20.4,22.25Z" transform="translate(-1.22 -2.25)" fill="#1976d2"/>
      <path id="Path_7" data-name="Path 7" d="M14.69,17.387H9.538A1.288,1.288,0,0,1,8.25,16.1V14.038A1.288,1.288,0,0,1,9.538,12.75H14.69a1.288,1.288,0,0,1,1.288,1.288V16.1A1.288,1.288,0,0,1,14.69,17.387ZM9.8,15.841h4.637V14.3H9.8Z" transform="translate(-1.114 -1.996)" fill="#1976d2"/>
    </g>
  </g>
</svg>
