<svg xmlns="http://www.w3.org/2000/svg" width="21.005" height="21" viewBox="0 0 21.005 21">
  <path id="Path_58953" data-name="Path 58953" d="M18.143,12.534a.873.873,0,1,0-1.278,1.19l1.89,2.03H12.988a2.611,2.611,0,0,1-2-.919L7.273,10.5l3.72-4.332a2.611,2.611,0,0,1,2-.919h5.768l-1.89,2.03a.873.873,0,1,0,1.278,1.19l2.092-2.241a2.62,2.62,0,0,0,.018-3.693L18.143.281A.88.88,0,0,0,16.909.237a.88.88,0,0,0-.044,1.234l1.89,2.03H12.988A4.38,4.38,0,0,0,9.662,5.033L5.724,9.628H.875a.875.875,0,1,0,0,1.75H5.724l3.938,4.595a4.367,4.367,0,0,0,3.326,1.532h5.768l-1.89,2.03a.873.873,0,1,0,1.278,1.19l2.092-2.241a2.62,2.62,0,0,0,.018-3.693l-2.109-2.267Z" transform="translate(0 -0.006)" fill="#1976d2"/>
</svg>
