<svg width="40" height="40" viewBox="0 0 40 40" fill="none" xmlns="http://www.w3.org/2000/svg">
<path d="M36.667 16.6668V23.3335M4.33365 6.66683H14.6303C14.8687 6.66681 15.0992 6.75193 15.2803 6.90683L20.5536 11.4268C20.7348 11.5817 20.9653 11.6669 21.2036 11.6668H35.667C35.7983 11.6668 35.9283 11.6927 36.0497 11.743C36.171 11.7932 36.2812 11.8669 36.3741 11.9597C36.4669 12.0526 36.5406 12.1628 36.5909 12.2841C36.6411 12.4055 36.667 12.5355 36.667 12.6668V17.3335C36.667 17.4648 36.6411 17.5949 36.5909 17.7162C36.5406 17.8375 36.4669 17.9477 36.3741 18.0406C36.2812 18.1335 36.171 18.2071 36.0497 18.2574C35.9283 18.3076 35.7983 18.3335 35.667 18.3335H4.33365C4.06843 18.3335 3.81408 18.2281 3.62654 18.0406C3.43901 17.8531 3.33365 17.5987 3.33365 17.3335V7.66683C3.33365 7.40162 3.43901 7.14726 3.62654 6.95973C3.81408 6.77219 4.06843 6.66683 4.33365 6.66683Z" stroke="white" stroke-width="2.5" stroke-linecap="round" stroke-linejoin="round"/>
<path d="M3.33365 16.6668V32.3335C3.33365 32.5987 3.43901 32.8531 3.62654 33.0406C3.81408 33.2281 4.06843 33.3335 4.33365 33.3335H21.667M31.667 35.0002C32.551 35.0002 33.3989 34.649 34.024 34.0239C34.6491 33.3987 35.0003 32.5509 35.0003 31.6668C35.0003 30.7828 34.6491 29.9349 34.024 29.3098C33.3989 28.6847 32.551 28.3335 31.667 28.3335C30.7829 28.3335 29.9351 28.6847 29.31 29.3098C28.6848 29.9349 28.3336 30.7828 28.3336 31.6668C28.3336 32.5509 28.6848 33.3987 29.31 34.0239C29.9351 34.649 30.7829 35.0002 31.667 35.0002Z" stroke="white" stroke-width="2.5" stroke-linecap="round" stroke-linejoin="round"/>
<path d="M31.667 36.6668C32.9931 36.6668 34.2648 36.14 35.2025 35.2024C36.1402 34.2647 36.667 32.9929 36.667 31.6668C36.667 30.3407 36.1402 29.069 35.2025 28.1313C34.2648 27.1936 32.9931 26.6668 31.667 26.6668C30.3409 26.6668 29.0691 27.1936 28.1314 28.1313C27.1938 29.069 26.667 30.3407 26.667 31.6668C26.667 32.9929 27.1938 34.2647 28.1314 35.2024C29.0691 36.14 30.3409 36.6668 31.667 36.6668Z" stroke="white" stroke-width="2.5" stroke-linecap="round" stroke-linejoin="round"/>
</svg>
