<svg xmlns="http://www.w3.org/2000/svg" xmlns:xlink="http://www.w3.org/1999/xlink" width="70" height="70" viewBox="0 0 70 70">
  <defs>
    <linearGradient id="linear-gradient" x1="0.051" y1="1.038" x2="0.849" y2="0.082" gradientUnits="objectBoundingBox">
      <stop offset="0" stop-color="#fc8450"/>
      <stop offset="1" stop-color="#f0d160"/>
    </linearGradient>
    <linearGradient id="linear-gradient-2" x1="0.146" y1="0.854" x2="0.854" y2="0.146" gradientUnits="objectBoundingBox">
      <stop offset="0" stop-color="#5d99ca"/>
      <stop offset="1" stop-color="#7ed7de"/>
    </linearGradient>
  </defs>
  <g id="DMS" transform="translate(-948 -160)">
    <rect id="Rectangle_15603" data-name="Rectangle 15603" width="70" height="70" rx="6" transform="translate(948 160)" fill="#a13737"/>
    <path id="Path_59251" data-name="Path 59251" d="M1850.826,173.225,1868,195.094V219.58s-.4,5.529-5.374,5.529H1830.1L1811.462,206Z" transform="translate(-850 4.891)" fill="rgba(0,0,0,0.16)"/>
    <g id="Group_8982" data-name="Group 8982" transform="translate(961 159)">
      <g id="_28-time" data-name="28-time" transform="translate(0 16)">
        <rect id="Rectangle_15868" data-name="Rectangle 15868" width="37.347" height="26.621" rx="4" transform="translate(4.825 2.662)" fill="#c1f1ea"/>
        <path id="Path_59248" data-name="Path 59248" d="M40.746,24.724H20.627L16.8,16.8a1.4,1.4,0,0,0-1.257-.8H1.405A1.43,1.43,0,0,0,0,17.454V50.9a1.43,1.43,0,0,0,1.405,1.454H40.746A1.43,1.43,0,0,0,42.151,50.9V26.178A1.43,1.43,0,0,0,40.746,24.724Z" transform="translate(0 -16)" fill="url(#linear-gradient)"/>
        <path id="Path_59249" data-name="Path 59249" d="M278.221,209.561l-2.158-.432q-.105-.279-.228-.551l1.22-1.831a.712.712,0,0,0-.089-.9l-3.022-3.022a.712.712,0,0,0-.9-.089l-1.831,1.221q-.271-.123-.551-.228l-.431-2.158a.712.712,0,0,0-.7-.573H265.26a.712.712,0,0,0-.7.573l-.431,2.158q-.279.105-.551.228l-1.831-1.221a.712.712,0,0,0-.9.089l-3.022,3.022a.712.712,0,0,0-.089.9l1.221,1.831q-.122.271-.228.551l-2.158.432a.712.712,0,0,0-.572.7v4.274a.712.712,0,0,0,.573.7l2.158.432q.105.279.228.551l-1.221,1.831a.712.712,0,0,0,.089.9l3.022,3.022a.712.712,0,0,0,.9.089l1.831-1.221q.271.123.551.228l.431,2.158a.712.712,0,0,0,.7.573h4.274a.712.712,0,0,0,.7-.573l.431-2.158q.279-.105.551-.228l1.831,1.221a.712.712,0,0,0,.9-.089l3.022-3.022a.712.712,0,0,0,.089-.9l-1.221-1.831q.122-.271.228-.551l2.158-.432a.712.712,0,0,0,.573-.7V210.26a.712.712,0,0,0-.573-.7Zm-7.263,2.835a3.561,3.561,0,1,1-3.561-3.561A3.561,3.561,0,0,1,270.958,212.4Z" transform="translate(-233.793 -183.793)" fill="url(#linear-gradient-2)"/>
        <path id="Path_59250" data-name="Path 59250" d="M318.411,257a6.411,6.411,0,1,0,6.411,6.411A6.411,6.411,0,0,0,318.411,257Zm0,9.972a3.561,3.561,0,1,1,3.561-3.561A3.562,3.562,0,0,1,318.411,266.972Z" transform="translate(-284.807 -234.807)" fill="#5d99ca"/>
      </g>
    </g>
  </g>
</svg>
