<svg xmlns="http://www.w3.org/2000/svg" width="20.918" height="22.82" viewBox="0 0 20.918 22.82">
  <g id="Group_8331" data-name="Group 8331" transform="translate(-2)">
    <path id="Path_58956" data-name="Path 58956" d="M15.312,5.705a.951.951,0,1,1,0,1.9H7.705a.951.951,0,0,1,0-1.9ZM22.64,22.541a.951.951,0,0,1-1.344,0l-2.289-2.289a4.312,4.312,0,1,1,1.344-1.344L22.64,21.2a.951.951,0,0,1,0,1.344Zm-5.9-3.525a2.377,2.377,0,1,0-2.377-2.377A2.377,2.377,0,0,0,16.738,19.017Zm-4.279,1.9H6.754A2.853,2.853,0,0,1,3.9,18.066V4.754A2.853,2.853,0,0,1,6.754,1.9h11.41a.951.951,0,0,1,.951.951v7.607a.951.951,0,0,0,1.9,0V2.853A2.853,2.853,0,0,0,18.164,0H6.754A4.76,4.76,0,0,0,2,4.754V18.066A4.76,4.76,0,0,0,6.754,22.82h5.705a.951.951,0,1,0,0-1.9Z" fill="#703188"/>
  </g>
</svg>
