<svg xmlns="http://www.w3.org/2000/svg" xmlns:xlink="http://www.w3.org/1999/xlink" width="21" height="21" viewBox="0 0 21 21">
  <defs>
    <clipPath id="clip-path">
      <rect id="Rectangle_16067" data-name="Rectangle 16067" width="21" height="21" transform="translate(202 3343)" fill="#fff" stroke="#707070" stroke-width="1"/>
    </clipPath>
  </defs>
  <g id="Mask_Group_13" data-name="Mask Group 13" transform="translate(-202 -3343)" clip-path="url(#clip-path)">
    <g id="Search_results_for_Document_-_Flaticon-13" data-name="Search results for Document - Flaticon-13" transform="translate(201.125 3343)">
      <path id="Path_88339" data-name="Path 88339" d="M14,5.25A.875.875,0,0,1,14,7H7A.875.875,0,0,1,7,5.25Zm6.744,15.494a.875.875,0,0,1-1.237,0L17.4,18.637A3.968,3.968,0,1,1,18.637,17.4l2.106,2.106a.875.875,0,0,1,0,1.237ZM15.313,17.5a2.188,2.188,0,1,0-2.187-2.187A2.187,2.187,0,0,0,15.313,17.5Zm-3.937,1.75H6.125A2.625,2.625,0,0,1,3.5,16.625V4.375A2.625,2.625,0,0,1,6.125,1.75h10.5a.875.875,0,0,1,.875.875v7a.875.875,0,0,0,1.75,0v-7A2.625,2.625,0,0,0,16.625,0H6.125A4.38,4.38,0,0,0,1.75,4.375v12.25A4.38,4.38,0,0,0,6.125,21h5.25a.875.875,0,0,0,0-1.75Z" fill="#247dd4"/>
    </g>
  </g>
</svg>
