<svg xmlns="http://www.w3.org/2000/svg" width="15.916" height="16.376" viewBox="0 0 15.916 16.376">
  <g id="Group_16963" data-name="Group 16963" transform="translate(-33.01 -279)">
    <path id="user-gear_3_" data-name="user-gear (3)" d="M18.484,15.711l-.629-.351a2.781,2.781,0,0,0,0-1.966l.629-.351a.615.615,0,0,0,.236-.854.656.656,0,0,0-.882-.229l-.628.351a3.234,3.234,0,0,0-1.758-1v-.688a.646.646,0,0,0-1.292,0v.688a3.242,3.242,0,0,0-1.758,1l-.628-.351a.656.656,0,0,0-.882.229.615.615,0,0,0,.236.854l.629.351a2.781,2.781,0,0,0,0,1.966l-.629.351a.615.615,0,0,0-.236.854.65.65,0,0,0,.56.313.66.66,0,0,0,.322-.084l.628-.351a3.234,3.234,0,0,0,1.758,1v.688a.646.646,0,0,0,1.292,0v-.688a3.242,3.242,0,0,0,1.758-1l.628.351a.66.66,0,0,0,.322.084.649.649,0,0,0,.56-.313A.615.615,0,0,0,18.484,15.711Zm-3.678.541a1.877,1.877,0,1,1,1.937-1.876A1.91,1.91,0,0,1,14.805,16.252Z" transform="translate(30.12 276.623)" fill="#90a4ae"/>
    <path id="team-check" d="M4.125,8.25A2.625,2.625,0,1,0,1.5,5.625,2.628,2.628,0,0,0,4.125,8.25Zm0-3.75A1.125,1.125,0,1,1,3,5.625,1.126,1.126,0,0,1,4.125,4.5Zm2.5,6.236a.75.75,0,0,1-1.041.205,2.625,2.625,0,0,0-4.066,1.891.751.751,0,0,1-.745.667.8.8,0,0,1-.083,0,.751.751,0,0,1-.663-.828A4.126,4.126,0,0,1,6.418,9.694.75.75,0,0,1,6.623,10.736Zm5-5.486A2.625,2.625,0,1,0,9,2.625,2.628,2.628,0,0,0,11.625,5.25Zm0-3.75A1.125,1.125,0,1,1,10.5,2.625,1.126,1.126,0,0,1,11.625,1.5Z" transform="translate(32.99 279)" fill="#90a4ae"/>
  </g>
</svg>
