<svg xmlns="http://www.w3.org/2000/svg" width="17.213" height="19.796" viewBox="0 0 17.213 19.796">
  <path id="Path_58640" data-name="Path 58640" d="M12,17a10.681,10.681,0,0,1,8.607,3.925l-1.842.871A8.866,8.866,0,0,0,12,19a8.866,8.866,0,0,0-6.765,2.8l-1.841-.872A10.681,10.681,0,0,1,12,17ZM12,2a5,5,0,0,1,5,5v3a5,5,0,0,1-4.783,5L12,15a5,5,0,0,1-5-5V7a5,5,0,0,1,4.783-5Zm0,2A3,3,0,0,0,9.006,6.824L9,7v3A3,3,0,0,0,15,10.176L15,10V7A3,3,0,0,0,12,4Z" transform="translate(-3.395 -2)" fill="#fff"/>
</svg>
