<svg xmlns="http://www.w3.org/2000/svg" xmlns:xlink="http://www.w3.org/1999/xlink" width="18" height="18" viewBox="0 0 18 18">
  <defs>
    <clipPath id="clip-path">
      <rect id="Rectangle_16082" data-name="Rectangle 16082" width="18" height="18" fill="#fff" stroke="#707070" stroke-width="1"/>
    </clipPath>
  </defs>
  <g id="Mask_Group_21" data-name="Mask Group 21" clip-path="url(#clip-path)">
    <path id="employees" d="M10.125,9a3,3,0,1,0,3-3A3,3,0,0,0,10.125,9Zm3-1.5a1.5,1.5,0,1,1-1.5,1.5A1.5,1.5,0,0,1,13.124,7.5ZM9,6A3,3,0,1,0,6,3,3,3,0,0,0,9,6ZM9,1.5A1.5,1.5,0,1,1,7.5,3,1.5,1.5,0,0,1,9,1.5ZM4.875,12a3,3,0,1,0-3-3A3,3,0,0,0,4.875,12Zm0-4.5A1.5,1.5,0,1,1,3.375,9,1.5,1.5,0,0,1,4.875,7.5ZM18,15.749V18H16.5v-2.25a1.488,1.488,0,0,0-1.133-1.45l-2.237,2.593-2.267-2.585A1.491,1.491,0,0,0,9.75,15.749V18H8.25v-2.25A1.488,1.488,0,0,0,7.117,14.3L4.879,16.891,2.612,14.306A1.491,1.491,0,0,0,1.5,15.748V18H0v-2.25a2.989,2.989,0,0,1,2.879-2.99l.358-.015L4.871,14.6l1.606-1.861.355.01A2.981,2.981,0,0,1,9,13.775a2.985,2.985,0,0,1,2.127-1.018l.358-.015L13.121,14.6l1.606-1.861.355.01A2.982,2.982,0,0,1,18,15.746Z" transform="translate(0 0)" fill="#90a4ae"/>
  </g>
</svg>
