<svg width="40" height="40" viewBox="0 0 40 40" fill="none" xmlns="http://www.w3.org/2000/svg">
<path d="M18.2557 18.5443C16.7174 18.5443 15.2137 18.0882 13.9346 17.2335C12.6556 16.3789 11.6587 15.1642 11.07 13.743C10.4813 12.3218 10.3273 10.7579 10.6274 9.24918C10.9275 7.74044 11.6683 6.35457 12.756 5.26683C13.8437 4.17909 15.2296 3.43833 16.7384 3.13822C18.2471 2.83811 19.8109 2.99214 21.2321 3.58082C22.6534 4.1695 23.8681 5.1664 24.7227 6.44545C25.5773 7.7245 26.0335 9.22825 26.0335 10.7666C26.0335 12.8293 25.2141 14.8077 23.7554 16.2663C22.2968 17.7249 20.3185 18.5443 18.2557 18.5443ZM18.2557 5.29988C17.1569 5.29988 16.0828 5.62571 15.1692 6.23616C14.2556 6.84662 13.5435 7.71428 13.1231 8.72942C12.7026 9.74457 12.5926 10.8616 12.8069 11.9393C13.0213 13.0169 13.5504 14.0069 14.3274 14.7838C15.1043 15.5608 16.0942 16.0899 17.1719 16.3042C18.2496 16.5186 19.3666 16.4086 20.3817 15.9881C21.3969 15.5676 22.2645 14.8555 22.875 13.9419C23.4855 13.0283 23.8113 11.9542 23.8113 10.8554C23.8113 10.1259 23.6676 9.40345 23.3884 8.72942C23.1092 8.05539 22.7 7.44295 22.1841 6.92707C21.6682 6.41119 21.0558 6.00197 20.3817 5.72278C19.7077 5.44358 18.9853 5.29988 18.2557 5.29988ZM24.4446 20.7645C24.4446 20.2525 24.09 19.8066 23.5873 19.7097C17.8366 18.601 11.8751 19.3079 6.5335 21.7443C5.76227 22.1127 5.11157 22.6926 4.65717 23.4165C4.20276 24.1404 3.96336 24.9785 3.96683 25.8332V32.4443C3.96683 32.5902 3.99557 32.7347 4.05141 32.8695C4.10725 33.0043 4.18909 33.1268 4.29227 33.23C4.39545 33.3332 4.51794 33.415 4.65274 33.4709C4.78755 33.5267 4.93203 33.5554 5.07795 33.5554C5.22386 33.5554 5.36834 33.5267 5.50315 33.4709C5.63796 33.415 5.76044 33.3332 5.86362 33.23C5.9668 33.1268 6.04864 33.0043 6.10448 32.8695C6.16032 32.7347 6.18906 32.5902 6.18906 32.4443V25.8332C6.17938 25.4007 6.29619 24.9747 6.52514 24.6076C6.7541 24.2405 7.08524 23.9482 7.47795 23.7666C10.8559 22.2064 14.5349 21.4062 18.2557 21.4221C19.8766 21.4202 21.4931 21.5686 23.0846 21.8648C23.7813 21.9945 24.4446 21.4733 24.4446 20.7645ZM24.6002 31.2332C24.6002 30.8037 24.9484 30.4554 25.3779 30.4554H30.6446C31.0742 30.4554 31.4224 30.8037 31.4224 31.2332C31.4224 31.6628 31.0742 32.011 30.6446 32.011H25.3779C24.9484 32.011 24.6002 31.6628 24.6002 31.2332Z" fill="white"/>
<path d="M36.8558 23.8556H32.2224C31.6088 23.8556 31.1113 24.3531 31.1113 24.9667C31.1113 25.5804 31.6088 26.0778 32.2224 26.0778H35.7447V35.3778H20.0002V26.0778H27.0002V26.5445C27.0002 26.8392 27.1173 27.1218 27.3257 27.3302C27.534 27.5386 27.8166 27.6556 28.1113 27.6556C28.406 27.6556 28.6886 27.5386 28.897 27.3302C29.1054 27.1218 29.2224 26.8392 29.2224 26.5445V22.2223C29.2224 21.9276 29.1054 21.645 28.897 21.4366C28.6886 21.2282 28.406 21.1112 28.1113 21.1112C27.8166 21.1112 27.534 21.2282 27.3257 21.4366C27.1173 21.645 27.0002 21.9276 27.0002 22.2223V23.8556H18.8891C18.5944 23.8556 18.3118 23.9727 18.1034 24.1811C17.8951 24.3894 17.778 24.672 17.778 24.9667V36.489C17.778 36.7836 17.8951 37.0663 18.1034 37.2746C18.3118 37.483 18.5944 37.6001 18.8891 37.6001H36.8558C37.1505 37.6001 37.4331 37.483 37.6415 37.2746C37.8498 37.0663 37.9669 36.7836 37.9669 36.489V24.9667C37.9669 24.672 37.8498 24.3894 37.6415 24.1811C37.4331 23.9727 37.1505 23.8556 36.8558 23.8556Z" fill="white"/>
</svg>
