<svg xmlns="http://www.w3.org/2000/svg" width="18" height="15.75" viewBox="0 0 18 15.75">
  <g id="Group_16892" data-name="Group 16892" transform="translate(-60.222 -129)">
    <circle id="Ellipse_159" data-name="Ellipse 159" cx="3.294" cy="3.294" r="3.294" transform="translate(63.712 129)" fill="#90a4ae"/>
    <path id="Path_88273" data-name="Path 88273" d="M171.982,262.1h-.83l-.434,3.238.849,1.061.849-1.061Zm-.845-1.049H172l.175-1.049h-1.209Z" transform="translate(-104.49 -123.01)" fill="#17ace8"/>
    <path id="Path_88274" data-name="Path 88274" d="M4.927,227.283l.517-3.837-.265-1.582h-.96A4.207,4.207,0,0,0,0,226.059V229.1a.526.526,0,0,0,.527.524H6.6L5.037,227.68a.522.522,0,0,1-.111-.4Zm5.535-5.307a4.247,4.247,0,0,0-.969-.112h-.96l-.265,1.582.517,3.837a.522.522,0,0,1-.111.4l-1.565,1.945H9.845a2.6,2.6,0,0,1-.529-1.573v-3.915A2.617,2.617,0,0,1,10.461,221.976Z" transform="translate(60.222 -84.875)" fill="#90a4ae"/>
    <g id="Group_16890" data-name="Group 16890" transform="translate(70.594 135.591)">
      <path id="Path_88274-2" data-name="Path 88274" d="M19.875,222.1h-.3v-.874A1.228,1.228,0,0,0,18.346,220H16.939a1.228,1.228,0,0,0-1.23,1.223v.874h-.3a1.578,1.578,0,0,0-1.582,1.573v.35h7.629v-.35A1.578,1.578,0,0,0,19.875,222.1Zm-1.354,0H16.764v-.874a.175.175,0,0,1,.176-.175h1.406a.175.175,0,0,1,.176.175Zm-4.693,5.488a1.578,1.578,0,0,0,1.582,1.573h4.465a1.578,1.578,0,0,0,1.582-1.573v-2.517H13.828Z" transform="translate(-13.828 -220)" fill="#17ace8"/>
    </g>
  </g>
</svg>
