<svg xmlns="http://www.w3.org/2000/svg" width="18.256" height="15.75" viewBox="0 0 18.256 15.75">
  <g id="Group_16962" data-name="Group 16962" transform="translate(-40 -180)">
    <g id="Group_16961" data-name="Group 16961">
      <path id="Subtraction_5" data-name="Subtraction 5" d="M-3649.372,15.75h-5.519l1.564-1.944a.52.52,0,0,0,.11-.4l-.515-3.837.265-1.581h1.011a4.289,4.289,0,0,1,.629.046A4.958,4.958,0,0,0-3652.8,11a4.992,4.992,0,0,0,3.428,4.748Zm-6.026,0h-6.075a.526.526,0,0,1-.528-.524V12.185a4.212,4.212,0,0,1,4.219-4.194h.959l.266,1.581-.518,3.837a.515.515,0,0,0,.111.4l1.563,1.942Zm.182-9.162a3.3,3.3,0,0,1-3.294-3.294A3.3,3.3,0,0,1-3655.216,0a3.3,3.3,0,0,1,3.294,3.294A3.3,3.3,0,0,1-3655.216,6.588Z" transform="translate(3702 180)" fill="#90a4ae"/>
      <path id="user-gear_2_" data-name="user-gear (2)" d="M18.284,15.746l-.613-.354a2.883,2.883,0,0,0,0-1.978l.613-.354a.629.629,0,0,0-.629-1.089l-.612.354a3.127,3.127,0,0,0-1.713-1V10.63a.629.629,0,1,0-1.258,0v.693a3.135,3.135,0,0,0-1.713,1l-.612-.354a.629.629,0,1,0-.629,1.089l.613.354a2.883,2.883,0,0,0,0,1.978l-.613.354a.629.629,0,1,0,.629,1.089l.612-.354a3.127,3.127,0,0,0,1.713,1v.693a.629.629,0,1,0,1.258,0v-.693a3.135,3.135,0,0,0,1.713-1l.612.354a.629.629,0,0,0,.629-1.089Zm-3.583-.4a.944.944,0,1,1,.944-.944A.945.945,0,0,1,14.7,15.347Z" transform="translate(39.657 176.499)" fill="#17ace8"/>
    </g>
    <path id="Path_88368" data-name="Path 88368" d="M171.982,262.1h-.83l-.434,3.238.849,1.061.849-1.061Zm-.845-1.049H172l.175-1.049h-1.209Z" transform="translate(-124.713 -72.01)" fill="#17ace8"/>
  </g>
</svg>
