<svg xmlns="http://www.w3.org/2000/svg" width="16.267" height="15.75" viewBox="0 0 16.267 15.75">
  <g id="Group_16965" data-name="Group 16965" transform="translate(-50 -318)">
    <path id="Subtraction_6" data-name="Subtraction 6" d="M-3651.677,15.75h-3.214l1.564-1.944a.52.52,0,0,0,.11-.4l-.515-3.837.265-1.581h1.073a1.985,1.985,0,0,0-.171.809v5.287a2,2,0,0,0,.885,1.661Zm-3.721,0h-6.075a.526.526,0,0,1-.528-.524V12.185a4.212,4.212,0,0,1,4.219-4.194h.959l.266,1.581-.518,3.837a.515.515,0,0,0,.111.4l1.563,1.942Zm.182-9.162a3.3,3.3,0,0,1-3.294-3.294A3.3,3.3,0,0,1-3655.216,0a3.3,3.3,0,0,1,3.294,3.294A3.3,3.3,0,0,1-3655.216,6.588Z" transform="translate(3712 318)" fill="#90a4ae"/>
    <path id="Path_88368" data-name="Path 88368" d="M171.982,262.1h-.83l-.434,3.238.849,1.061.849-1.061Zm-.845-1.049H172l.175-1.049h-1.209Z" transform="translate(-114.712 65.99)" fill="#17ace8"/>
    <path id="document-signed" d="M7.567.105a1.745,1.745,0,0,1,.66.409l.582.582a1.74,1.74,0,0,1,.409.66H7.567ZM9.323,2.459V6.675A1.759,1.759,0,0,1,7.567,8.431H4.756A1.759,1.759,0,0,1,3,6.675V1.756A1.759,1.759,0,0,1,4.756,0H6.864V1.756a.7.7,0,0,0,.7.7ZM7.851,6.117a.351.351,0,0,0-.492-.078,1.611,1.611,0,0,1-.8.284.473.473,0,0,1-.3-.121,1.063,1.063,0,0,0-.644-.23,2.059,2.059,0,0,0-1.07.424.351.351,0,1,0,.426.558,1.388,1.388,0,0,1,.644-.279c.086,0,.13.027.246.105a1.142,1.142,0,0,0,.7.246,2.271,2.271,0,0,0,1.214-.419.351.351,0,0,0,.075-.49Zm.067-1.2a.351.351,0,0,0-.351-.351H4.756a.351.351,0,1,0,0,.7h2.81A.351.351,0,0,0,7.918,4.918Zm0-1.405a.351.351,0,0,0-.351-.351H4.756a.351.351,0,0,0,0,.7h2.81A.351.351,0,0,0,7.918,3.513Z" transform="translate(56.943 325.228)" fill="#17ace8"/>
  </g>
</svg>
