<svg xmlns="http://www.w3.org/2000/svg" width="22" height="20" viewBox="0 0 22 20">
  <g id="Group_6" data-name="Group 6" transform="translate(-1.25 -2.25)">
    <g id="Layer_2" data-name="Layer 2" transform="translate(1.25 2.25)">
      <path id="Path_13" data-name="Path 13" d="M11.251,18.917a.778.778,0,0,1-.778-.778,2.334,2.334,0,1,0-4.667,0,.778.778,0,0,1-1.556,0,3.889,3.889,0,1,1,7.779,0A.778.778,0,0,1,11.251,18.917Z" transform="translate(-1.138 -1.984)" fill="#1976d2"/>
      <path id="Path_14" data-name="Path 14" d="M8.121,15.992a3.371,3.371,0,1,1,3.371-3.371,3.371,3.371,0,0,1-3.371,3.371Zm0-5.186a1.815,1.815,0,1,0,1.815,1.815,1.815,1.815,0,0,0-1.815-1.815Z" transform="translate(-1.19 -2.111)" fill="#1976d2"/>
      <path id="Path_15" data-name="Path 15" d="M21.459,22.1H3.041a1.792,1.792,0,0,1-1.791-1.79V8.04A1.792,1.792,0,0,1,3.041,6.25H21.459A1.792,1.792,0,0,1,23.25,8.04V20.312a1.792,1.792,0,0,1-1.791,1.79ZM3.041,7.784a.256.256,0,0,0-.256.256V20.312a.256.256,0,0,0,.256.256H21.459a.256.256,0,0,0,.256-.256V8.04a.256.256,0,0,0-.256-.256Z" transform="translate(-1.25 -2.101)" fill="#1976d2"/>
      <path id="Path_16" data-name="Path 16" d="M18.918,12.1H14.77a.778.778,0,1,1,0-1.556h4.149a.778.778,0,0,1,0,1.556Zm0,3.63H14.77a.778.778,0,1,1,0-1.556h4.149a.778.778,0,0,1,0,1.556ZM16.325,7.955h-8.3a.778.778,0,0,1-.778-.778,4.927,4.927,0,1,1,9.853,0,.778.778,0,0,1-.778.778ZM8.9,6.4h6.561A3.371,3.371,0,0,0,8.9,6.4Z" transform="translate(-1.216 -2.25)" fill="#1976d2"/>
    </g>
  </g>
</svg>
