<svg xmlns="http://www.w3.org/2000/svg" xmlns:xlink="http://www.w3.org/1999/xlink" width="18" height="18" viewBox="0 0 18 18">
  <defs>
    <clipPath id="clip-path">
      <rect id="Rectangle_16101" data-name="Rectangle 16101" width="18" height="18" transform="translate(79 793)" fill="#fff" stroke="#707070" stroke-width="1"/>
    </clipPath>
  </defs>
  <g id="Group_16987" data-name="Group 16987" transform="translate(-79 -793)">
    <g id="Mask_Group_31" data-name="Mask Group 31" clip-path="url(#clip-path)">
      <path id="ship-side" d="M11.025,10.5,8.775,12H0v6H10.5A7.5,7.5,0,0,0,18,10.5ZM2.25,15.75A.75.75,0,1,1,3,15,.75.75,0,0,1,2.25,15.75Zm3,0A.75.75,0,1,1,6,15,.75.75,0,0,1,5.25,15.75Zm3,0A.75.75,0,1,1,9,15,.75.75,0,0,1,8.25,15.75Z" transform="translate(79 793)" fill="#90a4ae"/>
    </g>
    <path id="ship-side-2" data-name="ship-side" d="M7.5,8.25V6.75H0V4.5H8.835a3.775,3.775,0,0,1,2.385.854A11.537,11.537,0,0,1,14.1,9H10.569l-2.25,1.5H0V8.25ZM1.562,3,.772,0H5.25l.792,3Z" transform="translate(79 793)" fill="#17ace8"/>
  </g>
</svg>
