<svg xmlns="http://www.w3.org/2000/svg" width="22.658" height="21" viewBox="0 0 22.658 21">
  <path id="Path_58703" data-name="Path 58703" d="M9,4h5.446a1,1,0,0,1,.848.47L18.75,10h4.408a.5.5,0,0,1,.439.739L19.636,18H19a6.01,6.01,0,0,1-1.535-.2L20.63,12H3.4l1.048,5.824A6.012,6.012,0,0,1,3,18H2.455l-1.24-6.821A1,1,0,0,1,2.2,10H3V5A1,1,0,0,1,4,4H5V1H9ZM5,10H16.392l-2.5-4H5ZM3,20a5.978,5.978,0,0,0,4-1.528,6,6,0,0,0,8,0A5.978,5.978,0,0,0,19,20h2v2H19a7.963,7.963,0,0,1-4-1.07,8.01,8.01,0,0,1-8,0A7.963,7.963,0,0,1,3,22H1V20Z" transform="translate(-1 -1)" fill="#fff"/>
</svg>
