<svg xmlns="http://www.w3.org/2000/svg" width="16.483" height="16.041" viewBox="0 0 16.483 16.041">
  <g id="Group_16982" data-name="Group 16982" transform="translate(-80 -750)">
    <path id="Subtraction_11" data-name="Subtraction 11" d="M-3653.605,16.041h-8.4V2.005A2.008,2.008,0,0,1-3660,0h9.358a2.008,2.008,0,0,1,2.005,2.005V7.052c-.034-.008-.073-.015-.115-.021a1.176,1.176,0,0,0-.162-.011h-.9a1.232,1.232,0,0,0-1.193.95,1.216,1.216,0,0,0-.3.12V7.352h-2.672l-1.365,1.336h3.5a1.216,1.216,0,0,0-.095.472v.166a1.232,1.232,0,0,0-.891,1.181v.854h-3.854V12.7h3.042a1.233,1.233,0,0,0-.063.86l.111.378a1.223,1.223,0,0,0-.611,1.1,1.229,1.229,0,0,0,.591,1Zm-5.747-4.679V12.7h1.336V11.362Zm.283-4.226h0L-3660,8.1l.97.931a1.108,1.108,0,0,0,.789.326,1.1,1.1,0,0,0,.781-.321l1.844-1.806-.935-.956-1.693,1.658-.83-.8Zm2.416-3.795V4.679h5.347V3.342Zm-2.673,0V4.679h1.336V3.342Z" transform="translate(3742 750)" fill="#90a4ae"/>
    <g id="Group_16981" data-name="Group 16981" transform="translate(88.799 758.021)">
      <path id="Path_88287" data-name="Path 88287" d="M.231,7.2a.325.325,0,0,1,.27.14.783.783,0,0,0,.65.342h.023a.752.752,0,0,0,.617-.342.329.329,0,0,1,.527,0,.757.757,0,0,0,.635.342.815.815,0,0,0,.666-.365V3.692L.586,4.985a.227.227,0,0,0-.126.27l.578,1.951a.337.337,0,0,1-.164-.112.777.777,0,0,0-.653-.342A.223.223,0,0,0,0,6.981a.238.238,0,0,0,.23.221ZM2.942,4.967a.225.225,0,1,1-.225.225A.225.225,0,0,1,2.942,4.967ZM7.454,6.751a.794.794,0,0,0-.636.342.29.29,0,0,1-.171.122l.563-1.96a.227.227,0,0,0-.126-.27L4.068,3.692V7.3a.885.885,0,0,0,.684.384.759.759,0,0,0,.639-.342.329.329,0,0,1,.527,0,.764.764,0,0,0,1.274,0,.353.353,0,0,1,.272-.14.225.225,0,0,0-.009-.45ZM4.743,5.417a.225.225,0,1,1,.225-.225A.225.225,0,0,1,4.743,5.417ZM4.293,0h-.9a.225.225,0,0,0-.225.225v.69H2.492a.225.225,0,0,0-.225.225v.675H5.418V1.14A.225.225,0,0,0,5.193.915H4.518V.225A.225.225,0,0,0,4.293,0Zm0,0" transform="translate(0)" fill="#17ace8"/>
      <path id="Path_88289" data-name="Path 88289" d="M9.105,0H8.2A.225.225,0,0,0,7.98.225v.69H7.3a.225.225,0,0,0-.225.225v.675H10.23V1.14a.225.225,0,0,0-.225-.225H9.33V.225A.225.225,0,0,0,9.105,0Zm0,0" transform="translate(-4.812)" fill="#17ace8"/>
      <path id="Path_88288" data-name="Path 88288" d="M91.008,151.223v1.688l2.2-.953a.665.665,0,0,1,.53,0l2.2.953v-1.688a.225.225,0,0,0-.224-.227H91.232A.225.225,0,0,0,91.008,151.223Zm0,0" transform="translate(-89.632 -148.735)" fill="#17ace8"/>
    </g>
  </g>
</svg>
