<svg xmlns="http://www.w3.org/2000/svg" width="17.122" height="18" viewBox="0 0 17.122 18">
  <g id="Group_16985" data-name="Group 16985" transform="translate(0)">
    <path id="Path_88373" data-name="Path 88373" d="M10.667,19.616h-5A2.417,2.417,0,0,1,3.25,17.2V6.665A2.415,2.415,0,0,1,5.665,4.25H7.421a.659.659,0,1,1,0,1.317H5.665a1.1,1.1,0,0,0-1.1,1.1V17.2a1.1,1.1,0,0,0,1.1,1.1h5a.659.659,0,1,1,0,1.317Z" transform="translate(-3.25 -2.494)" fill="#90a4ae"/>
    <path id="Path_88374" data-name="Path 88374" d="M21.421,18.079H17.909a.659.659,0,0,1-.659-.659V13.909a.659.659,0,1,1,1.317,0v2.854h2.854a.659.659,0,1,1,0,1.317Z" transform="translate(-4.957 -3.591)" fill="#90a4ae"/>
    <path id="Path_88375" data-name="Path 88375" d="M17.421,10.835a.659.659,0,0,1-.659-.659V6.665a1.1,1.1,0,0,0-1.1-1.1H13.909a.659.659,0,1,1,0-1.317h1.756a2.417,2.417,0,0,1,2.415,2.415v3.512A.659.659,0,0,1,17.421,10.835Z" transform="translate(-4.469 -2.494)" fill="#90a4ae"/>
    <path id="Path_88376" data-name="Path 88376" d="M9.665,2.25h1.756a2.415,2.415,0,1,1,0,4.829H9.665a2.415,2.415,0,1,1,0-4.829Zm1.756,3.512a1.1,1.1,0,1,0,0-2.2H9.665a1.1,1.1,0,1,0,0,2.2Z" transform="translate(-3.738 -2.25)" fill="#90a4ae"/>
    <path id="Path_88377" data-name="Path 88377" d="M17.421,21.591a4.171,4.171,0,1,1,4.171-4.171A4.175,4.175,0,0,1,17.421,21.591Zm0-7.024a2.854,2.854,0,1,0,2.854,2.854A2.857,2.857,0,0,0,17.421,14.567Z" transform="translate(-4.469 -3.591)" fill="#90a4ae"/>
    <path id="Path_88378" data-name="Path 88378" d="M11.421,11.567H7.909a.659.659,0,1,1,0-1.317h3.512a.659.659,0,1,1,0,1.317Z" transform="translate(-3.738 -3.226)" fill="#90a4ae"/>
    <path id="Path_88379" data-name="Path 88379" d="M10.543,15.567H7.909a.659.659,0,1,1,0-1.317h2.634a.659.659,0,1,1,0,1.317Z" transform="translate(-3.738 -3.713)" fill="#90a4ae"/>
  </g>
</svg>
