<svg width="40" height="40" viewBox="0 0 40 40" fill="none" xmlns="http://www.w3.org/2000/svg">
<path fill-rule="evenodd" clip-rule="evenodd" d="M12.2402 12.2597C12.2402 11.2406 12.4409 10.2316 12.8308 9.29017C13.2208 8.34872 13.7924 7.4933 14.5129 6.77275C15.2335 6.0522 16.0889 5.48063 17.0303 5.09067C17.9718 4.70071 18.9808 4.5 19.9998 4.5C21.0189 4.5 22.0279 4.70071 22.9693 5.09067C23.9108 5.48063 24.7662 6.0522 25.4867 6.77275C26.2073 7.4933 26.7789 8.34872 27.1688 9.29017C27.5588 10.2316 27.7595 11.2406 27.7595 12.2597C27.7595 14.3177 26.942 16.2914 25.4867 17.7466C24.0315 19.2018 22.0578 20.0193 19.9998 20.0193C17.9418 20.0193 15.9681 19.2018 14.5129 17.7466C13.0577 16.2914 12.2402 14.3177 12.2402 12.2597ZM19.9998 7.2387C18.6682 7.2387 17.3911 7.7677 16.4495 8.70931C15.5079 9.65092 14.9789 10.928 14.9789 12.2597C14.9789 13.5913 15.5079 14.8684 16.4495 15.81C17.3911 16.7516 18.6682 17.2806 19.9998 17.2806C21.3315 17.2806 22.6086 16.7516 23.5502 15.81C24.4918 14.8684 25.0208 13.5913 25.0208 12.2597C25.0208 10.928 24.4918 9.65092 23.5502 8.70931C22.6086 7.7677 21.3315 7.2387 19.9998 7.2387ZM12.6966 25.4967C11.6071 25.4967 10.5622 25.9295 9.79179 26.7C9.02138 27.4704 8.58857 28.5153 8.58857 29.6048V31.7738C8.58857 31.8067 8.6123 31.8359 8.64517 31.8414C16.1657 33.0683 23.8358 33.0683 31.3545 31.8414C31.3705 31.8388 31.385 31.8305 31.3953 31.8181C31.4057 31.8057 31.4113 31.79 31.4111 31.7738V29.6048C31.4111 28.5153 30.9783 27.4704 30.2079 26.7C29.4375 25.9295 28.3926 25.4967 27.303 25.4967H26.6823C26.6333 25.4964 26.5847 25.5037 26.538 25.5186L24.9587 26.0353C21.7365 27.0874 18.2632 27.0874 15.041 26.0353L13.4598 25.5186C13.4144 25.5041 13.3669 25.4967 13.3192 25.4967H12.6966ZM5.84986 29.6048C5.84986 27.7889 6.57122 26.0474 7.85523 24.7634C9.13925 23.4794 10.8808 22.758 12.6966 22.758H13.3174C13.6552 22.758 13.9911 22.8128 14.3106 22.9151L15.8918 23.4318C18.5612 24.3031 21.4385 24.3031 24.1079 23.4318L25.689 22.9151C26.0086 22.811 26.3445 22.758 26.6805 22.758H27.303C29.1189 22.758 30.8604 23.4794 32.1444 24.7634C33.4285 26.0474 34.1498 27.7889 34.1498 29.6048V31.7738C34.1498 33.1505 33.1529 34.3227 31.7945 34.5436C23.9831 35.8188 16.0166 35.8188 8.20515 34.5436C7.54772 34.4365 6.9498 34.0991 6.51831 33.5917C6.08681 33.0843 5.84987 32.4399 5.84986 31.7738V29.6048Z" fill="white"/>
</svg>
