<svg width="36" height="32" viewBox="0 0 36 32" fill="none" xmlns="http://www.w3.org/2000/svg">
<path d="M35 26.389L21.336 2.65932C20.9945 2.07795 20.5071 1.59591 19.9219 1.26097C19.3368 0.92604 18.6743 0.74984 18 0.74984C17.3258 0.74984 16.6633 0.92604 16.0782 1.26097C15.493 1.59591 15.0056 2.07795 14.6641 2.65932L1.00004 26.389C0.671506 26.9513 0.498367 27.5909 0.498367 28.2421C0.498367 28.8934 0.671506 29.5329 1.00004 30.0953C1.33712 30.6801 1.82375 31.1648 2.40998 31.4995C2.99622 31.8342 3.66096 32.007 4.33598 31.9999H31.6641C32.3386 32.0064 33.0027 31.8334 33.5883 31.4987C34.174 31.164 34.6601 30.6797 34.9969 30.0953C35.3259 29.5332 35.4996 28.8938 35.5002 28.2426C35.5007 27.5913 35.3281 26.9516 35 26.389ZM32.8329 28.8437C32.7137 29.0469 32.5427 29.2148 32.3373 29.3301C32.132 29.4454 31.8996 29.504 31.6641 29.4999H4.33598C4.10048 29.504 3.86812 29.4454 3.66275 29.3301C3.45737 29.2148 3.28635 29.0469 3.16723 28.8437C3.05933 28.661 3.00241 28.4527 3.00241 28.2406C3.00241 28.0284 3.05933 27.8201 3.16723 27.6374L16.8313 3.90775C16.9528 3.70552 17.1246 3.53818 17.33 3.42201C17.5353 3.30583 17.7672 3.24478 18.0032 3.24478C18.2391 3.24478 18.471 3.30583 18.6764 3.42201C18.8817 3.53818 19.0535 3.70552 19.175 3.90775L32.8391 27.6374C32.9461 27.8207 33.0019 28.0293 33.0008 28.2414C32.9997 28.4536 32.9417 28.6616 32.8329 28.8437ZM16.75 19.4999V13.2499C16.75 12.9184 16.8817 12.6005 17.1162 12.3661C17.3506 12.1316 17.6685 11.9999 18 11.9999C18.3316 11.9999 18.6495 12.1316 18.8839 12.3661C19.1183 12.6005 19.25 12.9184 19.25 13.2499V19.4999C19.25 19.8315 19.1183 20.1494 18.8839 20.3838C18.6495 20.6182 18.3316 20.7499 18 20.7499C17.6685 20.7499 17.3506 20.6182 17.1162 20.3838C16.8817 20.1494 16.75 19.8315 16.75 19.4999ZM19.875 25.1249C19.875 25.4958 19.7651 25.8583 19.559 26.1666C19.353 26.475 19.0602 26.7153 18.7176 26.8572C18.375 26.9991 17.998 27.0363 17.6342 26.9639C17.2705 26.8916 16.9364 26.713 16.6742 26.4508C16.412 26.1885 16.2334 25.8545 16.1611 25.4907C16.0887 25.127 16.1259 24.75 16.2678 24.4074C16.4097 24.0648 16.65 23.772 16.9583 23.5659C17.2667 23.3599 17.6292 23.2499 18 23.2499C18.4973 23.2499 18.9742 23.4475 19.3259 23.7991C19.6775 24.1507 19.875 24.6277 19.875 25.1249Z" fill="white"/>
</svg>
