<svg xmlns="http://www.w3.org/2000/svg" width="27" height="23" viewBox="0 0 27 23">
  <g id="Group_26" data-name="Group 26" transform="translate(0 -33)">
    <path id="Path_55" data-name="Path 55" d="M13.5,41.973a4.488,4.488,0,1,0-4.588-4.487A4.543,4.543,0,0,0,13.5,41.973Zm0-7.426a2.94,2.94,0,1,1-3.006,2.939A2.977,2.977,0,0,1,13.5,34.547Zm9.281,7.426a2.837,2.837,0,1,0-2.9-2.836A2.872,2.872,0,0,0,22.781,41.973Zm0-4.126a1.29,1.29,0,1,1-1.318,1.289A1.306,1.306,0,0,1,22.781,37.848Zm.638,5.879H22.2a3.592,3.592,0,0,0-3.253,2.029,6.432,6.432,0,0,0-4.705-2.029H12.763a6.432,6.432,0,0,0-4.705,2.029A3.592,3.592,0,0,0,4.8,43.726H3.581A3.536,3.536,0,0,0,0,47.207v5.632A1.533,1.533,0,0,0,1.551,54.35H6.388A1.833,1.833,0,0,0,8.228,56H18.772a1.833,1.833,0,0,0,1.84-1.65h4.782A1.588,1.588,0,0,0,27,52.785V47.207A3.536,3.536,0,0,0,23.419,43.726ZM1.582,47.207a1.969,1.969,0,0,1,2-1.933H4.8a1.969,1.969,0,0,1,2,1.933v.53c-.532,1.354-.422,2.166-.422,5.066h-4.8Zm17.455,6.987a.262.262,0,0,1-.265.259H8.228a.262.262,0,0,1-.265-.259V49.967a4.753,4.753,0,0,1,4.8-4.694h1.474a4.753,4.753,0,0,1,4.8,4.694Zm6.381-1.409c0,.027.295.018-4.8.018,0-2.921.109-3.714-.422-5.066v-.53a1.969,1.969,0,0,1,2-1.933h1.223a1.969,1.969,0,0,1,2,1.933ZM4.219,41.973a2.837,2.837,0,1,0,0-5.673,2.837,2.837,0,1,0,0,5.673Zm0-4.126A1.29,1.29,0,1,1,2.9,39.137,1.306,1.306,0,0,1,4.219,37.848Z" transform="translate(0)" fill="#1976d2"/>
  </g>
</svg>
