<svg xmlns="http://www.w3.org/2000/svg" width="23.929" height="31.546" viewBox="0 0 23.929 31.546">
  <g id="Group_25" data-name="Group 25" transform="translate(-61.816)">
    <path id="Path_54" data-name="Path 54" d="M85.745,24.426a2.809,2.809,0,0,0-2.806-2.806c-1.005,0-2.957,0-3.964,0A1.838,1.838,0,0,1,78,21.323l-2.1-.976V8.245a.924.924,0,0,0-.924-.924h-.5V0H72.629V7.321h-6.75V0H64.031V7.321h-.5a.924.924,0,0,0-.924.924v9.483L61.849,25.5a5.874,5.874,0,0,0,1.339,4.534,4.628,4.628,0,0,0,3.529,1.51.928.928,0,0,0,.12-.008c.047-.006,4.694-.612,6.206-.617,1.636,0,6.652.612,6.7.618a.917.917,0,0,0,.113.007,4.309,4.309,0,0,0,4.3-4.3V26.95A2.809,2.809,0,0,0,85.745,24.426Zm-3.764-.958h.958a.958.958,0,1,1,0,1.915l-.958,0Zm-4.8-.489a3.548,3.548,0,0,0,1.794.487h1.158v1.563l-4.23,4.23c-.666-.063-1.32-.117-1.877-.151l-2.991-2.991,4.092-4.092Zm-7.452,4.445,1.738,1.738c-1.3.11-2.893.3-3.9.421ZM74.054,9.169v.3l-6.316,6.316L64.454,12.5V9.169h9.6Zm-9.6,8.693c0-.03,0-.06,0-.089V15.11l1.978,1.978L64.32,19.2Zm.108,10.932a4.036,4.036,0,0,1-.869-3.113l.349-3.585L74.054,12.079v8.405l-8.838,8.838A2.673,2.673,0,0,1,64.558,28.794Zm15.353.9c-.2-.025-.829-.1-1.641-.192L80.9,26.88a1.835,1.835,0,0,0,1.083.352h.336v.011A2.458,2.458,0,0,1,79.911,29.7Z" transform="translate(0)" fill="#3285d6"/>
  </g>
</svg>
