<svg width="40" height="40" viewBox="0 0 40 40" fill="none" xmlns="http://www.w3.org/2000/svg">
<path d="M35.8333 27.4998V15.8332H4.16667V34.1665C4.16667 34.6085 4.34226 35.0325 4.65482 35.345C4.96738 35.6576 5.39131 35.8332 5.83333 35.8332H20" stroke="white" stroke-width="2.66667" stroke-linecap="round" stroke-linejoin="round"/>
<path d="M4.16667 8.33317C4.16667 7.89114 4.34226 7.46722 4.65482 7.15466C4.96738 6.8421 5.39131 6.6665 5.83333 6.6665H34.1667C34.6087 6.6665 35.0326 6.8421 35.3452 7.15466C35.6577 7.46722 35.8333 7.89114 35.8333 8.33317V15.8332H4.16667V8.33317Z" stroke="white" stroke-width="2.66667" stroke-linejoin="round"/>
<path d="M13.3333 4.1665V10.8332M26.6667 4.1665V10.8332" stroke="white" stroke-width="2.66667" stroke-linecap="round"/>
<path d="M25 32.4998C28.2217 32.4998 30.8333 29.8882 30.8333 26.6665C30.8333 23.4448 28.2217 20.8332 25 20.8332C21.7783 20.8332 19.1667 23.4448 19.1667 26.6665C19.1667 29.8882 21.7783 32.4998 25 32.4998Z" stroke="white" stroke-width="2.66667"/>
<path d="M30 30.8332L35 34.9998" stroke="white" stroke-width="2.66667" stroke-linecap="round" stroke-linejoin="round"/>
</svg>
