<svg xmlns="http://www.w3.org/2000/svg" xmlns:xlink="http://www.w3.org/1999/xlink" width="70" height="70" viewBox="0 0 70 70">
  <defs>
    <linearGradient id="linear-gradient" x1="-0.033" y1="0.939" x2="1.033" y2="0.061" gradientUnits="objectBoundingBox">
      <stop offset="0" stop-color="#5d99ca"/>
      <stop offset="1" stop-color="#7ed7de"/>
    </linearGradient>
  </defs>
  <g id="Inspection" transform="translate(-949 -305)">
    <rect id="Rectangle_15600" data-name="Rectangle 15600" width="70" height="70" rx="6" transform="translate(949 305)" fill="#218f8b"/>
    <path id="Path_59277" data-name="Path 59277" d="M1849.686,169.833,1868,189.981v29.6s-.4,5.529-5.374,5.529h-29.663l-16.151-14.1Z" transform="translate(-849 149.891)" fill="rgba(0,0,0,0.16)"/>
    <g id="Group_8990" data-name="Group 8990" transform="translate(310.809 -55.996)">
      <path id="Path_59276" data-name="Path 59276" d="M1.91,0H24.825a1.91,1.91,0,0,1,1.91,1.91V30.554a1.91,1.91,0,0,1-1.91,1.91H1.91A1.91,1.91,0,0,1,0,30.554V1.91A1.91,1.91,0,0,1,1.91,0Z" transform="translate(663.643 374.99)" fill="url(#linear-gradient)"/>
      <path id="Path_59275" data-name="Path 59275" d="M1.91,0H24.825a1.91,1.91,0,0,1,1.91,1.91V32.464a1.91,1.91,0,0,1-1.91,1.91H1.91A1.91,1.91,0,0,1,0,32.464V1.91A1.91,1.91,0,0,1,1.91,0Z" transform="translate(656.005 382.628)" fill="#f0d160"/>
      <g id="Group_8989" data-name="Group 8989" transform="translate(661.733 390.267)">
        <path id="Path_59274" data-name="Path 59274" d="M152,272h15.277v3.819H152Zm0,7.639h15.277v3.819H152Zm0,7.639h15.277V291.1H152Z" transform="translate(-152 -272)" fill="#f5ef9d"/>
      </g>
    </g>
  </g>
</svg>
