<svg xmlns="http://www.w3.org/2000/svg" width="21.485" height="19.107" viewBox="0 0 21.485 19.107">
  <path id="Path_58616" data-name="Path 58616" d="M3.161,4.469A6.5,6.5,0,0,1,12,4.141a6.5,6.5,0,0,1,9.178,9.154l-7.764,7.791a2,2,0,0,1-2.719.1l-.109-.1L2.821,13.295A6.5,6.5,0,0,1,3.161,4.469ZM4.575,5.883a4.5,4.5,0,0,0-.146,6.211l.146.153L12,19.671l5.3-5.3-3.535-3.535-1.061,1.061A3,3,0,0,1,8.464,7.651l2.1-2.1a4.5,4.5,0,0,0-5.837.188Zm8.485,2.828a1,1,0,0,1,1.414,0l4.242,4.242.708-.706a4.5,4.5,0,0,0-6.211-6.51l-.153.146L9.879,9.065A1,1,0,0,0,9.8,10.392l.078.087a1,1,0,0,0,1.327.078l.087-.078Z" transform="translate(-1.257 -2.565)" fill="#fafafa"/>
</svg>
