<svg xmlns="http://www.w3.org/2000/svg" width="26" height="20" viewBox="0 0 26 20">
  <g id="Group_5" data-name="Group 5" transform="translate(-1.25 -3.25)">
    <g id="Layer_2" data-name="Layer 2" transform="translate(1.25 3.25)">
      <path id="Path_10" data-name="Path 10" d="M11.9,21.811H5.813A4.568,4.568,0,0,1,1.25,17.247V16.03a5.786,5.786,0,0,1,5.78-5.78h3.651a5.786,5.786,0,0,1,5.78,5.78v1.217A4.568,4.568,0,0,1,11.9,21.811ZM7.03,12.075A3.96,3.96,0,0,0,3.075,16.03v1.217a2.74,2.74,0,0,0,2.738,2.738H11.9a2.74,2.74,0,0,0,2.738-2.738V16.03a3.96,3.96,0,0,0-3.955-3.955Z" transform="translate(-1.25 -1.811)" fill="#1976d2"/>
      <path id="Path_11" data-name="Path 11" d="M23.493,23.25H17.45a3.332,3.332,0,0,1-3.323-3.333V18.7a4.544,4.544,0,0,1,4.532-4.545h3.626A4.544,4.544,0,0,1,26.816,18.7v1.212a3.332,3.332,0,0,1-3.323,3.333Zm-4.834-7.273A2.727,2.727,0,0,0,15.939,18.7v1.212a1.514,1.514,0,0,0,1.511,1.515h6.043A1.514,1.514,0,0,0,25,19.917V18.7a2.727,2.727,0,0,0-2.719-2.727ZM8.386,13.553A5.152,5.152,0,1,1,13.522,8.4,5.144,5.144,0,0,1,8.386,13.553Zm0-8.485A3.333,3.333,0,1,0,11.71,8.4,3.328,3.328,0,0,0,8.386,5.068Z" transform="translate(-0.816 -3.25)" fill="#1976d2"/>
      <path id="Path_12" data-name="Path 12" d="M18.313,15.377a4.563,4.563,0,1,1,4.563-4.563A4.563,4.563,0,0,1,18.313,15.377Zm0-7.3a2.738,2.738,0,1,0,2.738,2.738,2.738,2.738,0,0,0-2.738-2.738Z" transform="translate(1.298 -2.626)" fill="#1976d2"/>
    </g>
  </g>
</svg>
