<svg xmlns="http://www.w3.org/2000/svg" width="20.667" height="13.778" viewBox="0 0 20.667 13.778">
  <g id="Group_8333" data-name="Group 8333" transform="translate(0 -4)">
    <path id="Path_58958" data-name="Path 58958" d="M5.223,8.7l.678,2.96H4.387l.7-2.96a.07.07,0,0,1,.136,0ZM20.667,6.583V17.778H0V6.583A2.583,2.583,0,0,1,2.583,4h15.5A2.586,2.586,0,0,1,20.667,6.583ZM7.75,14.333,6.408,8.474a1.276,1.276,0,0,0-2.5-.042l-1.392,5.9H3.758L4.1,12.869H6.178l.335,1.464Zm11.194-7.75a.862.862,0,0,0-.861-.861h-7.75V16.056h8.611Zm-3.766.861H14.1v.861H11.626V9.385h4.14a4.873,4.873,0,0,1-1.122,2.644,4.3,4.3,0,0,1-.729-1.141h-1.15a5.631,5.631,0,0,0,1.053,1.828,4.129,4.129,0,0,1-2.192.569v1.079a5.077,5.077,0,0,0,3.024-.907,5.042,5.042,0,0,0,3,.907V13.285a4.11,4.11,0,0,1-2.186-.573,6.013,6.013,0,0,0,1.384-3.329h.8V8.3H15.18V7.444Z" fill="#6fcfde"/>
  </g>
</svg>
