<svg xmlns="http://www.w3.org/2000/svg" xmlns:xlink="http://www.w3.org/1999/xlink" width="18" height="18" viewBox="0 0 18 18">
  <defs>
    <clipPath id="clip-path">
      <rect id="Rectangle_16105" data-name="Rectangle 16105" width="18" height="18" transform="translate(3592 1203)" fill="#fff" stroke="#707070" stroke-width="1"/>
    </clipPath>
    <clipPath id="clip-path-2">
      <path id="Path_88394" data-name="Path 88394" d="M0-18H16.077V-1.472H0Z" transform="translate(0 18)" fill="#90a4ae"/>
    </clipPath>
  </defs>
  <g id="Group_17006" data-name="Group 17006" transform="translate(-78 -1101)">
    <g id="Mask_Group_35" data-name="Mask Group 35" transform="translate(-3514 -102)" clip-path="url(#clip-path)">
      <g id="svgexport-7" transform="translate(3592 1203)">
        <g id="Group_17004" data-name="Group 17004" transform="translate(0 0.895)">
          <g id="Group_17003" data-name="Group 17003" transform="translate(0 0)" clip-path="url(#clip-path-2)">
            <path id="Path_88387" data-name="Path 88387" d="M2.5-3.586A3.252,3.252,0,0,1,5.7-.293,3.252,3.252,0,0,1,2.5,3,3.252,3.252,0,0,1-.7-.293,3.252,3.252,0,0,1,2.5-3.586Zm0,5.294a1.977,1.977,0,0,0,1.947-2,1.977,1.977,0,0,0-1.947-2,1.977,1.977,0,0,0-1.947,2A1.977,1.977,0,0,0,2.5,1.708Z" transform="translate(3.404 8.004)" fill="#90a4ae"/>
            <path id="Path_88388" data-name="Path 88388" d="M-.879.1H-6.343A1.85,1.85,0,0,1-7.865-.7a1.962,1.962,0,0,1-.271-1.734A6.13,6.13,0,0,1-2.337-6.7,5.835,5.835,0,0,1,1.082-5.6a.657.657,0,0,1,.156.9.617.617,0,0,1-.874.16,4.609,4.609,0,0,0-2.7-.871,4.858,4.858,0,0,0-4.6,3.37.654.654,0,0,0,.09.578.617.617,0,0,0,.508.265H-.879a.637.637,0,0,1,.628.646A.637.637,0,0,1-.879.1Z" transform="translate(8.227 16.43)" fill="#90a4ae"/>
            <path id="Path_88389" data-name="Path 88389" d="M2.5-3.586A3.252,3.252,0,0,1,5.7-.293,3.252,3.252,0,0,1,2.5,3,3.252,3.252,0,0,1-.7-.293,3.252,3.252,0,0,1,2.5-3.586Zm0,5.294a1.977,1.977,0,0,0,1.947-2,1.977,1.977,0,0,0-1.947-2,1.977,1.977,0,0,0-1.947,2A1.977,1.977,0,0,0,2.5,1.708Z" transform="translate(9.904 3.586)" fill="#90a4ae"/>
            <path id="Path_88390" data-name="Path 88390" d="M-.075.435A.617.617,0,0,1-.507.258.658.658,0,0,1-.531-.655a5.863,5.863,0,0,1,7.767-.823.657.657,0,0,1,.156.9.617.617,0,0,1-.874.16A4.632,4.632,0,0,0,.381.232.618.618,0,0,1-.075.435Z" transform="translate(8.573 7.894)" fill="#90a4ae"/>
          </g>
        </g>
      </g>
    </g>
    <g id="svgexport-7_1_" data-name="svgexport-7 (1)" transform="translate(86.812 1109.717)">
      <g id="Group_17005" data-name="Group 17005" transform="translate(2.668 3.042)">
        <path id="Path_88395" data-name="Path 88395" d="M11.327,8.053h-2.5a.357.357,0,0,1,0-.713h2.5a.357.357,0,0,1,0,.713Zm-4.992.361a.353.353,0,0,1-.252-.1l-.357-.357a.356.356,0,1,1,.5-.5l.1.1.818-.818a.356.356,0,0,1,.5.5L6.586,8.31A.357.357,0,0,1,6.334,8.414Zm4.992,2.967h-2.5a.357.357,0,0,1,0-.713h2.5a.357.357,0,0,1,0,.713Zm-4.992.361a.353.353,0,0,1-.252-.1l-.357-.357a.356.356,0,1,1,.5-.5l.1.1.818-.818a.356.356,0,0,1,.5.5l-1.07,1.07A.357.357,0,0,1,6.334,11.742Z" transform="translate(-5.393 -6.403)" fill="#90a4ae"/>
        <path id="Path_88395_-_Outline" data-name="Path 88395 - Outline" d="M7.434,6.432a.586.586,0,0,1,.414,1L6.778,8.5a.585.585,0,0,1-.828,0l-.357-.357a.586.586,0,0,1,.767-.882l.66-.66A.581.581,0,0,1,7.434,6.432ZM6.364,8.214a.126.126,0,0,0,.09-.037l1.07-1.07a.127.127,0,0,0-.18-.18l-.98.98L6.1,7.641a.129.129,0,0,0-.18,0,.129.129,0,0,0,0,.18l.357.357A.123.123,0,0,0,6.364,8.214ZM8.86,7.14h2.5a.586.586,0,0,1,0,1.172H8.86a.586.586,0,1,1,0-1.172Zm2.5.713a.127.127,0,0,0,0-.255H8.86a.127.127,0,1,0,0,.255ZM7.434,9.761a.586.586,0,0,1,.414,1l-1.07,1.07a.585.585,0,0,1-.828,0l-.357-.357a.586.586,0,0,1,.767-.882l.66-.66A.581.581,0,0,1,7.434,9.761Zm-1.07,1.782a.126.126,0,0,0,.09-.037l1.07-1.07a.127.127,0,0,0-.18-.18l-.98.98L6.1,10.969a.129.129,0,0,0-.18,0,.129.129,0,0,0,0,.18l.357.357A.123.123,0,0,0,6.364,11.542Zm2.5-1.075h2.5a.586.586,0,0,1,0,1.172H8.86a.586.586,0,1,1,0-1.172Zm2.5.713a.127.127,0,0,0,0-.255H8.86a.127.127,0,1,0,0,.255Z" transform="translate(-5.422 -6.432)" fill="#90a4ae"/>
      </g>
    </g>
  </g>
</svg>
