<svg xmlns="http://www.w3.org/2000/svg" width="18.26" height="13.259" viewBox="0 0 18.26 13.259">
  <g id="Group_16971" data-name="Group 16971" transform="translate(-48.74 -589.5)">
    <path id="Subtraction_8" data-name="Subtraction 8" d="M-3660.67,13.634h-.015A1.222,1.222,0,0,1-3662,12.583a.351.351,0,0,1,.351-.351.351.351,0,0,1,.351.351c0,.107.232.35.613.35h.031a.7.7,0,0,0,.53-.241.553.553,0,0,0-.047-.066,4.272,4.272,0,0,1-1.118-2.168,1.048,1.048,0,0,1,.692-1.184v-.9a1.4,1.4,0,0,1,1.4-1.4V6.62a1.4,1.4,0,0,1,1.4-1.4,1.4,1.4,0,0,1,1.4,1.4v.351a1.4,1.4,0,0,1,.538.107,2,2,0,0,0-.333.625.7.7,0,0,0-.2-.03h-2.806a.7.7,0,0,0-.7.7v.671l1.774-.579a1.058,1.058,0,0,1,.331-.053,1.058,1.058,0,0,1,.331.053l1.247.409a7.085,7.085,0,0,0,.225.812l-1.453-.477v3.373c0,.075.119.225.333.3a2.255,2.255,0,0,0,.69.691,1.517,1.517,0,0,1-.412.057,1.518,1.518,0,0,1-.961-.344,1.512,1.512,0,0,1-.959.344,1.509,1.509,0,0,1-.965-.35A1.483,1.483,0,0,1-3660.67,13.634Zm2.528-4.424-2.223.726a.358.358,0,0,0-.231.4,3.59,3.59,0,0,0,.944,1.814,1.8,1.8,0,0,1,.3.481.681.681,0,0,0,.563.3h.037c.375,0,.614-.23.614-.35V9.21Zm.351-3.291a.7.7,0,0,0-.7.7v.351h1.4V6.62A.7.7,0,0,0-3657.791,5.919Zm2.707,6.223h0a.717.717,0,0,1-.437-.223.918.918,0,0,0-.04-.217,3.563,3.563,0,0,0,.293-.515c.122.193.259.387.408.577-.072.126-.147.253-.224.376Z" transform="translate(3710.741 589.125)" fill="#90a4ae"/>
    <path id="ship" d="M12.707,11.049a.552.552,0,0,0-.552.552c0,.19-.377.552-.967.552a1.118,1.118,0,0,1-.88-.381,1.067,1.067,0,0,1,.071-.1,6.714,6.714,0,0,0,1.744-3.416A1.657,1.657,0,0,0,11.049,6.4V4.972a2.21,2.21,0,0,0-2.21-2.21V2.21a2.21,2.21,0,1,0-4.42,0v.552a2.21,2.21,0,0,0-2.21,2.21v1.42A1.657,1.657,0,0,0,1.12,8.256a6.734,6.734,0,0,0,1.761,3.416,1.09,1.09,0,0,1,.073.1,1.108,1.108,0,0,1-.883.378c-.6,0-.967-.383-.967-.552a.552.552,0,0,0-1.1,0,1.926,1.926,0,0,0,2.072,1.657A2.327,2.327,0,0,0,3.6,12.707a2.373,2.373,0,0,0,3.031.009,2.385,2.385,0,0,0,3.039-.009,2.325,2.325,0,0,0,1.517.552A1.927,1.927,0,0,0,13.259,11.6.552.552,0,0,0,12.707,11.049ZM5.525,2.21a1.1,1.1,0,0,1,2.21,0v.552H5.525ZM4.42,3.867H8.84a1.1,1.1,0,0,1,1.1,1.1V6.033L7.153,5.117a1.672,1.672,0,0,0-1.045,0l-2.794.912V4.972A1.1,1.1,0,0,1,4.42,3.867Zm.691,8.287a1.071,1.071,0,0,1-.945-.469,2.825,2.825,0,0,0-.468-.758A5.664,5.664,0,0,1,2.21,8.07a.562.562,0,0,1,.366-.637l3.5-1.144V11.6C6.077,11.792,5.7,12.154,5.11,12.154Zm3.039,0c-.6,0-.967-.383-.967-.552V6.289l3.483,1.143a.564.564,0,0,1,.368.638,5.635,5.635,0,0,1-1.471,2.857,2.757,2.757,0,0,0-.468.761,1.066,1.066,0,0,1-.945.466Z" transform="translate(53.741 589.5)" fill="#90a4ae"/>
  </g>
</svg>
