<svg xmlns="http://www.w3.org/2000/svg" width="17.289" height="17.289" viewBox="0 0 17.289 17.289">
  <path id="Path_58677" data-name="Path 58677" d="M5.329,3.272A3.5,3.5,0,0,1,9.584,8.234l10.709,10.71-1.414,1.414L8.169,9.649A3.5,3.5,0,0,1,3.207,5.393L5.443,7.63A1.5,1.5,0,1,0,7.565,5.509ZM15.7,5.155l3.182-1.768L20.292,4.8,18.525,7.984l-1.768.354-2.121,2.121L13.221,9.044l2.121-2.121ZM8.979,13.287,10.393,14.7,5.09,20A1,1,0,0,1,3.6,18.677l.078-.087Z" transform="translate(-3.004 -3.069)" fill="#fff"/>
</svg>
