<svg xmlns="http://www.w3.org/2000/svg" xmlns:xlink="http://www.w3.org/1999/xlink" width="70" height="70" viewBox="0 0 70 70">
  <defs>
    <linearGradient id="linear-gradient" x1="0.146" y1="0.854" x2="0.854" y2="0.146" gradientUnits="objectBoundingBox">
      <stop offset="0" stop-color="#5d99ca"/>
      <stop offset="1" stop-color="#7ed7de"/>
    </linearGradient>
    <linearGradient id="linear-gradient-2" x1="0.146" y1="0.854" x2="0.854" y2="0.146" gradientUnits="objectBoundingBox">
      <stop offset="0" stop-color="#fc8450"/>
      <stop offset="1" stop-color="#f0d160"/>
    </linearGradient>
  </defs>
  <g id="Maintenance" transform="translate(-348 -305)">
    <rect id="Rectangle_15612" data-name="Rectangle 15612" width="70" height="70" rx="6" transform="translate(348 305)" fill="#6551d4"/>
    <path id="Path_59311" data-name="Path 59311" d="M1850.346,172.872a14.113,14.113,0,0,1,4.368,2.457,7.054,7.054,0,0,1,1.911,3.549l11.481,20.216L1868,219.58s-.4,5.529-5.374,5.529h-22.7L1811.465,186.2l7.542-17.95s7.2,7.11,14.32,8.964a12.359,12.359,0,0,0,2.575.858c7.278.17,12.217-9.143,12.217-9.143Z" transform="translate(-1450.106 149.891)" fill="rgba(0,0,0,0.16)"/>
    <g id="Group_8997" data-name="Group 8997" transform="translate(352.404 310)">
      <path id="Path_59306" data-name="Path 59306" d="M30.49,16.821l-2.223-.445q-.108-.288-.235-.568l1.258-1.886A.734.734,0,0,0,29.2,13L26.084,9.882a.734.734,0,0,0-.926-.092l-1.886,1.258q-.28-.127-.568-.235L22.259,8.59A.734.734,0,0,0,21.54,8h-4.4a.734.734,0,0,0-.72.59l-.445,2.223q-.288.108-.568.235L13.518,9.791a.734.734,0,0,0-.926.092L9.478,13a.734.734,0,0,0-.092.926l1.258,1.886q-.127.28-.235.568l-2.223.445a.734.734,0,0,0-.59.72v4.4a.734.734,0,0,0,.59.72l2.223.445q.108.288.235.568L9.387,25.562a.734.734,0,0,0,.092.926L12.592,29.6a.734.734,0,0,0,.926.092L15.4,28.435q.279.126.568.235l.445,2.223a.734.734,0,0,0,.72.59h4.4a.734.734,0,0,0,.72-.59l.445-2.223q.288-.108.568-.235l1.886,1.258a.734.734,0,0,0,.926-.092L29.2,26.488a.734.734,0,0,0,.092-.926l-1.258-1.886q.126-.279.235-.568l2.223-.445a.734.734,0,0,0,.59-.72v-4.4a.734.734,0,0,0-.59-.72Zm-7.483,2.921a3.669,3.669,0,1,1-3.669-3.669A3.674,3.674,0,0,1,23.007,19.742Z" fill="url(#linear-gradient)"/>
      <path id="Path_59307" data-name="Path 59307" d="M70.2,64a6.6,6.6,0,1,0,6.6,6.6A6.6,6.6,0,0,0,70.2,64Zm0,10.274A3.669,3.669,0,1,1,73.869,70.6,3.674,3.674,0,0,1,70.2,74.274Z" transform="translate(-50.862 -50.863)" fill="#5d99ca"/>
      <path id="Path_59308" data-name="Path 59308" d="M198.9,256.821l-2.223-.445q-.108-.288-.235-.568l1.258-1.886A.734.734,0,0,0,197.6,253l-3.113-3.114a.734.734,0,0,0-.926-.092l-1.886,1.258q-.28-.127-.568-.235l-.445-2.223a.734.734,0,0,0-.72-.59h-4.4a.734.734,0,0,0-.72.59l-.445,2.223q-.288.108-.568.235l-1.886-1.258a.734.734,0,0,0-.926.092L177.884,253a.734.734,0,0,0-.092.926l1.258,1.886q-.127.28-.235.568l-2.223.445a.734.734,0,0,0-.59.72v4.4a.734.734,0,0,0,.59.72l2.223.445q.108.288.235.568l-1.258,1.886a.734.734,0,0,0,.092.926L181,269.6a.734.734,0,0,0,.926.092l1.886-1.258q.279.126.568.235l.445,2.223a.734.734,0,0,0,.72.59h4.4a.734.734,0,0,0,.72-.59l.445-2.223q.288-.108.568-.235l1.886,1.258a.734.734,0,0,0,.926-.092l3.113-3.114a.734.734,0,0,0,.092-.926l-1.258-1.886q.126-.279.235-.568l2.223-.445a.734.734,0,0,0,.59-.72v-4.4a.734.734,0,0,0-.59-.72Zm-7.483,2.921a3.669,3.669,0,1,1-3.669-3.669A3.674,3.674,0,0,1,191.413,259.742Z" transform="translate(-153.141 -218.484)" fill="url(#linear-gradient-2)"/>
      <path id="Path_59309" data-name="Path 59309" d="M238.6,304a6.6,6.6,0,1,0,6.6,6.6A6.6,6.6,0,0,0,238.6,304Zm0,10.274a3.669,3.669,0,1,1,3.669-3.669A3.674,3.674,0,0,1,238.6,314.274Z" transform="translate(-203.987 -269.347)" fill="#f0d160"/>
      <circle id="Ellipse_89" data-name="Ellipse 89" cx="10.274" cy="10.274" r="10.274" transform="translate(33.048 8.734)" fill="#595d84"/>
      <path id="Path_59310" data-name="Path 59310" d="M348.19,86.158a1.461,1.461,0,0,1-.754-.209l-3.669-2.2,1.51-2.517,2.507,1.5,2.882-4.034,2.389,1.706-3.669,5.137a1.467,1.467,0,0,1-1.2.615Z" transform="translate(-305.604 -64.214)" fill="#c1f1ea"/>
    </g>
  </g>
</svg>
