<svg width="40" height="40" viewBox="0 0 40 40" fill="none" xmlns="http://www.w3.org/2000/svg">
<path d="M19.217 36.6667H17.4503C10.797 36.6667 7.46865 36.6667 5.40032 34.7133C3.33365 32.7617 3.33365 29.6183 3.33365 23.3333V16.6667C3.33365 10.3817 3.33365 7.23834 5.40032 5.28667C7.46865 3.33334 10.797 3.33334 17.4503 3.33334H19.217C25.872 3.33334 29.1986 3.33334 31.267 5.28667C33.3336 7.23834 33.3336 10.3817 33.3336 16.6667V17.5M11.667 11.6667H25.0003M11.667 20H20.0003" stroke="white" stroke-width="2.5" stroke-linecap="round" stroke-linejoin="round"/>
<path d="M30.0003 36.6667V34.5233C29.0944 34.5297 28.2004 34.3161 27.3951 33.901C26.5899 33.4859 25.8974 32.8816 25.377 32.14M30.0003 34.5217C30.9063 34.528 31.8002 34.3145 32.6055 33.8994C33.4107 33.4842 34.1033 32.88 34.6236 32.1383M30.0003 23.8083C31.9286 23.8083 33.627 24.755 34.6236 26.1917C35.2309 27.0637 35.5564 28.1024 35.5564 29.165C35.5564 30.2276 35.2309 31.2647 34.6236 32.1367L36.667 33.45M25.377 26.195C25.8974 25.4534 26.5899 24.8491 27.3951 24.434C28.2004 24.0189 29.0944 23.8053 30.0003 23.8117V21.6667M36.667 24.8817L34.6236 26.195M23.3336 33.45L25.377 32.1367C24.7697 31.2647 24.4442 30.2276 24.4442 29.165C24.4442 28.1024 24.7697 27.0653 25.377 26.1933M23.3336 24.8833L25.377 26.1967" stroke="white" stroke-width="2.5" stroke-linecap="round" stroke-linejoin="round"/>
</svg>
