<svg xmlns="http://www.w3.org/2000/svg" xmlns:xlink="http://www.w3.org/1999/xlink" width="21" height="21" viewBox="0 0 21 21">
  <defs>
    <clipPath id="clip-path">
      <rect id="Rectangle_16064" data-name="Rectangle 16064" width="21" height="21" transform="translate(1141 3315)" fill="#fff" stroke="#707070" stroke-width="1"/>
    </clipPath>
  </defs>
  <g id="Mask_Group_11" data-name="Mask Group 11" transform="translate(-1141 -3315)" clip-path="url(#clip-path)">
    <g id="Search_results_for_Report_-_Flaticon-13_1_" data-name="Search results for Report - Flaticon-13 (1)" transform="translate(1141 3315)">
      <path id="Path_88337" data-name="Path 88337" d="M18.375,0H7A2.628,2.628,0,0,0,4.375,2.625V5.25H0V17.938A3.066,3.066,0,0,0,3.063,21H17.938A3.066,3.066,0,0,0,21,17.938V2.625A2.628,2.628,0,0,0,18.375,0Zm-14,17.938a1.313,1.313,0,0,1-2.625,0V7H4.375Zm14.875,0a1.314,1.314,0,0,1-1.312,1.313H5.829a3.051,3.051,0,0,0,.3-1.312V2.625A.876.876,0,0,1,7,1.75H18.375a.876.876,0,0,1,.875.875ZM13.125,5.25H17.5V7H13.125Zm-5.25,3.5H17.5V10.5H7.875Zm0,3.5H17.5V14H7.875Zm0,3.5H17.5V17.5H7.875ZM11.375,7h-3.5V3.5h3.5Z" fill="#247dd4"/>
    </g>
  </g>
</svg>
