<svg xmlns="http://www.w3.org/2000/svg" width="16.816" height="20.499" viewBox="0 0 16.816 20.499">
  <g id="svgexport-7_2_" data-name="svgexport-7 (2)" transform="translate(-46)">
    <path id="Path_88431" data-name="Path 88431" d="M55.609,9.634a2.432,2.432,0,0,1,.666-1.676,2.372,2.372,0,0,1,1.669-.75h.067a2.4,2.4,0,0,1,2.4,2.4v1.2h1.2V0H56.21a1.8,1.8,0,0,0-1.8,1.8v9.609h1.2Zm4.8-7.232V3.6h-4.8V2.4Zm-4.8,3.6V4.8h4.8v1.2Zm-2.4-4.2a1.8,1.8,0,0,0-1.2-1.7V11.411h1.2ZM50.8,8.408H47.2v-1.2h3.6v-1.2H47.2V4.8h3.6V3.6H47.2V2.4h3.6V0H46V10.81h4.8Z" fill="#90a4ae"/>
    <path id="Path_88432" data-name="Path 88432" d="M259.513,215.131l-2.782-.927v-3a1.2,1.2,0,0,0-1.2-1.2H255.5a1.217,1.217,0,0,0-1.167,1.226v5.712l-.056-.039-.64-.435a1.2,1.2,0,1,0-1.35,1.987l.64.435a4.579,4.579,0,0,1,1.594,1.888,3.686,3.686,0,0,0,1.014,1.319h4.2v-1.77a2.05,2.05,0,0,0,.6-1.45v-2.6A1.2,1.2,0,0,0,259.513,215.131Z" transform="translate(-197.519 -201.592)" fill="#17ace8"/>
  </g>
</svg>
