<svg xmlns="http://www.w3.org/2000/svg" width="18" height="18" viewBox="0 0 18 18">
  <g id="Group_16928" data-name="Group 16928" transform="translate(-2 -2)">
    <path id="Path_88304" data-name="Path 88304" d="M3.929,11.379H7.676A1.926,1.926,0,0,0,9.6,9.451V5.7A1.93,1.93,0,0,0,7.676,3.774H3.929A1.934,1.934,0,0,0,2,5.7V9.451A1.93,1.93,0,0,0,3.929,11.379ZM18.071,2H12.549a1.93,1.93,0,0,0-1.929,1.929V9.451a1.926,1.926,0,0,0,1.929,1.929h5.522A1.93,1.93,0,0,0,20,9.451V3.929A1.934,1.934,0,0,0,18.071,2ZM7.676,20A1.93,1.93,0,0,0,9.6,18.071V14.324a1.926,1.926,0,0,0-1.929-1.929H3.929A1.93,1.93,0,0,0,2,14.324v3.748A1.934,1.934,0,0,0,3.929,20Zm4.873,0H16.3a1.934,1.934,0,0,0,1.929-1.929V14.324A1.93,1.93,0,0,0,16.3,12.395H12.549a1.926,1.926,0,0,0-1.929,1.929v3.748A1.93,1.93,0,0,0,12.549,20Z" fill="#90a4ae"/>
    <path id="Path_88305" data-name="Path 88305" d="M18.071,2H12.549a1.93,1.93,0,0,0-1.929,1.929V9.451a1.926,1.926,0,0,0,1.929,1.929h5.522A1.93,1.93,0,0,0,20,9.451V3.929A1.934,1.934,0,0,0,18.071,2Z" fill="#17ace8"/>
  </g>
</svg>
