<svg xmlns="http://www.w3.org/2000/svg" xmlns:xlink="http://www.w3.org/1999/xlink" width="21" height="21" viewBox="0 0 21 21">
  <defs>
    <clipPath id="clip-path">
      <rect id="Rectangle_16062" data-name="Rectangle 16062" width="21" height="21" transform="translate(1533 3233)" fill="#fff" stroke="#707070" stroke-width="1"/>
    </clipPath>
  </defs>
  <g id="Mask_Group_10" data-name="Mask Group 10" transform="translate(-1533 -3233)" clip-path="url(#clip-path)">
    <g id="Search_results_for_Report_-_Flaticon-13" data-name="Search results for Report - Flaticon-13" transform="translate(1533.002 3233.005)">
      <path id="Path_88336" data-name="Path 88336" d="M13.123,11.588l4.374-.8v1.779l-4.374.8ZM3.5,12.572l4.374.8V11.588l-4.374-.8Zm0-3.5,4.374.8V8.089L3.5,7.294Zm9.623.8,4.374-.8V7.294l-4.374.8ZM3.5,5.572l4.374.8V4.589L3.5,3.793Zm9.623.8,4.374-.8V3.793l-4.374.8ZM3.5,16.07l2.625.477V14.768L3.5,14.292Zm9.623.8,2.625-.477V14.61l-2.625.477ZM21,2.62V19.086L10.5,20.995,0,19.086V2.62A2.626,2.626,0,0,1,3.094.038L8.5,1.021a3.492,3.492,0,0,1,2,1.128,3.492,3.492,0,0,1,2-1.128L17.9.038A2.624,2.624,0,0,1,21,2.619ZM9.623,4.463A1.749,1.749,0,0,0,8.187,2.742L2.781,1.758a.874.874,0,0,0-1.031.861V17.625l7.874,1.431ZM19.247,2.62a.874.874,0,0,0-1.031-.861l-5.406.983a1.748,1.748,0,0,0-1.437,1.722V19.058l7.874-1.431V2.62Z" fill="#247dd4"/>
    </g>
  </g>
</svg>
