<svg xmlns="http://www.w3.org/2000/svg" width="21" height="24" viewBox="0 0 21 24">
  <g id="Group_13" data-name="Group 13" transform="translate(-0.5)">
    <path id="Path_27" data-name="Path 27" d="M21.286,5.017,16.294.2a.723.723,0,0,0-.5-.2H3.171A2.651,2.651,0,0,0,.5,2.624V21.376A2.651,2.651,0,0,0,3.171,24H18.829A2.651,2.651,0,0,0,21.5,21.376V5.519a.7.7,0,0,0-.214-.5ZM16.508,2.379l2.526,2.436h-2.3a.226.226,0,0,1-.228-.224Zm2.321,20.214H3.171a1.23,1.23,0,0,1-1.239-1.217V2.624A1.23,1.23,0,0,1,3.171,1.406H15.076V4.592a1.647,1.647,0,0,0,1.659,1.63h3.333V21.376a1.23,1.23,0,0,1-1.239,1.217Zm0,0" transform="translate(0 0)" fill="#1976d2"/>
    <path id="Path_28" data-name="Path 28" d="M109.055,238H98.91a.711.711,0,1,0,0,1.422h10.146a.711.711,0,1,0,0-1.422ZM98.91,242.267h8.273a.711.711,0,1,0,0-1.422H98.91a.711.711,0,1,0,0,1.422Zm9.271,1.422H98.91a.711.711,0,1,0,0,1.422h9.271a.711.711,0,1,0,0-1.422Zm0,0" transform="translate(-93.058 -226.897)" fill="#1976d2"/>
  </g>
</svg>
