<svg xmlns="http://www.w3.org/2000/svg" width="19" height="24" viewBox="0 0 19 24">
  <g id="Group_12" data-name="Group 12" transform="translate(-53)">
    <path id="Path_25" data-name="Path 25" d="M69.894,1.315H67.258A3.776,3.776,0,0,0,64.4,0H60.6a3.776,3.776,0,0,0-2.863,1.315H55.106A2.112,2.112,0,0,0,53,3.429V21.887A2.112,2.112,0,0,0,55.106,24H69.894A2.112,2.112,0,0,0,72,21.886V3.429a2.112,2.112,0,0,0-2.106-2.114ZM60.6,1.409H64.4A2.394,2.394,0,0,1,66.677,3.1H58.323A2.394,2.394,0,0,1,60.6,1.409ZM70.6,21.886a.7.7,0,0,1-.7.7H55.106a.7.7,0,0,1-.7-.7V3.429a.7.7,0,0,1,.7-.7h1.865a3.8,3.8,0,0,0-.157,1.08.7.7,0,0,0,.7.7h9.968a.7.7,0,0,0,.7-.7,3.8,3.8,0,0,0-.157-1.08h1.865a.7.7,0,0,1,.7.7V21.887Z" transform="translate(0)" fill="#1976d2"/>
    <path id="Path_26" data-name="Path 26" d="M131.455,150.685l-1.021,1.053-.25-.258a.679.679,0,0,0-.982,0,.733.733,0,0,0,0,1.013l.74.764a.679.679,0,0,0,.982,0l1.512-1.56a.733.733,0,0,0,0-1.013A.679.679,0,0,0,131.455,150.685Zm8.558.57h-5.6a.717.717,0,0,0,0,1.433h5.6a.717.717,0,0,0,0-1.433Zm-8.558,3.537-1.021,1.053-.25-.258a.679.679,0,0,0-.982,0,.733.733,0,0,0,0,1.013l.74.764a.679.679,0,0,0,.982,0l1.512-1.56a.733.733,0,0,0,0-1.013A.679.679,0,0,0,131.455,154.792Zm8.558.57h-5.6a.717.717,0,0,0,0,1.433h5.6a.717.717,0,0,0,0-1.433Zm-3.813-7.421,2.147-2.216v.085a.694.694,0,1,0,1.388,0c0-2.026,0-1.838-.008-1.918a.7.7,0,0,0-.686-.613h-1.758a.717.717,0,0,0,0,1.433h.083l-1.656,1.709-2.1-2.168a.679.679,0,0,0-.982,0l-2.5,2.579a.733.733,0,0,0,0,1.013.679.679,0,0,0,.982,0l2.008-2.072,2.1,2.168A.679.679,0,0,0,136.2,147.941Z" transform="translate(-72.377 -136.855)" fill="#1976d2"/>
  </g>
</svg>
