<svg xmlns="http://www.w3.org/2000/svg" xmlns:xlink="http://www.w3.org/1999/xlink" width="21" height="21" viewBox="0 0 21 21">
  <defs>
    <clipPath id="clip-path">
      <rect id="Rectangle_16061" data-name="Rectangle 16061" width="21" height="21" transform="translate(1533 3307)" fill="#fff" stroke="#707070" stroke-width="1"/>
    </clipPath>
  </defs>
  <g id="Mask_Group_12" data-name="Mask Group 12" transform="translate(-1533 -3307)" clip-path="url(#clip-path)">
    <g id="Search_results_for_Location_-_Flaticon-13_1_" data-name="Search results for Location - Flaticon-13 (1)" transform="translate(1533.004 3306.999)">
      <path id="Path_88338" data-name="Path 88338" d="M20.941,14.733,10.5,21,.05,14.733,5,11.762,6.3,13.025,3.449,14.733,10.5,18.961l7.047-4.228L14.7,13.025l1.293-1.264,4.955,2.973ZM6.173,10.458a6.122,6.122,0,1,1,8.651-.006L10.5,14.686,6.173,10.459ZM7.4,9.215,10.5,12.239l3.1-3.031A4.373,4.373,0,1,0,7.4,9.214ZM10.5,8.738A2.624,2.624,0,1,0,7.871,6.114,2.624,2.624,0,0,0,10.5,8.738Z" fill="#247dd4"/>
    </g>
  </g>
</svg>
