<svg xmlns="http://www.w3.org/2000/svg" width="14.024" height="17.602" viewBox="0 0 14.024 17.602">
  <g id="Group_16986" data-name="Group 16986" transform="translate(-416.25 -744.25)">
    <path id="Path_88373" data-name="Path 88373" d="M18.473,8.223H14.895A1.646,1.646,0,0,1,13.25,6.578V3a.75.75,0,1,1,1.5,0V6.578a.145.145,0,0,0,.145.145h3.578a.75.75,0,0,1,0,1.5Z" transform="translate(411.051 742)" fill="#90a4ae"/>
    <path id="Path_88374" data-name="Path 88374" d="M15.735,19.852H6.789A2.542,2.542,0,0,1,4.25,17.313V4.789A2.542,2.542,0,0,1,6.789,2.25h6.262a.75.75,0,0,1,.53.22l4.473,4.473a.75.75,0,0,1,.22.53v9.84A2.542,2.542,0,0,1,15.735,19.852ZM6.789,3.75A1.04,1.04,0,0,0,5.75,4.789V17.313a1.04,1.04,0,0,0,1.039,1.039h8.946a1.04,1.04,0,0,0,1.039-1.039V7.783L12.74,3.75Z" transform="translate(412 742)" fill="#90a4ae"/>
    <path id="Path_88375" data-name="Path 88375" d="M9,17.223a.75.75,0,0,1-.75-.75V12a.75.75,0,0,1,1.5,0v4.473A.75.75,0,0,1,9,17.223Z" transform="translate(411.578 741.051)" fill="#90a4ae"/>
    <path id="Path_88376" data-name="Path 88376" d="M12,17.645a.75.75,0,0,1-.75-.75V16a.75.75,0,0,1,1.5,0v.895A.75.75,0,0,1,12,17.645Z" transform="translate(411.262 740.629)" fill="#90a4ae"/>
    <path id="Path_88377" data-name="Path 88377" d="M15,17.434a.75.75,0,0,1-.75-.75V14a.75.75,0,0,1,1.5,0v2.684A.75.75,0,0,1,15,17.434Z" transform="translate(410.946 740.84)" fill="#90a4ae"/>
  </g>
</svg>
