<svg width="34" height="36" viewBox="0 0 34 36" fill="none" xmlns="http://www.w3.org/2000/svg">
<path d="M31.905 26.0582C30.9915 20.6057 28.3809 15.5805 24.445 11.6982C23.5833 10.8598 23.1533 10.4415 22.2016 10.0548C21.25 9.6665 20.4316 9.6665 18.7966 9.6665H15.2033C13.5683 9.6665 12.75 9.6665 11.7983 10.0548C10.8483 10.4415 10.415 10.8598 9.55497 11.6982C5.61906 15.5805 3.00847 20.6057 2.09497 26.0582C1.2833 30.9548 5.79997 34.6665 10.8466 34.6665H23.1533C28.2016 34.6665 32.72 30.9548 31.9033 26.0582" stroke="white" stroke-width="2.5" stroke-linecap="round" stroke-linejoin="round"/>
<path d="M19.7113 19.5315C19.3513 18.1999 17.5163 16.9999 15.3147 17.8982C13.113 18.7965 12.7647 21.6849 16.093 21.9932C17.5997 22.1315 18.5797 21.8315 19.478 22.6799C20.378 23.5265 20.5447 25.8849 18.2463 26.5199C15.9513 27.1549 13.6763 26.1632 13.4297 24.7532M16.7363 16.3199V17.5882M16.7363 26.7149V27.9882M9.09465 5.40486C8.74965 4.90486 8.25132 4.22486 9.28132 4.07152C10.3397 3.91152 11.438 4.63486 12.5147 4.62152C13.4863 4.60652 13.9813 4.17486 14.5147 3.55819C15.0747 2.90986 15.9413 1.33319 16.9997 1.33319C18.058 1.33319 18.9247 2.90986 19.4847 3.55819C20.018 4.17486 20.513 4.60819 21.4847 4.61986C22.5613 4.63652 23.6597 3.91152 24.718 4.06986C25.748 4.22486 25.2497 4.90319 24.9047 5.40319L23.3513 7.66819C22.6847 8.63486 22.353 9.11819 21.6563 9.39319C20.9597 9.66819 20.0613 9.66652 18.263 9.66652H15.7363C13.9363 9.66652 13.038 9.66652 12.343 9.39319C11.648 9.11986 11.3147 8.63319 10.648 7.66652L9.09465 5.40486Z" stroke="white" stroke-width="2.5" stroke-linecap="round" stroke-linejoin="round"/>
</svg>
