<svg id="svgexport-18_4_" data-name="svgexport-18 (4)" xmlns="http://www.w3.org/2000/svg" width="17.032" height="17.032" viewBox="0 0 17.032 17.032">
  <path id="Path_88456" data-name="Path 88456" d="M3.689,0a.5.5,0,0,0-.353.146L.155,3.328A.5.5,0,0,0,0,3.689H3.689Z" transform="translate(0)" fill="#90a4ae"/>
  <path id="Path_88457" data-name="Path 88457" d="M9.868,13.741a1.5,1.5,0,0,1-1.481-.374L7.193,12.177a1.5,1.5,0,0,1-.378-1.5,1.5,1.5,0,0,1-.794-1.322V7.673A1.5,1.5,0,0,1,6.8,6.359a1.5,1.5,0,0,1,.375-1.481L8.365,3.683a1.493,1.493,0,0,1,1.5-.377,1.5,1.5,0,0,1,1.323-.795h1.342V.5a.5.5,0,0,0-.5-.5H4.687V4.188a.5.5,0,0,1-.5.5H0V16.533a.5.5,0,0,0,.5.5H12.026a.5.5,0,0,0,.5-.5V14.521H11.183A1.5,1.5,0,0,1,9.868,13.741Zm-5.324.926H1.516a.5.5,0,0,1,0-1H4.544a.5.5,0,0,1,0,1Zm0-2H1.516a.5.5,0,0,1,0-1H4.544a.5.5,0,0,1,0,1Zm0-2H1.516a.5.5,0,1,1,0-1H4.544a.5.5,0,1,1,0,1Zm0-2H1.516a.5.5,0,0,1,0-1H4.544a.5.5,0,0,1,0,1Zm0-2H1.516a.5.5,0,0,1,0-1H4.544a.5.5,0,0,1,0,1Z" transform="translate(0)" fill="#90a4ae"/>
  <path id="Path_88458" data-name="Path 88458" d="M220.569,109.168l-1.058-.117.663-.832a.5.5,0,0,0-.038-.665l-1.195-1.19a.5.5,0,0,0-.665-.035l-.816.656-.115-1.04a.5.5,0,0,0-.5-.444h-1.686a.5.5,0,0,0-.5.444L214.55,107l-.832-.663a.5.5,0,0,0-.665.038l-1.19,1.195a.5.5,0,0,0-.035.665l.656.816-1.04.115a.5.5,0,0,0-.444.5v1.686a.5.5,0,0,0,.444.5l1.058.117-.663.832a.5.5,0,0,0,.038.665l1.195,1.19a.5.5,0,0,0,.665.035l.816-.656.115,1.04a.5.5,0,0,0,.5.444h1.686a.5.5,0,0,0,.5-.444l.117-1.058.832.663a.5.5,0,0,0,.665-.038l1.19-1.195a.5.5,0,0,0,.035-.665l-.656-.816,1.04-.115a.5.5,0,0,0,.444-.5v-1.686A.5.5,0,0,0,220.569,109.168Zm-4.562,3.215a1.876,1.876,0,1,1,1.876-1.876A1.878,1.878,0,0,1,216.007,112.382Z" transform="translate(-203.981 -101.99)" fill="#17ace8"/>
</svg>
