<svg xmlns="http://www.w3.org/2000/svg" width="24.276" height="25.532" viewBox="0 0 24.276 25.532">
  <g id="Group_27" data-name="Group 27" transform="translate(-12.597)">
    <path id="Path_56" data-name="Path 56" d="M82.878,101.329h7.187a.748.748,0,1,0,0-1.5H82.878a.748.748,0,1,0,0,1.5Zm0-2.992h7.187a.748.748,0,0,0,0-1.5H82.878a.748.748,0,0,0,0,1.5Zm0-2.992h10.18a.748.748,0,0,0,0-1.5H82.878a.748.748,0,0,0,0,1.5Zm0,8.956h7.187a.748.748,0,0,0,0-1.5H82.878a.748.748,0,1,0,0,1.5Zm0,2.494h7.187a.748.748,0,1,0,0-1.5H82.878a.748.748,0,1,0,0,1.5Zm10.18,1.5H82.878a.748.748,0,1,0,0,1.5h10.18a.748.748,0,0,0,0-1.5Z" transform="translate(-66.066 -89.168)" fill="#257dd4"/>
    <path id="Path_57" data-name="Path 57" d="M36.852,8.855a.748.748,0,0,0-.748-.742h-.018a1.693,1.693,0,0,1-1.527-.97.748.748,0,0,0-.677-.43h-.006l-1.548.012V1.247A1.248,1.248,0,0,0,31.082,0H13.844A1.248,1.248,0,0,0,12.6,1.247V24.286a1.248,1.248,0,0,0,1.247,1.247H31.082a1.248,1.248,0,0,0,1.247-1.247V18.519l1-.6a7.323,7.323,0,0,0,3.54-6.308ZM14.093,24.036V1.5H30.832V6.735l-1.639.012a.748.748,0,0,0-.676.44,1.693,1.693,0,0,1-1.525.993.748.748,0,0,0-.742.754l.021,2.754a7.323,7.323,0,0,0,3.635,6.254l.927.537v5.557Zm18.47-7.4-.949.57-.958-.555a5.82,5.82,0,0,1-2.889-4.972l-.016-2.1A3.2,3.2,0,0,0,29.64,8.24l3.812-.029a3.2,3.2,0,0,0,1.909,1.312l.016,2.1a5.82,5.82,0,0,1-2.814,5.014Z" fill="#257dd4"/>
    <path id="Path_58" data-name="Path 58" d="M354.933,213.2l-1.547,1.571-.505-.5a.748.748,0,1,0-1.05,1.066l1.038,1.023a.748.748,0,0,0,1.058-.008l2.072-2.1a.748.748,0,1,0-1.066-1.05Z" transform="translate(-322.105 -202.36)" fill="#257dd4"/>
  </g>
</svg>
