<svg width="40" height="40" viewBox="0 0 40 40" fill="none" xmlns="http://www.w3.org/2000/svg">
<path d="M19.9997 34.6431H4.99971C4.05251 34.6431 3.1441 34.2669 2.47433 33.5971C1.80456 32.9273 1.42828 32.0189 1.42828 31.0717V9.64314C1.42828 8.69594 1.80456 7.78753 2.47433 7.11776C3.1441 6.44799 4.05251 6.07171 4.99971 6.07171H30.714C31.6612 6.07171 32.5696 6.44799 33.2394 7.11776C33.9092 7.78753 34.2854 8.69594 34.2854 9.64314V20.107M27.1426 2.50028V9.64314M8.57114 2.50028V9.64314M1.42828 16.786H34.2854M32.5015 34.6431C31.5543 34.6431 30.6459 34.2669 29.9761 33.5971C29.3063 32.9273 28.9301 32.0189 28.9301 31.0717C28.9301 30.1245 29.3063 29.2161 29.9761 28.5463C30.6459 27.8766 31.5543 27.5003 32.5015 27.5003M32.5015 34.6431C33.4487 34.6431 34.3571 34.2669 35.0269 33.5971C35.6967 32.9273 36.0729 32.0189 36.0729 31.0717C36.0729 30.1245 35.6967 29.2161 35.0269 28.5463C34.3571 27.8766 33.4487 27.5003 32.5015 27.5003M32.5015 34.6431V37.3217M32.5015 27.5003V24.8217M37.914 27.9467L35.5944 29.286M29.4104 32.8574L27.089 34.1967M27.089 27.9467L29.4104 29.286M35.5944 32.8574L37.9158 34.1967" stroke="white" stroke-width="2.85714" stroke-linecap="round" stroke-linejoin="round"/>
</svg>
