<svg xmlns="http://www.w3.org/2000/svg" xmlns:xlink="http://www.w3.org/1999/xlink" width="21" height="21" viewBox="0 0 21 21">
  <defs>
    <clipPath id="clip-path">
      <rect id="Rectangle_16065" data-name="Rectangle 16065" width="21" height="21" transform="translate(1141 3241)" fill="#fff" stroke="#707070" stroke-width="1"/>
    </clipPath>
  </defs>
  <g id="Mask_Group_8" data-name="Mask Group 8" transform="translate(-1141 -3241)" clip-path="url(#clip-path)">
    <g id="Search_results_for_Ship_port_-_Flaticon-12" data-name="Search results for Ship port - Flaticon-12" transform="translate(1139.5 3239.5)">
      <path id="Layer_21" data-name="Layer 21" d="M22.125,18a4.613,4.613,0,0,0-.78.064l1.125-3.7a.375.375,0,0,0-.21-.454l-1.3-.57-1.084-4.8A.375.375,0,0,0,19.5,8.25H18.375V7.125A.375.375,0,0,0,18,6.75h-.75V4.875a.375.375,0,0,0-.375-.375h-1.5A.375.375,0,0,0,15,4.875V6.75h-.75a.375.375,0,0,0-.375.375V8.25H12.75a.375.375,0,0,0-.375.289l-1.125,4.8-1.275.57a.375.375,0,0,0-.225.454l1.32,4.286a4.369,4.369,0,0,1-.623-.236A3.967,3.967,0,0,0,8.625,18H8.25V15.75h.375A.375.375,0,0,0,9,15.375v-1.5a.375.375,0,0,0-.375-.375H1.875a.375.375,0,0,0,0,.75H8.25V15H1.875a.375.375,0,0,0,0,.75H7.5v2.389a4.567,4.567,0,0,0-.716.27,3.221,3.221,0,0,1-1.534.341,3.225,3.225,0,0,1-1.537-.341A3.949,3.949,0,0,0,1.875,18a.375.375,0,1,0,0,.75,3.2,3.2,0,0,1,1.534.341A3.967,3.967,0,0,0,5.25,19.5a3.964,3.964,0,0,0,1.837-.409,3.21,3.21,0,0,1,1.538-.341,3.225,3.225,0,0,1,1.538.341A3.949,3.949,0,0,0,12,19.5a3.967,3.967,0,0,0,1.841-.409,3.2,3.2,0,0,1,1.534-.341,3.225,3.225,0,0,1,1.537.341,4.343,4.343,0,0,0,3.679,0,3.225,3.225,0,0,1,1.534-.341.375.375,0,0,0,0-.75ZM15.75,5.25h.75v1.5h-.75ZM14.625,7.5h3v.75h-3ZM13.05,9H19.2l.915,3.96-.724-.315-.653-2.625a.375.375,0,0,0-.364-.27h-4.5a.375.375,0,0,0-.375.285l-.653,2.625-.724.315Zm.675,3.266.443-1.766h.458v1.372Zm1.65-1.766h1.5v1.043l-.6-.263a.375.375,0,0,0-.3,0l-.6.263Zm2.25,0h.458l.443,1.766-.9-.394Zm-1.5,1.534,5.542,2.426-.233.75-5.171-2.059a.375.375,0,0,0-.278,0l-5.171,2.07-.233-.75Zm-2.591,6.375A3.225,3.225,0,0,1,12,18.75h-.094l-.866-2.805,4.714-1.875V18h-.375a3.949,3.949,0,0,0-1.845.409Zm5.216.341a3.214,3.214,0,0,1-1.537-.341,4.916,4.916,0,0,0-.713-.27V14.055l4.714,1.875-.75,2.381-.195.086A3.2,3.2,0,0,1,18.75,18.75Z" fill="#247dd4"/>
    </g>
  </g>
</svg>
