<svg width="40" height="40" viewBox="0 0 40 40" fill="none" xmlns="http://www.w3.org/2000/svg">
<path d="M19.6339 27.8855C18.8464 28.673 17.5 28.1152 17.5 27.0016V18.2811L5 12.0311V26.0618C5 27.997 6.09184 29.7665 7.8214 30.6345L14.7382 34.1056C15.2571 34.366 15.5274 34.9505 15.3897 35.5146C15.2001 36.2914 14.3382 36.691 13.6229 36.3338L4.84395 31.9512C3.40758 31.2342 2.5 29.7667 2.5 28.1613V12.3121C2.5 10.4165 3.57195 8.68391 5.26824 7.83781L17.3422 1.81531C18.2287 1.37317 19.2713 1.37317 20.1578 1.81531L32.8739 8.1581C34.1767 8.80794 35 10.1386 35 11.5945V13.6155C35 14.1202 34.6121 14.5454 34.1262 14.6819C33.3636 14.8962 32.5 14.3739 32.5 13.5818V12.0311L20 18.2811V27.0016C20 27.3331 19.8683 27.6511 19.6339 27.8855ZM14.7266 5.89828L26.1328 12.4217L30.957 9.99985L18.75 3.88657L14.7266 5.89828ZM18.75 16.1131L23.4375 13.7694L12.0312 7.24594L6.54297 9.99985L18.75 16.1131ZM36.0938 17.4998C36.6406 17.4998 37.1484 17.5975 37.6172 17.7928C38.0859 17.9881 38.5026 18.2551 38.8672 18.5936C39.2318 18.9321 39.5052 19.3423 39.6875 19.8241C39.8698 20.3058 39.974 20.8202 40 21.367C40 21.8748 39.9023 22.3696 39.707 22.8514C39.5117 23.3332 39.2318 23.7564 38.8672 24.1209L25.4516 37.5366C25.0666 37.9215 24.5842 38.1944 24.056 38.3261L19.1149 39.5581C18.3829 39.7406 17.7201 39.0779 17.9026 38.3459L19.1344 33.4058C19.2663 32.877 19.5397 32.394 19.9254 32.0088L33.3398 18.6131C33.7174 18.2355 34.1406 17.9556 34.6094 17.7733C35.0781 17.591 35.5729 17.4998 36.0938 17.4998ZM37.0898 22.3631C37.3633 22.0897 37.5 21.7577 37.5 21.367C37.5 20.9634 37.3698 20.6379 37.1094 20.3905C36.849 20.1431 36.5104 20.0129 36.0938 19.9998C35.9115 19.9998 35.7357 20.0259 35.5664 20.078C35.3971 20.1301 35.2474 20.2277 35.1172 20.3709L22.5775 32.9106C21.9388 33.5493 21.4851 34.3491 21.2645 35.225L20.9375 36.5233L22.2377 36.1958C23.1124 35.9755 23.9112 35.5227 24.5495 34.8853L37.0898 22.3631Z" fill="white"/>
</svg>
