<svg id="Group_15" data-name="Group 15" xmlns="http://www.w3.org/2000/svg" width="24.003" height="24.003" viewBox="0 0 24.003 24.003">
  <path id="Path_31" data-name="Path 31" d="M23.561,19.834a15.5,15.5,0,0,0-3.775-.97v-3.3a2.843,2.843,0,0,1,.743-1.947,3.894,3.894,0,0,0-2.2-6.482c-.026-2.248.1-2.405-.206-2.709L13.9.205a.708.708,0,0,0-.5-.205H.7A.7.7,0,0,0,0,.7V23.3a.7.7,0,0,0,.7.7H23.3a.7.7,0,0,0,.7-.7V20.487a.7.7,0,0,0-.442-.653Zm-6.588-1.091v-1.3H18.38v1.3q-.7-.03-1.406,0ZM19.5,12.659a4.523,4.523,0,0,0-1.119,3.374H16.973a4.516,4.516,0,0,0-1.134-3.39,2.485,2.485,0,1,1,3.659.016ZM14.111,2.4l1.818,1.818H14.111Zm-12.7-.994H12.7V4.922a.7.7,0,0,0,.7.7h3.516V7.152A3.9,3.9,0,0,0,14.8,13.59a2.864,2.864,0,0,1,.767,1.924v3.349a15.5,15.5,0,0,0-3.775.97.7.7,0,0,0-.442.653V22.6H1.406ZM22.6,22.6h-9.84V20.972a14.827,14.827,0,0,1,9.84,0Z" fill="#3285d6"/>
  <path id="Path_32" data-name="Path 32" d="M67.2,131.493l.375-.375a.7.7,0,0,0-.994-.995l-.376.376a3.514,3.514,0,0,0-4.869,4.869l-.391.391a.7.7,0,0,0,.994.994l.39-.39a3.514,3.514,0,0,0,4.871-4.871Zm-2.024.036-2.811,2.811A2.112,2.112,0,0,1,65.178,131.528Zm-1.818,3.807,2.814-2.814A2.112,2.112,0,0,1,63.36,135.335Zm-1.9-12.427h7.032a.7.7,0,0,0,0-1.406H61.459a.7.7,0,1,0,0,1.406Zm0,2.953H69.9a.7.7,0,0,0,0-1.406H61.459a.7.7,0,1,0,0,1.406Zm0,2.649h8.436a.7.7,0,0,0,0-1.406H61.457a.7.7,0,0,0,0,1.406Z" transform="translate(-57.894 -115.806)" fill="#3285d6"/>
</svg>
