<svg id="Group_8332" data-name="Group 8332" xmlns="http://www.w3.org/2000/svg" width="19" height="19" viewBox="0 0 19 19">
  <path id="Path_58957" data-name="Path 58957" d="M4.354,5.542A2.771,2.771,0,1,0,1.583,2.771,2.774,2.774,0,0,0,4.354,5.542Zm0-3.958A1.188,1.188,0,1,1,3.167,2.771,1.189,1.189,0,0,1,4.354,1.583Zm-.4,6.333a2.378,2.378,0,0,0-2.375,2.375.792.792,0,1,1-1.583,0A3.963,3.963,0,0,1,3.958,6.333a.792.792,0,0,1,0,1.583ZM9.5,13.458a.792.792,0,0,1-.792.792H7.917a2.378,2.378,0,0,0-2.375,2.375.792.792,0,1,1-1.583,0,3.963,3.963,0,0,1,3.958-3.958h.792A.792.792,0,0,1,9.5,13.458Zm2.771-7.917A2.771,2.771,0,1,0,9.5,2.771,2.774,2.774,0,0,0,12.271,5.542Zm0-3.958a1.188,1.188,0,1,1-1.187,1.188A1.189,1.189,0,0,1,12.271,1.583Zm.4,4.75A3.974,3.974,0,0,1,16.1,8.312a.792.792,0,1,1-1.371.793,2.383,2.383,0,0,0-2.058-1.188.792.792,0,1,1,0-1.583ZM19,15.042a.792.792,0,0,1-.792.792H15.833v2.375a.792.792,0,0,1-1.583,0V15.833H11.875a.792.792,0,0,1,0-1.583H14.25V11.875a.792.792,0,0,1,1.583,0V14.25h2.375A.792.792,0,0,1,19,15.042ZM8.313,6.333A2.771,2.771,0,1,0,11.083,9.1,2.774,2.774,0,0,0,8.313,6.333Zm0,3.958A1.188,1.188,0,1,1,9.5,9.1,1.189,1.189,0,0,1,8.313,10.292Z" fill="#cdb03d"/>
</svg>
