<svg xmlns="http://www.w3.org/2000/svg" width="17.823" height="18.003" viewBox="0 0 17.823 18.003">
  <g id="Group_16983" data-name="Group 16983" transform="translate(-79 -620)">
    <path id="Subtraction_9" data-name="Subtraction 9" d="M-3650.868,9.351a1.81,1.81,0,0,1-1.443-.733c-.059-.066-.111-.124-.159-.168V0l1.868.8a1.993,1.993,0,0,0-.732,1.547v.884a.526.526,0,0,0-.082.282.526.526,0,0,0,.082.282V7.635a2,2,0,0,0,.893,1.666A1.841,1.841,0,0,1-3650.868,9.351Zm-4.219,0a1.763,1.763,0,0,1-1.487-.8.744.744,0,0,0-.617-.308.744.744,0,0,0-.617.308,1.762,1.762,0,0,1-1.445.8h-.053a1.843,1.843,0,0,1-1.522-.8.768.768,0,0,0-.6-.327h-.028a.561.561,0,0,1-.538-.517.507.507,0,0,1,.135-.367.54.54,0,0,1,.381-.17,1.812,1.812,0,0,1,1.53.8.788.788,0,0,0,.383.264l-1.354-4.57a.529.529,0,0,1,.295-.633l7.1-3.029V8.5A1.9,1.9,0,0,1-3655.087,9.351Zm-.021-6.364a.528.528,0,0,0-.528.528.528.528,0,0,0,.528.528.528.528,0,0,0,.528-.528A.528.528,0,0,0-3655.109,2.987Z" transform="translate(3741 628.652)" fill="#90a4ae"/>
    <path id="Path_88370" data-name="Path 88370" d="M11.826,0H9.717a.527.527,0,0,0-.527.527V2.145H7.607a.527.527,0,0,0-.527.527V4.255h7.384V2.672a.527.527,0,0,0-.527-.527H12.353V.527A.527.527,0,0,0,11.826,0Zm0,0" transform="translate(77.23 620)" fill="#90a4ae"/>
    <path id="Subtraction_10" data-name="Subtraction 10" d="M-3662,4.486V.531a.529.529,0,0,1,.526-.531h10.51a.529.529,0,0,1,.526.531V3.7h-1.811l-3.348-1.449a1.558,1.558,0,0,0-.622-.129,1.548,1.548,0,0,0-.621.129L-3662,4.485Z" transform="translate(3744.221 625.298)" fill="#90a4ae"/>
    <path id="document-signed" d="M7.567.105a1.745,1.745,0,0,1,.66.409l.582.582a1.74,1.74,0,0,1,.409.66H7.567ZM9.323,2.459V6.675A1.759,1.759,0,0,1,7.567,8.431H4.756A1.759,1.759,0,0,1,3,6.675V1.756A1.759,1.759,0,0,1,4.756,0H6.864V1.756a.7.7,0,0,0,.7.7ZM7.851,6.117a.351.351,0,0,0-.492-.078,1.611,1.611,0,0,1-.8.284.473.473,0,0,1-.3-.121,1.063,1.063,0,0,0-.644-.23,2.059,2.059,0,0,0-1.07.424.351.351,0,1,0,.426.558,1.388,1.388,0,0,1,.644-.279c.086,0,.13.027.246.105a1.142,1.142,0,0,0,.7.246,2.271,2.271,0,0,0,1.214-.419.351.351,0,0,0,.075-.49Zm.067-1.2a.351.351,0,0,0-.351-.351H4.756a.351.351,0,1,0,0,.7h2.81A.351.351,0,0,0,7.918,4.918Zm0-1.405a.351.351,0,0,0-.351-.351H4.756a.351.351,0,0,0,0,.7h2.81A.351.351,0,0,0,7.918,3.513Z" transform="translate(87.5 629.5)" fill="#17ace8"/>
  </g>
</svg>
