<svg width="40" height="40" viewBox="0 0 40 40" fill="none" xmlns="http://www.w3.org/2000/svg">
<path d="M18.75 26.2498C18.75 25.5595 19.3096 24.9998 20 24.9998C20.6904 24.9998 21.25 25.5595 21.25 26.2498V28.7498C21.25 29.4402 20.6904 29.9998 20 29.9998C19.3096 29.9998 18.75 29.4402 18.75 28.7498V26.2498ZM25 23.7498C25 23.0595 25.5596 22.4998 26.25 22.4998C26.9404 22.4998 27.5 23.0595 27.5 23.7498V28.7498C27.5 29.4402 26.9404 29.9998 26.25 29.9998C25.5596 29.9998 25 29.4402 25 28.7498V23.7498ZM12.5 18.7498C12.5 18.0595 13.0596 17.4998 13.75 17.4998C14.4404 17.4998 15 18.0595 15 18.7498V28.7498C15 29.4402 14.4404 29.9998 13.75 29.9998C13.0596 29.9998 12.5 29.4402 12.5 28.7498V18.7498Z" fill="white"/>
<path d="M31.25 6.24983H27.5V4.99983C27.5 4.33679 27.2366 3.70091 26.7678 3.23207C26.2989 2.76322 25.663 2.49983 25 2.49983H15C14.337 2.49983 13.7011 2.76322 13.2322 3.23207C12.7634 3.70091 12.5 4.33679 12.5 4.99983V6.24983H8.75C8.08696 6.24983 7.45107 6.51322 6.98223 6.98207C6.51339 7.45091 6.25 8.08679 6.25 8.74983V34.9998C6.25 35.6629 6.51339 36.2988 6.98223 36.7676C7.45107 37.2364 8.08696 37.4998 8.75 37.4998H31.25C31.913 37.4998 32.5489 37.2364 33.0178 36.7676C33.4866 36.2988 33.75 35.6629 33.75 34.9998V8.74983C33.75 8.08679 33.4866 7.45091 33.0178 6.98207C32.5489 6.51322 31.913 6.24983 31.25 6.24983ZM15 4.99983H25V9.99983H15V4.99983ZM31.25 34.9998H8.75V8.74983H12.5V10.4998C12.5 11.6044 13.3954 12.4998 14.5 12.4998H25.5C26.6046 12.4998 27.5 11.6044 27.5 10.4998V8.74983H31.25V34.9998Z" fill="white"/>
</svg>
