<svg xmlns="http://www.w3.org/2000/svg" width="14.308" height="18" viewBox="0 0 14.308 18">
  <g id="Group_16992" data-name="Group 16992" transform="translate(-372.25 -862.25)">
    <path id="Path_88374" data-name="Path 88374" d="M18.558,8.25H14.865A1.617,1.617,0,0,1,13.25,6.635V2.942a.692.692,0,0,1,1.385,0V6.635a.231.231,0,0,0,.231.231h3.692a.692.692,0,1,1,0,1.385Z" transform="translate(367.308 860)" fill="#90a4ae"/>
    <path id="Path_88375" data-name="Path 88375" d="M16.019,20.25H6.788A2.541,2.541,0,0,1,4.25,17.712V4.788A2.541,2.541,0,0,1,6.788,2.25H13.25a.692.692,0,0,1,.49.2l4.615,4.615a.692.692,0,0,1,.2.49V17.712A2.541,2.541,0,0,1,16.019,20.25ZM6.788,3.635A1.155,1.155,0,0,0,5.635,4.788V17.712a1.155,1.155,0,0,0,1.154,1.154h9.231a1.155,1.155,0,0,0,1.154-1.154V7.844l-4.21-4.21Z" transform="translate(368 860)" fill="#90a4ae"/>
    <path id="Path_88376" data-name="Path 88376" d="M14.481,17.635H8.942a.692.692,0,1,1,0-1.385h5.538a.692.692,0,1,1,0,1.385Z" transform="translate(367.692 858.923)" fill="#90a4ae"/>
    <path id="Path_88377" data-name="Path 88377" d="M14.481,13.635H8.942a.692.692,0,1,1,0-1.385h5.538a.692.692,0,0,1,0,1.385Z" transform="translate(367.462 859.231)" fill="#90a4ae"/>
    <g id="Group_16991" data-name="Group 16991" transform="translate(375.712 865.784)">
      <path id="Path_88375-2" data-name="Path 88375" d="M8.02,2A1.02,1.02,0,1,1,7,3.02V2.976A1.02,1.02,0,0,1,8.02,2Z" transform="translate(-6.592 -2)" fill="#90a4ae"/>
      <path id="Path_88375_-_Outline" data-name="Path 88375 - Outline" d="M8.02,2A1.02,1.02,0,1,1,7,3.02V2.976A1.02,1.02,0,0,1,8.02,2Zm0,0A1.02,1.02,0,0,0,7,2.976V3.02A1.02,1.02,0,1,0,8.02,2Z" transform="translate(-6.592 -2)" fill="#90a4ae"/>
      <path id="Path_88376-2" data-name="Path 88376" d="M6.836,14a1.02,1.02,0,0,1,1.02,1.02v.2a.408.408,0,0,1-.408.408H5.408A.408.408,0,0,1,5,15.224v-.2A1.02,1.02,0,0,1,6.02,14Z" transform="translate(-5 -11.552)" fill="#90a4ae"/>
      <path id="Path_88376_-_Outline" data-name="Path 88376 - Outline" d="M6.02,14h.816a1.02,1.02,0,0,1,1.02,1.02v.2a.408.408,0,0,1-.408.408H5.408A.408.408,0,0,1,5,15.224v-.2A1.02,1.02,0,0,1,6.02,14Zm0,0A1.02,1.02,0,0,0,5,15.02v.2a.408.408,0,0,0,.408.408h2.04a.408.408,0,0,0,.408-.408v-.2A1.02,1.02,0,0,0,6.836,14Z" transform="translate(-5 -11.552)" fill="#90a4ae"/>
    </g>
  </g>
</svg>
