<svg xmlns="http://www.w3.org/2000/svg" xmlns:xlink="http://www.w3.org/1999/xlink" width="21" height="21" viewBox="0 0 21 21">
  <defs>
    <clipPath id="clip-path">
      <rect id="Rectangle_16058" data-name="Rectangle 16058" width="21" height="21" transform="translate(123 3228)" fill="#fff" stroke="#707070" stroke-width="1"/>
    </clipPath>
  </defs>
  <g id="Mask_Group_3" data-name="Mask Group 3" transform="translate(-123 -3228)" clip-path="url(#clip-path)">
    <g id="Search_results_for_Money_-_Flaticon-13_1_" data-name="Search results for Money - Flaticon-13 (1)" transform="translate(123 3228)">
      <path id="Path_88328" data-name="Path 88328" d="M12.25,6.125A2.625,2.625,0,1,0,14.875,8.75,2.633,2.633,0,0,0,12.25,6.125Zm0,3.5a.875.875,0,1,1,.875-.875A.878.878,0,0,1,12.25,9.625ZM8.75,6.563A1.313,1.313,0,1,1,7.438,5.25,1.311,1.311,0,0,1,8.75,6.563Zm0,4.375A1.313,1.313,0,1,1,7.438,9.625,1.311,1.311,0,0,1,8.75,10.938Zm7-4.375a1.313,1.313,0,1,1,1.313,1.313A1.311,1.311,0,0,1,15.75,6.563Zm2.625,4.375a1.313,1.313,0,1,1-1.312-1.312A1.311,1.311,0,0,1,18.375,10.938ZM17.5,2.625H7a3.5,3.5,0,0,0-3.5,3.5v5.25a3.5,3.5,0,0,0,3.5,3.5H17.5a3.5,3.5,0,0,0,3.5-3.5V6.125A3.5,3.5,0,0,0,17.5,2.625Zm1.75,8.75a1.755,1.755,0,0,1-1.75,1.75H7a1.755,1.755,0,0,1-1.75-1.75V6.125A1.755,1.755,0,0,1,7,4.375H17.5a1.755,1.755,0,0,1,1.75,1.75ZM16.625,17.5a.878.878,0,0,1-.875.875H4.375A4.377,4.377,0,0,1,0,14V7.875a.875.875,0,0,1,1.75,0V14a2.633,2.633,0,0,0,2.625,2.625H15.75A.878.878,0,0,1,16.625,17.5Z" fill="#247dd4"/>
    </g>
  </g>
</svg>
