<svg xmlns="http://www.w3.org/2000/svg" xmlns:xlink="http://www.w3.org/1999/xlink" width="21" height="21" viewBox="0 0 21 21">
  <defs>
    <clipPath id="clip-path">
      <rect id="Rectangle_16060" data-name="Rectangle 16060" width="21" height="21" transform="translate(123 3376)" fill="#fff" stroke="#707070" stroke-width="1"/>
    </clipPath>
  </defs>
  <g id="Mask_Group_5" data-name="Mask Group 5" transform="translate(-123 -3376)" clip-path="url(#clip-path)">
    <g id="Search_results_for_Sea_-_Flaticon-12" data-name="Search results for Sea - Flaticon-12" transform="translate(123 3376)">
      <path id="Path_88330" data-name="Path 88330" d="M20.82,16.36a.615.615,0,0,0-.87,0,4.044,4.044,0,0,1-5.72,0,.615.615,0,0,0-.435-.18h0a.615.615,0,0,0-.435.18,4.044,4.044,0,0,1-5.72,0,.615.615,0,0,0-.435-.18h0a.615.615,0,0,0-.435.18,4.044,4.044,0,0,1-5.72,0,.615.615,0,0,0-.87.87,5.276,5.276,0,0,0,7.025.39,5.278,5.278,0,0,0,6.59,0,5.276,5.276,0,0,0,7.025-.39.615.615,0,0,0,0-.87Zm.174-3.605A12.265,12.265,0,0,0,8.852,2.225,12.184,12.184,0,0,0,.185,5.812L.18,5.817a.615.615,0,1,0,.87.87l0,0A4.044,4.044,0,0,1,6.77,12.406h0a4.044,4.044,0,0,1-5.719,0,.615.615,0,1,0-.87.87,5.276,5.276,0,0,0,7.025.39,5.278,5.278,0,0,0,6.59,0,5.276,5.276,0,0,0,7.025-.39A.615.615,0,0,0,20.994,12.755Zm-3.9.836a4.018,4.018,0,0,1-2.86-1.185.615.615,0,0,0-.435-.18h0a.615.615,0,0,0-.435.18,4.046,4.046,0,0,1-5.285.378A5.272,5.272,0,0,0,4.567,4.315,11.059,11.059,0,0,1,16.654,6.687a10.934,10.934,0,0,1,3.072,5.927,4.015,4.015,0,0,1-2.637.977Z" fill="#247dd4" stroke="#247dd4" stroke-width="0.6"/>
    </g>
  </g>
</svg>
