<svg width="40" height="36" viewBox="0 0 40 36" fill="none" xmlns="http://www.w3.org/2000/svg">
<path d="M2.40325 16.2401L6.01062 16.4161C6.22381 14.49 6.83434 12.6292 7.8036 10.9511C8.77285 9.27311 10.0797 7.81446 11.6416 6.66741L9.67078 3.64074C9.19566 2.79609 9.44202 1.72268 10.3219 1.22996C11.2017 0.754845 12.2399 1.0364 12.7326 1.88105L14.3692 5.08369C16.1479 4.31874 18.0639 3.92423 20.0002 3.92423C21.9364 3.92423 23.8524 4.31874 25.6312 5.08369L27.2677 1.88105C27.7604 1.0364 28.7986 0.754845 29.6785 1.22996C30.5583 1.72268 30.8047 2.79609 30.3296 3.64074L28.3587 6.66741C29.9206 7.81446 31.2275 9.27311 32.1968 10.9511C33.166 12.6292 33.7765 14.49 33.9897 16.4161L37.5971 16.2401C38.0638 16.2401 38.5114 16.4255 38.8414 16.7555C39.1714 17.0855 39.3568 17.5331 39.3568 17.9998C39.3568 18.4665 39.1714 18.9141 38.8414 19.2441C38.5114 19.5741 38.0638 19.7595 37.5971 19.7595L33.9897 19.5836C33.7765 21.5096 33.166 23.3705 32.1968 25.0485C31.2275 26.7266 29.9206 28.1852 28.3587 29.3323L30.3296 32.3589C30.8047 33.2036 30.5583 34.277 29.6785 34.7697C28.7986 35.2448 27.7604 34.9633 27.2677 34.1186L25.6312 30.916C23.8524 31.6809 21.9364 32.0754 20.0002 32.0754C18.0639 32.0754 16.1479 31.6809 14.3692 30.916L12.7326 34.1186C12.2399 34.9633 11.2017 35.2448 10.3219 34.7697C9.44202 34.277 9.19566 33.2036 9.67078 32.3589L11.6416 29.3323C10.0797 28.1852 8.77285 26.7266 7.8036 25.0485C6.83434 23.3705 6.22381 21.5096 6.01062 19.5836L2.40325 19.7595C1.93655 19.7595 1.48896 19.5741 1.15896 19.2441C0.82895 18.9141 0.643555 18.4665 0.643555 17.9998C0.643555 17.5331 0.82895 17.0855 1.15896 16.7555C1.48896 16.4255 1.93655 16.2401 2.40325 16.2401ZM14.8443 16.856C15.073 15.7826 15.6537 14.8324 16.4808 14.1109L13.5597 9.64129C11.353 11.3366 9.90475 13.8346 9.53 16.5921L14.8443 16.856ZM20.0002 12.7208C20.5633 12.7208 21.0912 12.8087 21.5839 12.9671L24.0123 8.23354C22.7805 7.72323 21.4255 7.44168 20.0002 7.44168C18.5748 7.44168 17.2199 7.72323 15.9881 8.23354L18.4165 12.9671C18.9092 12.8087 19.4371 12.7208 20.0002 12.7208ZM25.1561 16.856L30.4703 16.5921C30.0956 13.8346 28.6474 11.3366 26.4406 9.64129L23.5196 14.1109C24.3466 14.8324 24.9273 15.7826 25.1561 16.856ZM25.1561 19.1436C24.9273 20.217 24.3466 21.1673 23.5196 21.8888L26.4406 26.3584C28.6474 24.663 30.0956 22.165 30.4703 19.4076L25.1561 19.1436ZM20.0002 23.2789C19.4371 23.2789 18.9092 23.1909 18.3989 23.0326L15.9881 27.7661C17.2199 28.2764 18.5748 28.558 20.0002 28.558C21.4255 28.558 22.7805 28.2764 24.0123 27.7661L21.6015 23.0326C21.0912 23.1909 20.5633 23.2789 20.0002 23.2789ZM14.8443 19.1436L9.53 19.4076C9.91714 22.2231 11.3953 24.7043 13.5597 26.3584L16.4808 21.8888C15.6537 21.1673 15.073 20.217 14.8443 19.1436Z" fill="white" stroke="#E9A52B"/>
</svg>
