<svg xmlns="http://www.w3.org/2000/svg" width="20.005" height="20.005" viewBox="0 0 20.005 20.005">
  <path id="Path_58639" data-name="Path 58639" d="M2.213,14.06a9.945,9.945,0,0,1,0-4.12,2.177,2.177,0,0,0,2.4-1,2.177,2.177,0,0,0-.986-2.4A9.945,9.945,0,0,1,6.537,3.623a2.178,2.178,0,0,0,2.4.986,2.178,2.178,0,0,0,1-2.4,9.945,9.945,0,0,1,4.12,0,2.177,2.177,0,0,0,1,2.4,2.177,2.177,0,0,0,2.4-.986,9.945,9.945,0,0,1,2.914,2.912,2.178,2.178,0,0,0-.986,2.4,2.178,2.178,0,0,0,2.4,1,9.944,9.944,0,0,1,0,4.12,2.177,2.177,0,0,0-2.4,1,2.177,2.177,0,0,0,.986,2.4,9.947,9.947,0,0,1-2.913,2.914,2.178,2.178,0,0,0-2.4-.986,2.178,2.178,0,0,0-1,2.4,9.944,9.944,0,0,1-4.12,0,2.177,2.177,0,0,0-1-2.4,2.177,2.177,0,0,0-2.4.986,9.944,9.944,0,0,1-2.914-2.913,2.178,2.178,0,0,0,.986-2.4A2.178,2.178,0,0,0,2.213,14.06ZM4,12.21a3.529,3.529,0,0,1,2.194,5.3q.145.153.3.3A3.529,3.529,0,0,1,11.79,20q.21.006.421,0a3.529,3.529,0,0,1,5.3-2.194q.153-.145.3-.3A3.529,3.529,0,0,1,20,12.21q.006-.21,0-.421a3.529,3.529,0,0,1-2.194-5.3q-.145-.153-.3-.3A3.529,3.529,0,0,1,12.211,4Q12,3.995,11.79,4a3.529,3.529,0,0,1-5.3,2.194q-.153.145-.3.3A3.529,3.529,0,0,1,4,11.79Q4,12,4,12.21ZM12,15a3,3,0,1,1,3-3A3,3,0,0,1,12,15Zm0-2a1,1,0,1,0-1-1A1,1,0,0,0,12,13Z" transform="translate(-1.998 -1.998)" fill="#fff"/>
</svg>
