<svg xmlns="http://www.w3.org/2000/svg" xmlns:xlink="http://www.w3.org/1999/xlink" width="21" height="21" viewBox="0 0 21 21">
  <defs>
    <clipPath id="clip-path">
      <rect id="Rectangle_16057" data-name="Rectangle 16057" width="21" height="21" transform="translate(123 3302)" fill="#fff" stroke="#707070" stroke-width="1"/>
    </clipPath>
  </defs>
  <g id="Mask_Group_4" data-name="Mask Group 4" transform="translate(-123 -3302)" clip-path="url(#clip-path)">
    <g id="Search_results_for_Clock_-_Flaticon-13" data-name="Search results for Clock - Flaticon-13" transform="translate(123 3302)">
      <path id="Path_88329" data-name="Path 88329" d="M14.875,21A6.125,6.125,0,1,1,21,14.875,6.125,6.125,0,0,1,14.875,21Zm0-10.5a4.375,4.375,0,1,0,4.375,4.375A4.375,4.375,0,0,0,14.875,10.5Zm1.494,5.869a.875.875,0,0,0,0-1.237l-.619-.619V13.125a.875.875,0,1,0-1.75,0v1.75a.875.875,0,0,0,.256.618l.875.875a.875.875,0,0,0,1.237,0ZM1.75,20.125A7.262,7.262,0,0,1,7.193,13.1.876.876,0,0,0,6.807,11.4,8.936,8.936,0,0,0,0,20.125a.875.875,0,1,0,1.75,0Zm5.665-10.5a4.812,4.812,0,1,1,4.812-4.812A4.812,4.812,0,0,1,7.415,9.625Zm0-7.875a3.062,3.062,0,1,0,3.062,3.062A3.062,3.062,0,0,0,7.415,1.75Z" fill="#247dd4"/>
    </g>
  </g>
</svg>
