<svg id="Group_8334" data-name="Group 8334" xmlns="http://www.w3.org/2000/svg" width="21.333" height="21.332" viewBox="0 0 21.333 21.332">
  <path id="Path_58959" data-name="Path 58959" d="M6.222,12.444A3.555,3.555,0,1,0,2.667,8.888,3.559,3.559,0,0,0,6.222,12.444Zm0-5.333A1.778,1.778,0,1,1,4.444,8.888,1.779,1.779,0,0,1,6.222,7.111Zm6.222,13.333a.889.889,0,0,1-1.778,0,4.444,4.444,0,1,0-8.888,0,.889.889,0,0,1-1.778,0,6.222,6.222,0,1,1,12.444,0Zm8.888-16v7.111A4.449,4.449,0,0,1,16.888,16H13.333a.889.889,0,0,1-.889-.889V13.333a.889.889,0,0,1,.889-.889H16a.889.889,0,0,1,.889.889v.889a2.67,2.67,0,0,0,2.667-2.667V4.444a2.67,2.67,0,0,0-2.667-2.667H8.413A2.675,2.675,0,0,0,6.1,3.112a.889.889,0,1,1-1.539-.891A4.462,4.462,0,0,1,8.414,0h8.475a4.449,4.449,0,0,1,4.444,4.444Z" fill="#14d2b9"/>
</svg>
