<svg xmlns="http://www.w3.org/2000/svg" width="16" height="19.199" viewBox="0 0 16 19.199">
  <path id="Path_58960" data-name="Path 58960" d="M16.5,8.8h.3A1.2,1.2,0,0,0,18,7.6V6a1.2,1.2,0,0,0-1.2-1.2h-.3a6.8,6.8,0,0,0-13,0H3.2A1.2,1.2,0,0,0,2,6V7.6A1.2,1.2,0,0,0,3.2,8.8h.3a6.828,6.828,0,0,0,2.439,3.451A5.611,5.611,0,0,0,2,17.6v.8a.8.8,0,1,0,1.6,0v-.8a4,4,0,0,1,4-4h4.8a4,4,0,0,1,4,4v.8a.8.8,0,1,0,1.6,0v-.8a5.611,5.611,0,0,0-3.94-5.349A6.823,6.823,0,0,0,16.5,8.8ZM4.8,6.8A5.2,5.2,0,1,1,10,12,5.206,5.206,0,0,1,4.8,6.8Zm10,11.6a.8.8,0,1,1-1.6,0,.8.8,0,0,0-.8-.8H7.6a.8.8,0,0,0-.8.8.8.8,0,1,1-1.6,0A2.4,2.4,0,0,1,7.6,16h4.8A2.4,2.4,0,0,1,14.8,18.4ZM6,6.4a.88.88,0,0,1,.881-.8H13.2a.814.814,0,0,1,.8.8,4,4,0,1,1-8,0Z" transform="translate(-1.999)" fill="#fa896b"/>
</svg>
