<svg width="40" height="40" viewBox="0 0 40 40" fill="none" xmlns="http://www.w3.org/2000/svg">
<path d="M7.64895 9.41365V22.2409C7.64895 29.224 13.1791 34.8836 20 34.8836C26.8209 34.8836 32.3511 29.224 32.3511 22.2409V9.42055L19.9258 5.23969L7.64895 9.41365ZM19.9224 2.74463L34.6667 7.70369V22.2409C34.6667 30.5319 28.0995 37.2544 20 37.2544C11.9006 37.2544 5.33334 30.5319 5.33334 22.2409V7.70369L19.9224 2.74463ZM27.5473 13.9344C27.4347 13.831 27.3024 13.7513 27.1583 13.7C27.0141 13.6488 26.8612 13.6272 26.7085 13.6363C26.5559 13.6455 26.4066 13.6854 26.2697 13.7535C26.1328 13.8216 26.011 13.9166 25.9115 14.0328L18.4643 22.6067L15.6537 19.2836C15.5519 19.1697 15.4284 19.0773 15.2902 19.0121C15.1521 18.9469 15.0023 18.9102 14.8497 18.9041C14.6971 18.8979 14.5448 18.9226 14.4019 18.9765C14.259 19.0305 14.1284 19.1126 14.0179 19.218C13.7924 19.4347 13.6598 19.7304 13.6479 20.0429C13.636 20.3554 13.7457 20.6603 13.954 20.8935L17.6309 25.1743C17.739 25.2958 17.8719 25.3928 18.0207 25.4587C18.1695 25.5246 18.3306 25.5578 18.4933 25.5562C18.6559 25.5545 18.8164 25.5181 18.9638 25.4492C19.1112 25.3804 19.2421 25.2807 19.3478 25.157L27.6422 15.6082C27.8461 15.3711 27.9501 15.0643 27.9324 14.7522C27.9147 14.44 27.7767 14.1469 27.5473 13.9344Z" fill="white" stroke="white" stroke-width="0.5"/>
</svg>
