<svg xmlns="http://www.w3.org/2000/svg" width="17" height="17" viewBox="0 0 17 17">
  <g id="Group_17047" data-name="Group 17047" transform="translate(-79 -1601)">
    <path id="to-do-alt" d="M9.208,1.417H8.733A2.129,2.129,0,0,0,6.729,0H5.313a2.129,2.129,0,0,0-2,1.417H2.833A2.836,2.836,0,0,0,0,4.25v9.208A3.546,3.546,0,0,0,3.542,17H8.5a3.546,3.546,0,0,0,3.542-3.542V4.25A2.836,2.836,0,0,0,9.208,1.417ZM6.89,10.063,5.346,11.607a1.488,1.488,0,0,1-2.1,0l-.912-.913a.708.708,0,1,1,1-1l.912.913a.078.078,0,0,0,.1,0L5.889,9.062a.708.708,0,0,1,1,1Zm0-4.25L5.346,7.357a1.488,1.488,0,0,1-2.1,0l-.912-.913a.708.708,0,0,1,1-1l.912.913a.078.078,0,0,0,.1,0L5.889,4.812a.708.708,0,0,1,1,1Z" transform="translate(79 1601)" fill="#90a4ae"/>
    <path id="to-do-alt-2" data-name="to-do-alt" d="M15.229,16.958a.588.588,0,0,1-.417-.173l-.489-.489a2.932,2.932,0,0,1-.865-2.087V1.771a1.771,1.771,0,1,1,3.542,0V14.208a2.934,2.934,0,0,1-.865,2.087l-.489.489a.588.588,0,0,1-.417.173Z" transform="translate(79 1601)" fill="#17ace8"/>
  </g>
</svg>
