<svg xmlns="http://www.w3.org/2000/svg" width="16.974" height="15.579" viewBox="0 0 16.974 15.579">
  <g id="svgexport-18_2_" data-name="svgexport-18 (2)" transform="translate(0 -2.465)">
    <path id="Path_88404" data-name="Path 88404" d="M11.335,13.465l-9.657.02A1.679,1.679,0,0,0,0,15.162v5.981A1.679,1.679,0,0,0,1.678,22.82H3.395v2.829a.283.283,0,0,0,.492.19l2.745-3.02,4.7-.019a1.679,1.679,0,0,0,1.678-1.677V15.143A1.68,1.68,0,0,0,11.335,13.465ZM2.829,16.294H6.507a.283.283,0,0,1,0,.566H2.829a.283.283,0,0,1,0-.566Zm7.355,3.961H2.829a.283.283,0,0,1,0-.566h7.355a.283.283,0,0,1,0,.566Zm0-1.7H2.829a.283.283,0,0,1,0-.566h7.355a.283.283,0,0,1,0,.566Z" transform="translate(0 -7.888)" fill="#90a4ae"/>
    <path id="Path_88405" data-name="Path 88405" d="M25.336,2.485l-9.659-.02A1.679,1.679,0,0,0,14,4.143v.884l7.373-.015a2.246,2.246,0,0,1,2.245,2.243v6.571l.922,1.014a.283.283,0,0,0,.492-.19V11.821h.3a1.679,1.679,0,0,0,1.678-1.677V4.162A1.679,1.679,0,0,0,25.336,2.485Z" transform="translate(-10.039 0)" fill="#17ace8"/>
  </g>
</svg>
