<svg xmlns="http://www.w3.org/2000/svg" width="70" height="70" viewBox="0 0 70 70">
  <g id="Group_17092" data-name="Group 17092" transform="translate(-1043 -535)">
    <rect id="Rectangle_15607" data-name="Rectangle 15607" width="70" height="70" rx="6" transform="translate(1043 535)" fill="#50c0c0"/>
    <path id="Path_59289" data-name="Path 59289" d="M1843.69,172.917,1868,198.306V219.58s-.4,5.529-5.374,5.529h-28.708l-17.293-16.232Z" transform="translate(-755 379.891)" fill="rgba(0,0,0,0.16)"/>
    <g id="svgexport-18_6_" data-name="svgexport-18 (6)" transform="translate(1066 576.422)">
      <g id="Group_17057" data-name="Group 17057" transform="translate(0 0.359)">
        <path id="Path_88475" data-name="Path 88475" d="M6.476,5.738,1.267.529a.581.581,0,0,0-.822,0L.17.8a.581.581,0,0,0,0,.822L5.379,6.834a.581.581,0,0,0,.822,0l.274-.274a.581.581,0,0,0,0-.822Zm0,0" transform="translate(0 -0.359)" fill="#f44336"/>
        <path id="Path_88476" data-name="Path 88476" d="M5.379.532.17,5.741a.581.581,0,0,0,0,.822l.274.274a.581.581,0,0,0,.822,0l5.21-5.208a.581.581,0,0,0,0-.822L6.2.533a.581.581,0,0,0-.821,0Zm0,0" transform="translate(0 -0.362)" fill="#f44336"/>
      </g>
    </g>
    <g id="svgexport-18_16_" data-name="svgexport-18 (16)" transform="translate(1053.466 545.683)">
      <path id="Path_88498" data-name="Path 88498" d="M33.539,45.682a.539.539,0,0,0-.046-1.067,10.24,10.24,0,1,1,2.331-20.347.539.539,0,0,0,.61-.533V10.918a3.521,3.521,0,0,0-3.52-3.52H31.672a.539.539,0,0,0-.539.539V9.8a.579.579,0,1,1-1.158,0V7.937a.539.539,0,0,0-.539-.539H25.959a.539.539,0,0,0-.539.539V9.8a.579.579,0,1,1-1.158,0V7.937a.539.539,0,0,0-.539-.539H20.245a.539.539,0,0,0-.539.539V9.8a.579.579,0,0,1-1.158,0V7.937a.539.539,0,0,0-.539-.539H14.532a.539.539,0,0,0-.539.539V9.8a.579.579,0,1,1-1.158,0V7.937A.539.539,0,0,0,12.3,7.4H11.054a3.521,3.521,0,0,0-3.52,3.52v31.3a3.521,3.521,0,0,0,3.52,3.52H32.915a3.48,3.48,0,0,0,.624-.056Z" transform="translate(0 -1.148)" fill="#e9ecfd" fill-rule="evenodd"/>
      <path id="Path_88499" data-name="Path 88499" d="M33.688,33.788a11.318,11.318,0,0,0-1.763,19.376h6.537a3.48,3.48,0,0,0,.624-.056.539.539,0,0,0-.046-1.067,10.239,10.239,0,0,1-5.352-18.252Z" transform="translate(-5.548 -8.574)" fill="#ced5f9" fill-rule="evenodd"/>
      <path id="Path_88500" data-name="Path 88500" d="M15.431,25.476H32.678a.539.539,0,1,0,0-1.078H15.431a.539.539,0,0,0,0,1.078Zm0,5.749H29.924a.539.539,0,1,0,0-1.078H15.431a.539.539,0,0,0,0,1.078Zm0,5.749h8.162a.539.539,0,0,0,0-1.078H15.431a.539.539,0,0,0,0,1.078Z" transform="translate(-2.07 -5.932)" fill="#55a1ff" fill-rule="evenodd"/>
      <path id="Path_88501" data-name="Path 88501" d="M26.11,53.25H7.534v1.87a3.521,3.521,0,0,0,3.52,3.52H32.915a3.479,3.479,0,0,0,.624-.056.539.539,0,0,0-.046-1.067A10.234,10.234,0,0,1,26.11,53.25Z" transform="translate(0 -14.05)" fill="#303c65" fill-rule="evenodd"/>
      <path id="Path_88502" data-name="Path 88502" d="M31.91,53.25H28.148a11.357,11.357,0,0,0,4.03,5.39h6.537a3.479,3.479,0,0,0,.624-.056.539.539,0,0,0-.046-1.067h-.035l-.056-.006h-.125l-.041-.005L38.99,57.5H38.9l-.038-.005-.039-.006-.045-.006h-.088l-.04-.006L38.6,57.47l-.047-.008-.042-.007-.029-.005-.04-.007-.05-.009-.059-.011-.029-.006-.029-.006-.04-.008-.049-.01-.029-.006-.029-.006-.026-.005-.065-.014L38,57.353l-.042-.01-.029-.006-.026-.006-.065-.015-.042-.01-.042-.011-.029-.007-.025-.007-.065-.017-.04-.011-.042-.011-.028-.008-.026-.007-.065-.019-.052-.015-.029-.009-.022-.006-.1-.029-.05-.016-.028-.009-.022-.006-.1-.032-.049-.017-.018-.006-.162-.057h0A10.269,10.269,0,0,1,31.91,53.25Z" transform="translate(-5.8 -14.05)" fill="#2e344b" fill-rule="evenodd"/>
      <path id="Path_88503" data-name="Path 88503" d="M7.534,13.4h28.9V10.918a3.521,3.521,0,0,0-3.52-3.52H31.672a.539.539,0,0,0-.539.539V9.8a.579.579,0,1,1-1.158,0V7.937a.539.539,0,0,0-.539-.539H25.959a.539.539,0,0,0-.539.539V9.8a.579.579,0,1,1-1.158,0V7.937a.539.539,0,0,0-.539-.539H20.245a.539.539,0,0,0-.539.539V9.8a.579.579,0,0,1-1.158,0V7.937a.539.539,0,0,0-.539-.539H14.532a.539.539,0,0,0-.539.539V9.8a.579.579,0,1,1-1.158,0V7.937A.539.539,0,0,0,12.3,7.4H11.054a3.521,3.521,0,0,0-3.52,3.52Z" transform="translate(0 -1.148)" fill="#55a1ff" fill-rule="evenodd"/>
      <circle id="Ellipse_261" data-name="Ellipse 261" cx="11.318" cy="11.318" r="11.318" transform="translate(23.14 21.953)" fill="#446aa9"/>
      <circle id="Ellipse_262" data-name="Ellipse 262" cx="8.085" cy="8.085" r="8.085" transform="translate(26.374 25.187)" fill="#e9ecfe"/>
      <path id="Path_88504" data-name="Path 88504" d="M42.768,42.624v.045a1.585,1.585,0,0,0,1.584,1.584.551.551,0,0,0,.059,0l3.737-.41a1.171,1.171,0,0,0,0-2.341l-2.325-.255-.3-3.615a1.171,1.171,0,1,0-2.342.008Z" transform="translate(-9.914 -9.334)" fill="#f05558" fill-rule="evenodd"/>
      <g id="Group_17077" data-name="Group 17077" transform="translate(11.757 3.317)">
        <path id="Path_88505" data-name="Path 88505" d="M13.41,4.926V8.652a1.658,1.658,0,0,0,3.314,0V4.926a1.658,1.658,0,0,0-3.314,0Zm5.714,0V8.652a1.658,1.658,0,0,0,3.314,0V4.926a1.658,1.658,0,0,0-3.314,0Zm5.714,0V8.652a1.657,1.657,0,1,0,3.314,0V4.926a1.658,1.658,0,0,0-3.314,0Zm5.713,0V8.652a1.658,1.658,0,0,0,3.314,0V4.926a1.658,1.658,0,0,0-3.314,0Z" transform="translate(-13.41 -3.317)" fill="#303c65" fill-rule="evenodd"/>
      </g>
    </g>
  </g>
</svg>
