<svg width="40" height="40" viewBox="0 0 40 40" fill="none" xmlns="http://www.w3.org/2000/svg">
<g clip-path="url(#clip0_2050_14368)">
<path d="M35 19.3944C35.7812 19.9282 36.4779 20.5337 37.0898 21.2108C37.7018 21.8879 38.2292 22.63 38.6719 23.4373C39.1146 24.2446 39.4401 25.0975 39.6484 25.9959C39.8568 26.8944 39.974 27.8123 40 28.7498C40 30.2993 39.707 31.7576 39.1211 33.1248C38.5352 34.492 37.7279 35.6834 36.6992 36.6991C35.6706 37.7147 34.4792 38.5155 33.125 39.1014C31.7708 39.6873 30.3125 39.9868 28.75 39.9998C27.5651 39.9998 26.4193 39.8241 25.3125 39.4725C24.2057 39.1209 23.1901 38.6131 22.2656 37.9491C21.3411 37.285 20.5208 36.4907 19.8047 35.5662C19.0885 34.6418 18.5352 33.6196 18.1445 32.4998H4.5C3.39543 32.4998 2.5 31.6044 2.5 30.4998V4.49983C2.5 3.39526 3.39543 2.49983 4.5 2.49983H7.5V1.24983C7.5 0.559476 8.05964 -0.000167847 8.75 -0.000167847C9.44036 -0.000167847 10 0.559476 10 1.24983V2.49983H27.5V1.24983C27.5 0.559476 28.0596 -0.000167847 28.75 -0.000167847C29.4404 -0.000167847 30 0.559476 30 1.24983V2.49983H33C34.1046 2.49983 35 3.39526 35 4.49983V19.3944ZM5 4.99983V9.99983H32.5V4.99983H30V6.24983C30 6.94019 29.4404 7.49983 28.75 7.49983C28.0596 7.49983 27.5 6.94019 27.5 6.24983V4.99983H10V6.24983C10 6.94019 9.44036 7.49983 8.75 7.49983C8.05964 7.49983 7.5 6.94019 7.5 6.24983V4.99983H5ZM17.5586 29.9998C17.5195 29.5962 17.5 29.1795 17.5 28.7498C17.5 27.2004 17.793 25.742 18.3789 24.3748C18.9648 23.0076 19.7721 21.8162 20.8008 20.8006C21.8294 19.785 23.0208 18.9842 24.375 18.3983C25.7292 17.8123 27.1875 17.5129 28.75 17.4998C30.0521 17.4998 31.3021 17.7147 32.5 18.1444V12.4998H5V29.9998H17.5586ZM28.75 37.4998C29.9609 37.4998 31.0938 37.272 32.1484 36.8162C33.2031 36.3605 34.1276 35.7355 34.9219 34.9412C35.7161 34.147 36.3411 33.2225 36.7969 32.1678C37.2526 31.1131 37.487 29.9738 37.5 28.7498C37.5 27.5389 37.2721 26.4061 36.8164 25.3514C36.3607 24.2967 35.7357 23.3722 34.9414 22.578C34.1471 21.7837 33.2227 21.1587 32.168 20.703C31.1133 20.2472 29.974 20.0129 28.75 19.9998C27.5391 19.9998 26.4062 20.2277 25.3516 20.6834C24.2969 21.1392 23.3724 21.7642 22.5781 22.5584C21.7839 23.3527 21.1589 24.2772 20.7031 25.3319C20.2474 26.3866 20.013 27.5259 20 28.7498C20 29.9608 20.2279 31.0936 20.6836 32.1483C21.1393 33.203 21.7643 34.1274 22.5586 34.9217C23.3529 35.716 24.2773 36.341 25.332 36.7967C26.3867 37.2524 27.526 37.4868 28.75 37.4998ZM30 27.4998H33.75V29.9998H27.5V22.4998H30V27.4998Z" fill="white"/>
</g>
<defs>
<clipPath id="clip0_2050_14368">
<rect width="40" height="40" fill="white"/>
</clipPath>
</defs>
</svg>
