<svg width="40" height="40" viewBox="0 0 40 40" fill="none" xmlns="http://www.w3.org/2000/svg">
<g clip-path="url(#clip0_2050_14426)">
<path d="M30 27.5H33.75V30H27.5V22.5H30V27.5ZM25 8.75C25 9.44036 24.4404 10 23.75 10H6.25C5.55964 10 5 9.44036 5 8.75C5 8.05964 5.55964 7.5 6.25 7.5H23.75C24.4404 7.5 25 8.05964 25 8.75ZM28.75 17.5C30.2995 17.5 31.7578 17.793 33.125 18.3789C34.4922 18.9648 35.6836 19.7721 36.6992 20.8008C37.7148 21.8294 38.5156 23.0208 39.1016 24.375C39.6875 25.7292 39.987 27.1875 40 28.75C40 30.2995 39.707 31.7578 39.1211 33.125C38.5352 34.4922 37.7279 35.6836 36.6992 36.6992C35.6706 37.7148 34.4792 38.5156 33.125 39.1016C31.7708 39.6875 30.3125 39.987 28.75 40C27.2005 40 25.7422 39.707 24.375 39.1211C23.0078 38.5352 21.8164 37.7279 20.8008 36.6992C19.7852 35.6706 18.9844 34.4792 18.3984 33.125C17.8125 31.7708 17.513 30.3125 17.5 28.75C17.5 27.2005 17.793 25.7422 18.3789 24.375C18.9648 23.0078 19.7721 21.8164 20.8008 20.8008C21.8294 19.7852 23.0208 18.9844 24.375 18.3984C25.7292 17.8125 27.1875 17.513 28.75 17.5ZM28.75 37.5C29.9609 37.5 31.0938 37.2721 32.1484 36.8164C33.2031 36.3607 34.1276 35.7357 34.9219 34.9414C35.7161 34.1471 36.3411 33.2227 36.7969 32.168C37.2526 31.1133 37.487 29.974 37.5 28.75C37.5 27.5391 37.2721 26.4062 36.8164 25.3516C36.3607 24.2969 35.7357 23.3724 34.9414 22.5781C34.1471 21.7839 33.2227 21.1589 32.168 20.7031C31.1133 20.2474 29.974 20.013 28.75 20C27.5391 20 26.4062 20.2279 25.3516 20.6836C24.2969 21.1393 23.3724 21.7643 22.5781 22.5586C21.7839 23.3529 21.1589 24.2773 20.7031 25.332C20.2474 26.3867 20.013 27.526 20 28.75C20 29.9609 20.2279 31.0938 20.6836 32.1484C21.1393 33.2031 21.7643 34.1276 22.5586 34.9219C23.3529 35.7161 24.2773 36.3411 25.332 36.7969C26.3867 37.2526 27.526 37.487 28.75 37.5ZM22.7734 15C21.3542 15.625 20.0521 16.4583 18.8672 17.5H6.25C5.55964 17.5 5 16.9404 5 16.25C5 15.5596 5.55964 15 6.25 15H22.7734ZM15.1367 22.5C14.9544 22.9036 14.7917 23.3138 14.6484 23.7305C14.5052 24.1471 14.3685 24.5703 14.2383 25H6.25C5.55964 25 5 24.4404 5 23.75C5 23.0596 5.55964 22.5 6.25 22.5H15.1367ZM5 31.25C5 30.5596 5.55964 30 6.25 30H13.8086C13.8477 30.4167 13.8997 30.8333 13.9648 31.25C14.0299 31.6667 14.1211 32.0833 14.2383 32.5H6.25C5.55964 32.5 5 31.9404 5 31.25ZM16.6016 37.5C17.2526 38.4245 18.0078 39.2578 18.8672 40H2C0.89543 40 0 39.1046 0 38V2C0 0.895431 0.895431 0 2 0H28C29.1046 0 30 0.89543 30 2V13.8086L29.375 13.7695C29.1667 13.7565 28.9583 13.75 28.75 13.75C28.5417 13.75 28.3333 13.7565 28.125 13.7695C27.9167 13.7826 27.7083 13.7956 27.5 13.8086V2.5H2.5V37.5H16.6016Z" fill="white"/>
</g>
<defs>
<clipPath id="clip0_2050_14426">
<rect width="40" height="40" fill="white"/>
</clipPath>
</defs>
</svg>
