<svg xmlns="http://www.w3.org/2000/svg" width="70" height="70" viewBox="0 0 70 70">
  <g id="Group_17058" data-name="Group 17058" transform="translate(-1043 -56)">
    <rect id="Rectangle_15607" data-name="Rectangle 15607" width="70" height="70" rx="6" transform="translate(1043 56)" fill="#313bbe"/>
    <path id="Path_59289" data-name="Path 59289" d="M1851.682,174.079,1868,196.306V219.58s-.4,5.529-5.374,5.529h-31.708l-16.409-15.919Z" transform="translate(-755 -99.109)" fill="rgba(0,0,0,0.16)"/>
    <g id="svgexport-18_5_" data-name="svgexport-18 (5)" transform="translate(1059 72)">
      <path id="Path_88462" data-name="Path 88462" d="M0,142.748v25.8a1.122,1.122,0,0,0,1.122,1.122H37.165a1.122,1.122,0,0,0,1.122-1.122v-25.8L36.849,142H1.5Z" transform="translate(0 -131.381)" fill="#f5f2f1"/>
      <path id="Path_88463" data-name="Path 88463" d="M275.144,142.748v25.8a1.122,1.122,0,0,1-1.122,1.122H256V142h17.706Z" transform="translate(-236.856 -131.381)" fill="#e8e1de"/>
      <path id="Path_88464" data-name="Path 88464" d="M38.287,33.122A1.122,1.122,0,0,0,37.165,32H1.122A1.122,1.122,0,0,0,0,33.122v7.852H38.287Z" transform="translate(0 -29.607)" fill="#f47160"/>
      <path id="Path_88465" data-name="Path 88465" d="M275.144,33.122v7.852H256V32h18.022A1.122,1.122,0,0,1,275.144,33.122Z" transform="translate(-236.856 -29.607)" fill="#fc5832"/>
      <g id="Group_17056" data-name="Group 17056" transform="translate(4.562)">
        <path id="Path_88466" data-name="Path 88466" d="M62.122,0A1.122,1.122,0,0,0,61,1.122V5.01a1.122,1.122,0,0,0,2.243,0V1.122A1.122,1.122,0,0,0,62.122,0Zm6.73,0A1.122,1.122,0,0,0,67.73,1.122V5.01a1.122,1.122,0,1,0,2.243,0V1.122A1.122,1.122,0,0,0,68.852,0Zm6.73,0A1.122,1.122,0,0,0,74.46,1.122V5.01a1.122,1.122,0,0,0,2.243,0V1.122A1.122,1.122,0,0,0,75.582,0Z" transform="translate(-61)" fill="#55696e"/>
      </g>
      <path id="Path_88467" data-name="Path 88467" d="M257.122,1.122V5.01A1.122,1.122,0,0,1,256,6.132V0A1.122,1.122,0,0,1,257.122,1.122ZM262.73,0a1.122,1.122,0,0,0-1.122,1.122V5.01a1.122,1.122,0,0,0,2.243,0V1.122A1.122,1.122,0,0,0,262.73,0Zm6.73,0a1.122,1.122,0,0,0-1.122,1.122V5.01a1.122,1.122,0,1,0,2.243,0V1.122A1.122,1.122,0,0,0,269.46,0Z" transform="translate(-236.856)" fill="#495959"/>
      <path id="Path_88468" data-name="Path 88468" d="M96.608,227H92.122A1.122,1.122,0,0,0,91,228.122v4.487a1.122,1.122,0,0,0,1.122,1.122h4.487a1.122,1.122,0,0,0,1.122-1.122v-4.487A1.122,1.122,0,0,0,96.608,227Z" transform="translate(-84 -210.025)" fill="#dbd1cc"/>
      <path id="Path_88469" data-name="Path 88469" d="M336.608,227h-4.487A1.122,1.122,0,0,0,331,228.122v4.487a1.122,1.122,0,0,0,1.122,1.122h4.487a1.122,1.122,0,0,0,1.122-1.122v-4.487A1.122,1.122,0,0,0,336.608,227Z" transform="translate(-306.248 -210.025)" fill="#c6bbb6"/>
      <path id="Path_88470" data-name="Path 88470" d="M216.608,346h-4.487A1.122,1.122,0,0,0,211,347.122v4.487a1.122,1.122,0,0,0,1.122,1.122h4.487a1.122,1.122,0,0,0,1.122-1.122v-4.487A1.122,1.122,0,0,0,216.608,346Z" transform="translate(-195.222 -320.126)" fill="#dbd1cc"/>
      <path id="Path_88471" data-name="Path 88471" d="M259.365,347.122v4.487a1.122,1.122,0,0,1-1.122,1.122H256V346h2.243A1.122,1.122,0,0,1,259.365,347.122Z" transform="translate(-236.856 -320.126)" fill="#c6bbb6"/>
      <path id="Path_88472" data-name="Path 88472" d="M216.608,227h-4.487A1.122,1.122,0,0,0,211,228.122v4.487a1.122,1.122,0,0,0,1.122,1.122h4.487a1.122,1.122,0,0,0,1.122-1.122v-4.487A1.122,1.122,0,0,0,216.608,227Z" transform="translate(-195.222 -210.025)" fill="#dbd1cc"/>
      <path id="Path_88473" data-name="Path 88473" d="M259.365,228.122v4.487a1.122,1.122,0,0,1-1.122,1.122H256V227h2.243A1.122,1.122,0,0,1,259.365,228.122Zm7.852,7.777H262.73a1.122,1.122,0,0,0-1.122,1.122v4.487a1.122,1.122,0,0,0,1.122,1.122h4.487a1.122,1.122,0,0,0,1.122-1.122V237.02A1.122,1.122,0,0,0,267.217,235.9Z" transform="translate(-236.856 -210.025)" fill="#c6bbb6"/>
    </g>
    <g id="svgexport-18_6_" data-name="svgexport-18 (6)" transform="translate(1066 97.422)">
      <g id="Group_17057" data-name="Group 17057" transform="translate(0 0.359)">
        <path id="Path_88475" data-name="Path 88475" d="M6.476,5.738,1.267.529a.581.581,0,0,0-.822,0L.17.8a.581.581,0,0,0,0,.822L5.379,6.834a.581.581,0,0,0,.822,0l.274-.274A.581.581,0,0,0,6.476,5.738Zm0,0" transform="translate(0 -0.359)" fill="#f44336"/>
        <path id="Path_88476" data-name="Path 88476" d="M5.379.532.17,5.741a.581.581,0,0,0,0,.822l.274.274a.581.581,0,0,0,.822,0L6.476,1.629a.581.581,0,0,0,0-.822L6.2.533A.581.581,0,0,0,5.379.532Zm0,0" transform="translate(0 -0.362)" fill="#f44336"/>
      </g>
    </g>
  </g>
</svg>
