<svg xmlns="http://www.w3.org/2000/svg" width="24" height="24" viewBox="0 0 24 24">
  <g id="Group_21" data-name="Group 21" transform="translate(-0.008)">
    <path id="Path_48" data-name="Path 48" d="M16.6,1.03,12.623,5.008A3.516,3.516,0,0,0,17.595,9.98L21.572,6A3.516,3.516,0,0,0,16.6,1.03Zm0,7.955A2.109,2.109,0,1,1,13.617,6l1.492-1.492,2.983,2.983Zm3.977-3.977L19.086,6.5,16.1,3.516l1.492-1.492a2.109,2.109,0,0,1,2.983,2.983Zm3.369,6.753a.7.7,0,0,0-.642-.417,9.341,9.341,0,0,0-7.367,3.423,3.52,3.52,0,0,0-3.18-2.017H8.643a6.073,6.073,0,0,0-2.889.694A16.741,16.741,0,0,0,.133,18.678a.7.7,0,0,0,.081.9l4.219,4.219a.7.7,0,0,0,1.042-.053c2.18-2.676,4.125-3.343,11.56-3.962a.7.7,0,0,0,.464-.23l6.328-7.031a.7.7,0,0,0,.12-.756ZM16.64,18.4c-6.7.569-9.334,1.205-11.75,3.862L1.63,19A15.036,15.036,0,0,1,6.425,14.68a4.666,4.666,0,0,1,2.219-.524h4.115a2.113,2.113,0,0,1,1.989,1.406H8.539a.7.7,0,1,0,0,1.406h7.034a.7.7,0,0,0,.473-.186h0a.7.7,0,0,0,.068-.073c1.431-1.726,2.945-3.306,5.467-3.8Z" transform="translate(0 0)" fill="#3285d6"/>
  </g>
</svg>
