<svg id="Group_8330" data-name="Group 8330" xmlns="http://www.w3.org/2000/svg" width="22" height="22" viewBox="0 0 22 22">
  <path id="Path_58954" data-name="Path 58954" d="M17.417,0H4.583A4.589,4.589,0,0,0,0,4.583V17.417A4.589,4.589,0,0,0,4.583,22H17.417A4.589,4.589,0,0,0,22,17.417V4.583A4.589,4.589,0,0,0,17.417,0Zm-11,20.167V19.25a4.583,4.583,0,0,1,9.167,0v.917Zm13.75-2.75a2.75,2.75,0,0,1-2.75,2.75V19.25a6.417,6.417,0,0,0-12.833,0v.917a2.75,2.75,0,0,1-2.75-2.75V4.583a2.75,2.75,0,0,1,2.75-2.75H17.417a2.75,2.75,0,0,1,2.75,2.75Z" fill="#29a4a7"/>
  <path id="Path_58955" data-name="Path 58955" d="M11.667,4a3.667,3.667,0,1,0,3.667,3.667A3.667,3.667,0,0,0,11.667,4Zm0,5.5A1.833,1.833,0,1,1,13.5,7.667,1.833,1.833,0,0,1,11.667,9.5Z" transform="translate(-0.667 -0.333)" fill="#29a4a7"/>
</svg>
