<svg xmlns="http://www.w3.org/2000/svg" width="28" height="24" viewBox="0 0 28 24">
  <g id="Group_10" data-name="Group 10" transform="translate(0)">
    <path id="Path_22" data-name="Path 22" d="M10.592,17.394H5.67a.832.832,0,0,0,0,1.663h4.922a.832.832,0,0,0,0-1.663Zm7.354,0H15.513a.832.832,0,0,0,0,1.663h2.432a.832.832,0,0,0,0-1.663Zm4.349,4.943H19.451a.832.832,0,0,0,0,1.663h2.844a.832.832,0,0,0,0-1.663Zm-8.255-1.616h-.6a.832.832,0,0,0,0,1.663h.6a.832.832,0,0,0,0-1.663Zm13.139-1.663H22.295a.832.832,0,0,0,0,1.663h4.883a.832.832,0,0,0,0-1.663Zm0-3.327a.832.832,0,0,0,0-1.663H25.05l2.769-3.53a.841.841,0,0,0,.1-.879.819.819,0,0,0-.739-.47H25.562V5.426a.826.826,0,0,0-.82-.832H23.3V.832A.826.826,0,0,0,22.477,0H8.883a.826.826,0,0,0-.82.832V4.594H6.618a.826.826,0,0,0-.82.832v2.1H.821a.817.817,0,0,0-.648.321.841.841,0,0,0-.147.716l.8,3.2a5.281,5.281,0,0,0,1.245,2.3H.823a.832.832,0,0,0,0,1.663ZM23.922,9.188H21.031V6.257h2.891Zm-7.421,0V6.257h2.89v2.93Zm-4.531,0V6.257H14.86v2.93Zm9.687-4.594H18.766V1.663h2.891Zm-4.531,0h-2.89V1.663h2.89ZM9.7,1.663h2.891V4.594H9.7ZM7.438,6.257h2.891V9.117a1.38,1.38,0,0,1-.89-.958l0-.017a.823.823,0,0,0-.793-.618h-1.2Zm-5.018,5.1L1.876,9.188h6.2a3.008,3.008,0,0,0,2.679,1.663H25.477l-2.523,3.216H5.864a3.562,3.562,0,0,1-3.445-2.715Zm0,0" transform="translate(0 0)" fill="#1976d2"/>
  </g>
</svg>
