<svg xmlns="http://www.w3.org/2000/svg" width="18.003" height="18.003" viewBox="0 0 18.003 18.003">
  <g id="Group_16908" data-name="Group 16908" transform="translate(-0.001)">
    <path id="Path_88287" data-name="Path 88287" d="M.539,16.874a.762.762,0,0,1,.633.327,1.836,1.836,0,0,0,1.522.8h.053a1.761,1.761,0,0,0,1.445-.8.771.771,0,0,1,1.234,0,1.774,1.774,0,0,0,1.487.8,1.909,1.909,0,0,0,1.561-.855v-8.5l-7.1,3.029a.531.531,0,0,0-.3.633l1.354,4.571a.79.79,0,0,1-.383-.264,1.821,1.821,0,0,0-1.529-.8A.522.522,0,0,0,0,16.357a.559.559,0,0,0,.538.517Zm6.354-5.236a.527.527,0,1,1-.527.527A.527.527,0,0,1,6.893,11.639Zm10.573,4.181a1.861,1.861,0,0,0-1.491.8.68.68,0,0,1-.4.285l1.318-4.592a.531.531,0,0,0-.3-.633L9.53,8.652V17.1a2.073,2.073,0,0,0,1.6.9,1.779,1.779,0,0,0,1.5-.8.771.771,0,0,1,1.234,0,1.79,1.79,0,0,0,2.985,0,.827.827,0,0,1,.636-.327.528.528,0,0,0-.021-1.055Zm-6.353-3.126a.527.527,0,1,1,.527-.527A.527.527,0,0,1,11.112,12.693ZM10.057,0H7.948A.527.527,0,0,0,7.42.527V2.145H5.838a.527.527,0,0,0-.527.527V4.255h7.384V2.672a.527.527,0,0,0-.527-.527H10.585V.527A.527.527,0,0,0,10.057,0Zm0,0" transform="translate(0)" fill="#90a4ae"/>
    <path id="Path_88289" data-name="Path 88289" d="M11.826,0H9.717a.527.527,0,0,0-.527.527V2.145H7.607a.527.527,0,0,0-.527.527V4.255h7.384V2.672a.527.527,0,0,0-.527-.527H12.353V.527A.527.527,0,0,0,11.826,0Zm0,0" transform="translate(-1.769)" fill="#17ace8"/>
    <path id="Path_88288" data-name="Path 88288" d="M91.008,151.527v3.955l5.159-2.234a1.56,1.56,0,0,1,1.243,0l5.158,2.234v-3.955a.528.528,0,0,0-.526-.531H91.534A.528.528,0,0,0,91.008,151.527Zm0,0" transform="translate(-87.786 -145.698)" fill="#17ace8"/>
  </g>
</svg>
