<svg xmlns="http://www.w3.org/2000/svg" width="24.234" height="23.083" viewBox="0 0 24.234 23.083">
  <g id="Group_7" data-name="Group 7" transform="translate(0 -17.274)">
    <path id="Path_17" data-name="Path 17" d="M23.524,38.906a2.948,2.948,0,0,1-1.585-.407,6.63,6.63,0,0,0-.6-.28l2.4-6.444a1.932,1.932,0,0,0-.085-1.54,1.863,1.863,0,0,0-1.178-.964l-1.651-.441V23.773a1.908,1.908,0,0,0-1.885-1.925H15.677V19.976a2.677,2.677,0,0,0-2.646-2.7H11.2a2.677,2.677,0,0,0-2.646,2.7v1.872H5.3a1.907,1.907,0,0,0-1.885,1.925v5.058l-1.651.441a1.863,1.863,0,0,0-1.178.964A1.932,1.932,0,0,0,.5,31.775l2.4,6.444a6.635,6.635,0,0,0-.6.28,2.949,2.949,0,0,1-1.585.407.725.725,0,0,0,0,1.45A4.3,4.3,0,0,0,2.928,39.8a2.949,2.949,0,0,1,1.585-.407A2.949,2.949,0,0,1,6.1,39.8a4.3,4.3,0,0,0,2.218.559,4.3,4.3,0,0,0,2.218-.559,2.949,2.949,0,0,1,1.585-.407A2.948,2.948,0,0,1,13.7,39.8a4.3,4.3,0,0,0,2.218.559,4.3,4.3,0,0,0,2.218-.559,3.285,3.285,0,0,1,3.169,0,4.3,4.3,0,0,0,2.218.559.725.725,0,0,0,0-1.45ZM9.977,19.976A1.24,1.24,0,0,1,11.2,18.724h1.829a1.24,1.24,0,0,1,1.226,1.252v1.872H9.977Zm-5.144,3.8A.47.47,0,0,1,5.3,23.3H18.936a.47.47,0,0,1,.465.475v4.679l-7.1-1.9a.7.7,0,0,0-.359,0l-7.1,1.9V23.773ZM17.5,38.5a2.949,2.949,0,0,1-1.585.407,2.948,2.948,0,0,1-1.585-.407,4.3,4.3,0,0,0-2.218-.559A4.3,4.3,0,0,0,9.9,38.5a2.949,2.949,0,0,1-1.585.407A2.949,2.949,0,0,1,6.73,38.5a4.3,4.3,0,0,0-2.218-.559q-.1,0-.2,0L1.826,31.26a.446.446,0,0,1,.02-.36.431.431,0,0,1,.275-.225l10-2.668,10,2.668a.431.431,0,0,1,.275.225.446.446,0,0,1,.02.36l-2.487,6.683q-.1,0-.2,0A4.3,4.3,0,0,0,17.5,38.5Z" fill="#1976d2"/>
    <path id="Path_18" data-name="Path 18" d="M119.557,282.053l-6.285-1.7a.674.674,0,0,0-.353,0l-6.285,1.7a.729.729,0,0,0-.5.885.7.7,0,0,0,.853.519L113.1,281.8l6.108,1.657a.672.672,0,0,0,.177.024.7.7,0,0,0,.676-.542A.728.728,0,0,0,119.557,282.053Z" transform="translate(-100.978 -250.334)" fill="#1976d2"/>
  </g>
</svg>
