<svg width="40" height="40" viewBox="0 0 40 40" fill="none" xmlns="http://www.w3.org/2000/svg">
<path d="M3.33366 35.8232C5.49199 35.9832 7.30699 34.1665 8.88866 34.1665C10.4703 34.1665 13.042 35.8415 14.4453 35.8232C16.1287 35.8382 18.1003 34.1665 20.0003 34.1665C21.9003 34.1665 23.872 35.8382 25.5553 35.8232C27.7137 35.9832 29.5287 34.1665 31.112 34.1665C32.6953 34.1665 35.2637 35.8415 36.667 35.8232M10.0003 34.1665C7.63699 31.2232 5.97199 27.4548 5.26199 25.4582C5.03699 24.8248 4.92532 24.5082 5.05532 24.2048C5.18699 23.9032 5.50532 23.7615 6.14699 23.4782L18.6303 17.9482C19.3037 17.6482 19.642 17.4998 20.0003 17.4998C20.3587 17.4998 20.697 17.6498 21.372 17.9498L33.8537 23.4782C34.4937 23.7615 34.8137 23.9032 34.9453 24.2048C35.0753 24.5082 34.962 24.8248 34.7387 25.4582C34.0287 27.4548 32.3637 31.2232 30.0003 34.1665" stroke="white" stroke-width="2.5" stroke-linecap="round" stroke-linejoin="round"/>
<path d="M10.0003 21.6665L10.3603 16.9882C10.5853 14.0682 10.697 12.6082 11.6553 11.7215C12.6137 10.8332 14.0787 10.8332 17.007 10.8332H22.9937C25.922 10.8332 27.387 10.8332 28.3437 11.7215C29.3037 12.6082 29.4153 14.0682 29.6403 16.9882L30.0003 21.6665" stroke="white" stroke-width="2.5" stroke-linecap="round" stroke-linejoin="round"/>
<path d="M14.167 10.8332L14.4537 8.5465C14.7137 6.4615 14.8437 5.41817 15.5537 4.7915C16.262 4.1665 17.312 4.1665 19.4137 4.1665H20.587C22.687 4.1665 23.7387 4.1665 24.447 4.7915C25.157 5.41817 25.287 6.4615 25.547 8.5465L25.8337 10.8332" stroke="white" stroke-width="2.5" stroke-linecap="round" stroke-linejoin="round"/>
</svg>
