<svg xmlns="http://www.w3.org/2000/svg" xmlns:xlink="http://www.w3.org/1999/xlink" width="70" height="70" viewBox="0 0 70 70">
  <defs>
    <linearGradient id="linear-gradient" x1="0.18" y1="1.257" x2="0.761" y2="0.096" gradientUnits="objectBoundingBox">
      <stop offset="0.011" stop-color="#fad46a"/>
      <stop offset="1" stop-color="#fce6aa"/>
    </linearGradient>
    <linearGradient id="linear-gradient-2" x1="-0.08" y1="0.869" x2="1.08" y2="0.131" gradientUnits="objectBoundingBox">
      <stop offset="0.011" stop-color="#606082"/>
      <stop offset="1" stop-color="#83839e"/>
    </linearGradient>
    <linearGradient id="linear-gradient-3" x1="0.216" y1="1.812" x2="0.765" y2="-0.428" gradientUnits="objectBoundingBox">
      <stop offset="0.011" stop-color="#dcdce3"/>
      <stop offset="1" stop-color="#ededf1"/>
    </linearGradient>
    <linearGradient id="linear-gradient-4" x1="0.213" y1="-0.495" x2="0.342" y2="-1.12" xlink:href="#linear-gradient-2"/>
  </defs>
  <g id="vessel" transform="translate(-549 -305)">
    <rect id="Rectangle_15596" data-name="Rectangle 15596" width="70" height="70" rx="6" transform="translate(549 305)" fill="#118ebc"/>
    <path id="Path_59265" data-name="Path 59265" d="M1849.172,185.128l4.608,7.157h5.981L1868,208.267V219.58s-.4,5.529-5.374,5.529H1830.1l-20.341-22.725,18.857-9.615Z" transform="translate(-1249 149.891)" fill="rgba(0,0,0,0.16)"/>
    <g id="Group_8986" data-name="Group 8986" transform="translate(557 197)">
      <g id="_14-cruise" data-name="14-cruise" transform="translate(-0.183 130)">
        <path id="Path_59258" data-name="Path 59258" d="M242.388,145.266l-3.443-4.734A1.291,1.291,0,0,0,237.9,140h-6.887a1.291,1.291,0,0,0-1.213.85l-1.722,4.735a1.291,1.291,0,0,0,1.213,1.732h12.051a1.291,1.291,0,0,0,1.044-2.051Z" transform="translate(-203.816 -139.139)" fill="url(#linear-gradient)"/>
        <path id="Path_59259" data-name="Path 59259" d="M303.747,158.582h-6.456a1.291,1.291,0,0,1,0-2.582h6.456a1.291,1.291,0,1,1,0,2.582Z" transform="translate(-264.487 -153.418)" fill="#cacad5"/>
        <path id="Path_59264" data-name="Path 59264" d="M1.291,0H4.735A1.291,1.291,0,0,1,6.026,1.291V8.178A1.291,1.291,0,0,1,4.735,9.469H1.291A1.291,1.291,0,0,1,0,8.178V1.291A1.291,1.291,0,0,1,1.291,0Z" transform="translate(12.085 0)" fill="url(#linear-gradient-2)"/>
        <path id="Path_59260" data-name="Path 59260" d="M116,160h6.026v1.722H116Z" transform="translate(-103.915 -156.987)" fill="#d97779"/>
        <path id="Path_59261" data-name="Path 59261" d="M81.572,205.235l-5.18-8.608a1.3,1.3,0,0,0-1.11-.627H40.748a1.3,1.3,0,0,0-1.2.812l-3.453,8.608a1.292,1.292,0,0,0,1.2,1.771H80.462a1.291,1.291,0,0,0,1.11-1.956Z" transform="translate(-32.556 -188.595)" fill="url(#linear-gradient-3)"/>
        <g id="Group_8985" data-name="Group 8985" transform="translate(9.742 9.908)">
          <path id="Path_59262" data-name="Path 59262" d="M96.8,222.582H95.291a1.291,1.291,0,0,1,0-2.582H96.8a1.291,1.291,0,1,1,0,2.582Zm6.779,0h-1.722a1.291,1.291,0,1,1,0-2.582h1.722a1.291,1.291,0,1,1,0,2.582Zm7.209,0h-2.044a1.291,1.291,0,0,1,0-2.582h2.044a1.291,1.291,0,1,1,0,2.582Zm6.671,0h-1.722a1.291,1.291,0,0,1,0-2.582h1.722a1.291,1.291,0,1,1,0,2.582Zm7.209,0h-2.044a1.291,1.291,0,1,1,0-2.582h2.044a1.291,1.291,0,1,1,0,2.582Z" transform="translate(-94 -220)" fill="#b8b8c7"/>
        </g>
        <path id="Path_59263" data-name="Path 59263" d="M58.3,260.9a1.294,1.294,0,0,0-1.234-.9H46.716a1.3,1.3,0,0,0-.579.136l-3.179,1.585H5.294a1.291,1.291,0,0,0-1.158,1.869l3.452,6.887a1.3,1.3,0,0,0,1.158.714H48.01a1.3,1.3,0,0,0,1.158-.714c1.294-2.583,6.683-6.745,8.65-8.131A1.29,1.29,0,0,0,58.3,260.9Z" transform="translate(-4 -245.19)" fill="url(#linear-gradient-4)"/>
      </g>
    </g>
  </g>
</svg>
