<svg xmlns="http://www.w3.org/2000/svg" width="18.695" height="18.003" viewBox="0 0 18.695 18.003">
  <g id="Group_16989" data-name="Group 16989" transform="translate(-79 -831)">
    <g id="Group_16988" data-name="Group 16988" transform="translate(78.999 831)">
      <path id="Subtraction_13" data-name="Subtraction 13" d="M-3725.647-813h0a.552.552,0,0,0-.087-.009c-.054,0-.127-.008-.212-.021a5.474,5.474,0,0,0,1.364-.316A1.78,1.78,0,0,1-3725.647-813Zm-4.219,0a1.812,1.812,0,0,1-1.444-.732c-.054-.06-.11-.122-.16-.168v-2.247a5.506,5.506,0,0,0,2.8,2.7A1.786,1.786,0,0,1-3729.867-813Zm-4.219,0a1.786,1.786,0,0,1-1.487-.8.744.744,0,0,0-.617-.308.745.745,0,0,0-.618.308,1.762,1.762,0,0,1-1.445.8h-.052a1.842,1.842,0,0,1-1.522-.8.77.77,0,0,0-.607-.327h-.027a.56.56,0,0,1-.538-.517.507.507,0,0,1,.144-.376.544.544,0,0,1,.374-.162,1.809,1.809,0,0,1,1.529.8.791.791,0,0,0,.383.264l-1.354-4.571a.531.531,0,0,1,.3-.633l7.1-3.029v8.5A1.9,1.9,0,0,1-3734.086-813Zm-.022-6.365a.528.528,0,0,0-.527.528.528.528,0,0,0,.527.528.528.528,0,0,0,.528-.528A.528.528,0,0,0-3734.108-819.362Zm2.639-1.5h0v-1.489l.751.322A5.5,5.5,0,0,0-3731.468-820.859Zm3.163-5.886h-7.384v-1.583a.528.528,0,0,1,.528-.528h1.582v-1.617a.528.528,0,0,1,.528-.528h2.11a.528.528,0,0,1,.528.528v1.617h1.582a.528.528,0,0,1,.528.528v1.582Z" transform="translate(3741 831)" fill="#90a4ae"/>
      <path id="Path_88289" data-name="Path 88289" d="M11.826,0H9.717a.527.527,0,0,0-.527.527V2.145H7.607a.527.527,0,0,0-.527.527V4.255h7.384V2.672a.527.527,0,0,0-.527-.527H12.353V.527A.527.527,0,0,0,11.826,0Zm0,0" transform="translate(-1.769)" fill="#90a4ae"/>
      <path id="Subtraction_12" data-name="Subtraction 12" d="M-3741-826.514v-3.955a.529.529,0,0,1,.526-.53h10.51a.529.529,0,0,1,.526.53v1.178c-.088,0-.182-.007-.282-.007a5.442,5.442,0,0,0-3.412,1.186l-1.466-.635a1.555,1.555,0,0,0-.622-.13,1.546,1.546,0,0,0-.621.13l-5.159,2.233Z" transform="translate(3744.221 836.298)" fill="#90a4ae"/>
    </g>
    <g id="settings" transform="translate(64.103 839.003)">
      <path id="Path_88372" data-name="Path 88372" d="M25.809,6.611a1.1,1.1,0,0,0,1.5.4h0l.163-.094a3.3,3.3,0,0,0,1.046.6v.188a1.1,1.1,0,0,0,2.2,0V7.525a3.3,3.3,0,0,0,1.046-.6l.164.095a1.1,1.1,0,1,0,1.1-1.91h0l-.163-.094a3.343,3.343,0,0,0,0-1.208l.163-.094a1.1,1.1,0,1,0-1.1-1.91l-.163.094a3.3,3.3,0,0,0-1.047-.6V1.1a1.1,1.1,0,0,0-2.2,0V1.29a3.3,3.3,0,0,0-1.046.6l-.164-.1a1.1,1.1,0,1,0-1.1,1.91h0l.163.094a3.343,3.343,0,0,0,0,1.208l-.163.094A1.1,1.1,0,0,0,25.809,6.611Zm3.817-3.673a1.469,1.469,0,1,1-1.469,1.469A1.469,1.469,0,0,1,29.626,2.938Z" transform="translate(0)" fill="#17ace8"/>
    </g>
  </g>
</svg>
