<svg xmlns="http://www.w3.org/2000/svg" xmlns:xlink="http://www.w3.org/1999/xlink" width="18" height="18" viewBox="0 0 18 18">
  <defs>
    <clipPath id="clip-path">
      <rect id="Rectangle_16097" data-name="Rectangle 16097" width="18" height="18" transform="translate(3614 598)" fill="#fff" stroke="#707070" stroke-width="1"/>
    </clipPath>
  </defs>
  <g id="Mask_Group_28" data-name="Mask Group 28" transform="translate(-3614 -598)" clip-path="url(#clip-path)">
    <path id="newspaper_2_" data-name="newspaper (2)" d="M14.25,0H7.5A3.754,3.754,0,0,0,3.75,3.75V4.5H3.375A3.379,3.379,0,0,0,0,7.875v7.5A2.628,2.628,0,0,0,2.624,18H14.25A3.754,3.754,0,0,0,18,14.25V3.75A3.754,3.754,0,0,0,14.25,0ZM3.75,15.375a1.125,1.125,0,0,1-2.25,0v-7.5A1.878,1.878,0,0,1,3.375,6H3.75ZM16.5,14.25a2.253,2.253,0,0,1-2.25,2.25H5a2.615,2.615,0,0,0,.253-1.125V3.75A2.253,2.253,0,0,1,7.5,1.5h6.75A2.253,2.253,0,0,1,16.5,3.75Zm-1.5-9a.75.75,0,0,1-.75.75H12a.75.75,0,0,1,0-1.5h2.25A.75.75,0,0,1,15,5.25Zm0,3a.75.75,0,0,1-.75.75H7.5a.75.75,0,0,1,0-1.5h6.75A.75.75,0,0,1,15,8.25Zm0,3a.75.75,0,0,1-.75.75H7.5a.75.75,0,0,1,0-1.5h6.75A.75.75,0,0,1,15,11.25Zm0,3a.75.75,0,0,1-.75.75H7.5a.75.75,0,0,1,0-1.5h6.75A.75.75,0,0,1,15,14.25Zm-8.25-9V3.75A.75.75,0,0,1,7.5,3H9a.75.75,0,0,1,.75.75v1.5A.75.75,0,0,1,9,6H7.5A.75.75,0,0,1,6.75,5.25Z" transform="translate(3614 598)" fill="#90a4ae"/>
  </g>
</svg>
