<svg xmlns="http://www.w3.org/2000/svg" width="32" height="24" viewBox="0 0 32 24">
  <g id="Group_9" data-name="Group 9" transform="translate(0 -61)">
    <path id="Path_21" data-name="Path 21" d="M31.062,83.154H29.893a6.4,6.4,0,0,1,.382-4.414l1.638-3.508a.925.925,0,0,0-.852-1.309h-4.75v-.985a.93.93,0,0,0-.938-.923h-.937V69.185a.93.93,0,0,0-.938-.923H16a.93.93,0,0,0-.937.923v2.831h-.937a.93.93,0,0,0-.937.923v2.831H11.312V66.538a.93.93,0,0,0-.937-.923h-1V61.923a.938.938,0,0,0-1.875,0v3.692H6.625a.93.93,0,0,0-.937.923v2.769H2.875a.93.93,0,0,0-.937.923v5.538h-1A.93.93,0,0,0,0,76.692v1.866a2.775,2.775,0,0,0,2.793,2.75h.082v1.846H.937A.923.923,0,1,0,.937,85H31.062a.923.923,0,1,0,0-1.846ZM9.437,69.308H7.562V67.462H9.437ZM3.812,71.154H9.437v4.554H3.812Zm15,4.615V73.862h1.875v1.908Zm3.75-1.908h1.875v.3c-.23.2-.229.348-.892,1.61h-.983Zm0-1.846H20.687V70.108h1.875Zm-5.625-1.908h1.875v1.908H16.937Zm-1.875,3.754h1.875v1.908H15.062Zm-11.25,5.6H2.793a.912.912,0,0,1-.918-.9v-.943H24.124a.943.943,0,0,0,.839-.51l.678-1.336H29.6l-1.027,2.2a8.205,8.205,0,0,0-.606,5.186H4.75V80.385A.93.93,0,0,0,3.812,79.462Z" transform="translate(0 0)" fill="#1976d2"/>
    <circle id="Ellipse_1" data-name="Ellipse 1" cx="0.948" cy="0.948" r="0.948" transform="translate(24.42 78.561)" fill="#1976d2"/>
  </g>
</svg>
