<svg xmlns="http://www.w3.org/2000/svg" width="23.995" height="23.995" viewBox="0 0 23.995 23.995">
  <g id="Group_8" data-name="Group 8" transform="translate(-0.501)">
    <path id="Path_19" data-name="Path 19" d="M3.277,22.15a2.461,2.461,0,0,0-2.087-1.065A.7.7,0,0,0,1.2,22.491h.015a1.059,1.059,0,0,1,.889.439,2.393,2.393,0,0,0,3.982,0,.987.987,0,0,1,1.642,0,2.393,2.393,0,0,0,3.982,0,.987.987,0,0,1,1.642,0,2.393,2.393,0,0,0,3.982,0,.987.987,0,0,1,1.642,0,2.393,2.393,0,0,0,3.982,0,1.062,1.062,0,0,1,.847-.439.7.7,0,0,0-.014-1.406h-.015A2.472,2.472,0,0,0,21.79,22.15a.972.972,0,0,1-.821.439,1.019,1.019,0,0,1-.132-.009L23.016,15a.7.7,0,0,0-.4-.84l-2.386-1.022V7.78a.7.7,0,0,0-.7-.7H17.419V3.515a.7.7,0,0,0-.7-.7H14.607V.7a.7.7,0,0,0-.7-.7H11.092a.7.7,0,0,0-.7.7V2.812H8.281a.7.7,0,0,0-.7.7V7.077H5.469a.7.7,0,0,0-.7.7v5.361L2.38,14.163a.7.7,0,0,0-.4.84l2.181,7.583-.064,0a.972.972,0,0,1-.821-.439Zm18.217-6.938-1.84,6.4a2.393,2.393,0,0,0-3.487.541.987.987,0,0,1-1.642,0,2.386,2.386,0,0,0-1.323-.97V11.658l8.292,3.554ZM11.8,1.406H13.2V2.812H11.8ZM8.984,4.218h7.03V7.077H8.984ZM6.172,8.483H18.825v4.056l-6.05-2.593a.7.7,0,0,0-.554,0l-6.05,2.593ZM3.5,15.211,11.8,11.658V21.2a2.387,2.387,0,0,0-1.253.949.987.987,0,0,1-1.642,0,2.392,2.392,0,0,0-3.543-.493Zm0,0" transform="translate(0)" fill="#1976d2"/>
    <path id="Path_20" data-name="Path 20" d="M188.77,301.727a.727.727,0,1,1-.727-.727A.727.727,0,0,1,188.77,301.727Zm-5.816,0a.727.727,0,1,1-.727-.727A.727.727,0,0,1,182.954,301.727Zm0,0" transform="translate(-172.637 -286.923)" fill="#1976d2"/>
  </g>
</svg>
