<svg xmlns="http://www.w3.org/2000/svg" width="24" height="24" viewBox="0 0 24 24">
  <g id="Group_11" data-name="Group 11" transform="translate(-0.021)">
    <circle id="Ellipse_2" data-name="Ellipse 2" cx="0.701" cy="0.701" r="0.701" transform="translate(8.508 7.079)" fill="#1976d2"/>
    <circle id="Ellipse_3" data-name="Ellipse 3" cx="0.701" cy="0.701" r="0.701" transform="translate(11.321 7.079)" fill="#1976d2"/>
    <circle id="Ellipse_4" data-name="Ellipse 4" cx="0.701" cy="0.701" r="0.701" transform="translate(14.134 7.079)" fill="#1976d2"/>
    <path id="Path_23" data-name="Path 23" d="M23.969,455.755a.7.7,0,0,0-.917-.373,4.483,4.483,0,0,0-.791.41,3.182,3.182,0,0,1-3.486,0,4.6,4.6,0,0,0-5,0,3.1,3.1,0,0,1-3.439,0,4.6,4.6,0,0,0-5,0,3.182,3.182,0,0,1-3.486,0,4.52,4.52,0,0,0-.875-.452.7.7,0,1,0-.507,1.308,3.113,3.113,0,0,1,.6.311,4.607,4.607,0,0,0,5.046,0,3.1,3.1,0,0,1,3.439,0,4.505,4.505,0,0,0,5,0,3.1,3.1,0,0,1,3.439,0,4.606,4.606,0,0,0,5.046,0,3.107,3.107,0,0,1,.545-.289A.7.7,0,0,0,23.969,455.755Z" transform="translate(0 -433.715)" fill="#1976d2"/>
    <path id="Path_24" data-name="Path 24" d="M23.969,19.215a.7.7,0,0,0-.917-.384,4.517,4.517,0,0,0-.791.421,3.179,3.179,0,0,1-2.922.3l1.793-5.934a.7.7,0,0,0-.451-.871l-2.332-.777V6.377a2.113,2.113,0,0,0-1.406-1.989V.7a.7.7,0,0,0-.7-.7H13.428a.7.7,0,0,0-.7.7V4.267H11.318V.7a.7.7,0,0,0-.7-.7H7.8a.7.7,0,0,0-.7.7V4.388A2.113,2.113,0,0,0,5.693,6.377v5.589l-2.332.777a.7.7,0,0,0-.451.871l1.8,5.959a3.179,3.179,0,0,1-2.857-.321A4.513,4.513,0,0,0,.978,18.8.7.7,0,0,0,.471,20.11a3.107,3.107,0,0,1,.6.312,4.593,4.593,0,0,0,5.046,0,3.09,3.09,0,0,1,3.439,0,4.493,4.493,0,0,0,5,0,3.09,3.09,0,0,1,3.439,0,4.6,4.6,0,0,0,5.046,0,3.1,3.1,0,0,1,.545-.29.7.7,0,0,0,.384-.917ZM14.131,1.407h1.406v2.86H14.131Zm-5.625,0H9.912v2.86H8.506Zm2.812,18.277a3.107,3.107,0,0,1-.981-.432A4.491,4.491,0,0,0,5.975,18.9L4.455,13.861l2.15-.717h0l4.712-1.571v8.111Zm.919-9.756a.706.706,0,0,0-.434,0h0L7.1,11.5V6.377a.7.7,0,0,1,.7-.7H16.24a.7.7,0,0,1,.7.7V11.5l-4.7-1.567-.007,0Zm1.538,9.324a3.1,3.1,0,0,1-1.051.449V11.573l4.711,1.571h0l2.15.717-1.514,5.008a4.491,4.491,0,0,0-4.3.382Z" fill="#1976d2"/>
  </g>
</svg>
