<svg id="Group_23" data-name="Group 23" xmlns="http://www.w3.org/2000/svg" width="25.494" height="25.494" viewBox="0 0 25.494 25.494">
  <path id="Path_51" data-name="Path 51" d="M19.462,10.566a5.243,5.243,0,0,0-6.035-4.473,5.209,5.209,0,0,0-7.537,7.188A4.484,4.484,0,0,0,9.03,20.963H20.256a5.229,5.229,0,1,0-.794-10.4ZM9.754,6.075a3.715,3.715,0,0,1,2.008.589A5.228,5.228,0,0,0,9.083,12a4.473,4.473,0,0,0-1.947.418A3.714,3.714,0,0,1,9.754,6.075Zm10.5,13.394H9.03a2.988,2.988,0,1,1,.849-5.852.748.748,0,0,0,.908-.991A3.741,3.741,0,1,1,18,11.469a.748.748,0,0,0,1,.746,3.736,3.736,0,1,1,1.254,7.254ZM9.306,22.531a.749.749,0,0,0-1,.347l-.748,1.544a.748.748,0,0,0,1.347.651l.748-1.544A.746.746,0,0,0,9.306,22.531Zm3.792,0a.749.749,0,0,0-1,.347l-.748,1.544a.748.748,0,0,0,1.347.651l.748-1.544A.746.746,0,0,0,13.1,22.531Zm3.792,0a.749.749,0,0,0-1,.347l-.748,1.544a.748.748,0,0,0,1.347.651l.748-1.544A.746.746,0,0,0,16.89,22.531Zm3.792,0a.749.749,0,0,0-1,.347l-.748,1.544a.748.748,0,0,0,1.347.651l.748-1.544A.746.746,0,0,0,20.681,22.531ZM2.993,9.76a.748.748,0,0,0-.748-.747H.748a.747.747,0,1,0,0,1.494h1.5A.748.748,0,0,0,2.993,9.76ZM9.729,3.037a.748.748,0,0,0,.748-.747V.747a.748.748,0,0,0-1.5,0V2.29A.748.748,0,0,0,9.729,3.037Zm-4.4.643a.748.748,0,0,0,1.3-.747L5.852,1.6a.748.748,0,0,0-1.3.747Zm-3.8,2.254,1.339.772a.747.747,0,1,0,.748-1.294L2.273,4.64a.747.747,0,1,0-.748,1.294Zm0,0" fill="#257dd4"/>
  <path id="Path_52" data-name="Path 52" d="M25.282,35.823,23.94,36.6a.75.75,0,0,0,.75,1.3l1.343-.775a.75.75,0,0,0-.75-1.3Zm10.248-9.017a.75.75,0,0,0,1.025-.274l.775-1.343a.75.75,0,1,0-1.3-.75l-.775,1.343A.75.75,0,0,0,35.531,26.806Zm0,0" transform="translate(-22.386 -22.86)" fill="#257dd4"/>
</svg>
