<svg xmlns="http://www.w3.org/2000/svg" width="16.862" height="19.136" viewBox="0 0 16.862 19.136">
  <g id="Group_17070" data-name="Group 17070" transform="translate(-1053 -434)">
    <g id="svgexport-18_13_" data-name="svgexport-18 (13)" transform="translate(1008.485 418)">
      <path id="Path_88488" data-name="Path 88488" d="M55.277,35.136H50.616v-.511a.413.413,0,0,1,.45-.359h3.761a.413.413,0,0,1,.45.359Zm-3.408-1.508V32.054a.969.969,0,0,1,.967-.967h.221a.969.969,0,0,1,.967.967v1.574Zm3.98-4.883h-5.8a.529.529,0,0,0-.527.527V32.9a.529.529,0,0,0,.527.527H51.23V32.054a1.607,1.607,0,0,1,1.605-1.605h.221a1.607,1.607,0,0,1,1.605,1.605v1.374h1.187a.529.529,0,0,0,.527-.527V29.273A.529.529,0,0,0,55.849,28.745Zm-2.9-5.17a1.571,1.571,0,1,0,1.571,1.571A1.571,1.571,0,0,0,52.946,23.575Zm-2.275,4.532a3.107,3.107,0,0,1,4.551,0Z" fill="#17ace8" fill-rule="evenodd"/>
    </g>
    <g id="svgexport-18_13_2" data-name="svgexport-18 (13)" transform="translate(1008.485 418)">
      <path id="Path_88488-2" data-name="Path 88488" d="M48.105,16.987h1.029a.549.549,0,0,1,.547.541L47.558,19.3V17.534A.549.549,0,0,1,48.105,16.987Zm4.841,1.456,6.53,5.45a1.216,1.216,0,0,0,1.6-.065.976.976,0,0,0-.071-1.464l-7.3-6.09a1.214,1.214,0,0,0-1.533,0l-7.3,6.09a.976.976,0,0,0-.071,1.464,1.216,1.216,0,0,0,1.6.065Zm-6.212,6.011v6.618a1.077,1.077,0,0,0,1.075,1.075h1.07V29.273a1.168,1.168,0,0,1,.965-1.148,3.762,3.762,0,0,1,1.62-1.341,2.209,2.209,0,1,1,2.965,0,3.762,3.762,0,0,1,1.62,1.341,1.168,1.168,0,0,1,.965,1.148v2.873h.911A1.077,1.077,0,0,0,59,31.071V24.326l-6.054-5.053-6.121,5.109Q46.781,24.419,46.734,24.453Z" fill="#90a4ae" fill-rule="evenodd"/>
    </g>
  </g>
</svg>
